<?xml version="1.0" standalone="no"?>
<!DOCTYPE svg PUBLIC "-//W3C//DTD SVG 1.1//EN" "http://www.w3.org/Graphics/SVG/1.1/DTD/svg11.dtd" >
<svg>
<metadata>
Created by FontForge 20120731 at Thu Aug 29 16:02:37 2019
 By www-data
Digitized data copyright (c) 2012-2015, The Mozilla Foundation and Telefonica S.A.
</metadata>
<defs>
<font id="FiraMono-Regular" horiz-adv-x="600" >
  <font-face 
    font-family="Fira Mono"
    font-weight="400"
    font-stretch="normal"
    units-per-em="1000"
    panose-1="2 11 5 9 5 0 0 2 0 4"
    ascent="800"
    descent="-200"
    x-height="527"
    cap-height="689"
    bbox="-625 -500 1192 1050"
    underline-thickness="50"
    underline-position="-50"
    unicode-range="U+000D-1F310"
  />
<missing-glyph 
d="M510 1050v-1400h-420v1400h420zM456 998h-311v-1296h311v1296zM299.5 155.5q-7.5 -6.5 -17.5 -6.5t-17.5 6.5t-7.5 17.5v84q53 3 72 19.5t19 57.5q0 33 -13 51t-48 18q-29 0 -52 -11q-7 -3 -13 -3q-11 0 -17.5 6.5t-6.5 16.5q0 19 29.5 29t63.5 10q60 0 85.5 -32
t25.5 -83q0 -53 -22.5 -82t-72.5 -36v-45q0 -11 -7.5 -17.5zM257 110q10 10 25 10t25 -10t10 -25q0 -16 -10 -26.5t-25 -10.5t-25 10.5t-10 26.5q0 15 10 25z" />
    <glyph glyph-name=".notdef" 
d="M510 1050v-1400h-420v1400h420zM456 998h-311v-1296h311v1296zM299.5 155.5q-7.5 -6.5 -17.5 -6.5t-17.5 6.5t-7.5 17.5v84q53 3 72 19.5t19 57.5q0 33 -13 51t-48 18q-29 0 -52 -11q-7 -3 -13 -3q-11 0 -17.5 6.5t-6.5 16.5q0 19 29.5 29t63.5 10q60 0 85.5 -32
t25.5 -83q0 -53 -22.5 -82t-72.5 -36v-45q0 -11 -7.5 -17.5zM257 110q10 10 25 10t25 -10t10 -25q0 -16 -10 -26.5t-25 -10.5t-25 10.5t-10 26.5q0 15 10 25z" />
    <glyph glyph-name="null" horiz-adv-x="0" 
 />
    <glyph glyph-name="nonmarkingreturn" unicode="&#xd;" 
 />
    <glyph glyph-name="space" unicode=" " 
 />
    <glyph glyph-name="A" unicode="A" 
d="M161 176l-55 -176h-86l225 689h110l224 -689h-90l-55 176h-273zM411 248l-113 367l-114 -367h227z" />
    <glyph glyph-name="Aacute" unicode="&#xc1;" 
d="M161 176l-55 -176h-86l225 689h110l224 -689h-90l-55 176h-273zM411 248l-113 367l-114 -367h227zM420 834l-213 -79l-22 46l198 105z" />
    <glyph glyph-name="Abreve" unicode="&#x102;" 
d="M161 176l-55 -176h-86l225 689h110l224 -689h-90l-55 176h-273zM411 248l-113 367l-114 -367h227zM198 791.5q-42 32.5 -47 86.5l57 13q25 -67 90 -67q34 0 58 18t35 49l58 -13q-6 -54 -49 -86.5t-102 -32.5q-58 0 -100 32.5z" />
    <glyph glyph-name="Acircumflex" unicode="&#xc2;" 
d="M161 176l-55 -176h-86l225 689h110l224 -689h-90l-55 176h-273zM411 248l-113 367l-114 -367h227zM463 803l-37 -43l-126 81l-125 -81l-38 43l135 107h57z" />
    <glyph glyph-name="Adieresis" unicode="&#xc4;" 
d="M161 176l-55 -176h-86l225 689h110l224 -689h-90l-55 176h-273zM411 248l-113 367l-114 -367h227zM157.5 783q-15.5 15 -15.5 38t15.5 38.5t39.5 15.5q23 0 38.5 -15.5t15.5 -38.5t-15.5 -38t-38.5 -15q-24 0 -39.5 15zM364.5 783q-15.5 15 -15.5 38t15.5 38.5t38.5 15.5
t39 -15.5t16 -38.5t-16 -38t-39 -15t-38.5 15z" />
    <glyph glyph-name="Agrave" unicode="&#xc0;" 
d="M161 176l-55 -176h-86l225 689h110l224 -689h-90l-55 176h-273zM411 248l-113 367l-114 -367h227zM416 801l-26 -46l-205 82l46 72z" />
    <glyph glyph-name="Amacron" unicode="&#x100;" 
d="M161 176l-55 -176h-86l225 689h110l224 -689h-90l-55 176h-273zM411 248l-113 367l-114 -367h227zM165 795v64h269v-64h-269z" />
    <glyph glyph-name="Aogonek" unicode="&#x104;" 
d="M441 -58q-26 -27 -26 -56q0 -24 13 -36t43 -12q27 0 61 7l-8 -68q-42 -6 -64 -6q-56 0 -89 27.5t-33 70.5q0 94 145 148l-49 159h-273l-55 -176h-86l225 689h110l224 -689h-40q-72 -31 -98 -58zM411 248l-113 367l-114 -367h227z" />
    <glyph glyph-name="Aring" unicode="&#xc5;" 
d="M161 176l-55 -176h-86l225 689h110l224 -689h-90l-55 176h-273zM411 248l-113 367l-114 -367h227zM380 913.5q31 -29.5 31 -73.5q0 -43 -31.5 -72.5t-78.5 -29.5q-48 0 -80 29.5t-32 72.5q0 44 32 73.5t80 29.5t79 -29.5zM261 881.5q-15 -15.5 -15 -41.5t15 -41.5
t40 -15.5t39 15.5t14 41.5t-14 41.5t-39 15.5t-40 -15.5z" />
    <glyph glyph-name="Atilde" unicode="&#xc3;" 
d="M161 176l-55 -176h-86l225 689h110l224 -689h-90l-55 176h-273zM411 248l-113 367l-114 -367h227zM324.5 785q-15.5 7 -34.5 20q-15 11 -26 16t-22 5q-16 0 -28 -11t-25 -35l-53 27q41 84 107 84q20 0 35.5 -7t33.5 -20q16 -11 26 -16t21 -5q15 0 27 10.5t26 33.5l53 -27
q-38 -82 -106 -82q-19 0 -34.5 7z" />
    <glyph glyph-name="AE" unicode="&#xc6;" 
d="M126 175l-49 -175h-89l202 689h376l-10 -71h-236l51 -233h186v-71h-173l52 -243h171v-71h-241l-36 175h-204zM314 248l-73 372l-93 -372h166z" />
    <glyph glyph-name="AEacute" unicode="&#x1fc;" 
d="M126 175l-49 -175h-89l202 689h376l-10 -71h-236l51 -233h186v-71h-173l52 -243h171v-71h-241l-36 175h-204zM314 248l-73 372l-93 -372h166zM481 834l-213 -79l-22 46l198 105z" />
    <glyph glyph-name="B" unicode="B" 
d="M465.5 46q-74.5 -46 -183.5 -46h-186v689h170q105 0 174.5 -40.5t69.5 -133.5q0 -62 -37 -99.5t-92 -50.5q159 -27 159 -169q0 -104 -74.5 -150zM386 592.5q-35 25.5 -100 25.5h-103v-222h111q127 0 127 114q0 57 -35 82.5zM408.5 295q-39.5 29 -108.5 29h-117v-252h114
q63 0 107 26t44 95q0 73 -39.5 102z" />
    <glyph glyph-name="C" unicode="C" 
d="M468 683.5q46 -16.5 90 -50.5l-49 -57q-61 51 -145 51q-93 0 -151.5 -67.5t-58.5 -214.5q0 -146 57 -214t152 -68q52 0 89 15t71 42l45 -56q-77 -75 -206 -75q-85 0 -153 41.5t-107 121.5t-39 193q0 112 39.5 192.5t107 121.5t148.5 41q64 0 110 -16.5z" />
    <glyph glyph-name="Cacute" unicode="&#x106;" 
d="M468 683.5q46 -16.5 90 -50.5l-49 -57q-61 51 -145 51q-93 0 -151.5 -67.5t-58.5 -214.5q0 -146 57 -214t152 -68q52 0 89 15t71 42l45 -56q-77 -75 -206 -75q-85 0 -153 41.5t-107 121.5t-39 193q0 112 39.5 192.5t107 121.5t148.5 41q64 0 110 -16.5zM485 834l-213 -79
l-22 46l198 105z" />
    <glyph glyph-name="Ccaron" unicode="&#x10c;" 
d="M468 683.5q46 -16.5 90 -50.5l-49 -57q-61 51 -145 51q-93 0 -151.5 -67.5t-58.5 -214.5q0 -146 57 -214t152 -68q52 0 89 15t71 42l45 -56q-77 -75 -206 -75q-85 0 -153 41.5t-107 121.5t-39 193q0 112 39.5 192.5t107 121.5t148.5 41q64 0 110 -16.5zM528 862
l-134 -108h-57l-135 108l38 43l125 -81l126 81z" />
    <glyph glyph-name="Ccedilla" unicode="&#xc7;" 
d="M439.5 -84.5q23.5 -23.5 23.5 -55.5q0 -47 -35.5 -72.5t-86.5 -25.5q-30 0 -57.5 6.5t-47.5 17.5l27 48q30 -16 67 -16q60 0 60 41q0 26 -21 35t-65 9l6 90q-72 12 -128 56.5t-87.5 119.5t-31.5 176q0 112 39.5 192.5t107 121.5t148.5 41q64 0 110 -16.5t90 -50.5
l-49 -57q-61 51 -145 51q-93 0 -151.5 -67.5t-58.5 -214.5q0 -146 57 -214t152 -68q52 0 89 15t71 42l45 -56q-74 -72 -198 -75v-46q46 -4 69.5 -27.5z" />
    <glyph glyph-name="Ccircumflex" unicode="&#x108;" 
d="M468 683.5q46 -16.5 90 -50.5l-49 -57q-61 51 -145 51q-93 0 -151.5 -67.5t-58.5 -214.5q0 -146 57 -214t152 -68q52 0 89 15t71 42l45 -56q-77 -75 -206 -75q-85 0 -153 41.5t-107 121.5t-39 193q0 112 39.5 192.5t107 121.5t148.5 41q64 0 110 -16.5zM528 803l-37 -43
l-126 81l-125 -81l-38 43l135 107h57z" />
    <glyph glyph-name="Cdotaccent" unicode="&#x10a;" 
d="M468 683.5q46 -16.5 90 -50.5l-49 -57q-61 51 -145 51q-93 0 -151.5 -67.5t-58.5 -214.5q0 -146 57 -214t152 -68q52 0 89 15t71 42l45 -56q-77 -75 -206 -75q-85 0 -153 41.5t-107 121.5t-39 193q0 112 39.5 192.5t107 121.5t148.5 41q64 0 110 -16.5zM408.5 876
q17.5 -17 17.5 -42q0 -26 -17.5 -43t-44.5 -17t-43.5 17t-16.5 43q0 25 16.5 42t43.5 17t44.5 -17z" />
    <glyph glyph-name="D" unicode="D" 
d="M463 76q-90 -76 -222 -76h-158v689h147q145 0 234 -73t89 -268q0 -196 -90 -272zM429.5 519.5q-30.5 59.5 -75.5 79t-103 19.5h-81v-548h82q89 0 148.5 61.5t59.5 216.5q0 112 -30.5 171.5z" />
    <glyph glyph-name="Eth" unicode="&#xd0;" 
d="M473 616q89 -73 89 -268q0 -196 -89.5 -272t-221.5 -76h-158v320h-73v66h73v303h147q144 0 233 -73zM410.5 131.5q59.5 61.5 59.5 216.5q0 161 -59 215.5t-150 54.5h-81v-232h158v-66h-158v-250h82q89 0 148.5 61.5z" />
    <glyph glyph-name="Dcaron" unicode="&#x10e;" 
d="M463 76q-90 -76 -222 -76h-158v689h147q145 0 234 -73t89 -268q0 -196 -90 -272zM429.5 519.5q-30.5 59.5 -75.5 79t-103 19.5h-81v-548h82q89 0 148.5 61.5t59.5 216.5q0 112 -30.5 171.5zM447 862l-134 -108h-57l-135 108l38 43l125 -81l126 81z" />
    <glyph glyph-name="Dcroat" unicode="&#x110;" 
d="M473 616q89 -73 89 -268q0 -196 -89.5 -272t-221.5 -76h-158v320h-73v66h73v303h147q144 0 233 -73zM410.5 131.5q59.5 61.5 59.5 216.5q0 161 -59 215.5t-150 54.5h-81v-232h158v-66h-158v-250h82q89 0 148.5 61.5z" />
    <glyph glyph-name="E" unicode="E" 
d="M212 385h256v-71h-256v-244h314v-70h-400v689h391l-10 -72h-295v-232z" />
    <glyph glyph-name="Eacute" unicode="&#xc9;" 
d="M212 385h256v-71h-256v-244h314v-70h-400v689h391l-10 -72h-295v-232zM441 834l-213 -79l-22 46l198 105z" />
    <glyph glyph-name="Ebreve" unicode="&#x114;" 
d="M212 385h256v-71h-256v-244h314v-70h-400v689h391l-10 -72h-295v-232zM219 791.5q-42 32.5 -47 86.5l57 13q25 -67 90 -67q34 0 58 18t35 49l58 -13q-6 -54 -49 -86.5t-102 -32.5q-58 0 -100 32.5z" />
    <glyph glyph-name="Ecaron" unicode="&#x11a;" 
d="M212 385h256v-71h-256v-244h314v-70h-400v689h391l-10 -72h-295v-232zM484 862l-134 -108h-57l-135 108l38 43l125 -81l126 81z" />
    <glyph glyph-name="Ecircumflex" unicode="&#xca;" 
d="M212 385h256v-71h-256v-244h314v-70h-400v689h391l-10 -72h-295v-232zM484 803l-37 -43l-126 81l-125 -81l-38 43l135 107h57z" />
    <glyph glyph-name="Edieresis" unicode="&#xcb;" 
d="M212 385h256v-71h-256v-244h314v-70h-400v689h391l-10 -72h-295v-232zM178.5 783q-15.5 15 -15.5 38t15.5 38.5t39.5 15.5q23 0 38.5 -15.5t15.5 -38.5t-15.5 -38t-38.5 -15q-24 0 -39.5 15zM385.5 783q-15.5 15 -15.5 38t15.5 38.5t38.5 15.5t39 -15.5t16 -38.5t-16 -38
t-39 -15t-38.5 15z" />
    <glyph glyph-name="Edotaccent" unicode="&#x116;" 
d="M212 385h256v-71h-256v-244h314v-70h-400v689h391l-10 -72h-295v-232zM364.5 876q17.5 -17 17.5 -42q0 -26 -17.5 -43t-44.5 -17t-43.5 17t-16.5 43q0 25 16.5 42t43.5 17t44.5 -17z" />
    <glyph glyph-name="Egrave" unicode="&#xc8;" 
d="M212 385h256v-71h-256v-244h314v-70h-400v689h391l-10 -72h-295v-232zM437 801l-26 -46l-205 82l46 72z" />
    <glyph glyph-name="Emacron" unicode="&#x112;" 
d="M212 385h256v-71h-256v-244h314v-70h-400v689h391l-10 -72h-295v-232zM186 795v64h269v-64h-269z" />
    <glyph glyph-name="Eogonek" unicode="&#x118;" 
d="M526 70v-70h-58q-72 -31 -98 -58t-26 -56q0 -24 13 -36t43 -12q27 0 61 7l-8 -68q-42 -6 -64 -6q-56 0 -89 27.5t-33 70.5q0 80 105 131h-246v689h391l-10 -72h-295v-232h256v-71h-256v-244h314z" />
    <glyph glyph-name="F" unicode="F" 
d="M225 376h270v-70h-270v-306h-87v689h406l-10 -72h-309v-241z" />
    <glyph glyph-name="G" unicode="G" 
d="M116.5 79.5q-71.5 90.5 -71.5 265.5q0 114 40 194t106 120.5t143 40.5q65 0 109 -18t87 -58l-52 -54q-32 29 -66.5 43t-77.5 14q-84 0 -140 -67t-56 -215q0 -147 45.5 -215t137.5 -68q73 0 131 33v209h-135l-10 73h232v-328q-52 -29 -104.5 -44.5t-120.5 -15.5
q-126 0 -197.5 90.5z" />
    <glyph glyph-name="Gbreve" unicode="&#x11e;" 
d="M116.5 79.5q-71.5 90.5 -71.5 265.5q0 114 40 194t106 120.5t143 40.5q65 0 109 -18t87 -58l-52 -54q-32 29 -66.5 43t-77.5 14q-84 0 -140 -67t-56 -215q0 -147 45.5 -215t137.5 -68q73 0 131 33v209h-135l-10 73h232v-328q-52 -29 -104.5 -44.5t-120.5 -15.5
q-126 0 -197.5 90.5zM228 791.5q-42 32.5 -47 86.5l57 13q25 -67 90 -67q34 0 58 18t35 49l58 -13q-6 -54 -49 -86.5t-102 -32.5q-58 0 -100 32.5z" />
    <glyph glyph-name="Gcircumflex" unicode="&#x11c;" 
d="M116.5 79.5q-71.5 90.5 -71.5 265.5q0 114 40 194t106 120.5t143 40.5q65 0 109 -18t87 -58l-52 -54q-32 29 -66.5 43t-77.5 14q-84 0 -140 -67t-56 -215q0 -147 45.5 -215t137.5 -68q73 0 131 33v209h-135l-10 73h232v-328q-52 -29 -104.5 -44.5t-120.5 -15.5
q-126 0 -197.5 90.5zM493 803l-37 -43l-126 81l-125 -81l-38 43l135 107h57z" />
    <glyph glyph-name="Gcommaaccent" unicode="&#x122;" 
d="M116.5 79.5q-71.5 90.5 -71.5 265.5q0 114 40 194t106 120.5t143 40.5q65 0 109 -18t87 -58l-52 -54q-32 29 -66.5 43t-77.5 14q-84 0 -140 -67t-56 -215q0 -147 45.5 -215t137.5 -68q73 0 131 33v209h-135l-10 73h232v-328q-52 -29 -104.5 -44.5t-120.5 -15.5
q-126 0 -197.5 90.5zM372 -86.5q16 -15.5 16 -37.5q0 -21 -15 -55l-51 -107h-50l29 117q-22 17 -22 45q0 23 15.5 38t38.5 15t39 -15.5z" />
    <glyph glyph-name="Gdotaccent" unicode="&#x120;" 
d="M116.5 79.5q-71.5 90.5 -71.5 265.5q0 114 40 194t106 120.5t143 40.5q65 0 109 -18t87 -58l-52 -54q-32 29 -66.5 43t-77.5 14q-84 0 -140 -67t-56 -215q0 -147 45.5 -215t137.5 -68q73 0 131 33v209h-135l-10 73h232v-328q-52 -29 -104.5 -44.5t-120.5 -15.5
q-126 0 -197.5 90.5zM373.5 876q17.5 -17 17.5 -42q0 -26 -17.5 -43t-44.5 -17t-43.5 17t-16.5 43q0 25 16.5 42t43.5 17t44.5 -17z" />
    <glyph glyph-name="H" unicode="H" 
d="M430 327h-260v-327h-87v689h87v-291h260v291h87v-689h-87v327z" />
    <glyph glyph-name="Hbar" unicode="&#x126;" 
d="M598 509h-81v-509h-86v326h-262v-326h-86v509h-81v66h81v114h86v-114h262v114h86v-114h81v-66zM431 509h-262v-111h262v111z" />
    <glyph glyph-name="Hcircumflex" unicode="&#x124;" 
d="M430 327h-260v-327h-87v689h87v-291h260v291h87v-689h-87v327zM463 803l-37 -43l-126 81l-125 -81l-38 43l135 107h57z" />
    <glyph glyph-name="I" unicode="I" 
d="M497 619h-153v-550h153v-69h-394v69h153v550h-153v70h394v-70z" />
    <glyph glyph-name="IJ" unicode="&#x132;" 
d="M348 -27.5q55 33.5 76 87t21 133.5v424h-244v-545h80v-72h-270v72h100v545h-100v72h521v-501q0 -135 -72 -221t-256 -103l-10 65q99 10 154 43.5z" />
    <glyph glyph-name="Iacute" unicode="&#xcd;" 
d="M497 619h-153v-550h153v-69h-394v69h153v550h-153v70h394v-70zM420 834l-213 -79l-22 46l198 105z" />
    <glyph glyph-name="Ibreve" unicode="&#x12c;" 
d="M497 619h-153v-550h153v-69h-394v69h153v550h-153v70h394v-70zM198 791.5q-42 32.5 -47 86.5l57 13q25 -67 90 -67q34 0 58 18t35 49l58 -13q-6 -54 -49 -86.5t-102 -32.5q-58 0 -100 32.5z" />
    <glyph glyph-name="Icircumflex" unicode="&#xce;" 
d="M497 619h-153v-550h153v-69h-394v69h153v550h-153v70h394v-70zM463 803l-37 -43l-126 81l-125 -81l-38 43l135 107h57z" />
    <glyph glyph-name="Idieresis" unicode="&#xcf;" 
d="M497 619h-153v-550h153v-69h-394v69h153v550h-153v70h394v-70zM157.5 783q-15.5 15 -15.5 38t15.5 38.5t39.5 15.5q23 0 38.5 -15.5t15.5 -38.5t-15.5 -38t-38.5 -15q-24 0 -39.5 15zM364.5 783q-15.5 15 -15.5 38t15.5 38.5t38.5 15.5t39 -15.5t16 -38.5t-16 -38
t-39 -15t-38.5 15z" />
    <glyph glyph-name="Idotaccent" unicode="&#x130;" 
d="M497 619h-153v-550h153v-69h-394v69h153v550h-153v70h394v-70zM343.5 876q17.5 -17 17.5 -42q0 -26 -17.5 -43t-44.5 -17t-43.5 17t-16.5 43q0 25 16.5 42t43.5 17t44.5 -17z" />
    <glyph glyph-name="Igrave" unicode="&#xcc;" 
d="M497 619h-153v-550h153v-69h-394v69h153v550h-153v70h394v-70zM416 801l-26 -46l-205 82l46 72z" />
    <glyph glyph-name="Imacron" unicode="&#x12a;" 
d="M497 619h-153v-550h153v-69h-394v69h153v550h-153v70h394v-70zM165 795v64h269v-64h-269z" />
    <glyph glyph-name="Iogonek" unicode="&#x12e;" 
d="M344 619v-550h153v-69h-153q-72 -31 -98 -58t-26 -56q0 -24 13 -36t43 -12q27 0 61 7l-8 -68q-42 -6 -64 -6q-56 0 -89 27.5t-33 70.5q0 80 105 131h-145v69h153v550h-153v70h394v-70h-153z" />
    <glyph glyph-name="Itilde" unicode="&#x128;" 
d="M497 619h-153v-550h153v-69h-394v69h153v550h-153v70h394v-70zM324.5 785q-15.5 7 -34.5 20q-15 11 -26 16t-22 5q-16 0 -28 -11t-25 -35l-53 27q41 84 107 84q20 0 35.5 -7t33.5 -20q16 -11 26 -16t21 -5q15 0 27 10.5t26 33.5l53 -27q-38 -82 -106 -82q-19 0 -34.5 7z
" />
    <glyph glyph-name="J" unicode="J" 
d="M497 229q0 -101 -55.5 -171t-180.5 -70q-51 0 -99.5 16t-88.5 47l38 57q75 -47 149 -47q72 0 111 45.5t39 126.5v385h-204v71h291v-460z" />
    <glyph glyph-name="Jcircumflex" unicode="&#x134;" 
d="M497 229q0 -101 -55.5 -171t-180.5 -70q-51 0 -99.5 16t-88.5 47l38 57q75 -47 149 -47q72 0 111 45.5t39 126.5v385h-204v71h291v-460zM513 803l-37 -43l-126 81l-125 -81l-38 43l135 107h57z" />
    <glyph glyph-name="K" unicode="K" 
d="M105 0v689h87v-689h-87zM467 689h101l-269 -316l288 -373h-109l-281 368z" />
    <glyph glyph-name="Kcommaaccent" unicode="&#x136;" 
d="M105 0v689h87v-689h-87zM467 689h101l-269 -316l288 -373h-109l-281 368zM364 -86.5q16 -15.5 16 -37.5q0 -21 -15 -55l-51 -107h-50l29 117q-22 17 -22 45q0 23 15.5 38t38.5 15t39 -15.5z" />
    <glyph glyph-name="L" unicode="L" 
d="M136 689h86v-612h315l-11 -77h-390v689z" />
    <glyph glyph-name="Lacute" unicode="&#x139;" 
d="M136 689h86v-612h315l-11 -77h-390v689zM299 834l-213 -79l-22 46l198 105z" />
    <glyph glyph-name="Lcaron" unicode="&#x13d;" 
d="M136 689h86v-612h315l-11 -77h-390v689zM384 688l-53 -178l-48 7l25 181z" />
    <glyph glyph-name="Lcommaaccent" unicode="&#x13b;" 
d="M136 689h86v-612h315l-11 -77h-390v689zM374 -86.5q16 -15.5 16 -37.5q0 -21 -15 -55l-51 -107h-50l29 117q-22 17 -22 45q0 23 15.5 38t38.5 15t39 -15.5z" />
    <glyph glyph-name="Ldot" unicode="&#x13f;" 
d="M136 689h86v-612h315l-11 -77h-390v689zM516 420.5q17 -16.5 17 -42.5t-17 -42.5t-44 -16.5t-43.5 16.5t-16.5 42.5t16.5 42.5t43.5 16.5t44 -16.5z" />
    <glyph glyph-name="Lslash" unicode="&#x141;" 
d="M535 77l-10 -77h-391v268l-57 -36l-37 57l94 57v343h86v-290l165 103l37 -56l-202 -125v-244h315z" />
    <glyph glyph-name="M" unicode="M" 
d="M570 0h-84l-21 360q-6 95 -6 249l-116 -485h-87l-124 485q2 -36 2 -96q0 -92 -4 -153l-18 -360h-82l39 689h121l112 -472l107 472h122z" />
    <glyph glyph-name="N" unicode="N" 
d="M152 605q0 -7 6 -87t6 -173v-345h-81v689h118l247 -608l-2 36q-10 123 -10 227v345h81v-689h-122z" />
    <glyph glyph-name="Nacute" unicode="&#x143;" 
d="M152 605q0 -7 6 -87t6 -173v-345h-81v689h118l247 -608l-2 36q-10 123 -10 227v345h81v-689h-122zM419 834l-213 -79l-22 46l198 105z" />
    <glyph glyph-name="Ncaron" unicode="&#x147;" 
d="M152 605q0 -7 6 -87t6 -173v-345h-81v689h118l247 -608l-2 36q-10 123 -10 227v345h81v-689h-122zM462 862l-134 -108h-57l-135 108l38 43l125 -81l126 81z" />
    <glyph glyph-name="Ncommaaccent" unicode="&#x145;" 
d="M152 605q0 -7 6 -87t6 -173v-345h-81v689h118l247 -608l-2 36q-10 123 -10 227v345h81v-689h-122zM342 -86.5q16 -15.5 16 -37.5q0 -21 -15 -55l-51 -107h-50l29 117q-22 17 -22 45q0 23 15.5 38t38.5 15t39 -15.5z" />
    <glyph glyph-name="Eng" unicode="&#x14a;" 
d="M478.5 -173.5q-38.5 -38.5 -106.5 -38.5q-64 0 -113 37l34 57q19 -13 35 -18.5t40 -5.5q62 0 62 75v67h-35l-243 605q0 -7 6 -87t6 -173v-345h-81v689h118l247 -608l-2 36q-10 123 -10 227v345h81v-751q0 -73 -38.5 -111.5z" />
    <glyph glyph-name="Ntilde" unicode="&#xd1;" 
d="M152 605q0 -7 6 -87t6 -173v-345h-81v689h118l247 -608l-2 36q-10 123 -10 227v345h81v-689h-122zM322.5 785q-15.5 7 -34.5 20q-15 11 -26 16t-22 5q-16 0 -28 -11t-25 -35l-53 27q41 84 107 84q20 0 35.5 -7t33.5 -20q16 -11 26 -16t21 -5q15 0 27 10.5t26 33.5l53 -27
q-38 -82 -106 -82q-19 0 -34.5 7z" />
    <glyph glyph-name="O" unicode="O" 
d="M487.5 86q-65.5 -97 -187.5 -97q-123 0 -188 95t-65 259q0 105 29 186t86 126t138 45q122 0 187.5 -96.5t65.5 -259.5q0 -161 -65.5 -258zM424 556q-39 71 -124 71t-124 -71.5t-39 -212.5q0 -140 39.5 -210.5t123.5 -70.5q85 0 124 70.5t39 211.5t-39 212z" />
    <glyph glyph-name="Oacute" unicode="&#xd3;" 
d="M487.5 86q-65.5 -97 -187.5 -97q-123 0 -188 95t-65 259q0 105 29 186t86 126t138 45q122 0 187.5 -96.5t65.5 -259.5q0 -161 -65.5 -258zM424 556q-39 71 -124 71t-124 -71.5t-39 -212.5q0 -140 39.5 -210.5t123.5 -70.5q85 0 124 70.5t39 211.5t-39 212zM420 834
l-213 -79l-22 46l198 105z" />
    <glyph glyph-name="Obreve" unicode="&#x14e;" 
d="M487.5 86q-65.5 -97 -187.5 -97q-123 0 -188 95t-65 259q0 105 29 186t86 126t138 45q122 0 187.5 -96.5t65.5 -259.5q0 -161 -65.5 -258zM424 556q-39 71 -124 71t-124 -71.5t-39 -212.5q0 -140 39.5 -210.5t123.5 -70.5q85 0 124 70.5t39 211.5t-39 212zM198 791.5
q-42 32.5 -47 86.5l57 13q25 -67 90 -67q34 0 58 18t35 49l58 -13q-6 -54 -49 -86.5t-102 -32.5q-58 0 -100 32.5z" />
    <glyph glyph-name="Ocircumflex" unicode="&#xd4;" 
d="M487.5 86q-65.5 -97 -187.5 -97q-123 0 -188 95t-65 259q0 105 29 186t86 126t138 45q122 0 187.5 -96.5t65.5 -259.5q0 -161 -65.5 -258zM424 556q-39 71 -124 71t-124 -71.5t-39 -212.5q0 -140 39.5 -210.5t123.5 -70.5q85 0 124 70.5t39 211.5t-39 212zM463 803
l-37 -43l-126 81l-125 -81l-38 43l135 107h57z" />
    <glyph glyph-name="Odieresis" unicode="&#xd6;" 
d="M487.5 86q-65.5 -97 -187.5 -97q-123 0 -188 95t-65 259q0 105 29 186t86 126t138 45q122 0 187.5 -96.5t65.5 -259.5q0 -161 -65.5 -258zM424 556q-39 71 -124 71t-124 -71.5t-39 -212.5q0 -140 39.5 -210.5t123.5 -70.5q85 0 124 70.5t39 211.5t-39 212zM157.5 783
q-15.5 15 -15.5 38t15.5 38.5t39.5 15.5q23 0 38.5 -15.5t15.5 -38.5t-15.5 -38t-38.5 -15q-24 0 -39.5 15zM364.5 783q-15.5 15 -15.5 38t15.5 38.5t38.5 15.5t39 -15.5t16 -38.5t-16 -38t-39 -15t-38.5 15z" />
    <glyph glyph-name="Ograve" unicode="&#xd2;" 
d="M487.5 86q-65.5 -97 -187.5 -97q-123 0 -188 95t-65 259q0 105 29 186t86 126t138 45q122 0 187.5 -96.5t65.5 -259.5q0 -161 -65.5 -258zM424 556q-39 71 -124 71t-124 -71.5t-39 -212.5q0 -140 39.5 -210.5t123.5 -70.5q85 0 124 70.5t39 211.5t-39 212zM416 801
l-26 -46l-205 82l46 72z" />
    <glyph glyph-name="Ohungarumlaut" unicode="&#x150;" 
d="M487.5 86q-65.5 -97 -187.5 -97q-123 0 -188 95t-65 259q0 105 29 186t86 126t138 45q122 0 187.5 -96.5t65.5 -259.5q0 -161 -65.5 -258zM424 556q-39 71 -124 71t-124 -71.5t-39 -212.5q0 -140 39.5 -210.5t123.5 -70.5q85 0 124 70.5t39 211.5t-39 212zM261 955
l74 -35l-97 -164l-55 26zM435 955l73 -39l-108 -163l-53 28z" />
    <glyph glyph-name="Omacron" unicode="&#x14c;" 
d="M487.5 86q-65.5 -97 -187.5 -97q-123 0 -188 95t-65 259q0 105 29 186t86 126t138 45q122 0 187.5 -96.5t65.5 -259.5q0 -161 -65.5 -258zM424 556q-39 71 -124 71t-124 -71.5t-39 -212.5q0 -140 39.5 -210.5t123.5 -70.5q85 0 124 70.5t39 211.5t-39 212zM165 795v64
h269v-64h-269z" />
    <glyph glyph-name="Oslash" unicode="&#xd8;" 
d="M523 535.5q30 -81.5 30 -191.5q0 -161 -65.5 -258t-187.5 -97q-36 0 -63 7l-33 -106l-75 19l38 119q-59 42 -89.5 123t-30.5 192q0 105 29 186t86 126t138 45q33 0 65 -8l32 111l75 -20l-38 -124q59 -42 89 -123.5zM152.5 188.5q14.5 -59.5 45.5 -90.5l151 523
q-23 6 -49 6q-85 0 -123.5 -71.5t-38.5 -212.5q0 -95 14.5 -154.5zM423.5 132.5q38.5 70.5 38.5 211.5q0 97 -14.5 156.5t-45.5 90.5l-151 -523q23 -6 49 -6q85 0 123.5 70.5z" />
    <glyph glyph-name="Oslashacute" unicode="&#x1fe;" 
d="M523 535.5q30 -81.5 30 -191.5q0 -161 -65.5 -258t-187.5 -97q-36 0 -63 7l-33 -106l-75 19l38 119q-59 42 -89.5 123t-30.5 192q0 105 29 186t86 126t138 45q33 0 65 -8l32 111l75 -20l-38 -124q59 -42 89 -123.5zM152.5 188.5q14.5 -59.5 45.5 -90.5l151 523
q-23 6 -49 6q-85 0 -123.5 -71.5t-38.5 -212.5q0 -95 14.5 -154.5zM423.5 132.5q38.5 70.5 38.5 211.5q0 97 -14.5 156.5t-45.5 90.5l-151 -523q23 -6 49 -6q85 0 123.5 70.5zM420 834l-213 -79l-22 46l198 105z" />
    <glyph glyph-name="Otilde" unicode="&#xd5;" 
d="M487.5 86q-65.5 -97 -187.5 -97q-123 0 -188 95t-65 259q0 105 29 186t86 126t138 45q122 0 187.5 -96.5t65.5 -259.5q0 -161 -65.5 -258zM424 556q-39 71 -124 71t-124 -71.5t-39 -212.5q0 -140 39.5 -210.5t123.5 -70.5q85 0 124 70.5t39 211.5t-39 212zM324.5 785
q-15.5 7 -34.5 20q-15 11 -26 16t-22 5q-16 0 -28 -11t-25 -35l-53 27q41 84 107 84q20 0 35.5 -7t33.5 -20q16 -11 26 -16t21 -5q15 0 27 10.5t26 33.5l53 -27q-38 -82 -106 -82q-19 0 -34.5 7z" />
    <glyph glyph-name="OE" unicode="&#x152;" 
d="M283 689h325l-10 -71h-244q58 -69 65 -233h154v-71h-154q-4 -169 -69 -243h267v-71h-337q-35 -11 -68 -11q-213 0 -213 354q0 174 53.5 265.5t159.5 91.5q33 0 71 -11zM120.5 561q-28.5 -67 -28.5 -218q0 -150 29.5 -217t89.5 -67q64 0 93 66.5t29 218.5t-28.5 218
t-93.5 66q-62 0 -90.5 -67z" />
    <glyph glyph-name="P" unicode="P" 
d="M486 309q-71 -53 -195 -53h-89v-256h-86v689h175q127 0 196.5 -53t69.5 -159q0 -115 -71 -168zM420.5 585.5q-43.5 34.5 -118.5 34.5h-100v-295h97q78 0 121.5 34t43.5 117q0 75 -43.5 109.5z" />
    <glyph glyph-name="Thorn" unicode="&#xde;" 
d="M194 572h98q127 0 195.5 -54t68.5 -163q0 -116 -71 -171.5t-193 -55.5h-98v-128h-87v689h87v-117zM194 503v-305h109q78 0 119.5 34.5t41.5 120.5q0 77 -42.5 113.5t-118.5 36.5h-109z" />
    <glyph glyph-name="Q" unicode="Q" 
d="M520.5 148.5q-33.5 -79.5 -109.5 -121.5q74 -15 115.5 -52t66.5 -112l-92 -36q-34 85 -80 124t-131 39q-78 0 -133 43.5t-83.5 123t-28.5 186.5q0 105 29 186t86.5 126t139.5 45q122 0 188 -96.5t66 -259.5q0 -116 -33.5 -195.5zM424 556q-39 71 -124 71t-124.5 -71.5
t-39.5 -212.5q0 -140 40 -210.5t124 -70.5q85 0 124 70.5t39 211.5t-39 212z" />
    <glyph glyph-name="R" unicode="R" 
d="M491 372.5q-46 -48.5 -122 -67.5l205 -305h-104l-189 295h-93v-295h-86v689h176q128 0 193.5 -49t65.5 -145q0 -74 -46 -122.5zM407 590q-38 29 -119 29h-100v-256h101q77 0 116.5 31.5t39.5 100.5q0 66 -38 95z" />
    <glyph glyph-name="Racute" unicode="&#x154;" 
d="M491 372.5q-46 -48.5 -122 -67.5l205 -305h-104l-189 295h-93v-295h-86v689h176q128 0 193.5 -49t65.5 -145q0 -74 -46 -122.5zM407 590q-38 29 -119 29h-100v-256h101q77 0 116.5 31.5t39.5 100.5q0 66 -38 95zM420 834l-213 -79l-22 46l198 105z" />
    <glyph glyph-name="Rcaron" unicode="&#x158;" 
d="M491 372.5q-46 -48.5 -122 -67.5l205 -305h-104l-189 295h-93v-295h-86v689h176q128 0 193.5 -49t65.5 -145q0 -74 -46 -122.5zM407 590q-38 29 -119 29h-100v-256h101q77 0 116.5 31.5t39.5 100.5q0 66 -38 95zM463 862l-134 -108h-57l-135 108l38 43l125 -81l126 81z
" />
    <glyph glyph-name="Rcommaaccent" unicode="&#x156;" 
d="M491 372.5q-46 -48.5 -122 -67.5l205 -305h-104l-189 295h-93v-295h-86v689h176q128 0 193.5 -49t65.5 -145q0 -74 -46 -122.5zM407 590q-38 29 -119 29h-100v-256h101q77 0 116.5 31.5t39.5 100.5q0 66 -38 95zM341 -86.5q16 -15.5 16 -37.5q0 -21 -15 -55l-51 -107h-50
l29 117q-22 17 -22 45q0 23 15.5 38t38.5 15t39 -15.5z" />
    <glyph glyph-name="S" unicode="S" 
d="M507 85.5q-30 -45.5 -87 -71t-135 -25.5q-75 0 -136.5 22.5t-105.5 64.5l52 59q38 -36 84.5 -55t106.5 -19q68 0 114 33t46 95q0 35 -13 58t-45.5 41t-91.5 35q-112 33 -167 77.5t-55 121.5q0 51 28 92t79 63.5t116 22.5q68 0 121.5 -20t98.5 -59l-52 -56q-71 62 -165 62
q-60 0 -99 -26t-39 -76q0 -30 16 -51t53 -39t104 -37q97 -28 149.5 -73t52.5 -134q0 -60 -30 -105.5z" />
    <glyph glyph-name="Sacute" unicode="&#x15a;" 
d="M507 85.5q-30 -45.5 -87 -71t-135 -25.5q-75 0 -136.5 22.5t-105.5 64.5l52 59q38 -36 84.5 -55t106.5 -19q68 0 114 33t46 95q0 35 -13 58t-45.5 41t-91.5 35q-112 33 -167 77.5t-55 121.5q0 51 28 92t79 63.5t116 22.5q68 0 121.5 -20t98.5 -59l-52 -56q-71 62 -165 62
q-60 0 -99 -26t-39 -76q0 -30 16 -51t53 -39t104 -37q97 -28 149.5 -73t52.5 -134q0 -60 -30 -105.5zM425 834l-213 -79l-22 46l198 105z" />
    <glyph glyph-name="Scaron" unicode="&#x160;" 
d="M507 85.5q-30 -45.5 -87 -71t-135 -25.5q-75 0 -136.5 22.5t-105.5 64.5l52 59q38 -36 84.5 -55t106.5 -19q68 0 114 33t46 95q0 35 -13 58t-45.5 41t-91.5 35q-112 33 -167 77.5t-55 121.5q0 51 28 92t79 63.5t116 22.5q68 0 121.5 -20t98.5 -59l-52 -56q-71 62 -165 62
q-60 0 -99 -26t-39 -76q0 -30 16 -51t53 -39t104 -37q97 -28 149.5 -73t52.5 -134q0 -60 -30 -105.5zM469 862l-134 -108h-57l-135 108l38 43l125 -81l126 81z" />
    <glyph glyph-name="Scedilla" unicode="&#x15e;" 
d="M479 51.5q-58 -54.5 -162 -61.5v-47q46 -4 69.5 -27.5t23.5 -55.5q0 -47 -35.5 -72.5t-86.5 -25.5q-30 0 -57.5 6.5t-47.5 17.5l27 48q30 -16 67 -16q60 0 60 41q0 26 -21 35t-65 9l6 86q-131 9 -214 87l52 59q38 -36 84.5 -55t106.5 -19q68 0 114 33t46 95q0 35 -13 58
t-45.5 41t-91.5 35q-112 33 -167 77.5t-55 121.5q0 51 28 92t79 63.5t116 22.5q68 0 121.5 -20t98.5 -59l-52 -56q-71 62 -165 62q-60 0 -99 -26t-39 -76q0 -30 16 -51t53 -39t104 -37q97 -28 149.5 -73t52.5 -134q0 -85 -58 -139.5z" />
    <glyph glyph-name="Scircumflex" unicode="&#x15c;" 
d="M507 85.5q-30 -45.5 -87 -71t-135 -25.5q-75 0 -136.5 22.5t-105.5 64.5l52 59q38 -36 84.5 -55t106.5 -19q68 0 114 33t46 95q0 35 -13 58t-45.5 41t-91.5 35q-112 33 -167 77.5t-55 121.5q0 51 28 92t79 63.5t116 22.5q68 0 121.5 -20t98.5 -59l-52 -56q-71 62 -165 62
q-60 0 -99 -26t-39 -76q0 -30 16 -51t53 -39t104 -37q97 -28 149.5 -73t52.5 -134q0 -60 -30 -105.5zM469 803l-37 -43l-126 81l-125 -81l-38 43l135 107h57z" />
    <glyph glyph-name="Scommaaccent" unicode="&#x218;" 
d="M507 85.5q-30 -45.5 -87 -71t-135 -25.5q-75 0 -136.5 22.5t-105.5 64.5l52 59q38 -36 84.5 -55t106.5 -19q68 0 114 33t46 95q0 35 -13 58t-45.5 41t-91.5 35q-112 33 -167 77.5t-55 121.5q0 51 28 92t79 63.5t116 22.5q68 0 121.5 -20t98.5 -59l-52 -56q-71 62 -165 62
q-60 0 -99 -26t-39 -76q0 -30 16 -51t53 -39t104 -37q97 -28 149.5 -73t52.5 -134q0 -60 -30 -105.5zM339 -86.5q16 -15.5 16 -37.5q0 -21 -15 -55l-51 -107h-50l29 117q-22 17 -22 45q0 23 15.5 38t38.5 15t39 -15.5z" />
    <glyph glyph-name="T" unicode="T" 
d="M342 0h-87v614h-215v75h519l-9 -75h-208v-614z" />
    <glyph glyph-name="Tbar" unicode="&#x166;" 
d="M342 614v-197h131v-67h-131v-350h-87v350h-130v67h130v197h-215v75h519l-9 -75h-208z" />
    <glyph glyph-name="Tcaron" unicode="&#x164;" 
d="M342 0h-87v614h-215v75h519l-9 -75h-208v-614zM462 862l-134 -108h-57l-135 108l38 43l125 -81l126 81z" />
    <glyph glyph-name="uni0162" unicode="&#x162;" 
d="M328 0v-57q47 -4 70 -27.5t23 -55.5q0 -47 -35.5 -72.5t-86.5 -25.5q-30 0 -57.5 6.5t-47.5 17.5l27 48q30 -16 67 -16q60 0 60 41q0 26 -21 35t-65 9l7 97h-14v614h-215v75h519l-9 -75h-208v-614h-14z" />
    <glyph glyph-name="uni021A" unicode="&#x21a;" 
d="M342 0h-87v614h-215v75h519l-9 -75h-208v-614zM341 -86.5q16 -15.5 16 -37.5q0 -21 -15 -55l-51 -107h-50l29 117q-22 17 -22 45q0 23 15.5 38t38.5 15t39 -15.5z" />
    <glyph glyph-name="U" unicode="U" 
d="M528 223q0 -69 -28.5 -122.5t-80 -82.5t-120.5 -29q-70 0 -121 29.5t-78.5 82.5t-27.5 122v466h87v-469q0 -78 36 -117t104 -39t104.5 39t36.5 117v469h88v-466z" />
    <glyph glyph-name="Uacute" unicode="&#xda;" 
d="M528 223q0 -69 -28.5 -122.5t-80 -82.5t-120.5 -29q-70 0 -121 29.5t-78.5 82.5t-27.5 122v466h87v-469q0 -78 36 -117t104 -39t104.5 39t36.5 117v469h88v-466zM420 834l-213 -79l-22 46l198 105z" />
    <glyph glyph-name="Ubreve" unicode="&#x16c;" 
d="M528 223q0 -69 -28.5 -122.5t-80 -82.5t-120.5 -29q-70 0 -121 29.5t-78.5 82.5t-27.5 122v466h87v-469q0 -78 36 -117t104 -39t104.5 39t36.5 117v469h88v-466zM198 791.5q-42 32.5 -47 86.5l57 13q25 -67 90 -67q34 0 58 18t35 49l58 -13q-6 -54 -49 -86.5t-102 -32.5
q-58 0 -100 32.5z" />
    <glyph glyph-name="Ucircumflex" unicode="&#xdb;" 
d="M528 223q0 -69 -28.5 -122.5t-80 -82.5t-120.5 -29q-70 0 -121 29.5t-78.5 82.5t-27.5 122v466h87v-469q0 -78 36 -117t104 -39t104.5 39t36.5 117v469h88v-466zM463 803l-37 -43l-126 81l-125 -81l-38 43l135 107h57z" />
    <glyph glyph-name="Udieresis" unicode="&#xdc;" 
d="M528 223q0 -69 -28.5 -122.5t-80 -82.5t-120.5 -29q-70 0 -121 29.5t-78.5 82.5t-27.5 122v466h87v-469q0 -78 36 -117t104 -39t104.5 39t36.5 117v469h88v-466zM157.5 783q-15.5 15 -15.5 38t15.5 38.5t39.5 15.5q23 0 38.5 -15.5t15.5 -38.5t-15.5 -38t-38.5 -15
q-24 0 -39.5 15zM364.5 783q-15.5 15 -15.5 38t15.5 38.5t38.5 15.5t39 -15.5t16 -38.5t-16 -38t-39 -15t-38.5 15z" />
    <glyph glyph-name="Ugrave" unicode="&#xd9;" 
d="M528 223q0 -69 -28.5 -122.5t-80 -82.5t-120.5 -29q-70 0 -121 29.5t-78.5 82.5t-27.5 122v466h87v-469q0 -78 36 -117t104 -39t104.5 39t36.5 117v469h88v-466zM416 801l-26 -46l-205 82l46 72z" />
    <glyph glyph-name="Uhungarumlaut" unicode="&#x170;" 
d="M528 223q0 -69 -28.5 -122.5t-80 -82.5t-120.5 -29q-70 0 -121 29.5t-78.5 82.5t-27.5 122v466h87v-469q0 -78 36 -117t104 -39t104.5 39t36.5 117v469h88v-466zM261 955l74 -35l-97 -164l-55 26zM435 955l73 -39l-108 -163l-53 28z" />
    <glyph glyph-name="Umacron" unicode="&#x16a;" 
d="M528 223q0 -69 -28.5 -122.5t-80 -82.5t-120.5 -29q-70 0 -121 29.5t-78.5 82.5t-27.5 122v466h87v-469q0 -78 36 -117t104 -39t104.5 39t36.5 117v469h88v-466zM165 795v64h269v-64h-269z" />
    <glyph glyph-name="Uogonek" unicode="&#x172;" 
d="M528 689v-466q0 -85 -41.5 -144.5t-114.5 -80.5q-69 -31 -94.5 -57t-25.5 -55q0 -24 13 -36t43 -12q27 0 61 7l-8 -68q-42 -6 -64 -6q-56 0 -89 27.5t-33 70.5q0 74 87 122q-89 11 -139.5 73.5t-50.5 158.5v466h87v-469q0 -78 36 -117t104 -39t104.5 39t36.5 117v469h88z
" />
    <glyph glyph-name="Uring" unicode="&#x16e;" 
d="M528 223q0 -69 -28.5 -122.5t-80 -82.5t-120.5 -29q-70 0 -121 29.5t-78.5 82.5t-27.5 122v466h87v-469q0 -78 36 -117t104 -39t104.5 39t36.5 117v469h88v-466zM380 913.5q31 -29.5 31 -73.5q0 -43 -31.5 -72.5t-78.5 -29.5q-48 0 -80 29.5t-32 72.5q0 44 32 73.5
t80 29.5t79 -29.5zM261 881.5q-15 -15.5 -15 -41.5t15 -41.5t40 -15.5t39 15.5t14 41.5t-14 41.5t-39 15.5t-40 -15.5z" />
    <glyph glyph-name="Utilde" unicode="&#x168;" 
d="M528 223q0 -69 -28.5 -122.5t-80 -82.5t-120.5 -29q-70 0 -121 29.5t-78.5 82.5t-27.5 122v466h87v-469q0 -78 36 -117t104 -39t104.5 39t36.5 117v469h88v-466zM324.5 785q-15.5 7 -34.5 20q-15 11 -26 16t-22 5q-16 0 -28 -11t-25 -35l-53 27q41 84 107 84
q20 0 35.5 -7t33.5 -20q16 -11 26 -16t21 -5q15 0 27 10.5t26 33.5l53 -27q-38 -82 -106 -82q-19 0 -34.5 7z" />
    <glyph glyph-name="V" unicode="V" 
d="M488 689h87l-230 -689h-90l-230 689h93l184 -590z" />
    <glyph glyph-name="W" unicode="W" 
d="M491 0h-114l-79 520l-80 -520h-117l-96 689h87l73 -594l83 514h106l79 -514l82 594h80z" />
    <glyph glyph-name="Wacute" unicode="&#x1e82;" 
d="M491 0h-114l-79 520l-80 -520h-117l-96 689h87l73 -594l83 514h106l79 -514l82 594h80zM420 834l-213 -79l-22 46l198 105z" />
    <glyph glyph-name="Wcircumflex" unicode="&#x174;" 
d="M491 0h-114l-79 520l-80 -520h-117l-96 689h87l73 -594l83 514h106l79 -514l82 594h80zM463 803l-37 -43l-126 81l-125 -81l-38 43l135 107h57z" />
    <glyph glyph-name="Wdieresis" unicode="&#x1e84;" 
d="M491 0h-114l-79 520l-80 -520h-117l-96 689h87l73 -594l83 514h106l79 -514l82 594h80zM157.5 783q-15.5 15 -15.5 38t15.5 38.5t39.5 15.5q23 0 38.5 -15.5t15.5 -38.5t-15.5 -38t-38.5 -15q-24 0 -39.5 15zM364.5 783q-15.5 15 -15.5 38t15.5 38.5t38.5 15.5t39 -15.5
t16 -38.5t-16 -38t-39 -15t-38.5 15z" />
    <glyph glyph-name="Wgrave" unicode="&#x1e80;" 
d="M491 0h-114l-79 520l-80 -520h-117l-96 689h87l73 -594l83 514h106l79 -514l82 594h80zM416 801l-26 -46l-205 82l46 72z" />
    <glyph glyph-name="X" unicode="X" 
d="M149 689l151 -265l152 265h93l-195 -317l219 -372h-100l-171 311l-174 -311h-93l216 367l-198 322h100z" />
    <glyph glyph-name="Y" unicode="Y" 
d="M344 0h-88v265l-233 424h96l183 -346l185 346h90l-233 -423v-266z" />
    <glyph glyph-name="Yacute" unicode="&#xdd;" 
d="M344 0h-88v265l-233 424h96l183 -346l185 346h90l-233 -423v-266zM423 834l-213 -79l-22 46l198 105z" />
    <glyph glyph-name="Ycircumflex" unicode="&#x176;" 
d="M344 0h-88v265l-233 424h96l183 -346l185 346h90l-233 -423v-266zM466 803l-37 -43l-126 81l-125 -81l-38 43l135 107h57z" />
    <glyph glyph-name="Ydieresis" unicode="&#x178;" 
d="M344 0h-88v265l-233 424h96l183 -346l185 346h90l-233 -423v-266zM160.5 783q-15.5 15 -15.5 38t15.5 38.5t39.5 15.5q23 0 38.5 -15.5t15.5 -38.5t-15.5 -38t-38.5 -15q-24 0 -39.5 15zM367.5 783q-15.5 15 -15.5 38t15.5 38.5t38.5 15.5t39 -15.5t16 -38.5t-16 -38
t-39 -15t-38.5 15z" />
    <glyph glyph-name="Ygrave" unicode="&#x1ef2;" 
d="M344 0h-88v265l-233 424h96l183 -346l185 346h90l-233 -423v-266zM419 801l-26 -46l-205 82l46 72z" />
    <glyph glyph-name="Z" unicode="Z" 
d="M527 75l-10 -75h-445v70l363 544h-327v75h420v-72l-361 -542h360z" />
    <glyph glyph-name="Zacute" unicode="&#x179;" 
d="M527 75l-10 -75h-445v70l363 544h-327v75h420v-72l-361 -542h360zM438 834l-213 -79l-22 46l198 105z" />
    <glyph glyph-name="Zcaron" unicode="&#x17d;" 
d="M527 75l-10 -75h-445v70l363 544h-327v75h420v-72l-361 -542h360zM482 862l-134 -108h-57l-135 108l38 43l125 -81l126 81z" />
    <glyph glyph-name="Zdotaccent" unicode="&#x17b;" 
d="M527 75l-10 -75h-445v70l363 544h-327v75h420v-72l-361 -542h360zM361.5 876q17.5 -17 17.5 -42q0 -26 -17.5 -43t-44.5 -17t-43.5 17t-16.5 43q0 25 16.5 42t43.5 17t44.5 -17z" />
    <glyph glyph-name="Cacute.loclPLK" 
d="M468 683.5q46 -16.5 90 -50.5l-49 -57q-61 51 -145 51q-93 0 -151.5 -67.5t-58.5 -214.5q0 -146 57 -214t152 -68q52 0 89 15t71 42l45 -56q-77 -75 -206 -75q-85 0 -153 41.5t-107 121.5t-39 193q0 112 39.5 192.5t107 121.5t148.5 41q64 0 110 -16.5zM486 871
l-130 -143l-41 25l105 162z" />
    <glyph glyph-name="Nacute.loclPLK" 
d="M152 605q0 -7 6 -87t6 -173v-345h-81v689h118l247 -608l-2 36q-10 123 -10 227v345h81v-689h-122zM419 871l-130 -143l-41 25l105 162z" />
    <glyph glyph-name="Oacute.loclPLK" 
d="M487.5 86q-65.5 -97 -187.5 -97q-123 0 -188 95t-65 259q0 105 29 186t86 126t138 45q122 0 187.5 -96.5t65.5 -259.5q0 -161 -65.5 -258zM424 556q-39 71 -124 71t-124 -71.5t-39 -212.5q0 -140 39.5 -210.5t123.5 -70.5q85 0 124 70.5t39 211.5t-39 212zM421 871
l-130 -143l-41 25l105 162z" />
    <glyph glyph-name="Sacute.loclPLK" 
d="M507 85.5q-30 -45.5 -87 -71t-135 -25.5q-75 0 -136.5 22.5t-105.5 64.5l52 59q38 -36 84.5 -55t106.5 -19q68 0 114 33t46 95q0 35 -13 58t-45.5 41t-91.5 35q-112 33 -167 77.5t-55 121.5q0 51 28 92t79 63.5t116 22.5q68 0 121.5 -20t98.5 -59l-52 -56q-71 62 -165 62
q-60 0 -99 -26t-39 -76q0 -30 16 -51t53 -39t104 -37q97 -28 149.5 -73t52.5 -134q0 -60 -30 -105.5zM426 871l-130 -143l-41 25l105 162z" />
    <glyph glyph-name="Zacute.loclPLK" 
d="M527 75l-10 -75h-445v70l363 544h-327v75h420v-72l-361 -542h360zM439 871l-130 -143l-41 25l105 162z" />
    <glyph glyph-name="a" unicode="a" 
d="M488 69.5q10 -14.5 33 -21.5l-21 -60q-77 10 -96 75q-28 -36 -70.5 -55t-94.5 -19q-79 0 -124.5 44t-45.5 118q0 81 63.5 125t182.5 44h78v43q0 56 -32 80.5t-93 24.5q-60 0 -137 -27l-23 64q93 33 173 33q96 0 146.5 -45t50.5 -125v-253q0 -31 10 -45.5zM334.5 72
q35.5 20 58.5 55v135h-76q-84 0 -121 -28t-37 -82q0 -100 101 -100q39 0 74.5 20z" />
    <glyph glyph-name="aacute" unicode="&#xe1;" 
d="M488 69.5q10 -14.5 33 -21.5l-21 -60q-77 10 -96 75q-28 -36 -70.5 -55t-94.5 -19q-79 0 -124.5 44t-45.5 118q0 81 63.5 125t182.5 44h78v43q0 56 -32 80.5t-93 24.5q-60 0 -137 -27l-23 64q93 33 173 33q96 0 146.5 -45t50.5 -125v-253q0 -31 10 -45.5zM334.5 72
q35.5 20 58.5 55v135h-76q-84 0 -121 -28t-37 -82q0 -100 101 -100q39 0 74.5 20zM414 725l-209 -85l-26 45l197 112z" />
    <glyph glyph-name="abreve" unicode="&#x103;" 
d="M488 69.5q10 -14.5 33 -21.5l-21 -60q-77 10 -96 75q-28 -36 -70.5 -55t-94.5 -19q-79 0 -124.5 44t-45.5 118q0 81 63.5 125t182.5 44h78v43q0 56 -32 80.5t-93 24.5q-60 0 -137 -27l-23 64q93 33 173 33q96 0 146.5 -45t50.5 -125v-253q0 -31 10 -45.5zM334.5 72
q35.5 20 58.5 55v135h-76q-84 0 -121 -28t-37 -82q0 -100 101 -100q39 0 74.5 20zM215 650.5q-32 20.5 -50.5 51.5t-22.5 64l58 13q25 -85 90 -85q35 0 58 22.5t35 62.5l57 -13q-4 -33 -23 -64t-51.5 -51.5t-75.5 -20.5t-75 20.5z" />
    <glyph glyph-name="acircumflex" unicode="&#xe2;" 
d="M488 69.5q10 -14.5 33 -21.5l-21 -60q-77 10 -96 75q-28 -36 -70.5 -55t-94.5 -19q-79 0 -124.5 44t-45.5 118q0 81 63.5 125t182.5 44h78v43q0 56 -32 80.5t-93 24.5q-60 0 -137 -27l-23 64q93 33 173 33q96 0 146.5 -45t50.5 -125v-253q0 -31 10 -45.5zM334.5 72
q35.5 20 58.5 55v135h-76q-84 0 -121 -28t-37 -82q0 -100 101 -100q39 0 74.5 20zM129 670l135 119h57l134 -119l-38 -41l-124 91l-124 -91z" />
    <glyph glyph-name="adieresis" unicode="&#xe4;" 
d="M488 69.5q10 -14.5 33 -21.5l-21 -60q-77 10 -96 75q-28 -36 -70.5 -55t-94.5 -19q-79 0 -124.5 44t-45.5 118q0 81 63.5 125t182.5 44h78v43q0 56 -32 80.5t-93 24.5q-60 0 -137 -27l-23 64q93 33 173 33q96 0 146.5 -45t50.5 -125v-253q0 -31 10 -45.5zM334.5 72
q35.5 20 58.5 55v135h-76q-84 0 -121 -28t-37 -82q0 -100 101 -100q39 0 74.5 20zM149 663.5q-16 15.5 -16 37.5q0 24 16 39.5t39 15.5t38.5 -15.5t15.5 -39.5q0 -23 -15.5 -38t-38.5 -15t-39 15.5zM356.5 663q-15.5 15 -15.5 38q0 24 15.5 39.5t38.5 15.5t39 -15.5
t16 -39.5q0 -22 -16 -37.5t-39 -15.5t-38.5 15z" />
    <glyph glyph-name="agrave" unicode="&#xe0;" 
d="M488 69.5q10 -14.5 33 -21.5l-21 -60q-77 10 -96 75q-28 -36 -70.5 -55t-94.5 -19q-79 0 -124.5 44t-45.5 118q0 81 63.5 125t182.5 44h78v43q0 56 -32 80.5t-93 24.5q-60 0 -137 -27l-23 64q93 33 173 33q96 0 146.5 -45t50.5 -125v-253q0 -31 10 -45.5zM334.5 72
q35.5 20 58.5 55v135h-76q-84 0 -121 -28t-37 -82q0 -100 101 -100q39 0 74.5 20zM176 715l46 72l184 -119l-27 -46z" />
    <glyph glyph-name="amacron" unicode="&#x101;" 
d="M488 69.5q10 -14.5 33 -21.5l-21 -60q-77 10 -96 75q-28 -36 -70.5 -55t-94.5 -19q-79 0 -124.5 44t-45.5 118q0 81 63.5 125t182.5 44h78v43q0 56 -32 80.5t-93 24.5q-60 0 -137 -27l-23 64q93 33 173 33q96 0 146.5 -45t50.5 -125v-253q0 -31 10 -45.5zM334.5 72
q35.5 20 58.5 55v135h-76q-84 0 -121 -28t-37 -82q0 -100 101 -100q39 0 74.5 20zM157 676v64h269v-64h-269z" />
    <glyph glyph-name="aogonek" unicode="&#x105;" 
d="M402 -70q-26 -27 -26 -56q0 -24 13 -36t43 -12q27 0 61 7l-8 -68q-42 -6 -64 -6q-56 0 -89 27.5t-33 70.5q0 47 36 84t112 65q-32 19 -43 57q-28 -36 -70.5 -55t-94.5 -19q-79 0 -124.5 44t-45.5 118q0 81 63.5 125t182.5 44h78v43q0 56 -32 80.5t-93 24.5
q-60 0 -137 -27l-23 64q93 33 173 33q96 0 146.5 -45t50.5 -125v-253q0 -31 10 -45.5t33 -21.5l-21 -60q-72 -31 -98 -58zM393 262h-76q-84 0 -121 -28t-37 -82q0 -100 101 -100q39 0 74.5 20t58.5 55v135z" />
    <glyph glyph-name="aring" unicode="&#xe5;" 
d="M488 69.5q10 -14.5 33 -21.5l-21 -60q-77 10 -96 75q-28 -36 -70.5 -55t-94.5 -19q-79 0 -124.5 44t-45.5 118q0 81 63.5 125t182.5 44h78v43q0 56 -32 80.5t-93 24.5q-60 0 -137 -27l-23 64q93 33 173 33q96 0 146.5 -45t50.5 -125v-253q0 -31 10 -45.5zM334.5 72
q35.5 20 58.5 55v135h-76q-84 0 -121 -28t-37 -82q0 -100 101 -100q39 0 74.5 20zM371.5 794q31.5 -30 31.5 -73t-31.5 -72.5t-79.5 -29.5t-79.5 29.5t-31.5 72.5t31.5 73t79.5 30t79.5 -30zM252.5 762q-14.5 -15 -14.5 -41q0 -27 14.5 -42t39.5 -15q26 0 40 15t14 42
q0 26 -14.5 41t-39.5 15t-39.5 -15z" />
    <glyph glyph-name="atilde" unicode="&#xe3;" 
d="M488 69.5q10 -14.5 33 -21.5l-21 -60q-77 10 -96 75q-28 -36 -70.5 -55t-94.5 -19q-79 0 -124.5 44t-45.5 118q0 81 63.5 125t182.5 44h78v43q0 56 -32 80.5t-93 24.5q-60 0 -137 -27l-23 64q93 33 173 33q96 0 146.5 -45t50.5 -125v-253q0 -31 10 -45.5zM334.5 72
q35.5 20 58.5 55v135h-76q-84 0 -121 -28t-37 -82q0 -100 101 -100q39 0 74.5 20zM315.5 666q-15.5 7 -34.5 20q-15 11 -25.5 16t-21.5 5q-16 0 -28 -11t-25 -35l-53 26q19 39 45.5 62t60.5 23q21 0 36 -7.5t34 -20.5q17 -12 26 -16.5t20 -4.5q15 0 27 10.5t26 34.5l54 -27
q-19 -41 -46.5 -61.5t-60.5 -20.5q-19 0 -34.5 7z" />
    <glyph glyph-name="ae" unicode="&#xe6;" 
d="M564.5 470.5q42.5 -67.5 42.5 -191.5q0 -22 -2 -46h-269q7 -91 33.5 -132.5t79.5 -41.5q27 0 49.5 9.5t49.5 30.5l39 -58q-33 -26 -66 -39t-74 -13q-51 0 -87 22.5t-61 66.5q-35 -48 -69.5 -68.5t-83.5 -20.5q-70 0 -111 44t-41 118q0 83 54.5 126t159.5 43h46v43
q0 105 -91 105q-26 0 -48 -6t-57 -21l-22 63q71 34 135 34q56 0 88.5 -22.5t49.5 -65.5q14 41 46.5 64.5t79.5 23.5q87 0 129.5 -67.5zM364 430q-22 -38 -28 -131h189q-2 86 -23 127.5t-70 41.5q-46 0 -68 -38zM212 262q-69 0 -98 -27.5t-29 -78.5q0 -50 20 -76.5t54 -26.5
q31 0 55.5 23t53.5 74q-14 45 -14 112h-42z" />
    <glyph glyph-name="aeacute" unicode="&#x1fd;" 
d="M564.5 470.5q42.5 -67.5 42.5 -191.5q0 -22 -2 -46h-269q7 -91 33.5 -132.5t79.5 -41.5q27 0 49.5 9.5t49.5 30.5l39 -58q-33 -26 -66 -39t-74 -13q-51 0 -87 22.5t-61 66.5q-35 -48 -69.5 -68.5t-83.5 -20.5q-70 0 -111 44t-41 118q0 83 54.5 126t159.5 43h46v43
q0 105 -91 105q-26 0 -48 -6t-57 -21l-22 63q71 34 135 34q56 0 88.5 -22.5t49.5 -65.5q14 41 46.5 64.5t79.5 23.5q87 0 129.5 -67.5zM364 430q-22 -38 -28 -131h189q-2 86 -23 127.5t-70 41.5q-46 0 -68 -38zM212 262q-69 0 -98 -27.5t-29 -78.5q0 -50 20 -76.5t54 -26.5
q31 0 55.5 23t53.5 74q-14 45 -14 112h-42zM431 725l-209 -85l-26 45l197 112z" />
    <glyph glyph-name="b" unicode="b" 
d="M335 538q101 0 149 -72t48 -202q0 -124 -55 -199.5t-154 -75.5q-91 0 -143 66l-6 -55h-74v739l84 10v-291q61 80 151 80zM405.5 109q35.5 52 35.5 155q0 102 -31.5 154t-93.5 52q-40 0 -73.5 -24t-58.5 -60v-261q21 -32 52 -50t68 -18q66 0 101.5 52z" />
    <glyph glyph-name="c" unicode="c" 
d="M476 107l40 -55q-33 -29 -82 -46t-95 -17q-117 0 -182.5 73.5t-65.5 198.5q0 79 29.5 142t85.5 99t133 36q102 0 176 -62l-41 -55q-69 46 -136 46q-71 0 -113.5 -52.5t-42.5 -153.5t42.5 -150.5t114.5 -49.5q69 0 137 46z" />
    <glyph glyph-name="cacute" unicode="&#x107;" 
d="M476 107l40 -55q-33 -29 -82 -46t-95 -17q-117 0 -182.5 73.5t-65.5 198.5q0 79 29.5 142t85.5 99t133 36q102 0 176 -62l-41 -55q-69 46 -136 46q-71 0 -113.5 -52.5t-42.5 -153.5t42.5 -150.5t114.5 -49.5q69 0 137 46zM466 716l-209 -85l-26 45l197 112z" />
    <glyph glyph-name="ccaron" unicode="&#x10d;" 
d="M476 107l40 -55q-33 -29 -82 -46t-95 -17q-117 0 -182.5 73.5t-65.5 198.5q0 79 29.5 142t85.5 99t133 36q102 0 176 -62l-41 -55q-69 46 -136 46q-71 0 -113.5 -52.5t-42.5 -153.5t42.5 -150.5t114.5 -49.5q69 0 137 46zM507 739l-134 -119h-57l-135 119l40 41l124 -90
l124 90z" />
    <glyph glyph-name="ccedilla" unicode="&#xe7;" 
d="M428.5 -84.5q23.5 -23.5 23.5 -55.5q0 -47 -35.5 -72.5t-86.5 -25.5q-30 0 -57.5 6.5t-47.5 17.5l27 48q30 -16 67 -16q60 0 60 41q0 26 -21 35t-65 9l6 88q-99 13 -153.5 84.5t-54.5 185.5q0 79 29.5 142t85.5 99t133 36q102 0 176 -62l-41 -55q-69 46 -136 46
q-71 0 -113.5 -52.5t-42.5 -153.5t42.5 -150.5t114.5 -49.5q69 0 137 46l40 -55q-29 -26 -71.5 -42.5t-85.5 -20.5v-46q46 -4 69.5 -27.5z" />
    <glyph glyph-name="ccircumflex" unicode="&#x109;" 
d="M476 107l40 -55q-33 -29 -82 -46t-95 -17q-117 0 -182.5 73.5t-65.5 198.5q0 79 29.5 142t85.5 99t133 36q102 0 176 -62l-41 -55q-69 46 -136 46q-71 0 -113.5 -52.5t-42.5 -153.5t42.5 -150.5t114.5 -49.5q69 0 137 46zM181 661l135 119h57l134 -119l-38 -41l-124 91
l-124 -91z" />
    <glyph glyph-name="cdotaccent" unicode="&#x10b;" 
d="M476 107l40 -55q-33 -29 -82 -46t-95 -17q-117 0 -182.5 73.5t-65.5 198.5q0 79 29.5 142t85.5 99t133 36q102 0 176 -62l-41 -55q-69 46 -136 46q-71 0 -113.5 -52.5t-42.5 -153.5t42.5 -150.5t114.5 -49.5q69 0 137 46zM387 747.5q17 -16.5 17 -42.5t-17 -42.5
t-44 -16.5t-43.5 16.5t-16.5 42.5t16.5 42.5t43.5 16.5t44 -16.5z" />
    <glyph glyph-name="d" unicode="d" 
d="M500 739v-739h-74l-8 69q-29 -40 -67 -60t-82 -20q-100 0 -150.5 73t-50.5 201q0 79 25 141.5t71.5 98t109.5 35.5q87 0 142 -63v274zM194.5 418q-35.5 -52 -35.5 -155q0 -102 32.5 -154.5t94.5 -52.5q75 0 130 84v262q-22 33 -53 50.5t-67 17.5q-66 0 -101.5 -52z" />
    <glyph glyph-name="eth" unicode="&#xf0;" 
d="M250 647q-49 23 -117 36l19 66q92 -19 149 -49l70 73l51 -44l-62 -64q89 -61 130.5 -159t41.5 -242q0 -84 -29.5 -146t-83 -95.5t-124.5 -33.5q-64 0 -116 29t-82 84.5t-30 132.5q0 72 29 128t78 87t106 31q97 0 157 -69q-13 63 -46.5 114t-82.5 86l-79 -80l-59 30z
M444 332q-25 40 -65 61t-89 21q-59 0 -98 -44.5t-39 -130.5q0 -87 38.5 -134.5t102.5 -47.5q71 0 112.5 54.5t41.5 155.5q0 25 -4 65z" />
    <glyph glyph-name="dcaron" unicode="&#x10f;" 
d="M471 739v-739h-74l-8 69q-29 -40 -67 -60t-82 -20q-100 0 -150.5 73t-50.5 201q0 79 25 141.5t71.5 98t109.5 35.5q87 0 142 -63v274zM165.5 418q-35.5 -52 -35.5 -155q0 -102 32.5 -154.5t94.5 -52.5q75 0 130 84v262q-22 33 -53 50.5t-67 17.5q-66 0 -101.5 -52z
M613 738l-53 -178l-48 7l25 181z" />
    <glyph glyph-name="dcroat" unicode="&#x111;" 
d="M581 597h-79v-597h-74l-8 69q-57 -80 -149 -80q-100 0 -150.5 73t-50.5 201q0 79 25 141.5t71.5 98t110.5 35.5q87 0 141 -63v122h-171v68h171v84l84 -10v-74h79v-68zM418 402q-22 33 -53 50.5t-67 17.5q-66 0 -101 -52t-35 -155q0 -102 32 -154.5t94 -52.5q75 0 130 84
v262z" />
    <glyph glyph-name="e" unicode="e" 
d="M212.5 103q42.5 -44 107.5 -44q39 0 71.5 11.5t69.5 35.5l39 -56q-37 -29 -84.5 -45t-95.5 -16q-114 0 -177.5 74.5t-63.5 199.5q0 79 28 141.5t80 98t121 35.5q100 0 157.5 -69.5t57.5 -189.5q0 -23 -2 -45h-354q3 -87 45.5 -131zM210 425.5q-38 -43.5 -43 -127.5h274
q-1 83 -36 127t-96 44t-99 -43.5z" />
    <glyph glyph-name="eacute" unicode="&#xe9;" 
d="M212.5 103q42.5 -44 107.5 -44q39 0 71.5 11.5t69.5 35.5l39 -56q-37 -29 -84.5 -45t-95.5 -16q-114 0 -177.5 74.5t-63.5 199.5q0 79 28 141.5t80 98t121 35.5q100 0 157.5 -69.5t57.5 -189.5q0 -23 -2 -45h-354q3 -87 45.5 -131zM210 425.5q-38 -43.5 -43 -127.5h274
q-1 83 -36 127t-96 44t-99 -43.5zM432 725l-209 -85l-26 45l197 112z" />
    <glyph glyph-name="ebreve" unicode="&#x115;" 
d="M212.5 103q42.5 -44 107.5 -44q39 0 71.5 11.5t69.5 35.5l39 -56q-37 -29 -84.5 -45t-95.5 -16q-114 0 -177.5 74.5t-63.5 199.5q0 79 28 141.5t80 98t121 35.5q100 0 157.5 -69.5t57.5 -189.5q0 -23 -2 -45h-354q3 -87 45.5 -131zM210 425.5q-38 -43.5 -43 -127.5h274
q-1 83 -36 127t-96 44t-99 -43.5zM233 650.5q-32 20.5 -50.5 51.5t-22.5 64l58 13q25 -85 90 -85q35 0 58 22.5t35 62.5l57 -13q-4 -33 -23 -64t-51.5 -51.5t-75.5 -20.5t-75 20.5z" />
    <glyph glyph-name="ecaron" unicode="&#x11b;" 
d="M212.5 103q42.5 -44 107.5 -44q39 0 71.5 11.5t69.5 35.5l39 -56q-37 -29 -84.5 -45t-95.5 -16q-114 0 -177.5 74.5t-63.5 199.5q0 79 28 141.5t80 98t121 35.5q100 0 157.5 -69.5t57.5 -189.5q0 -23 -2 -45h-354q3 -87 45.5 -131zM210 425.5q-38 -43.5 -43 -127.5h274
q-1 83 -36 127t-96 44t-99 -43.5zM473 748l-134 -119h-57l-135 119l40 41l124 -90l124 90z" />
    <glyph glyph-name="ecircumflex" unicode="&#xea;" 
d="M212.5 103q42.5 -44 107.5 -44q39 0 71.5 11.5t69.5 35.5l39 -56q-37 -29 -84.5 -45t-95.5 -16q-114 0 -177.5 74.5t-63.5 199.5q0 79 28 141.5t80 98t121 35.5q100 0 157.5 -69.5t57.5 -189.5q0 -23 -2 -45h-354q3 -87 45.5 -131zM210 425.5q-38 -43.5 -43 -127.5h274
q-1 83 -36 127t-96 44t-99 -43.5zM147 670l135 119h57l134 -119l-38 -41l-124 91l-124 -91z" />
    <glyph glyph-name="edieresis" unicode="&#xeb;" 
d="M212.5 103q42.5 -44 107.5 -44q39 0 71.5 11.5t69.5 35.5l39 -56q-37 -29 -84.5 -45t-95.5 -16q-114 0 -177.5 74.5t-63.5 199.5q0 79 28 141.5t80 98t121 35.5q100 0 157.5 -69.5t57.5 -189.5q0 -23 -2 -45h-354q3 -87 45.5 -131zM210 425.5q-38 -43.5 -43 -127.5h274
q-1 83 -36 127t-96 44t-99 -43.5zM167 663.5q-16 15.5 -16 37.5q0 24 16 39.5t39 15.5t38.5 -15.5t15.5 -39.5q0 -23 -15.5 -38t-38.5 -15t-39 15.5zM374.5 663q-15.5 15 -15.5 38q0 24 15.5 39.5t38.5 15.5t39 -15.5t16 -39.5q0 -22 -16 -37.5t-39 -15.5t-38.5 15z" />
    <glyph glyph-name="edotaccent" unicode="&#x117;" 
d="M212.5 103q42.5 -44 107.5 -44q39 0 71.5 11.5t69.5 35.5l39 -56q-37 -29 -84.5 -45t-95.5 -16q-114 0 -177.5 74.5t-63.5 199.5q0 79 28 141.5t80 98t121 35.5q100 0 157.5 -69.5t57.5 -189.5q0 -23 -2 -45h-354q3 -87 45.5 -131zM210 425.5q-38 -43.5 -43 -127.5h274
q-1 83 -36 127t-96 44t-99 -43.5zM353 756.5q17 -16.5 17 -42.5t-17 -42.5t-44 -16.5t-43.5 16.5t-16.5 42.5t16.5 42.5t43.5 16.5t44 -16.5z" />
    <glyph glyph-name="egrave" unicode="&#xe8;" 
d="M212.5 103q42.5 -44 107.5 -44q39 0 71.5 11.5t69.5 35.5l39 -56q-37 -29 -84.5 -45t-95.5 -16q-114 0 -177.5 74.5t-63.5 199.5q0 79 28 141.5t80 98t121 35.5q100 0 157.5 -69.5t57.5 -189.5q0 -23 -2 -45h-354q3 -87 45.5 -131zM210 425.5q-38 -43.5 -43 -127.5h274
q-1 83 -36 127t-96 44t-99 -43.5zM194 715l46 72l184 -119l-27 -46z" />
    <glyph glyph-name="emacron" unicode="&#x113;" 
d="M212.5 103q42.5 -44 107.5 -44q39 0 71.5 11.5t69.5 35.5l39 -56q-37 -29 -84.5 -45t-95.5 -16q-114 0 -177.5 74.5t-63.5 199.5q0 79 28 141.5t80 98t121 35.5q100 0 157.5 -69.5t57.5 -189.5q0 -23 -2 -45h-354q3 -87 45.5 -131zM210 425.5q-38 -43.5 -43 -127.5h274
q-1 83 -36 127t-96 44t-99 -43.5zM175 676v64h269v-64h-269z" />
    <glyph glyph-name="eogonek" unicode="&#x119;" 
d="M521 234h-354q3 -87 45.5 -131t107.5 -44q39 0 71.5 11.5t69.5 35.5l39 -56q-42 -33 -103 -51q-71 -31 -96.5 -57.5t-25.5 -55.5q0 -24 13 -36t43 -12q27 0 61 7l-8 -68q-42 -6 -64 -6q-56 0 -89 27.5t-33 70.5q0 38 26 69t76 51q-105 7 -163 80.5t-58 193.5
q0 79 28 141.5t80 98t121 35.5q100 0 157.5 -69.5t57.5 -189.5q0 -23 -2 -45zM441 298q-1 83 -36 127t-96 44t-99 -43.5t-43 -127.5h274z" />
    <glyph glyph-name="f" unicode="f" 
d="M554 721l-27 -63q-50 22 -113 22q-110 0 -110 -87v-107h178l-9 -67h-169v-419h-85v419h-125v67h125v105q0 71 54.5 114.5t137.5 43.5q75 0 143 -28z" />
    <glyph glyph-name="g" unicode="g" 
d="M554 503q-30 -10 -65 -12.5t-89 -2.5q92 -42 92 -133q0 -80 -53 -129.5t-145 -49.5q-47 0 -79 11q-12 -9 -19.5 -23t-7.5 -28q0 -45 70 -45h95q52 0 94.5 -18.5t67 -51.5t24.5 -73q0 -77 -65.5 -118.5t-185.5 -41.5q-122 0 -172 38t-50 121h76q0 -33 12.5 -52.5t44 -29
t89.5 -9.5q85 0 125.5 22t40.5 65q0 36 -33 55.5t-85 19.5h-94q-65 0 -99 28.5t-34 71.5q0 25 15 49.5t43 42.5q-45 23 -66.5 58.5t-21.5 86.5q0 53 26.5 94.5t74 65t109.5 23.5q90 0 137 10t103 34zM196 443.5q-31 -32.5 -31 -88.5t31.5 -89.5t93.5 -33.5q56 0 85.5 32.5
t29.5 91.5q0 120 -117 120q-61 0 -92 -32.5z" />
    <glyph glyph-name="gbreve" unicode="&#x11f;" 
d="M554 503q-30 -10 -65 -12.5t-89 -2.5q92 -42 92 -133q0 -80 -53 -129.5t-145 -49.5q-47 0 -79 11q-12 -9 -19.5 -23t-7.5 -28q0 -45 70 -45h95q52 0 94.5 -18.5t67 -51.5t24.5 -73q0 -77 -65.5 -118.5t-185.5 -41.5q-122 0 -172 38t-50 121h76q0 -33 12.5 -52.5t44 -29
t89.5 -9.5q85 0 125.5 22t40.5 65q0 36 -33 55.5t-85 19.5h-94q-65 0 -99 28.5t-34 71.5q0 25 15 49.5t43 42.5q-45 23 -66.5 58.5t-21.5 86.5q0 53 26.5 94.5t74 65t109.5 23.5q90 0 137 10t103 34zM196 443.5q-31 -32.5 -31 -88.5t31.5 -89.5t93.5 -33.5q56 0 85.5 32.5
t29.5 91.5q0 120 -117 120q-61 0 -92 -32.5zM216 650.5q-32 20.5 -50.5 51.5t-22.5 64l58 13q25 -85 90 -85q35 0 58 22.5t35 62.5l57 -13q-4 -33 -23 -64t-51.5 -51.5t-75.5 -20.5t-75 20.5z" />
    <glyph glyph-name="gcircumflex" unicode="&#x11d;" 
d="M554 503q-30 -10 -65 -12.5t-89 -2.5q92 -42 92 -133q0 -80 -53 -129.5t-145 -49.5q-47 0 -79 11q-12 -9 -19.5 -23t-7.5 -28q0 -45 70 -45h95q52 0 94.5 -18.5t67 -51.5t24.5 -73q0 -77 -65.5 -118.5t-185.5 -41.5q-122 0 -172 38t-50 121h76q0 -33 12.5 -52.5t44 -29
t89.5 -9.5q85 0 125.5 22t40.5 65q0 36 -33 55.5t-85 19.5h-94q-65 0 -99 28.5t-34 71.5q0 25 15 49.5t43 42.5q-45 23 -66.5 58.5t-21.5 86.5q0 53 26.5 94.5t74 65t109.5 23.5q90 0 137 10t103 34zM196 443.5q-31 -32.5 -31 -88.5t31.5 -89.5t93.5 -33.5q56 0 85.5 32.5
t29.5 91.5q0 120 -117 120q-61 0 -92 -32.5zM130 670l135 119h57l134 -119l-38 -41l-124 91l-124 -91z" />
    <glyph glyph-name="gcommaaccent" unicode="&#x123;" 
d="M251 613.5q-16 15.5 -16 37.5q0 21 15 55l51 107h50l-29 -117q22 -17 22 -45q0 -23 -15.5 -38t-38.5 -15t-39 15.5zM554 503q-30 -10 -65 -12.5t-89 -2.5q92 -42 92 -133q0 -80 -53 -129.5t-145 -49.5q-47 0 -79 11q-12 -9 -19.5 -23t-7.5 -28q0 -45 70 -45h95
q52 0 94.5 -18.5t67 -51.5t24.5 -73q0 -77 -65.5 -118.5t-185.5 -41.5q-122 0 -172 38t-50 121h76q0 -33 12.5 -52.5t44 -29t89.5 -9.5q85 0 125.5 22t40.5 65q0 36 -33 55.5t-85 19.5h-94q-65 0 -99 28.5t-34 71.5q0 25 15 49.5t43 42.5q-45 23 -66.5 58.5t-21.5 86.5
q0 53 26.5 94.5t74 65t109.5 23.5q90 0 137 10t103 34zM196 443.5q-31 -32.5 -31 -88.5t31.5 -89.5t93.5 -33.5q56 0 85.5 32.5t29.5 91.5q0 120 -117 120q-61 0 -92 -32.5z" />
    <glyph glyph-name="gdotaccent" unicode="&#x121;" 
d="M554 503q-30 -10 -65 -12.5t-89 -2.5q92 -42 92 -133q0 -80 -53 -129.5t-145 -49.5q-47 0 -79 11q-12 -9 -19.5 -23t-7.5 -28q0 -45 70 -45h95q52 0 94.5 -18.5t67 -51.5t24.5 -73q0 -77 -65.5 -118.5t-185.5 -41.5q-122 0 -172 38t-50 121h76q0 -33 12.5 -52.5t44 -29
t89.5 -9.5q85 0 125.5 22t40.5 65q0 36 -33 55.5t-85 19.5h-94q-65 0 -99 28.5t-34 71.5q0 25 15 49.5t43 42.5q-45 23 -66.5 58.5t-21.5 86.5q0 53 26.5 94.5t74 65t109.5 23.5q90 0 137 10t103 34zM196 443.5q-31 -32.5 -31 -88.5t31.5 -89.5t93.5 -33.5q56 0 85.5 32.5
t29.5 91.5q0 120 -117 120q-61 0 -92 -32.5zM336 756.5q17 -16.5 17 -42.5t-17 -42.5t-44 -16.5t-43.5 16.5t-16.5 42.5t16.5 42.5t43.5 16.5t44 -16.5z" />
    <glyph glyph-name="h" unicode="h" 
d="M184 454q31 40 76 62t93 22q148 0 148 -156v-382h-84v381q0 47 -22 68.5t-70 21.5q-41 0 -79 -26t-62 -61v-384h-84v738l84 9v-293z" />
    <glyph glyph-name="hbar" unicode="&#x127;" 
d="M501 382v-382h-84v381q0 47 -22 68.5t-70 21.5q-41 0 -79 -26t-62 -61v-384h-84v597h-81v68h81v73l84 9v-82h169v-68h-169v-143q31 40 76 62t93 22q148 0 148 -156z" />
    <glyph glyph-name="hcircumflex" unicode="&#x125;" 
d="M184 454q31 40 76 62t93 22q148 0 148 -156v-382h-84v381q0 47 -22 68.5t-70 21.5q-41 0 -79 -26t-62 -61v-384h-84v738l84 9v-293zM463 853l-37 -43l-126 81l-125 -81l-38 43l135 107h57z" />
    <glyph glyph-name="i" unicode="i" 
d="M345 756.5q17 -16.5 17 -42.5t-17 -42.5t-45 -16.5q-27 0 -43.5 16.5t-16.5 42.5t16.5 42.5t43.5 16.5q28 0 45 -16.5zM367 67h148v-67h-394v67h162v393h-157v67h241v-460z" />
    <glyph glyph-name="dotlessi" unicode="&#x131;" 
d="M367 67h148v-67h-394v67h162v393h-157v67h241v-460z" />
    <glyph glyph-name="iacute" unicode="&#xed;" 
d="M367 67h148v-67h-394v67h162v393h-157v67h241v-460zM423 725l-209 -85l-26 45l197 112z" />
    <glyph glyph-name="ibreve" unicode="&#x12d;" 
d="M367 67h148v-67h-394v67h162v393h-157v67h241v-460zM224 650.5q-32 20.5 -50.5 51.5t-22.5 64l58 13q25 -85 90 -85q35 0 58 22.5t35 62.5l57 -13q-4 -33 -23 -64t-51.5 -51.5t-75.5 -20.5t-75 20.5z" />
    <glyph glyph-name="icircumflex" unicode="&#xee;" 
d="M367 67h148v-67h-394v67h162v393h-157v67h241v-460zM138 670l135 119h57l134 -119l-38 -41l-124 91l-124 -91z" />
    <glyph glyph-name="idieresis" unicode="&#xef;" 
d="M367 67h148v-67h-394v67h162v393h-157v67h241v-460zM158 663.5q-16 15.5 -16 37.5q0 24 16 39.5t39 15.5t38.5 -15.5t15.5 -39.5q0 -23 -15.5 -38t-38.5 -15t-39 15.5zM365.5 663q-15.5 15 -15.5 38q0 24 15.5 39.5t38.5 15.5t39 -15.5t16 -39.5q0 -22 -16 -37.5
t-39 -15.5t-38.5 15z" />
    <glyph glyph-name="i.loclTRK" 
d="M367 67h148v-67h-394v67h162v393h-157v67h241v-460zM344 756.5q17 -16.5 17 -42.5t-17 -42.5t-44 -16.5t-43.5 16.5t-16.5 42.5t16.5 42.5t43.5 16.5t44 -16.5z" />
    <glyph glyph-name="igrave" unicode="&#xec;" 
d="M367 67h148v-67h-394v67h162v393h-157v67h241v-460zM185 715l46 72l184 -119l-27 -46z" />
    <glyph glyph-name="ij" unicode="&#x133;" 
d="M228.5 756.5q17.5 -16.5 17.5 -42.5t-17.5 -42.5t-44.5 -16.5t-43.5 16.5t-16.5 42.5t16.5 42.5t43.5 16.5t44.5 -16.5zM492.5 756.5q17.5 -16.5 17.5 -42.5t-17.5 -42.5t-44.5 -16.5t-43.5 16.5t-16.5 42.5t16.5 42.5t43.5 16.5t44.5 -16.5zM500 55q0 -101 -68.5 -164.5
t-186.5 -102.5l-25 66q91 35 144.5 78t53.5 118v412h-195v-395h96v-67h-271v67h94v395h-89v65h447v-472z" />
    <glyph glyph-name="imacron" unicode="&#x12b;" 
d="M367 67h148v-67h-394v67h162v393h-157v67h241v-460zM166 676v64h269v-64h-269z" />
    <glyph glyph-name="iogonek" unicode="&#x12f;" 
d="M256.5 671.5q-16.5 16.5 -16.5 42.5t16.5 42.5t43.5 16.5t44 -16.5t17 -42.5t-17 -42.5t-44 -16.5t-43.5 16.5zM515 67v-67h-148q-72 -31 -98 -58t-26 -56q0 -24 13 -36t43 -12q27 0 61 7l-8 -68q-42 -6 -64 -6q-56 0 -89 27.5t-33 70.5q0 80 105 131h-150v67h162v393
h-157v67h241v-460h148z" />
    <glyph glyph-name="itilde" unicode="&#x129;" 
d="M367 67h148v-67h-394v67h162v393h-157v67h241v-460zM324.5 666q-15.5 7 -34.5 20q-15 11 -25.5 16t-21.5 5q-16 0 -28 -11t-25 -35l-53 26q19 39 45.5 62t60.5 23q21 0 36 -7.5t34 -20.5q17 -12 26 -16.5t20 -4.5q15 0 27 10.5t26 34.5l54 -27q-19 -41 -46.5 -61.5
t-60.5 -20.5q-19 0 -34.5 7z" />
    <glyph glyph-name="j" unicode="j" 
d="M411 756.5q17 -16.5 17 -42.5t-17 -42.5t-44 -16.5t-44 16.5t-17 42.5t17 42.5t44 16.5t44 -16.5zM445 84q0 -127 -84.5 -197.5t-250.5 -98.5l-14 65q127 21 196 73.5t69 152.5v381h-219v67h303v-443z" />
    <glyph glyph-name="uni0237" unicode="&#x237;" 
d="M445 84q0 -127 -84.5 -197.5t-250.5 -98.5l-14 65q127 21 196 73.5t69 152.5v381h-219v67h303v-443z" />
    <glyph glyph-name="jcircumflex" unicode="&#x135;" 
d="M445 84q0 -127 -84.5 -197.5t-250.5 -98.5l-14 65q127 21 196 73.5t69 152.5v381h-219v67h303v-443zM205 670l135 119h57l134 -119l-38 -41l-124 91l-124 -91z" />
    <glyph glyph-name="k" unicode="k" 
d="M190 0h-84v739l84 10v-749zM305 289l264 -289h-111l-259 288l234 239h108z" />
    <glyph glyph-name="kcommaaccent" unicode="&#x137;" 
d="M190 0h-84v739l84 10v-749zM305 289l264 -289h-111l-259 288l234 239h108zM348 -86.5q16 -15.5 16 -37.5q0 -21 -15 -55l-51 -107h-50l29 117q-22 17 -22 45q0 23 15.5 38t38.5 15t39 -15.5z" />
    <glyph glyph-name="kgreenlandic" unicode="&#x138;" 
d="M184 0h-84v527h84v-527zM297 288l266 -288h-110l-259 283l233 244h109z" />
    <glyph glyph-name="l" unicode="l" 
d="M306 130q0 -71 87 -71q41 0 88 18l22 -61q-50 -27 -125 -27q-71 0 -113.5 39t-42.5 106v538h-162v67h246v-609z" />
    <glyph glyph-name="lacute" unicode="&#x13a;" 
d="M306 130q0 -71 87 -71q41 0 88 18l22 -61q-50 -27 -125 -27q-71 0 -113.5 39t-42.5 106v538h-162v67h246v-609zM387 937l-209 -85l-26 45l197 112z" />
    <glyph glyph-name="lcaron" unicode="&#x13e;" 
d="M306 130q0 -71 87 -71q41 0 88 18l22 -61q-50 -27 -125 -27q-71 0 -113.5 39t-42.5 106v538h-162v67h246v-609zM458 738l-53 -178l-48 7l25 181z" />
    <glyph glyph-name="lcommaaccent" unicode="&#x13c;" 
d="M306 130q0 -71 87 -71q41 0 88 18l22 -61q-50 -27 -125 -27q-71 0 -113.5 39t-42.5 106v538h-162v67h246v-609zM403 -86.5q16 -15.5 16 -37.5q0 -21 -15 -55l-51 -107h-50l29 117q-22 17 -22 45q0 23 15.5 38t38.5 15t39 -15.5z" />
    <glyph glyph-name="ldot" unicode="&#x140;" 
d="M306 130q0 -71 87 -71q41 0 88 18l22 -61q-50 -27 -125 -27q-71 0 -113.5 39t-42.5 106v538h-162v67h246v-609zM604 423.5q17 -16.5 17 -42.5t-17 -42.5t-44 -16.5t-43.5 16.5t-16.5 42.5t16.5 42.5t43.5 16.5t44 -16.5z" />
    <glyph glyph-name="lslash" unicode="&#x142;" 
d="M503 16q-50 -27 -125 -27q-71 0 -113.5 39t-42.5 106v172l-68 -41l-36 54l104 62v291h-162v67h246v-306l89 56l36 -54l-125 -78v-227q0 -71 87 -71q41 0 88 18z" />
    <glyph glyph-name="m" unicode="m" 
d="M520.5 506.5q28.5 -31.5 28.5 -114.5v-392h-77v378q0 55 -7 74.5t-34 19.5q-51 0 -92 -63v-409h-78v378q0 55 -7 74.5t-34 19.5q-51 0 -92 -63v-409h-77v527h65l6 -62q24 35 50.5 54t63.5 19q74 0 95 -70q24 34 51 52t65 18q45 0 73.5 -31.5z" />
    <glyph glyph-name="n" unicode="n" 
d="M100 527h72l7 -74q31 40 78.5 62.5t95.5 22.5q148 0 148 -156v-382h-84v320q0 59 -6.5 90t-25.5 46t-58 15q-43 0 -81 -26t-62 -62v-383h-84v527z" />
    <glyph glyph-name="nacute" unicode="&#x144;" 
d="M100 527h72l7 -74q31 40 78.5 62.5t95.5 22.5q148 0 148 -156v-382h-84v320q0 59 -6.5 90t-25.5 46t-58 15q-43 0 -81 -26t-62 -62v-383h-84v527zM422 725l-209 -85l-26 45l197 112z" />
    <glyph glyph-name="napostrophe" unicode="&#x149;" 
d="M102 736.5q16 -15.5 16 -38.5q0 -12 -5.5 -28t-20.5 -49l-41 -87h-50l30 119q-23 20 -23 45q0 23 16 38.5t39 15.5t39 -15.5zM109 527h72l6 -74q32 40 79.5 62.5t94.5 22.5q149 0 149 -156v-382h-84v320q0 59 -6.5 90t-26 46t-58.5 15q-43 0 -80.5 -26t-61.5 -62v-383
h-84v527z" />
    <glyph glyph-name="ncaron" unicode="&#x148;" 
d="M100 527h72l7 -74q31 40 78.5 62.5t95.5 22.5q148 0 148 -156v-382h-84v320q0 59 -6.5 90t-25.5 46t-58 15q-43 0 -81 -26t-62 -62v-383h-84v527zM463 748l-134 -119h-57l-135 119l40 41l124 -90l124 90z" />
    <glyph glyph-name="ncommaaccent" unicode="&#x146;" 
d="M100 527h72l7 -74q31 40 78.5 62.5t95.5 22.5q148 0 148 -156v-382h-84v320q0 59 -6.5 90t-25.5 46t-58 15q-43 0 -81 -26t-62 -62v-383h-84v527zM343 -86.5q16 -15.5 16 -37.5q0 -21 -15 -55l-51 -107h-50l29 117q-22 17 -22 45q0 23 15.5 38t38.5 15t39 -15.5z" />
    <glyph glyph-name="eng" unicode="&#x14b;" 
d="M484.5 -88q-16.5 -44 -49 -70.5t-89.5 -52.5l-31 61q39 19 60 36.5t31.5 49t10.5 87.5v297q0 59 -6.5 90t-26 46t-59.5 15q-41 0 -79 -26t-62 -61v-384h-84v527h72l7 -74q31 40 78.5 62.5t95.5 22.5q148 0 148 -156v-353q0 -73 -16.5 -117z" />
    <glyph glyph-name="ntilde" unicode="&#xf1;" 
d="M100 527h72l7 -74q31 40 78.5 62.5t95.5 22.5q148 0 148 -156v-382h-84v320q0 59 -6.5 90t-25.5 46t-58 15q-43 0 -81 -26t-62 -62v-383h-84v527zM323.5 666q-15.5 7 -34.5 20q-15 11 -25.5 16t-21.5 5q-16 0 -28 -11t-25 -35l-53 26q19 39 45.5 62t60.5 23q21 0 36 -7.5
t34 -20.5q17 -12 26 -16.5t20 -4.5q15 0 27 10.5t26 34.5l54 -27q-19 -41 -46.5 -61.5t-60.5 -20.5q-19 0 -34.5 7z" />
    <glyph glyph-name="o" unicode="o" 
d="M468.5 464.5q58.5 -73.5 58.5 -200.5q0 -124 -59.5 -199.5t-167.5 -75.5q-109 0 -168 73.5t-59 200.5q0 125 59.5 200t168.5 75t167.5 -73.5zM198 418q-34 -51 -34 -155t33.5 -154.5t102.5 -50.5t102.5 50.5t33.5 155.5q0 104 -33.5 154.5t-101.5 50.5q-69 0 -103 -51z
" />
    <glyph glyph-name="oacute" unicode="&#xf3;" 
d="M468.5 464.5q58.5 -73.5 58.5 -200.5q0 -124 -59.5 -199.5t-167.5 -75.5q-109 0 -168 73.5t-59 200.5q0 125 59.5 200t168.5 75t167.5 -73.5zM198 418q-34 -51 -34 -155t33.5 -154.5t102.5 -50.5t102.5 50.5t33.5 155.5q0 104 -33.5 154.5t-101.5 50.5q-69 0 -103 -51z
M422 725l-209 -85l-26 45l197 112z" />
    <glyph glyph-name="obreve" unicode="&#x14f;" 
d="M468.5 464.5q58.5 -73.5 58.5 -200.5q0 -124 -59.5 -199.5t-167.5 -75.5q-109 0 -168 73.5t-59 200.5q0 125 59.5 200t168.5 75t167.5 -73.5zM198 418q-34 -51 -34 -155t33.5 -154.5t102.5 -50.5t102.5 50.5t33.5 155.5q0 104 -33.5 154.5t-101.5 50.5q-69 0 -103 -51z
M223 650.5q-32 20.5 -50.5 51.5t-22.5 64l58 13q25 -85 90 -85q35 0 58 22.5t35 62.5l57 -13q-4 -33 -23 -64t-51.5 -51.5t-75.5 -20.5t-75 20.5z" />
    <glyph glyph-name="ocircumflex" unicode="&#xf4;" 
d="M468.5 464.5q58.5 -73.5 58.5 -200.5q0 -124 -59.5 -199.5t-167.5 -75.5q-109 0 -168 73.5t-59 200.5q0 125 59.5 200t168.5 75t167.5 -73.5zM198 418q-34 -51 -34 -155t33.5 -154.5t102.5 -50.5t102.5 50.5t33.5 155.5q0 104 -33.5 154.5t-101.5 50.5q-69 0 -103 -51z
M137 670l135 119h57l134 -119l-38 -41l-124 91l-124 -91z" />
    <glyph glyph-name="odieresis" unicode="&#xf6;" 
d="M468.5 464.5q58.5 -73.5 58.5 -200.5q0 -124 -59.5 -199.5t-167.5 -75.5q-109 0 -168 73.5t-59 200.5q0 125 59.5 200t168.5 75t167.5 -73.5zM198 418q-34 -51 -34 -155t33.5 -154.5t102.5 -50.5t102.5 50.5t33.5 155.5q0 104 -33.5 154.5t-101.5 50.5q-69 0 -103 -51z
M157 663.5q-16 15.5 -16 37.5q0 24 16 39.5t39 15.5t38.5 -15.5t15.5 -39.5q0 -23 -15.5 -38t-38.5 -15t-39 15.5zM364.5 663q-15.5 15 -15.5 38q0 24 15.5 39.5t38.5 15.5t39 -15.5t16 -39.5q0 -22 -16 -37.5t-39 -15.5t-38.5 15z" />
    <glyph glyph-name="ograve" unicode="&#xf2;" 
d="M468.5 464.5q58.5 -73.5 58.5 -200.5q0 -124 -59.5 -199.5t-167.5 -75.5q-109 0 -168 73.5t-59 200.5q0 125 59.5 200t168.5 75t167.5 -73.5zM198 418q-34 -51 -34 -155t33.5 -154.5t102.5 -50.5t102.5 50.5t33.5 155.5q0 104 -33.5 154.5t-101.5 50.5q-69 0 -103 -51z
M184 715l46 72l184 -119l-27 -46z" />
    <glyph glyph-name="ohungarumlaut" unicode="&#x151;" 
d="M468.5 464.5q58.5 -73.5 58.5 -200.5q0 -124 -59.5 -199.5t-167.5 -75.5q-109 0 -168 73.5t-59 200.5q0 125 59.5 200t168.5 75t167.5 -73.5zM198 418q-34 -51 -34 -155t33.5 -154.5t102.5 -50.5t102.5 50.5t33.5 155.5q0 104 -33.5 154.5t-101.5 50.5q-69 0 -103 -51z
M254 836l75 -36l-97 -164l-56 26zM428 836l74 -39l-108 -163l-53 28z" />
    <glyph glyph-name="omacron" unicode="&#x14d;" 
d="M468.5 464.5q58.5 -73.5 58.5 -200.5q0 -124 -59.5 -199.5t-167.5 -75.5q-109 0 -168 73.5t-59 200.5q0 125 59.5 200t168.5 75t167.5 -73.5zM198 418q-34 -51 -34 -155t33.5 -154.5t102.5 -50.5t102.5 50.5t33.5 155.5q0 104 -33.5 154.5t-101.5 50.5q-69 0 -103 -51z
M165 676v64h269v-64h-269z" />
    <glyph glyph-name="oslash" unicode="&#xf8;" 
d="M498.5 412.5q28.5 -63.5 28.5 -148.5q0 -124 -59.5 -199.5t-167.5 -75.5q-29 0 -50 4l-37 -123l-70 20l42 128q-54 32 -83 95.5t-29 149.5q0 125 59.5 200t168.5 75q22 0 49 -5l38 121l70 -21l-41 -125q53 -32 81.5 -95.5zM164 263q0 -132 52 -178l118 381q-15 3 -33 3
q-137 0 -137 -206zM436 264q0 132 -51 177l-118 -380q15 -3 33 -3q136 0 136 206z" />
    <glyph glyph-name="oslashacute" unicode="&#x1ff;" 
d="M498.5 412.5q28.5 -63.5 28.5 -148.5q0 -124 -59.5 -199.5t-167.5 -75.5q-29 0 -50 4l-37 -123l-70 20l42 128q-54 32 -83 95.5t-29 149.5q0 125 59.5 200t168.5 75q22 0 49 -5l38 121l70 -21l-41 -125q53 -32 81.5 -95.5zM164 263q0 -132 52 -178l118 381q-15 3 -33 3
q-137 0 -137 -206zM436 264q0 132 -51 177l-118 -380q15 -3 33 -3q136 0 136 206zM422 725l-209 -85l-26 45l197 112z" />
    <glyph glyph-name="otilde" unicode="&#xf5;" 
d="M468.5 464.5q58.5 -73.5 58.5 -200.5q0 -124 -59.5 -199.5t-167.5 -75.5q-109 0 -168 73.5t-59 200.5q0 125 59.5 200t168.5 75t167.5 -73.5zM198 418q-34 -51 -34 -155t33.5 -154.5t102.5 -50.5t102.5 50.5t33.5 155.5q0 104 -33.5 154.5t-101.5 50.5q-69 0 -103 -51z
M323.5 666q-15.5 7 -34.5 20q-15 11 -25.5 16t-21.5 5q-16 0 -28 -11t-25 -35l-53 26q19 39 45.5 62t60.5 23q21 0 36 -7.5t34 -20.5q17 -12 26 -16.5t20 -4.5q15 0 27 10.5t26 34.5l54 -27q-19 -41 -46.5 -61.5t-60.5 -20.5q-19 0 -34.5 7z" />
    <glyph glyph-name="oe" unicode="&#x153;" 
d="M574.5 471q40.5 -67 40.5 -192q0 -22 -2 -46h-263q7 -91 32.5 -132.5t77.5 -41.5q26 0 47.5 9.5t48.5 30.5l39 -58q-32 -26 -64.5 -39t-72.5 -13q-54 0 -91.5 26t-57.5 75q-20 -49 -53.5 -75t-88.5 -26q-85 0 -127 72.5t-42 201.5q0 128 41.5 201.5t127.5 73.5
q59 0 91.5 -26.5t50.5 -76.5q42 103 140 103q85 0 125.5 -67zM108 420q-21 -50 -21 -157q0 -109 21 -157t70 -48q33 0 52 20t27.5 64.5t8.5 121.5q0 107 -20.5 156.5t-67.5 49.5q-49 0 -70 -50zM378.5 430q-22.5 -38 -28.5 -131h183q-2 87 -20.5 128t-65.5 41
q-46 0 -68.5 -38z" />
    <glyph glyph-name="p" unicode="p" 
d="M527 264q0 -125 -52 -200t-151 -75q-86 0 -140 60v-251l-84 -10v739h72l7 -74q29 41 69.5 63t87.5 22q191 0 191 -274zM242.5 446q-33.5 -24 -58.5 -60v-261q21 -31 52.5 -48.5t68.5 -17.5q66 0 98.5 50.5t32.5 154.5t-29 155t-91 51q-40 0 -73.5 -24z" />
    <glyph glyph-name="thorn" unicode="&#xfe;" 
d="M184 461q29 37 68.5 57t83.5 20q191 0 191 -274q0 -125 -52 -200t-151 -75q-86 0 -140 60v-251l-84 -10v951l84 10v-288zM242.5 446q-33.5 -24 -58.5 -60v-261q21 -31 52.5 -48.5t68.5 -17.5q66 0 98.5 50.5t32.5 154.5t-29 155t-91 51q-40 0 -73.5 -24z" />
    <glyph glyph-name="q" unicode="q" 
d="M421 469l7 58h72v-739l-84 10v268q-56 -77 -149 -77q-194 0 -194 274q0 122 53 198.5t148 76.5q92 0 147 -69zM164 263q0 -103 30 -153.5t91 -50.5q41 0 74 22.5t57 58.5v262q-21 32 -52.5 50t-68.5 18q-131 0 -131 -207z" />
    <glyph glyph-name="r" unicode="r" 
d="M530 527l-12 -179h-68v113h-5q-122 0 -173 -174v-222h107v-65h-274v65h83v397h-83v65h146l16 -125q32 68 76.5 102t112.5 34q32 0 74 -11z" />
    <glyph glyph-name="racute" unicode="&#x155;" 
d="M530 527l-12 -179h-68v113h-5q-122 0 -173 -174v-222h107v-65h-274v65h83v397h-83v65h146l16 -125q32 68 76.5 102t112.5 34q32 0 74 -11zM453 725l-209 -85l-26 45l197 112z" />
    <glyph glyph-name="rcaron" unicode="&#x159;" 
d="M530 527l-12 -179h-68v113h-5q-122 0 -173 -174v-222h107v-65h-274v65h83v397h-83v65h146l16 -125q32 68 76.5 102t112.5 34q32 0 74 -11zM494 748l-134 -119h-57l-135 119l40 41l124 -90l124 90z" />
    <glyph glyph-name="rcommaaccent" unicode="&#x157;" 
d="M530 527l-12 -179h-68v113h-5q-122 0 -173 -174v-222h107v-65h-274v65h83v397h-83v65h146l16 -125q32 68 76.5 102t112.5 34q32 0 74 -11zM272 -86.5q16 -15.5 16 -37.5q0 -21 -15 -55l-51 -107h-50l29 117q-22 17 -22 45q0 23 15.5 38t38.5 15t39 -15.5z" />
    <glyph glyph-name="s" unicode="s" 
d="M375 81q35 23 35 61q0 26 -9 42.5t-36 30t-82 27.5q-92 23 -136 55.5t-44 96.5q0 66 55 105t145 39q110 0 192 -58l-38 -58q-33 23 -69 35.5t-83 12.5q-114 0 -114 -69q0 -24 12.5 -39t41 -26.5t85.5 -27.5q86 -23 128.5 -58.5t42.5 -103.5q0 -79 -64 -118t-157 -39
q-124 0 -206 71l47 55q32 -26 73 -41.5t86 -15.5q60 0 95 23z" />
    <glyph glyph-name="sacute" unicode="&#x15b;" 
d="M375 81q35 23 35 61q0 26 -9 42.5t-36 30t-82 27.5q-92 23 -136 55.5t-44 96.5q0 66 55 105t145 39q110 0 192 -58l-38 -58q-33 23 -69 35.5t-83 12.5q-114 0 -114 -69q0 -24 12.5 -39t41 -26.5t85.5 -27.5q86 -23 128.5 -58.5t42.5 -103.5q0 -79 -64 -118t-157 -39
q-124 0 -206 71l47 55q32 -26 73 -41.5t86 -15.5q60 0 95 23zM429 725l-209 -85l-26 45l197 112z" />
    <glyph glyph-name="scaron" unicode="&#x161;" 
d="M375 81q35 23 35 61q0 26 -9 42.5t-36 30t-82 27.5q-92 23 -136 55.5t-44 96.5q0 66 55 105t145 39q110 0 192 -58l-38 -58q-33 23 -69 35.5t-83 12.5q-114 0 -114 -69q0 -24 12.5 -39t41 -26.5t85.5 -27.5q86 -23 128.5 -58.5t42.5 -103.5q0 -79 -64 -118t-157 -39
q-124 0 -206 71l47 55q32 -26 73 -41.5t86 -15.5q60 0 95 23zM470 748l-134 -119h-57l-135 119l40 41l124 -90l124 90z" />
    <glyph glyph-name="scedilla" unicode="&#x15f;" 
d="M449 36q-52 -39 -132 -46v-47q46 -4 69.5 -27.5t23.5 -55.5q0 -47 -35.5 -72.5t-86.5 -25.5q-30 0 -57.5 6.5t-47.5 17.5l27 48q30 -16 67 -16q60 0 60 41q0 26 -21 35t-65 9l6 86q-110 7 -183 71l47 55q32 -26 73 -41.5t86 -15.5q60 0 95 23t35 61q0 26 -9 42.5t-36 30
t-82 27.5q-92 23 -136 55.5t-44 96.5q0 66 55 105t145 39q110 0 192 -58l-38 -58q-33 23 -69 35.5t-83 12.5q-114 0 -114 -69q0 -24 12.5 -39t41 -26.5t85.5 -27.5q86 -23 128.5 -58.5t42.5 -103.5q0 -71 -52 -110z" />
    <glyph glyph-name="scircumflex" unicode="&#x15d;" 
d="M375 81q35 23 35 61q0 26 -9 42.5t-36 30t-82 27.5q-92 23 -136 55.5t-44 96.5q0 66 55 105t145 39q110 0 192 -58l-38 -58q-33 23 -69 35.5t-83 12.5q-114 0 -114 -69q0 -24 12.5 -39t41 -26.5t85.5 -27.5q86 -23 128.5 -58.5t42.5 -103.5q0 -79 -64 -118t-157 -39
q-124 0 -206 71l47 55q32 -26 73 -41.5t86 -15.5q60 0 95 23zM144 670l135 119h57l134 -119l-38 -41l-124 91l-124 -91z" />
    <glyph glyph-name="scommaaccent" unicode="&#x219;" 
d="M375 81q35 23 35 61q0 26 -9 42.5t-36 30t-82 27.5q-92 23 -136 55.5t-44 96.5q0 66 55 105t145 39q110 0 192 -58l-38 -58q-33 23 -69 35.5t-83 12.5q-114 0 -114 -69q0 -24 12.5 -39t41 -26.5t85.5 -27.5q86 -23 128.5 -58.5t42.5 -103.5q0 -79 -64 -118t-157 -39
q-124 0 -206 71l47 55q32 -26 73 -41.5t86 -15.5q60 0 95 23zM339 -86.5q16 -15.5 16 -37.5q0 -21 -15 -55l-51 -107h-50l29 117q-22 17 -22 45q0 23 15.5 38t38.5 15t39 -15.5z" />
    <glyph glyph-name="germandbls" unicode="&#xdf;" 
d="M422.5 709q48.5 -40 48.5 -104q0 -36 -17 -59t-49 -50q-25 -21 -36.5 -34.5t-11.5 -32.5q0 -25 18 -42.5t59 -43.5q39 -25 63.5 -45.5t42.5 -53t18 -77.5q0 -56 -25 -96.5t-67.5 -61t-93.5 -20.5q-76 0 -130 34l35 58q18 -11 41.5 -17.5t45.5 -6.5q51 0 79.5 26.5
t28.5 79.5q0 43 -24.5 69t-73.5 57q-33 21 -53 37t-33.5 39t-13.5 54q0 33 16.5 55t46.5 46q27 21 40 37.5t13 39.5q0 33 -22.5 59t-71.5 26q-58 0 -87 -34t-29 -109v-539h-84v533q0 105 53 160.5t148 55.5q77 0 125.5 -40z" />
    <glyph glyph-name="t" unicode="t" 
d="M453.5 -1q-38.5 -10 -76.5 -10q-83 0 -130 43.5t-47 114.5v314h-121v66h121v119l84 10v-129h183l-11 -66h-172v-313q0 -45 24 -67t77 -22q54 0 101 25l33 -57q-27 -18 -65.5 -28z" />
    <glyph glyph-name="tbar" unicode="&#x167;" 
d="M519 27q-27 -18 -65.5 -28t-76.5 -10q-83 0 -130 43.5t-47 114.5v141h-110v64h110v109h-121v66h121v119l84 10v-129h183l-11 -66h-172v-109h173v-64h-173v-140q0 -45 24 -67t77 -22q54 0 101 25z" />
    <glyph glyph-name="tcaron" unicode="&#x165;" 
d="M453.5 -1q-38.5 -10 -76.5 -10q-83 0 -130 43.5t-47 114.5v314h-121v66h121v119l84 10v-129h183l-11 -66h-172v-313q0 -45 24 -67t77 -22q54 0 101 25l33 -57q-27 -18 -65.5 -28zM440 752l-53 -178l-48 7l25 181z" />
    <glyph glyph-name="uni0163" unicode="&#x163;" 
d="M460.5 -84.5q23.5 -23.5 23.5 -55.5q0 -47 -35.5 -72.5t-86.5 -25.5q-30 0 -57.5 6.5t-47.5 17.5l27 48q30 -16 67 -16q60 0 60 41q0 26 -21 35t-65 9l6 90q-62 11 -96.5 52.5t-34.5 101.5v314h-121v66h121v119l84 10v-129h183l-11 -66h-172v-313q0 -45 24 -67t77 -22
q54 0 101 25l33 -57q-24 -16 -58.5 -26t-69.5 -12v-46q46 -4 69.5 -27.5z" />
    <glyph glyph-name="uni021B" unicode="&#x21b;" 
d="M453.5 -1q-38.5 -10 -76.5 -10q-83 0 -130 43.5t-47 114.5v314h-121v66h121v119l84 10v-129h183l-11 -66h-172v-313q0 -45 24 -67t77 -22q54 0 101 25l33 -57q-27 -18 -65.5 -28zM413 -86.5q16 -15.5 16 -37.5q0 -21 -15 -55l-51 -107h-50l29 117q-22 17 -22 45
q0 23 15.5 38t38.5 15t39 -15.5z" />
    <glyph glyph-name="u" unicode="u" 
d="M184 153q0 -51 21.5 -74.5t67.5 -23.5q42 0 81 24t62 60v388h84v-527h-72l-7 71q-31 -39 -76.5 -60.5t-92.5 -21.5q-75 0 -113.5 40t-38.5 115v383h84v-374z" />
    <glyph glyph-name="uacute" unicode="&#xfa;" 
d="M184 153q0 -51 21.5 -74.5t67.5 -23.5q42 0 81 24t62 60v388h84v-527h-72l-7 71q-31 -39 -76.5 -60.5t-92.5 -21.5q-75 0 -113.5 40t-38.5 115v383h84v-374zM422 725l-209 -85l-26 45l197 112z" />
    <glyph glyph-name="ubreve" unicode="&#x16d;" 
d="M184 153q0 -51 21.5 -74.5t67.5 -23.5q42 0 81 24t62 60v388h84v-527h-72l-7 71q-31 -39 -76.5 -60.5t-92.5 -21.5q-75 0 -113.5 40t-38.5 115v383h84v-374zM223 650.5q-32 20.5 -50.5 51.5t-22.5 64l58 13q25 -85 90 -85q35 0 58 22.5t35 62.5l57 -13q-4 -33 -23 -64
t-51.5 -51.5t-75.5 -20.5t-75 20.5z" />
    <glyph glyph-name="ucircumflex" unicode="&#xfb;" 
d="M184 153q0 -51 21.5 -74.5t67.5 -23.5q42 0 81 24t62 60v388h84v-527h-72l-7 71q-31 -39 -76.5 -60.5t-92.5 -21.5q-75 0 -113.5 40t-38.5 115v383h84v-374zM137 670l135 119h57l134 -119l-38 -41l-124 91l-124 -91z" />
    <glyph glyph-name="udieresis" unicode="&#xfc;" 
d="M184 153q0 -51 21.5 -74.5t67.5 -23.5q42 0 81 24t62 60v388h84v-527h-72l-7 71q-31 -39 -76.5 -60.5t-92.5 -21.5q-75 0 -113.5 40t-38.5 115v383h84v-374zM157 663.5q-16 15.5 -16 37.5q0 24 16 39.5t39 15.5t38.5 -15.5t15.5 -39.5q0 -23 -15.5 -38t-38.5 -15
t-39 15.5zM364.5 663q-15.5 15 -15.5 38q0 24 15.5 39.5t38.5 15.5t39 -15.5t16 -39.5q0 -22 -16 -37.5t-39 -15.5t-38.5 15z" />
    <glyph glyph-name="ugrave" unicode="&#xf9;" 
d="M184 153q0 -51 21.5 -74.5t67.5 -23.5q42 0 81 24t62 60v388h84v-527h-72l-7 71q-31 -39 -76.5 -60.5t-92.5 -21.5q-75 0 -113.5 40t-38.5 115v383h84v-374zM184 715l46 72l184 -119l-27 -46z" />
    <glyph glyph-name="uhungarumlaut" unicode="&#x171;" 
d="M184 153q0 -51 21.5 -74.5t67.5 -23.5q42 0 81 24t62 60v388h84v-527h-72l-7 71q-31 -39 -76.5 -60.5t-92.5 -21.5q-75 0 -113.5 40t-38.5 115v383h84v-374zM254 836l75 -36l-97 -164l-56 26zM428 836l74 -39l-108 -163l-53 28z" />
    <glyph glyph-name="umacron" unicode="&#x16b;" 
d="M184 153q0 -51 21.5 -74.5t67.5 -23.5q42 0 81 24t62 60v388h84v-527h-72l-7 71q-31 -39 -76.5 -60.5t-92.5 -21.5q-75 0 -113.5 40t-38.5 115v383h84v-374zM165 676v64h269v-64h-269z" />
    <glyph glyph-name="uogonek" unicode="&#x173;" 
d="M389 -150q13 -12 43 -12q27 0 61 7l-8 -68q-42 -6 -64 -6q-56 0 -89 27.5t-33 70.5q0 89 128 141l-6 61q-31 -39 -76.5 -60.5t-92.5 -21.5q-75 0 -113.5 40t-38.5 115v383h84v-374q0 -51 21.5 -74.5t67.5 -23.5q42 0 81 24t62 60v388h84v-527q-72 -31 -98 -58t-26 -56
q0 -24 13 -36z" />
    <glyph glyph-name="uring" unicode="&#x16f;" 
d="M184 153q0 -51 21.5 -74.5t67.5 -23.5q42 0 81 24t62 60v388h84v-527h-72l-7 71q-31 -39 -76.5 -60.5t-92.5 -21.5q-75 0 -113.5 40t-38.5 115v383h84v-374zM379.5 794q31.5 -30 31.5 -73t-31.5 -72.5t-79.5 -29.5t-79.5 29.5t-31.5 72.5t31.5 73t79.5 30t79.5 -30z
M260.5 762q-14.5 -15 -14.5 -41q0 -27 14.5 -42t39.5 -15q26 0 40 15t14 42q0 26 -14.5 41t-39.5 15t-39.5 -15z" />
    <glyph glyph-name="utilde" unicode="&#x169;" 
d="M184 153q0 -51 21.5 -74.5t67.5 -23.5q42 0 81 24t62 60v388h84v-527h-72l-7 71q-31 -39 -76.5 -60.5t-92.5 -21.5q-75 0 -113.5 40t-38.5 115v383h84v-374zM323.5 666q-15.5 7 -34.5 20q-15 11 -25.5 16t-21.5 5q-16 0 -28 -11t-25 -35l-53 26q19 39 45.5 62t60.5 23
q21 0 36 -7.5t34 -20.5q17 -12 26 -16.5t20 -4.5q15 0 27 10.5t26 34.5l54 -27q-19 -41 -46.5 -61.5t-60.5 -20.5q-19 0 -34.5 7z" />
    <glyph glyph-name="v" unicode="v" 
d="M348 0h-97l-191 527h90l152 -451l150 451h88z" />
    <glyph glyph-name="w" unicode="w" 
d="M372 0l-69 386l-74 -386h-116l-95 527h85l68 -475l84 408h99l79 -408l68 475h81l-91 -527h-119z" />
    <glyph glyph-name="wacute" unicode="&#x1e83;" 
d="M372 0l-69 386l-74 -386h-116l-95 527h85l68 -475l84 408h99l79 -408l68 475h81l-91 -527h-119zM422 725l-209 -85l-26 45l197 112z" />
    <glyph glyph-name="wcircumflex" unicode="&#x175;" 
d="M372 0l-69 386l-74 -386h-116l-95 527h85l68 -475l84 408h99l79 -408l68 475h81l-91 -527h-119zM137 670l135 119h57l134 -119l-38 -41l-124 91l-124 -91z" />
    <glyph glyph-name="wdieresis" unicode="&#x1e85;" 
d="M372 0l-69 386l-74 -386h-116l-95 527h85l68 -475l84 408h99l79 -408l68 475h81l-91 -527h-119zM157 663.5q-16 15.5 -16 37.5q0 24 16 39.5t39 15.5t38.5 -15.5t15.5 -39.5q0 -23 -15.5 -38t-38.5 -15t-39 15.5zM364.5 663q-15.5 15 -15.5 38q0 24 15.5 39.5t38.5 15.5
t39 -15.5t16 -39.5q0 -22 -16 -37.5t-39 -15.5t-38.5 15z" />
    <glyph glyph-name="wgrave" unicode="&#x1e81;" 
d="M372 0l-69 386l-74 -386h-116l-95 527h85l68 -475l84 408h99l79 -408l68 475h81l-91 -527h-119zM184 715l46 72l184 -119l-27 -46z" />
    <glyph glyph-name="x" unicode="x" 
d="M56 0l194 278l-171 249h100l122 -196l123 196h97l-171 -245l194 -282h-102l-145 226l-145 -226h-96z" />
    <glyph glyph-name="y" unicode="y" 
d="M354 -3q-31 -91 -85 -145t-151 -64l-12 67q53 9 84.5 27.5t49.5 46t33 71.5h-28l-183 527h89l151 -463l149 463h87z" />
    <glyph glyph-name="yacute" unicode="&#xfd;" 
d="M354 -3q-31 -91 -85 -145t-151 -64l-12 67q53 9 84.5 27.5t49.5 46t33 71.5h-28l-183 527h89l151 -463l149 463h87zM422 725l-209 -85l-26 45l197 112z" />
    <glyph glyph-name="ycircumflex" unicode="&#x177;" 
d="M354 -3q-31 -91 -85 -145t-151 -64l-12 67q53 9 84.5 27.5t49.5 46t33 71.5h-28l-183 527h89l151 -463l149 463h87zM137 670l135 119h57l134 -119l-38 -41l-124 91l-124 -91z" />
    <glyph glyph-name="ydieresis" unicode="&#xff;" 
d="M354 -3q-31 -91 -85 -145t-151 -64l-12 67q53 9 84.5 27.5t49.5 46t33 71.5h-28l-183 527h89l151 -463l149 463h87zM157 663.5q-16 15.5 -16 37.5q0 24 16 39.5t39 15.5t38.5 -15.5t15.5 -39.5q0 -23 -15.5 -38t-38.5 -15t-39 15.5zM364.5 663q-15.5 15 -15.5 38
q0 24 15.5 39.5t38.5 15.5t39 -15.5t16 -39.5q0 -22 -16 -37.5t-39 -15.5t-38.5 15z" />
    <glyph glyph-name="ygrave" unicode="&#x1ef3;" 
d="M354 -3q-31 -91 -85 -145t-151 -64l-12 67q53 9 84.5 27.5t49.5 46t33 71.5h-28l-183 527h89l151 -463l149 463h87zM184 715l46 72l184 -119l-27 -46z" />
    <glyph glyph-name="z" unicode="z" 
d="M498 72l-10 -72h-386v64l292 389h-269v74h370v-66l-290 -389h293z" />
    <glyph glyph-name="zacute" unicode="&#x17a;" 
d="M498 72l-10 -72h-386v64l292 389h-269v74h370v-66l-290 -389h293zM432 725l-209 -85l-26 45l197 112z" />
    <glyph glyph-name="zcaron" unicode="&#x17e;" 
d="M498 72l-10 -72h-386v64l292 389h-269v74h370v-66l-290 -389h293zM473 748l-134 -119h-57l-135 119l40 41l124 -90l124 90z" />
    <glyph glyph-name="zdotaccent" unicode="&#x17c;" 
d="M498 72l-10 -72h-386v64l292 389h-269v74h370v-66l-290 -389h293zM353 756.5q17 -16.5 17 -42.5t-17 -42.5t-44 -16.5t-43.5 16.5t-16.5 42.5t16.5 42.5t43.5 16.5t44 -16.5z" />
    <glyph glyph-name="cacute.loclPLK" 
d="M476 107l40 -55q-33 -29 -82 -46t-95 -17q-117 0 -182.5 73.5t-65.5 198.5q0 79 29.5 142t85.5 99t133 36q102 0 176 -62l-41 -55q-69 46 -136 46q-71 0 -113.5 -52.5t-42.5 -153.5t42.5 -150.5t114.5 -49.5q69 0 137 46zM464 719l-129 -151l-41 25l104 169z" />
    <glyph glyph-name="nacute.loclPLK" 
d="M100 527h72l7 -74q31 40 78.5 62.5t95.5 22.5q148 0 148 -156v-382h-84v320q0 59 -6.5 90t-25.5 46t-58 15q-43 0 -81 -26t-62 -62v-383h-84v527zM420 728l-129 -151l-41 25l104 169z" />
    <glyph glyph-name="oacute.loclPLK" 
d="M468.5 464.5q58.5 -73.5 58.5 -200.5q0 -124 -59.5 -199.5t-167.5 -75.5q-109 0 -168 73.5t-59 200.5q0 125 59.5 200t168.5 75t167.5 -73.5zM198 418q-34 -51 -34 -155t33.5 -154.5t102.5 -50.5t102.5 50.5t33.5 155.5q0 104 -33.5 154.5t-101.5 50.5q-69 0 -103 -51z
M420 728l-129 -151l-41 25l104 169z" />
    <glyph glyph-name="sacute.loclPLK" 
d="M375 81q35 23 35 61q0 26 -9 42.5t-36 30t-82 27.5q-92 23 -136 55.5t-44 96.5q0 66 55 105t145 39q110 0 192 -58l-38 -58q-33 23 -69 35.5t-83 12.5q-114 0 -114 -69q0 -24 12.5 -39t41 -26.5t85.5 -27.5q86 -23 128.5 -58.5t42.5 -103.5q0 -79 -64 -118t-157 -39
q-124 0 -206 71l47 55q32 -26 73 -41.5t86 -15.5q60 0 95 23zM427 728l-129 -151l-41 25l104 169z" />
    <glyph glyph-name="zacute.loclPLK" 
d="M498 72l-10 -72h-386v64l292 389h-269v74h370v-66l-290 -389h293zM430 728l-129 -151l-41 25l104 169z" />
    <glyph glyph-name="fi" unicode="&#xfb01;" 
d="M314 0v67h93v393h-212v-460h-85v460h-90v67h90v64q0 47 25.5 83t70 55.5t99.5 19.5q75 0 143 -28l-27 -63q-50 22 -113 22q-113 0 -113 -87v-66h297v-460h94v-67h-272z" />
    <glyph glyph-name="fl" unicode="&#xfb02;" 
d="M560 -5.5q-20 -5.5 -48 -5.5q-56 0 -90 32t-34 96v552q-37 11 -84 11q-114 0 -114 -87v-66h126l-10 -67h-116v-460h-85v460h-91v67h91v64q0 71 55.5 114.5t139.5 43.5q47 0 98 -18l75 16v-627q0 -34 13 -47.5t38 -13.5q24 0 54 11l23 -60q-21 -10 -41 -15.5z" />
    <glyph glyph-name="ordfeminine" unicode="&#xaa;" 
d="M414 712.5q42 -36.5 42 -103.5v-197q0 -22 8 -34t26 -17l-19 -54q-32 4 -52.5 18t-30.5 41q-24 -28 -59.5 -43.5t-74.5 -15.5q-68 0 -110 36.5t-42 96.5q0 66 57 101.5t160 35.5h59v29q0 79 -99 79q-55 0 -122 -25l-23 59q80 30 156 30q82 0 124 -36.5zM320 520
q-133 0 -133 -76q0 -38 22 -57.5t64 -19.5q30 0 57.5 15t47.5 41v97h-58zM498 0h-392v75h392v-75z" />
    <glyph glyph-name="ordmasculine" unicode="&#xba;" 
d="M448.5 689.5q54.5 -59.5 54.5 -160.5q0 -65 -25 -115.5t-71 -78.5t-107 -28q-93 0 -148.5 60.5t-55.5 161.5q0 65 25.5 114.5t71.5 77.5t107 28q94 0 148.5 -59.5zM212 646q-32 -39 -32 -117q0 -79 31.5 -118t88.5 -39q56 0 87.5 39t31.5 118q0 78 -31.5 117t-87.5 39
t-88 -39zM497 0h-393v75h393v-75z" />
    <glyph glyph-name="uni207F" unicode="&#x207f;" 
d="M433 620v-242h-71v204q0 48 -9 66t-38 18q-20 0 -41 -14t-35 -33v-241h-71v338h64l2 -40q19 23 45.5 35t52.5 12q101 0 101 -103z" />
    <glyph glyph-name="uni052C" unicode="&#x52c;" 
d="M562 73v-220h-68l-15 147h-343l-14 -147h-69v220h36q31 32 60 98.5t51 174.5q-71 17 -105 68.5t-34 143.5v131h89v-127q0 -57 15 -91t49 -49l9 66l25 201h279v-616h35zM312 484q-6 -51 -10 -77h138v207h-113zM440 73v263h-144h-6q-21 -109 -48.5 -166.5t-64.5 -96.5h263z
" />
    <glyph glyph-name="uni052A" unicode="&#x52a;" 
d="M612 0h-83l-77 323h-26v-323h-59v-147h-64l-16 147h-221l-15 -147h-64v211h34q17 47 27 83.5t20.5 106.5t17.5 181l16 254h200v-294h51v294h73v-294h27l66 294h72l-76 -327zM229 622h-55l-11 -191q-8 -157 -25 -236t-48 -131h139v558zM302 323v-259h51v259h-51z" />
    <glyph glyph-name="uni052E" unicode="&#x52e;" 
d="M547 73v-220h-68l-15 147h-65v614h-166l-25 -204q-19 -156 -40 -235t-48 -115t-79 -71l-38 64q29 24 46 50t35 92t34 191l39 303h329v-616h61z" />
    <glyph glyph-name="uni0528" unicode="&#x528;" 
d="M517 689v-689h-87v327h-260v-389q0 -73 -38.5 -111.5t-106.5 -38.5q-64 0 -113 37l34 57q19 -13 35 -18.5t40 -5.5q62 0 62 75v756h87v-291h260v291h87z" />
    <glyph glyph-name="uni0410" unicode="&#x410;" 
d="M161 176l-55 -176h-86l225 689h110l224 -689h-90l-55 176h-273zM411 248l-113 367l-114 -367h227z" />
    <glyph glyph-name="uni0411" unicode="&#x411;" 
d="M477 616h-290v-195h87q129 0 198.5 -50.5t69.5 -155.5q0 -113 -71 -164t-196 -51h-174v689h384zM187 352v-282h99q80 0 123 31t43 113q0 72 -44.5 105t-120.5 33h-100z" />
    <glyph glyph-name="uni0412" unicode="&#x412;" 
d="M465.5 46q-74.5 -46 -183.5 -46h-186v689h170q105 0 174.5 -40.5t69.5 -133.5q0 -62 -37 -99.5t-92 -50.5q159 -27 159 -169q0 -104 -74.5 -150zM386 592.5q-35 25.5 -100 25.5h-103v-222h111q127 0 127 114q0 57 -35 82.5zM408.5 295q-39.5 29 -108.5 29h-117v-252h114
q63 0 107 26t44 95q0 73 -39.5 102z" />
    <glyph glyph-name="uni0413" unicode="&#x413;" 
d="M535 612h-312v-612h-87v689h408z" />
    <glyph glyph-name="uni0403" unicode="&#x403;" 
d="M535 612h-312v-612h-87v689h408zM469 834l-213 -79l-22 46l198 105z" />
    <glyph glyph-name="uni0490" unicode="&#x490;" 
d="M544 835v-146l-9 -77h-312v-612h-87v689h324v146h84z" />
    <glyph glyph-name="uni0414" unicode="&#x414;" 
d="M565 73v-220h-69l-15 147h-21h-355h-22l-14 -147h-69v220h43q26 25 40 61.5t24 96.5t29 207q1 11 3 24t4 29l25 198h346v-616h51zM426 615h-181l-15 -130q-19 -161 -30 -231t-27 -112t-46 -69h299v542z" />
    <glyph glyph-name="uni0415" unicode="&#x415;" 
d="M212 385h256v-71h-256v-244h314v-70h-400v689h391l-10 -72h-295v-232z" />
    <glyph glyph-name="uni0400" unicode="&#x400;" 
d="M212 385h256v-71h-256v-244h314v-70h-400v689h391l-10 -72h-295v-232zM437 801l-26 -46l-205 82l46 72z" />
    <glyph glyph-name="uni0401" unicode="&#x401;" 
d="M212 385h256v-71h-256v-244h314v-70h-400v689h391l-10 -72h-295v-232zM178.5 783q-15.5 15 -15.5 38t15.5 38.5t39.5 15.5q23 0 38.5 -15.5t15.5 -38.5t-15.5 -38t-38.5 -15q-24 0 -39.5 15zM385.5 783q-15.5 15 -15.5 38t15.5 38.5t38.5 15.5t39 -15.5t16 -38.5t-16 -38
t-39 -15t-38.5 15z" />
    <glyph glyph-name="uni0416" unicode="&#x416;" 
d="M200 327l-104 -327h-84l123 364l-108 325h83l91 -291h60v291h78v-291h60l92 291h82l-108 -325l123 -364h-86l-103 327h-60v-327h-78v327h-61z" />
    <glyph glyph-name="uni0417" unicode="&#x417;" 
d="M406.5 677.5q53.5 -22.5 82 -63.5t28.5 -94q0 -61 -40 -98.5t-102 -46.5q70 -6 118 -50.5t48 -119.5q0 -62 -32 -111t-92 -77t-139 -28q-73 0 -135.5 25t-107.5 72l54 49q82 -73 189 -73q80 0 124.5 37t44.5 103t-44 98.5t-117 32.5h-121l10 73h105q63 0 105.5 28.5
t42.5 84.5q0 53 -41.5 81.5t-107.5 28.5q-54 0 -97 -16.5t-85 -49.5l-48 51q52 43 108.5 64.5t123.5 21.5q72 0 125.5 -22.5z" />
    <glyph glyph-name="uni0418" unicode="&#x418;" 
d="M83 689h86v-349q0 -86 -3.5 -143.5t-10.5 -119.5l250 612h112v-689h-86v349q0 133 14 257l-248 -606h-114v689z" />
    <glyph glyph-name="uni0419" unicode="&#x419;" 
d="M83 689h86v-349q0 -86 -3.5 -143.5t-10.5 -119.5l250 612h112v-689h-86v349q0 133 14 257l-248 -606h-114v689zM197 802.5q-41 29.5 -47 82.5l58 13q11 -32 32.5 -46t57.5 -14t59 14t34 46l57 -13q-6 -53 -48 -82.5t-102 -29.5t-101 29.5z" />
    <glyph glyph-name="uni040D" unicode="&#x40d;" 
d="M83 689h86v-349q0 -86 -3.5 -143.5t-10.5 -119.5l250 612h112v-689h-86v349q0 133 14 257l-248 -606h-114v689zM416 801l-26 -46l-205 82l46 72z" />
    <glyph glyph-name="uni048A" unicode="&#x48a;" 
d="M197 802.5q-41 29.5 -47 82.5l58 13q11 -32 32.5 -46t57.5 -14t59 14t34 46l57 -13q-6 -53 -48 -82.5t-102 -29.5t-101 29.5zM607 69l-78 -216h-68l35 147h-65v349q0 133 14 257l-248 -606h-114v689h86v-349q0 -86 -3.5 -143.5t-10.5 -119.5l250 612h112v-620h90z" />
    <glyph glyph-name="uni041A" unicode="&#x41a;" 
d="M181 326v-326h-86v689h86v-290h81l212 290h94l-232 -325l251 -364h-105l-221 326h-80z" />
    <glyph glyph-name="uni040C" unicode="&#x40c;" 
d="M181 326v-326h-86v689h86v-290h81l212 290h94l-232 -325l251 -364h-105l-221 326h-80zM439 834l-213 -79l-22 46l198 105z" />
    <glyph glyph-name="uni041B" unicode="&#x41b;" 
d="M517 0h-87v614h-185l-25 -204q-19 -156 -40 -235t-48 -115t-79 -71l-38 64q29 24 46 50t35 92t34 191l39 303h348v-689z" />
    <glyph glyph-name="uni041C" unicode="&#x41c;" 
d="M570 0h-84l-21 360q-6 95 -6 249l-116 -485h-87l-124 485q2 -36 2 -96q0 -92 -4 -153l-18 -360h-82l39 689h121l112 -472l107 472h122z" />
    <glyph glyph-name="uni041D" unicode="&#x41d;" 
d="M430 327h-260v-327h-87v689h87v-291h260v291h87v-689h-87v327z" />
    <glyph glyph-name="uni041E" unicode="&#x41e;" 
d="M487.5 86q-65.5 -97 -187.5 -97q-123 0 -188 95t-65 259q0 105 29 186t86 126t138 45q122 0 187.5 -96.5t65.5 -259.5q0 -161 -65.5 -258zM424 556q-39 71 -124 71t-124 -71.5t-39 -212.5q0 -140 39.5 -210.5t123.5 -70.5q85 0 124 70.5t39 211.5t-39 212z" />
    <glyph glyph-name="uni041F" unicode="&#x41f;" 
d="M430 613h-260v-613h-87v689h434v-689h-87v613z" />
    <glyph glyph-name="uni0420" unicode="&#x420;" 
d="M486 309q-71 -53 -195 -53h-89v-256h-86v689h175q127 0 196.5 -53t69.5 -159q0 -115 -71 -168zM420.5 585.5q-43.5 34.5 -118.5 34.5h-100v-295h97q78 0 121.5 34t43.5 117q0 75 -43.5 109.5z" />
    <glyph glyph-name="uni0421" unicode="&#x421;" 
d="M468 683.5q46 -16.5 90 -50.5l-49 -57q-61 51 -145 51q-93 0 -151.5 -67.5t-58.5 -214.5q0 -146 57 -214t152 -68q52 0 89 15t71 42l45 -56q-77 -75 -206 -75q-85 0 -153 41.5t-107 121.5t-39 193q0 112 39.5 192.5t107 121.5t148.5 41q64 0 110 -16.5z" />
    <glyph glyph-name="uni0422" unicode="&#x422;" 
d="M342 0h-87v614h-215v75h519l-9 -75h-208v-614z" />
    <glyph glyph-name="uni0423" unicode="&#x423;" 
d="M369 180q-25 -61 -54.5 -98.5t-75.5 -60.5t-117 -32l-13 69q60 9 94.5 25t53.5 40.5t34 66.5h-37l-228 499h91l196 -443l180 443h87z" />
    <glyph glyph-name="uni040E" unicode="&#x40e;" 
d="M369 180q-25 -61 -54.5 -98.5t-75.5 -60.5t-117 -32l-13 69q60 9 94.5 25t53.5 40.5t34 66.5h-37l-228 499h91l196 -443l180 443h87zM208 791.5q-42 32.5 -47 86.5l57 13q25 -67 90 -67q34 0 58 18t35 49l58 -13q-6 -54 -49 -86.5t-102 -32.5q-58 0 -100 32.5z" />
    <glyph glyph-name="uni0424" unicode="&#x424;" 
d="M342 659q125 -9 185 -86.5t60 -225.5q0 -152 -63 -231t-182 -85v-60h-84v60q-120 5 -182.5 84t-62.5 232q0 148 60 225.5t185 86.5v59h84v-59zM139 535q-38 -57 -38 -188q0 -127 37 -185.5t121 -66.5v500q-82 -3 -120 -60zM341 95q84 8 121 66.5t37 185.5q0 131 -38 188
t-120 60v-500z" />
    <glyph glyph-name="uni0425" unicode="&#x425;" 
d="M149 689l151 -265l152 265h93l-195 -317l219 -372h-100l-171 311l-174 -311h-93l216 367l-198 322h100z" />
    <glyph glyph-name="uni0427" unicode="&#x427;" 
d="M517 689v-689h-87v282q-46 -34 -86 -48.5t-93 -14.5q-90 0 -145 55.5t-55 148.5v266h86v-259q0 -68 35 -101.5t101 -33.5q96 0 157 61v333h87z" />
    <glyph glyph-name="uni0426" unicode="&#x426;" 
d="M578 73v-220h-69l-14 147h-412v689h87v-617h260v617h87v-616h61z" />
    <glyph glyph-name="uni0428" unicode="&#x428;" 
d="M554 0h-508v689h82v-616h133v616h78v-616h133v616h82v-689z" />
    <glyph glyph-name="uni0429" unicode="&#x429;" 
d="M615 73v-220h-69l-14 147h-486v689h82v-616h133v616h78v-616h133v616h82v-616h61z" />
    <glyph glyph-name="uni040F" unicode="&#x40f;" 
d="M517 0h-175v-147h-69l-14 147h-176v689h87v-617h73v1h99v-1h88v617h87v-689z" />
    <glyph glyph-name="uni042C" unicode="&#x42c;" 
d="M181 433h104q128 0 197 -51.5t69 -160.5q0 -114 -71 -167.5t-194 -53.5h-192v689h87v-256zM181 364v-293h115q78 0 120.5 32.5t42.5 116.5q0 76 -43.5 110t-118.5 34h-116z" />
    <glyph glyph-name="uni042A" unicode="&#x42a;" 
d="M209 433h106q128 0 197 -51.5t69 -160.5q0 -115 -71 -168t-194 -53h-195v612h-121v77h209v-256zM209 364v-293h122q76 0 118 32.5t42 116.5q0 76 -43.5 110t-118.5 34h-120z" />
    <glyph glyph-name="uni042B" unicode="&#x42b;" 
d="M119 433h63q125 0 186.5 -54t61.5 -158q0 -110 -63.5 -165.5t-182.5 -55.5h-153v689h88v-256zM569 0h-88v689h88v-689zM119 367v-298h74q72 0 108.5 35.5t36.5 115.5q0 147 -147 147h-72z" />
    <glyph glyph-name="uni0409" unicode="&#x409;" 
d="M355 433q124 0 184.5 -51.5t60.5 -160.5q0 -221 -237 -221h-94v617h-94l-23 -306q-9 -119 -22 -180t-31.5 -88.5t-52.5 -53.5l-44 57q18 20 29 44.5t20.5 76.5t17.5 146l30 376h256v-256zM355 366v-296h15q72 0 106 32t34 118q0 79 -34.5 112.5t-104.5 33.5h-16z" />
    <glyph glyph-name="uni040A" unicode="&#x40a;" 
d="M354 414q125 0 185.5 -49t60.5 -153q0 -112 -61 -162t-176 -50h-94v349h-142v-349h-86v689h86v-275h142v275h85v-275zM354 349v-281h17q48 0 77.5 11.5t45 42.5t15.5 89q0 75 -34 106.5t-104 31.5h-17z" />
    <glyph glyph-name="uni0405" unicode="&#x405;" 
d="M507 85.5q-30 -45.5 -87 -71t-135 -25.5q-75 0 -136.5 22.5t-105.5 64.5l52 59q38 -36 84.5 -55t106.5 -19q68 0 114 33t46 95q0 35 -13 58t-45.5 41t-91.5 35q-112 33 -167 77.5t-55 121.5q0 51 28 92t79 63.5t116 22.5q68 0 121.5 -20t98.5 -59l-52 -56q-71 62 -165 62
q-60 0 -99 -26t-39 -76q0 -30 16 -51t53 -39t104 -37q97 -28 149.5 -73t52.5 -134q0 -60 -30 -105.5z" />
    <glyph glyph-name="uni0404" unicode="&#x404;" 
d="M463 683q47 -17 89 -50l-45 -53q-68 49 -149 49q-86 0 -142.5 -57.5t-66.5 -181.5h305v-72h-307q6 -130 63 -193.5t147 -63.5q93 0 159 60l46 -57q-36 -33 -87.5 -54t-120.5 -21q-87 0 -154 41t-104.5 121.5t-37.5 193.5q0 112 39.5 192.5t106.5 121.5t148 41
q64 0 111 -17z" />
    <glyph glyph-name="uni042D" unicode="&#x42d;" 
d="M467.5 612q71.5 -88 71.5 -259q0 -177 -74 -270.5t-204 -93.5q-66 0 -123 23.5t-96 64.5l52 49q37 -33 75.5 -49t86.5 -16q91 0 139 62.5t54 193.5h-303v74h303q-7 126 -53 182t-131 56q-53 0 -91.5 -17.5t-75.5 -47.5l-48 51q98 85 219 85q127 0 198.5 -88z" />
    <glyph glyph-name="uni0406" unicode="&#x406;" 
d="M497 619h-153v-550h153v-69h-394v69h153v550h-153v70h394v-70z" />
    <glyph glyph-name="uni0407" unicode="&#x407;" 
d="M497 619h-153v-550h153v-69h-394v69h153v550h-153v70h394v-70zM157.5 783q-15.5 15 -15.5 38t15.5 38.5t39.5 15.5q23 0 38.5 -15.5t15.5 -38.5t-15.5 -38t-38.5 -15q-24 0 -39.5 15zM364.5 783q-15.5 15 -15.5 38t15.5 38.5t38.5 15.5t39 -15.5t16 -38.5t-16 -38
t-39 -15t-38.5 15z" />
    <glyph glyph-name="uni0408" unicode="&#x408;" 
d="M497 229q0 -101 -55.5 -171t-180.5 -70q-51 0 -99.5 16t-88.5 47l38 57q75 -47 149 -47q72 0 111 45.5t39 126.5v385h-204v71h291v-460z" />
    <glyph glyph-name="uni040B" unicode="&#x40b;" 
d="M404 616h-160v-226q62 60 144 60q178 0 178 -204v-246h-86v240q0 72 -25.5 103t-85.5 31q-42 0 -71.5 -15t-53.5 -38v-321h-87v616h-162v73h418z" />
    <glyph glyph-name="uni042E" unicode="&#x42e;" 
d="M536 613q43 -87 43 -269q0 -176 -45.5 -265.5t-145.5 -89.5q-102 0 -145 86t-45 246h-68v-321h-83v689h83v-296h69q6 154 50 230.5t139 76.5q105 0 148 -87zM328.5 602q-21.5 -27 -31.5 -88.5t-10 -168.5q0 -108 10 -169.5t31.5 -88.5t59.5 -27q36 0 58 27t33 89t11 168
q0 105 -11 167.5t-33 90t-58 27.5q-38 0 -59.5 -27z" />
    <glyph glyph-name="uni042F" unicode="&#x42f;" 
d="M517 0h-87v277h-153l-146 -277h-98l162 297q-59 27 -89.5 75.5t-30.5 111.5q0 98 67 151.5t194 53.5h181v-689zM325 619q-80 0 -118.5 -32.5t-38.5 -101.5q0 -138 139 -138h123v272h-105z" />
    <glyph glyph-name="uni0402" unicode="&#x402;" 
d="M244 390q65 60 144 60q178 0 178 -204v-150q0 -99 -42.5 -150t-130.5 -81l-22 69q44 18 67.5 38t32.5 48.5t9 74.5v145q0 72 -25.5 103t-85.5 31q-42 0 -71.5 -15t-53.5 -38v-321h-87v616h-162v73h418l-9 -73h-160v-226z" />
    <glyph glyph-name="uni0460" unicode="&#x460;" 
d="M564.5 515.5q20.5 -90.5 20.5 -217.5q0 -309 -162 -309q-47 0 -76.5 26t-45.5 78q-16 -52 -44.5 -78t-76.5 -26q-43 0 -80 30.5t-60 99.5t-23 179q0 89 11.5 163t25 120.5t34.5 107.5h84q-35 -92 -52.5 -182t-17.5 -205q0 -242 92 -242q28 0 46 26t18 83v229h85v-228
q0 -56 20 -83t50 -27q41 0 63.5 50t22.5 189q0 114 -18 203t-52 187h84q31 -83 51.5 -173.5z" />
    <glyph glyph-name="uni0462" unicode="&#x462;" 
d="M500 375.5q68 -52.5 68 -154.5q0 -112 -72 -166.5t-196 -54.5h-146v530h-144v65h144v94h87v-94h153v-65h-153v-102h71q120 0 188 -52.5zM432 104q43 33 43 115q0 75 -41.5 108t-119.5 33h-73v-289h69q79 0 122 33z" />
    <glyph glyph-name="uni0464" unicode="&#x464;" 
d="M595 37q-30 -23 -64.5 -35.5t-84.5 -12.5q-111 0 -177 85.5t-71 243.5h-70v-318h-88v688h88v-295h71q10 148 77.5 227.5t174.5 79.5q45 0 75.5 -10t61.5 -31l-42 -57q-24 14 -44 20t-49 6q-146 0 -165 -237h229v-74h-231q7 -131 49 -193t114 -62q34 0 55 8t50 25z" />
    <glyph glyph-name="uni0466" unicode="&#x466;" 
d="M397 290h-58v-290h-82v290h-58l-89 -290h-90l225 689h110l224 -689h-93zM374 364l-76 248l-76 -248h152z" />
    <glyph glyph-name="uni0468" unicode="&#x468;" 
d="M449 291h-36v-291h-73v291h-36l-65 -291h-81l70 291h-105v-291h-86v689h86v-329h107l2 -49l1 2l90 376h111l165 -689h-85zM434 360l-57 261l-58 -261h115z" />
    <glyph glyph-name="uni046A" unicode="&#x46a;" 
d="M562 0h-80l-82 311h-57v-311h-85v311h-57l-83 -311h-80l112 379h72l-129 252v58h420v-58l-135 -252h81zM303 379l123 247h-243z" />
    <glyph glyph-name="uni046C" unicode="&#x46c;" 
d="M628 0h-82l-77 311h-46v-311h-86v311h-46l-78 -311h-82l89 311h-116v-311h-86v689h86v-310h201l-115 252v58h384v-58l-119 -252h73zM277 625l106 -246l107 246h-213z" />
    <glyph glyph-name="uni046E" unicode="&#x46e;" 
d="M255 754l-135 108l38 43l125 -81l126 81l37 -43l-134 -108h-57zM459.5 323.5q58.5 -52.5 58.5 -146.5q0 -91 -59.5 -145.5t-151.5 -63.5q-51 -6 -77.5 -12.5t-37 -15.5t-10.5 -25q0 -19 18.5 -36.5t54.5 -36.5l-32 -56q-63 28 -95 61t-32 75q0 49 41 76.5t126 35.5
q164 16 164 143q0 71 -37.5 102.5t-114.5 31.5h-106v64l211 241h-298v73h402v-73l-220 -240h27q110 0 168.5 -52.5z" />
    <glyph glyph-name="uni0470" unicode="&#x470;" 
d="M256 192q-122 9 -182.5 73t-60.5 165v259h89v-254q0 -79 35 -120.5t120 -48.5v423h87v-422q83 7 118.5 48.5t35.5 119.5v254h89v-259q0 -100 -61 -163.5t-181 -73.5v-193h-89v192z" />
    <glyph glyph-name="uni0472" unicode="&#x472;" 
d="M487.5 86q-65.5 -97 -187.5 -97q-123 0 -188 95t-65 259q0 105 29 186t86 126t138 45q122 0 187.5 -96.5t65.5 -259.5q0 -161 -65.5 -258zM183.5 566.5q-38.5 -60.5 -44.5 -182.5h321q-5 122 -43.5 182.5t-116.5 60.5t-116.5 -60.5zM419.5 126q38.5 64 41.5 192h-323
q3 -128 42.5 -192t119.5 -64q81 0 119.5 64z" />
    <glyph glyph-name="uni0474" unicode="&#x474;" 
d="M532 633q-19 0 -30.5 -13t-19.5 -41l-154 -579h-96l-204 689h93l158 -589l125 491q15 57 43 83t75 26q34 0 72 -18l-28 -56q-21 7 -34 7z" />
    <glyph glyph-name="uni0476" unicode="&#x476;" 
d="M532 633q-19 0 -30.5 -13t-19.5 -41l-154 -579h-96l-204 689h93l158 -589l125 491q15 57 43 83t75 26q34 0 72 -18l-28 -56q-21 7 -34 7zM185 796l-108 163l74 39l87 -174zM347 798l-97 164l75 36l78 -174z" />
    <glyph glyph-name="uni0478" unicode="&#x478;" 
d="M45 78q-36 89 -36 265q0 174 36 265.5t119 91.5t119.5 -90.5t36.5 -265.5q0 -176 -36.5 -265.5t-119.5 -89.5t-119 89zM210 84.5q16 29.5 22.5 91.5t6.5 168q0 105 -6.5 167t-22.5 92t-46 30q-29 0 -45 -30t-22.5 -92.5t-6.5 -167.5q0 -155 16.5 -221.5t57.5 -66.5
q30 0 46 29.5zM338 -148q44 13 69.5 47.5t35.5 100.5h-35l-84 527h76l61 -463l56 463h77l-83 -530q-14 -88 -54.5 -138.5t-107.5 -70.5z" />
    <glyph glyph-name="uni0492" unicode="&#x492;" 
d="M253 612v-179h158v-67h-158v-366h-86v366h-101v67h101v256h408l-9 -77h-313z" />
    <glyph glyph-name="uni0494" unicode="&#x494;" 
d="M496 392.5q53 -57.5 53 -157.5v-296q0 -73 -38.5 -111.5t-106.5 -38.5q-63 0 -112 37l33 57q19 -13 35.5 -18.5t40.5 -5.5q30 0 46 18.5t16 56.5v300q0 68 -31.5 104t-93.5 36q-53 0 -92 -20t-75 -60v-294h-86v689h86h298l-11 -73h-287v-242q36 37 80.5 56.5t101.5 19.5
q90 0 143 -57.5z" />
    <glyph glyph-name="uni0496" unicode="&#x496;" 
d="M610 73v-220h-71l-15 147h-24l1 4l-102 323h-60v-327h-78v327h-61l-104 -327h-84l123 364l-108 325h83l91 -291h60v291h78v-291h60l92 291h82l-108 -325l98 -291h47z" />
    <glyph glyph-name="uni0498" unicode="&#x498;" 
d="M513.5 101.5q-27.5 -46.5 -79 -76t-120.5 -35.5v-47q46 -4 69.5 -27.5t23.5 -55.5q0 -47 -35.5 -72.5t-86.5 -25.5q-30 0 -57.5 6.5t-47.5 17.5l27 48q30 -16 67 -16q60 0 60 41q0 26 -21 35t-65 9l6 86q-65 5 -121.5 29.5t-97.5 67.5l54 49q82 -73 189 -73
q80 0 124.5 37t44.5 103t-44 98.5t-117 32.5h-121l10 73h105q63 0 105.5 28.5t42.5 84.5q0 53 -41.5 81.5t-107.5 28.5q-54 0 -97 -16.5t-85 -49.5l-48 51q52 43 108.5 64.5t123.5 21.5q72 0 125.5 -22.5t82 -63.5t28.5 -94q0 -61 -40 -98.5t-102 -46.5q70 -6 118 -50.5
t48 -119.5q0 -57 -27.5 -103.5z" />
    <glyph glyph-name="uni049A" unicode="&#x49a;" 
d="M587 73v-220h-69l-14 147h-22l-221 326h-80v-326h-86v689h86v-290h81l212 290h94l-232 -325l200 -291h51z" />
    <glyph glyph-name="uni049C" unicode="&#x49c;" 
d="M228 326h-48v-326h-85v689h85v-291h48v172h54v-172h26l169 291h91l-192 -325l211 -364h-97l-182 326h-26v-176h-54v176z" />
    <glyph glyph-name="uni049E" unicode="&#x49e;" 
d="M584 0h-105l-201 326h-80v-326h-86v523h-75v70h75v96h86v-96h115v-70h-115v-124h82l191 290h94l-212 -325z" />
    <glyph glyph-name="uni04A0" unicode="&#x4a0;" 
d="M220 325v-325h-88v612h-121v77h209v-290h71l195 290h94l-215 -325l234 -364h-105l-205 325h-69z" />
    <glyph glyph-name="uni04A2" unicode="&#x4a2;" 
d="M578 73v-220h-69l-14 147h-65v327h-260v-327h-87v689h87v-291h260v291h87v-616h61z" />
    <glyph glyph-name="uni04A6" unicode="&#x4a6;" 
d="M554 408.5q39 -42.5 39 -114.5v-352q0 -74 -40 -113.5t-105 -39.5q-64 0 -113 37l34 57q21 -12 36.5 -17.5t38.5 -5.5q62 0 62 75v360q0 79 -70 79q-46 0 -88 -36v-338h-87v611h-147v-611h-87v689h321v-278q43 40 101 40q66 0 105 -42.5z" />
    <glyph glyph-name="uni0524" unicode="&#x524;" 
d="M578 73v-220h-69l-14 147h-65v613h-260v-613h-87v689h434v-616h61z" />
    <glyph glyph-name="uni04A8" unicode="&#x4a8;" 
d="M547.5 124.5q-34.5 -64.5 -96.5 -100.5l27 -34q37 -46 51 -66l-57 -43q-16 21 -55 69l-36 46q-37 -7 -67 -7q-84 0 -147 41t-97.5 121t-34.5 194q0 112 37 192.5t99 121.5t134 41q59 0 100.5 -16t83.5 -51l-45 -57q-34 26 -66.5 38.5t-69.5 12.5q-77 0 -128 -67.5
t-51 -214.5q0 -145 50 -212.5t138 -67.5h13q-34 51 -52.5 96.5t-18.5 92.5q0 50 20.5 90t57.5 63.5t84 23.5q76 0 118.5 -47.5t42.5 -124.5q0 -70 -34.5 -134.5zM360.5 167q15.5 -41 44.5 -83q43 22 65 66.5t23 109.5q0 101 -72 101q-37 0 -56.5 -28t-19.5 -78
q0 -47 15.5 -88z" />
    <glyph glyph-name="uni04AA" unicode="&#x4aa;" 
d="M468 -128q0 -50 -33.5 -80.5t-91.5 -30.5q-57 0 -97 25l22 51q19 -9 33.5 -13.5t36.5 -4.5q28 0 42.5 15t14.5 41q0 33 -19 63t-57 53q-75 10 -132.5 54.5t-90.5 120.5t-33 179q0 112 39.5 192.5t107 121.5t148.5 41q64 0 110 -16.5t90 -50.5l-49 -57q-61 51 -145 51
q-93 0 -151.5 -67.5t-58.5 -214.5q0 -146 57 -214t152 -68q52 0 89 15t71 42l45 -56q-65 -65 -174 -74q74 -48 74 -118z" />
    <glyph glyph-name="uni04AC" unicode="&#x4ac;" 
d="M342 614v-541h61v-220h-69l-14 147h-65v614h-215v75h519l-9 -75h-208z" />
    <glyph glyph-name="uni04AE" unicode="&#x4ae;" 
d="M344 0h-88v265l-233 424h96l183 -346l185 346h90l-233 -423v-266z" />
    <glyph glyph-name="uni04B0" unicode="&#x4b0;" 
d="M373 319h99v-68h-128v-251h-88v251h-128v68h98l-203 370h96l183 -346l185 346h90z" />
    <glyph glyph-name="uni04B2" unicode="&#x4b2;" 
d="M574 73v-220h-69l-14 147h-22l-171 311l-174 -311h-93l216 367l-198 322h100l151 -265l152 265h93l-195 -317l176 -299h48z" />
    <glyph glyph-name="uni04B6" unicode="&#x4b6;" 
d="M578 73v-220h-69l-14 147h-65v282q-46 -34 -86 -48.5t-93 -14.5q-90 0 -145 55.5t-55 148.5v266h86v-259q0 -68 35 -101.5t101 -33.5q96 0 157 61v333h87v-616h61z" />
    <glyph glyph-name="uni04B8" unicode="&#x4b8;" 
d="M517 689v-689h-87v282q-59 -44 -112 -56v-107h-58v100h-9q-90 0 -145 55.5t-55 148.5v266h86v-259q0 -128 123 -134v242h58v-239q65 12 112 57v333h87z" />
    <glyph glyph-name="uni04BA" unicode="&#x4ba;" 
d="M495 392.5q53 -57.5 53 -157.5v-235h-87v234q0 68 -31 104t-93 36q-53 0 -92 -20t-75 -60v-294h-87v689h87v-315q36 38 80 57t102 19q90 0 143 -57.5z" />
    <glyph glyph-name="uni0526" unicode="&#x526;" 
d="M601 73v-220h-69l-15 147h-62v234q0 140 -133 140q-48 0 -84.5 -20t-67.5 -59v-295h-87v689h87v-310q65 71 171 71q94 0 147 -57t53 -158v-162h60z" />
    <glyph glyph-name="uni04BC" unicode="&#x4bc;" 
d="M564 308h-344q3 -128 44 -188.5t106 -60.5q41 0 67 11.5t60 34.5l41 -52q-74 -64 -167 -64q-106 0 -169.5 81.5t-68.5 237.5q-63 1 -97.5 33.5t-34.5 80.5q0 52 39 105l57 -26q-10 -22 -15.5 -38.5t-5.5 -33.5q0 -50 51 -50h6q6 99 36 171.5t79.5 111t112.5 38.5
q95 0 150.5 -88t55.5 -255q0 -22 -3 -49zM485 379q-5 131 -37 191t-89 60q-60 0 -96 -62t-43 -189h265z" />
    <glyph glyph-name="uni04BE" unicode="&#x4be;" 
d="M564 308h-344q3 -128 44 -188.5t106 -60.5q41 0 67 11.5t60 34.5l41 -52q-44 -38 -91 -53q-72 -31 -98 -58t-26 -56q0 -24 13 -36t43 -12q27 0 61 7l-8 -68q-42 -6 -64 -6q-56 0 -89 27.5t-33 70.5q0 74 88 122q-90 14 -143.5 94.5t-57.5 222.5q-63 1 -97.5 33.5
t-34.5 80.5q0 52 39 105l57 -26q-10 -22 -15.5 -38.5t-5.5 -33.5q0 -50 51 -50h6q6 99 36 171.5t79.5 111t112.5 38.5q95 0 150.5 -88t55.5 -255q0 -22 -3 -49zM485 379q-5 131 -37 191t-89 60q-60 0 -96 -62t-43 -189h265z" />
    <glyph glyph-name="uni04C0" unicode="&#x4c0;" 
d="M497 619h-153v-550h153v-69h-394v69h153v550h-153v70h394v-70z" />
    <glyph glyph-name="uni04C1" unicode="&#x4c1;" 
d="M200 327l-104 -327h-84l123 364l-108 325h83l91 -291h60v291h78v-291h60l92 291h82l-108 -325l123 -364h-86l-103 327h-60v-327h-78v327h-61zM197 802.5q-41 29.5 -47 82.5l58 13q11 -32 32.5 -46t57.5 -14t59 14t34 46l57 -13q-6 -53 -48 -82.5t-102 -29.5t-101 29.5z
" />
    <glyph glyph-name="uni04C3" unicode="&#x4c3;" 
d="M487 319.5q45 -54.5 45 -148.5v-232q0 -73 -38.5 -111.5t-106.5 -38.5q-65 0 -112 37l33 57q19 -13 35.5 -18.5t39.5 -5.5q62 0 62 75v236q0 72 -32 107t-99 35v9l-5 -9h-139v-312h-87v689h87v-304h99l172 304h93l-183 -305q91 -10 136 -64.5z" />
    <glyph glyph-name="uni04C5" unicode="&#x4c5;" 
d="M581 69l-78 -216h-68l35 147h-66v614h-155l-25 -204q-19 -156 -40 -235t-48 -115t-79 -71l-38 64q29 24 46 50t35 92t34 191l39 303h318v-620h90z" />
    <glyph glyph-name="uni04C7" unicode="&#x4c7;" 
d="M478.5 -172.5q-38.5 -38.5 -106.5 -38.5q-64 0 -113 37l34 57q19 -13 35 -18.5t40 -5.5q62 0 62 75v393h-260v-327h-87v689h87v-291h260v291h87v-750q0 -73 -38.5 -111.5z" />
    <glyph glyph-name="uni04C9" unicode="&#x4c9;" 
d="M577 69l-78 -216h-68l35 147h-66v327h-241v-327h-87v689h87v-291h241v291h87v-620h90z" />
    <glyph glyph-name="uni04CB" unicode="&#x4cb;" 
d="M517 689v-689h-63l-14 -147h-69v220h59v209q-46 -34 -86 -48.5t-93 -14.5q-90 0 -145 55.5t-55 148.5v266h86v-259q0 -68 35 -101.5t101 -33.5q96 0 157 61v333h87z" />
    <glyph glyph-name="uni04CD" unicode="&#x4cd;" 
d="M604 69l-77 -216h-71l35 147h-45l-22 360q-5 93 -5 211v32l-102 -479h-87l-108 479v-58q0 -128 -3 -185l-19 -360h-81l39 689h121l97 -472l92 472h122l35 -620h79z" />
    <glyph glyph-name="uni04D0" unicode="&#x4d0;" 
d="M161 176l-55 -176h-86l225 689h110l224 -689h-90l-55 176h-273zM411 248l-113 367l-114 -367h227zM197 802.5q-41 29.5 -47 82.5l58 13q11 -32 32.5 -46t57.5 -14t59 14t34 46l57 -13q-6 -53 -48 -82.5t-102 -29.5t-101 29.5z" />
    <glyph glyph-name="uni04D2" unicode="&#x4d2;" 
d="M161 176l-55 -176h-86l225 689h110l224 -689h-90l-55 176h-273zM411 248l-113 367l-114 -367h227zM157.5 783q-15.5 15 -15.5 38t15.5 38.5t39.5 15.5q23 0 38.5 -15.5t15.5 -38.5t-15.5 -38t-38.5 -15q-24 0 -39.5 15zM364.5 783q-15.5 15 -15.5 38t15.5 38.5t38.5 15.5
t39 -15.5t16 -38.5t-16 -38t-39 -15t-38.5 15z" />
    <glyph glyph-name="uni04D6" unicode="&#x4d6;" 
d="M212 385h256v-71h-256v-244h314v-70h-400v689h391l-10 -72h-295v-232zM218 802.5q-41 29.5 -47 82.5l58 13q11 -32 32.5 -46t57.5 -14t59 14t34 46l57 -13q-6 -53 -48 -82.5t-102 -29.5t-101 29.5z" />
    <glyph glyph-name="uni04D8" unicode="&#x4d8;" 
d="M47 381h415q-4 131 -48 190t-124 59q-46 0 -82 -15t-75 -43l-45 51q43 37 93 57t112 20q126 0 192 -87.5t66 -259.5q0 -113 -30.5 -195t-88 -125.5t-135.5 -43.5q-119 0 -185.5 87t-66.5 255zM462 309h-333q6 -133 47 -191t122 -58q151 0 164 249z" />
    <glyph glyph-name="uni04DA" unicode="&#x4da;" 
d="M47 381h415q-4 131 -48 190t-124 59q-46 0 -82 -15t-75 -43l-45 51q43 37 93 57t112 20q126 0 192 -87.5t66 -259.5q0 -113 -30.5 -195t-88 -125.5t-135.5 -43.5q-119 0 -185.5 87t-66.5 255zM462 309h-333q6 -133 47 -191t122 -58q151 0 164 249zM150.5 783
q-15.5 15 -15.5 38t15.5 38.5t39.5 15.5q23 0 38.5 -15.5t15.5 -38.5t-15.5 -38t-38.5 -15q-24 0 -39.5 15zM357.5 783q-15.5 15 -15.5 38t15.5 38.5t38.5 15.5t39 -15.5t16 -38.5t-16 -38t-39 -15t-38.5 15z" />
    <glyph glyph-name="uni04DC" unicode="&#x4dc;" 
d="M200 327l-104 -327h-84l123 364l-108 325h83l91 -291h60v291h78v-291h60l92 291h82l-108 -325l123 -364h-86l-103 327h-60v-327h-78v327h-61zM157.5 783q-15.5 15 -15.5 38t15.5 38.5t39.5 15.5q23 0 38.5 -15.5t15.5 -38.5t-15.5 -38t-38.5 -15q-24 0 -39.5 15z
M364.5 783q-15.5 15 -15.5 38t15.5 38.5t38.5 15.5t39 -15.5t16 -38.5t-16 -38t-39 -15t-38.5 15z" />
    <glyph glyph-name="uni04DE" unicode="&#x4de;" 
d="M406.5 677.5q53.5 -22.5 82 -63.5t28.5 -94q0 -61 -40 -98.5t-102 -46.5q70 -6 118 -50.5t48 -119.5q0 -62 -32 -111t-92 -77t-139 -28q-73 0 -135.5 25t-107.5 72l54 49q82 -73 189 -73q80 0 124.5 37t44.5 103t-44 98.5t-117 32.5h-121l10 73h105q63 0 105.5 28.5
t42.5 84.5q0 53 -41.5 81.5t-107.5 28.5q-54 0 -97 -16.5t-85 -49.5l-48 51q52 43 108.5 64.5t123.5 21.5q72 0 125.5 -22.5zM155.5 783q-15.5 15 -15.5 38t15.5 38.5t39.5 15.5q23 0 38.5 -15.5t15.5 -38.5t-15.5 -38t-38.5 -15q-24 0 -39.5 15zM362.5 783
q-15.5 15 -15.5 38t15.5 38.5t38.5 15.5t39 -15.5t16 -38.5t-16 -38t-39 -15t-38.5 15z" />
    <glyph glyph-name="uni04E0" unicode="&#x4e0;" 
d="M473.5 348q56.5 -52 56.5 -143q0 -64 -30.5 -113t-86.5 -76t-131 -27q-71 0 -119 18.5t-93 55.5l45 55q41 -29 77.5 -42.5t90.5 -13.5q76 0 116 38t40 107q0 124 -141 124h-120v64l222 221h-303v73h404v-73l-223 -216h17q122 0 178.5 -52z" />
    <glyph glyph-name="uni04E2" unicode="&#x4e2;" 
d="M83 689h86v-349q0 -86 -3.5 -143.5t-10.5 -119.5l250 612h112v-689h-86v349q0 133 14 257l-248 -606h-114v689zM165 795v64h269v-64h-269z" />
    <glyph glyph-name="uni04E4" unicode="&#x4e4;" 
d="M83 689h86v-349q0 -86 -3.5 -143.5t-10.5 -119.5l250 612h112v-689h-86v349q0 133 14 257l-248 -606h-114v689zM157.5 783q-15.5 15 -15.5 38t15.5 38.5t39.5 15.5q23 0 38.5 -15.5t15.5 -38.5t-15.5 -38t-38.5 -15q-24 0 -39.5 15zM364.5 783q-15.5 15 -15.5 38
t15.5 38.5t38.5 15.5t39 -15.5t16 -38.5t-16 -38t-39 -15t-38.5 15z" />
    <glyph glyph-name="uni04E6" unicode="&#x4e6;" 
d="M487.5 86q-65.5 -97 -187.5 -97q-123 0 -188 95t-65 259q0 105 29 186t86 126t138 45q122 0 187.5 -96.5t65.5 -259.5q0 -161 -65.5 -258zM424 556q-39 71 -124 71t-124 -71.5t-39 -212.5q0 -140 39.5 -210.5t123.5 -70.5q85 0 124 70.5t39 211.5t-39 212zM157.5 783
q-15.5 15 -15.5 38t15.5 38.5t39.5 15.5q23 0 38.5 -15.5t15.5 -38.5t-15.5 -38t-38.5 -15q-24 0 -39.5 15zM364.5 783q-15.5 15 -15.5 38t15.5 38.5t38.5 15.5t39 -15.5t16 -38.5t-16 -38t-39 -15t-38.5 15z" />
    <glyph glyph-name="uni04E8" unicode="&#x4e8;" 
d="M487.5 86q-65.5 -97 -187.5 -97q-123 0 -188 95t-65 259q0 105 29 186t86 126t138 45q122 0 187.5 -96.5t65.5 -259.5q0 -161 -65.5 -258zM183.5 566.5q-38.5 -60.5 -44.5 -182.5h321q-5 122 -43.5 182.5t-116.5 60.5t-116.5 -60.5zM419.5 126q38.5 64 41.5 192h-323
q3 -128 42.5 -192t119.5 -64q81 0 119.5 64z" />
    <glyph glyph-name="uni04EA" unicode="&#x4ea;" 
d="M487.5 86q-65.5 -97 -187.5 -97q-123 0 -188 95t-65 259q0 105 29 186t86 126t138 45q122 0 187.5 -96.5t65.5 -259.5q0 -161 -65.5 -258zM183.5 566.5q-38.5 -60.5 -44.5 -182.5h321q-5 122 -43.5 182.5t-116.5 60.5t-116.5 -60.5zM419.5 126q38.5 64 41.5 192h-323
q3 -128 42.5 -192t119.5 -64q81 0 119.5 64zM157.5 783q-15.5 15 -15.5 38t15.5 38.5t39.5 15.5q23 0 38.5 -15.5t15.5 -38.5t-15.5 -38t-38.5 -15q-24 0 -39.5 15zM364.5 783q-15.5 15 -15.5 38t15.5 38.5t38.5 15.5t39 -15.5t16 -38.5t-16 -38t-39 -15t-38.5 15z" />
    <glyph glyph-name="uni04EC" unicode="&#x4ec;" 
d="M467.5 612q71.5 -88 71.5 -259q0 -177 -74 -270.5t-204 -93.5q-66 0 -123 23.5t-96 64.5l52 49q37 -33 75.5 -49t86.5 -16q91 0 139 62.5t54 193.5h-303v74h303q-7 126 -53 182t-131 56q-53 0 -91.5 -17.5t-75.5 -47.5l-48 51q98 85 219 85q127 0 198.5 -88zM146.5 783
q-15.5 15 -15.5 38t15.5 38.5t39.5 15.5q23 0 38.5 -15.5t15.5 -38.5t-15.5 -38t-38.5 -15q-24 0 -39.5 15zM353.5 783q-15.5 15 -15.5 38t15.5 38.5t38.5 15.5t39 -15.5t16 -38.5t-16 -38t-39 -15t-38.5 15z" />
    <glyph glyph-name="uni04EE" unicode="&#x4ee;" 
d="M369 180q-25 -61 -54.5 -98.5t-75.5 -60.5t-117 -32l-13 69q60 9 94.5 25t53.5 40.5t34 66.5h-37l-228 499h91l196 -443l180 443h87zM175 795v64h269v-64h-269z" />
    <glyph glyph-name="uni04F0" unicode="&#x4f0;" 
d="M369 180q-25 -61 -54.5 -98.5t-75.5 -60.5t-117 -32l-13 69q60 9 94.5 25t53.5 40.5t34 66.5h-37l-228 499h91l196 -443l180 443h87zM167.5 783q-15.5 15 -15.5 38t15.5 38.5t39.5 15.5q23 0 38.5 -15.5t15.5 -38.5t-15.5 -38t-38.5 -15q-24 0 -39.5 15zM374.5 783
q-15.5 15 -15.5 38t15.5 38.5t38.5 15.5t39 -15.5t16 -38.5t-16 -38t-39 -15t-38.5 15z" />
    <glyph glyph-name="uni04F2" unicode="&#x4f2;" 
d="M369 180q-25 -61 -54.5 -98.5t-75.5 -60.5t-117 -32l-13 69q60 9 94.5 25t53.5 40.5t34 66.5h-37l-228 499h91l196 -443l180 443h87zM271 955l74 -35l-97 -164l-55 26zM445 955l73 -39l-108 -163l-53 28z" />
    <glyph glyph-name="uni04F4" unicode="&#x4f4;" 
d="M517 689v-689h-87v282q-46 -34 -86 -48.5t-93 -14.5q-90 0 -145 55.5t-55 148.5v266h86v-259q0 -68 35 -101.5t101 -33.5q96 0 157 61v333h87zM146.5 783q-15.5 15 -15.5 38t15.5 38.5t39.5 15.5q23 0 38.5 -15.5t15.5 -38.5t-15.5 -38t-38.5 -15q-24 0 -39.5 15z
M353.5 783q-15.5 15 -15.5 38t15.5 38.5t38.5 15.5t39 -15.5t16 -38.5t-16 -38t-39 -15t-38.5 15z" />
    <glyph glyph-name="uni04F6" unicode="&#x4f6;" 
d="M223 612v-539h59v-220h-69l-14 147h-63v689h408l-9 -77h-312z" />
    <glyph glyph-name="uni04F8" unicode="&#x4f8;" 
d="M119 433h63q125 0 186.5 -54t61.5 -158q0 -110 -63.5 -165.5t-182.5 -55.5h-153v689h88v-256zM569 0h-88v689h88v-689zM119 367v-298h74q72 0 108.5 35.5t36.5 115.5q0 147 -147 147h-72zM157.5 783q-15.5 15 -15.5 38t15.5 38.5t39.5 15.5q23 0 38.5 -15.5t15.5 -38.5
t-15.5 -38t-38.5 -15q-24 0 -39.5 15zM364.5 783q-15.5 15 -15.5 38t15.5 38.5t38.5 15.5t39 -15.5t16 -38.5t-16 -38t-39 -15t-38.5 15z" />
    <glyph glyph-name="uni04FA" unicode="&#x4fa;" 
d="M261 612v-179h158v-67h-158v-293h60v-134q0 -73 -38.5 -111.5t-106.5 -38.5q-64 0 -113 37l33 57q20 -13 36 -18.5t40 -5.5q62 0 62 75v66h-59v366h-101v67h101v256h408l-9 -77h-313z" />
    <glyph glyph-name="uni04FC" unicode="&#x4fc;" 
d="M576 -61q0 -73 -38.5 -111.5t-106.5 -38.5q-63 0 -112 37l33 57q20 -13 36 -18.5t40 -5.5q30 0 46 18.5t16 56.5v66h-37l-171 311l-174 -311h-93l216 367l-198 322h100l151 -265l152 265h93l-195 -317l176 -299h66v-134z" />
    <glyph glyph-name="uni04FE" unicode="&#x4fe;" 
d="M569 0h-100l-171 311l-174 -311h-93l197 334h-156v66h155l-178 289h100l151 -265l152 265h93l-177 -289h160v-66h-156z" />
    <glyph glyph-name="uni0500" unicode="&#x500;" 
d="M119.5 54q-70.5 54 -70.5 156t70 159t190 57h110v263h87v-689h-203q-113 0 -183.5 54zM419 71v287h-112q-80 0 -123 -36.5t-43 -111.5q0 -139 163 -139h115z" />
    <glyph glyph-name="uni0502" unicode="&#x502;" 
d="M585 250q0 -133 -45.5 -198.5t-119.5 -65.5q-43 0 -75 21t-49 59q-48 -80 -132 -80q-42 0 -77 23t-56.5 69t-21.5 112q0 113 56.5 174.5t166.5 61.5h46v263h87v-534q0 -48 14 -73.5t42 -25.5q34 0 55.5 44.5t21.5 147.5q0 59 -5 129h87q5 -65 5 -127zM234.5 77
q22.5 21 43.5 65v217h-48q-63 0 -98.5 -42t-35.5 -127q0 -70 23 -102t61 -32q32 0 54.5 21z" />
    <glyph glyph-name="uni0504" unicode="&#x504;" 
d="M575 255q0 -136 -48 -201t-130 -65q-63 0 -105 33t-75 105l-79 168h-83v69h72q77 0 116.5 31t39.5 100q0 66 -40 95t-128 29h-90v70h91q127 0 193 -49.5t66 -144.5q0 -72 -37 -117t-113 -67l71 -160q24 -52 46 -73t55 -21q43 0 67.5 45t24.5 153q0 55 -5 125h86
q5 -65 5 -125z" />
    <glyph glyph-name="uni0506" unicode="&#x506;" 
d="M555 73v-220h-69l-14 147h-37l-188 295h-145v68h152q77 0 116.5 31.5t39.5 100.5q0 66 -37.5 95t-118.5 29h-181v70h171q128 0 193.5 -49t65.5 -145q0 -74 -46 -122.5t-122 -67.5l155 -232h65z" />
    <glyph glyph-name="uni0508" unicode="&#x508;" 
d="M587 250q0 -133 -46 -198.5t-120 -65.5q-62 0 -101.5 44t-39.5 128v458h-95l-18 -246q-10 -136 -24 -207.5t-33 -104.5t-55 -69l-50 60q21 22 33 49.5t22 93.5t21 196l24 301h261v-534q0 -48 14.5 -73.5t42.5 -25.5q34 0 55.5 44.5t21.5 147.5q0 59 -5 129h87
q5 -65 5 -127z" />
    <glyph glyph-name="uni050A" unicode="&#x50a;" 
d="M590 250q0 -133 -46 -198.5t-119 -65.5q-62 0 -101.5 44t-39.5 128v169h-149v-327h-86v689h86v-290h149v290h86v-534q0 -48 14.5 -73.5t42.5 -25.5q34 0 55.5 44.5t21.5 147.5q0 59 -5 129h86q5 -65 5 -127z" />
    <glyph glyph-name="uni050C" unicode="&#x50c;" 
d="M116.5 79.5q-71.5 90.5 -71.5 265.5q0 114 40 194t106 120.5t143 40.5q65 0 109 -18t87 -58l-52 -54q-32 29 -66.5 43t-77.5 14q-84 0 -140 -67t-56 -215q0 -147 45.5 -215t137.5 -68q73 0 131 33v209h-135l-10 73h232v-328q-52 -29 -104.5 -44.5t-120.5 -15.5
q-126 0 -197.5 90.5z" />
    <glyph glyph-name="uni050E" unicode="&#x50e;" 
d="M568 256q0 -90 -31 -150t-79 -88.5t-100 -28.5q-71 0 -117.5 47.5t-46.5 134.5v442h-179v76h470l-9 -76h-195v-428q0 -128 80 -128q53 0 87 46t34 153q0 53 -5 123h86q5 -65 5 -123z" />
    <glyph glyph-name="uni0510" unicode="&#x510;" 
d="M443.5 678.5q56.5 -21.5 107.5 -64.5l-48 -51q-42 33 -85 49.5t-97 16.5q-66 0 -107.5 -28.5t-41.5 -82.5q0 -56 42 -84t106 -28h117l-10 -73h-113q-73 0 -117 -32.5t-44 -99.5q0 -65 44.5 -102t124.5 -37q106 0 191 73l52 -49q-44 -47 -108 -72t-138 -25q-79 0 -138 27
t-90.5 75t-31.5 109q0 76 48 121.5t118 53.5q-61 9 -101.5 46.5t-40.5 95.5q0 54 30 95.5t84 64.5t123 23q67 0 123.5 -21.5z" />
    <glyph glyph-name="uni0512" unicode="&#x512;" 
d="M478.5 -172.5q-38.5 -38.5 -106.5 -38.5q-64 0 -113 37l34 57q19 -13 35 -18.5t40 -5.5q62 0 62 75v680h-185l-25 -204q-19 -156 -40 -235t-48 -115t-79 -71l-38 64q29 24 46 50t35 92t34 191l39 303h348v-750q0 -73 -38.5 -111.5z" />
    <glyph glyph-name="uni0514" unicode="&#x514;" 
d="M608 0h-88l-124 307l-118 -307h-84l155 368l-107 244h-58l-18 -242q-10 -136 -24 -207.5t-32.5 -104.5t-54.5 -69l-51 60q21 22 33 49.5t22 93.5t21 196l24 301l6 -6l-5 6h192l106 -263l103 263h83l-138 -321z" />
    <glyph glyph-name="uni0516" unicode="&#x516;" 
d="M495 0l-162 321q-29 -31 -70 -48t-88 -17h-37v-256h-83v689h120q100 0 157.5 -58.5t57.5 -153.5v-16l112 228h86l-176 -336l177 -353h-94zM271 361q37 35 37 115q0 71 -34.5 107t-96.5 36h-39v-293h34q62 0 99 35z" />
    <glyph glyph-name="uni0518" unicode="&#x518;" 
d="M598 70v-70h-304v277h-70l-117 -277h-99l133 297q-61 26 -92 73.5t-31 112.5q0 95 65 150.5t179 55.5h327l-10 -72h-196v-231h156v-72h-156v-244h215zM294 619h-42q-66 0 -102.5 -34.5t-36.5 -100.5q0 -68 32.5 -102t88.5 -34h60v271z" />
    <glyph glyph-name="uni051A" unicode="&#x51a;" 
d="M520.5 148.5q-33.5 -79.5 -109.5 -121.5q74 -15 115.5 -52t66.5 -112l-92 -36q-34 85 -80 124t-131 39q-78 0 -133 43.5t-83.5 123t-28.5 186.5q0 105 29 186t86.5 126t139.5 45q122 0 188 -96.5t66 -259.5q0 -116 -33.5 -195.5zM424 556q-39 71 -124 71t-124.5 -71.5
t-39.5 -212.5q0 -140 40 -210.5t124 -70.5q85 0 124 70.5t39 211.5t-39 212z" />
    <glyph glyph-name="uni051C" unicode="&#x51c;" 
d="M491 0h-114l-79 520l-80 -520h-117l-96 689h87l73 -594l83 514h106l79 -514l82 594h80z" />
    <glyph glyph-name="uni051E" unicode="&#x51e;" 
d="M581 0h-105l-220 326h-80v-326h-87v689h87v-290h81l90 124l-120 78l38 55l122 -79l81 112h94l-110 -154l108 -70l-38 -56l-109 71l-83 -116z" />
    <glyph glyph-name="uni0520" unicode="&#x520;" 
d="M547 410q36 -41 36 -105v-363q0 -74 -40 -113.5t-106 -39.5q-64 0 -113 37l34 58q20 -12 35.5 -17.5t39.5 -5.5q62 0 62 74v360q0 79 -60 79q-42 0 -81 -35v-339h-86v616h-95l-18 -246q-10 -136 -24 -207.5t-33 -104.5t-55 -69l-50 60q21 22 33 49.5t22 93.5t21 196
l24 301h261v-278q42 40 95 40q62 0 98 -41z" />
    <glyph glyph-name="uni0522" unicode="&#x522;" 
d="M554 408.5q39 -42.5 39 -114.5v-352q0 -74 -40 -113.5t-105 -39.5q-64 0 -113 37l34 57q21 -12 36.5 -17.5t38.5 -5.5q62 0 62 75v360q0 79 -70 79q-24 0 -45 -8.5t-44 -27.5v-338h-86v327h-149v-327h-86v689h86v-290h149v290h86v-278q43 40 102 40q66 0 105 -42.5z" />
    <glyph glyph-name="uni048C" unicode="&#x48c;" 
d="M501 375.5q68 -52.5 68 -154.5q0 -112 -72 -166.5t-196 -54.5h-176v531h-95v63h95v95h87v-95h131v-63h-131v-103h102q119 0 187 -52.5zM433 104q43 33 43 115q0 75 -41.5 108t-119.5 33h-103v-289h99q79 0 122 33z" />
    <glyph glyph-name="uni048E" unicode="&#x48e;" 
d="M472 304l83 -136h-79l-64 106q-54 -18 -121 -18h-89v-256h-86v689h175q127 0 196.5 -53.5t69.5 -160.5q0 -112 -85 -171zM375 335l-89 144h79l67 -110q31 35 31 105q0 77 -43.5 111.5t-118.5 34.5h-99v-295h96q46 0 77 10z" />
    <glyph glyph-name="uni0430" unicode="&#x430;" 
d="M488 69.5q10 -14.5 33 -21.5l-21 -60q-77 10 -96 75q-28 -36 -70.5 -55t-94.5 -19q-79 0 -124.5 44t-45.5 118q0 81 63.5 125t182.5 44h78v43q0 56 -32 80.5t-93 24.5q-60 0 -137 -27l-23 64q93 33 173 33q96 0 146.5 -45t50.5 -125v-253q0 -31 10 -45.5zM334.5 72
q35.5 20 58.5 55v135h-76q-84 0 -121 -28t-37 -82q0 -100 101 -100q39 0 74.5 20z" />
    <glyph glyph-name="uni0431" unicode="&#x431;" 
d="M432.5 463q43.5 -29 67.5 -83.5t24 -127.5q0 -83 -28.5 -142.5t-79 -90t-117.5 -30.5q-100 0 -162 75t-62 225q0 115 17 188.5t58.5 121.5t117.5 74q64 23 97 38t68 39l36 -65q-66 -41 -159 -76q-47 -17 -75 -39t-45.5 -63.5t-24.5 -112.5q26 45 69.5 71.5t97.5 26.5
q57 0 100.5 -29zM396.5 100.5q35.5 42.5 35.5 148.5q0 174 -113 174q-46 0 -85.5 -25t-66.5 -79v-64q0 -94 35 -145.5t97 -51.5t97.5 42.5z" />
    <glyph glyph-name="uni0432" unicode="&#x432;" 
d="M499 247q33 -32 33 -91q0 -78 -64.5 -117t-160.5 -39h-195v519q93 19 178 19q100 0 157.5 -36t57.5 -102q0 -43 -24 -71.5t-83 -43.5q68 -6 101 -38zM196 464v-152h108q55 0 84.5 18.5t29.5 62.5q0 41 -30.5 59t-95.5 18q-49 0 -96 -6zM402 84q41 16 41 71q0 52 -37.5 71
t-95.5 19h-114v-177h95q70 0 111 16z" />
    <glyph glyph-name="uni0433" unicode="&#x433;" 
d="M158 0v527h366l-10 -71h-272v-456h-84z" />
    <glyph glyph-name="uni0453" unicode="&#x453;" 
d="M158 0v527h366l-10 -71h-272v-456h-84zM462 725l-209 -85l-26 45l197 112z" />
    <glyph glyph-name="uni0491" unicode="&#x491;" 
d="M524 659v-132l-10 -71h-272v-456h-84v527h281v132h85z" />
    <glyph glyph-name="uni0434" unicode="&#x434;" 
d="M535 69v-216h-70l-14 147h-340l-15 -147h-70v216h36q25 22 40 52.5t25.5 85.5t17.5 150l11 170h340v-458h39zM411 458h-178l-7 -95q-7 -100 -17 -155t-27 -86t-48 -53h9h268v389z" />
    <glyph glyph-name="uni0435" unicode="&#x435;" 
d="M212.5 103q42.5 -44 107.5 -44q39 0 71.5 11.5t69.5 35.5l39 -56q-37 -29 -84.5 -45t-95.5 -16q-114 0 -177.5 74.5t-63.5 199.5q0 79 28 141.5t80 98t121 35.5q100 0 157.5 -69.5t57.5 -189.5q0 -23 -2 -45h-354q3 -87 45.5 -131zM210 425.5q-38 -43.5 -43 -127.5h274
q-1 83 -36 127t-96 44t-99 -43.5z" />
    <glyph glyph-name="uni0450" unicode="&#x450;" 
d="M212.5 103q42.5 -44 107.5 -44q39 0 71.5 11.5t69.5 35.5l39 -56q-37 -29 -84.5 -45t-95.5 -16q-114 0 -177.5 74.5t-63.5 199.5q0 79 28 141.5t80 98t121 35.5q100 0 157.5 -69.5t57.5 -189.5q0 -23 -2 -45h-354q3 -87 45.5 -131zM210 425.5q-38 -43.5 -43 -127.5h274
q-1 83 -36 127t-96 44t-99 -43.5zM194 715l46 72l184 -119l-27 -46z" />
    <glyph glyph-name="uni0451" unicode="&#x451;" 
d="M212.5 103q42.5 -44 107.5 -44q39 0 71.5 11.5t69.5 35.5l39 -56q-37 -29 -84.5 -45t-95.5 -16q-114 0 -177.5 74.5t-63.5 199.5q0 79 28 141.5t80 98t121 35.5q100 0 157.5 -69.5t57.5 -189.5q0 -23 -2 -45h-354q3 -87 45.5 -131zM210 425.5q-38 -43.5 -43 -127.5h274
q-1 83 -36 127t-96 44t-99 -43.5zM167 663.5q-16 15.5 -16 37.5q0 24 16 39.5t39 15.5t38.5 -15.5t15.5 -39.5q0 -23 -15.5 -38t-38.5 -15t-39 15.5zM374.5 663q-15.5 15 -15.5 38q0 24 15.5 39.5t38.5 15.5t39 -15.5t16 -39.5q0 -22 -16 -37.5t-39 -15.5t-38.5 15z" />
    <glyph glyph-name="uni0436" unicode="&#x436;" 
d="M263 247h-57l-104 -247h-82l122 283l-113 244h86l92 -215h56v215h74v-215h56l95 215h83l-113 -244l122 -283h-85l-104 247h-54v-247h-74v247z" />
    <glyph glyph-name="uni0437" unicode="&#x437;" 
d="M286 309q53 0 83.5 22t30.5 58q0 81 -124 81q-41 0 -84 -12t-79 -34l-40 50q40 30 95 47t111 17q91 0 150 -37.5t59 -106.5q0 -42 -29 -70.5t-78 -42.5q32 -1 63.5 -16t52 -43t20.5 -65q0 -81 -66 -124.5t-173 -43.5q-135 0 -224 73l40 54q81 -58 187 -58q71 0 108 26
t37 71q0 86 -134 86h-106l5 68h95z" />
    <glyph glyph-name="uni0438" unicode="&#x438;" 
d="M500 0h-84v246q0 74 4.5 125t4.5 56l-222 -427h-103v527h84v-247q0 -63 -4 -117.5t-4 -59.5l219 424h105v-527z" />
    <glyph glyph-name="uni0439" unicode="&#x439;" 
d="M500 0h-84v246q0 74 4.5 125t4.5 56l-222 -427h-103v527h84v-247q0 -63 -4 -117.5t-4 -59.5l219 424h105v-527zM198 676.5q-41 29.5 -47 82.5l57 13q11 -32 32.5 -46t57.5 -14t59 14t34 46l58 -13q-6 -53 -48.5 -82.5t-102.5 -29.5q-59 0 -100 29.5z" />
    <glyph glyph-name="uni045D" unicode="&#x45d;" 
d="M500 0h-84v246q0 74 4.5 125t4.5 56l-222 -427h-103v527h84v-247q0 -63 -4 -117.5t-4 -59.5l219 424h105v-527zM184 715l46 72l184 -119l-27 -46z" />
    <glyph glyph-name="uni048B" unicode="&#x48b;" 
d="M186 676.5q-41 29.5 -47 82.5l58 13q10 -32 31.5 -46t57.5 -14t59 14t34 46l58 -13q-6 -53 -48 -82.5t-103 -29.5q-59 0 -100 29.5zM561 66l-66 -213h-69l34 147h-58v246q0 116 10 203l-217 -449h-102v527h82v-247q0 -58 -4 -114.5t-10 -85.5l220 447h103v-461h77z" />
    <glyph glyph-name="uni043A" unicode="&#x43a;" 
d="M106 527h84v-214h105l152 214h95l-178 -244l205 -283h-102l-174 245h-103v-245h-84v527z" />
    <glyph glyph-name="uni045C" unicode="&#x45c;" 
d="M106 527h84v-214h105l152 214h95l-178 -244l205 -283h-102l-174 245h-103v-245h-84v527zM442 725l-209 -85l-26 45l197 112z" />
    <glyph glyph-name="uni043B" unicode="&#x43b;" 
d="M510 0h-84v456h-197l-12 -139q-10 -118 -24.5 -178t-39.5 -91t-75 -59l-36 54q29 18 45.5 40.5t29 75.5t20.5 155l16 213h357v-527z" />
    <glyph glyph-name="uni043C" unicode="&#x43c;" 
d="M558 0h-81l-20 257q-6 90 -6 141l1 45h-4l-105 -355h-83l-116 355h-4q1 -16 1 -51q0 -53 -4 -133l-15 -259h-80l38 527h110l113 -360l104 360h112z" />
    <glyph glyph-name="uni043D" unicode="&#x43d;" 
d="M416 234h-232v-234h-84v527h84v-224h232v224h84v-527h-84v234z" />
    <glyph glyph-name="uni043E" unicode="&#x43e;" 
d="M468.5 464.5q58.5 -73.5 58.5 -200.5q0 -124 -59.5 -199.5t-167.5 -75.5q-109 0 -168 73.5t-59 200.5q0 125 59.5 200t168.5 75t167.5 -73.5zM198 418q-34 -51 -34 -155t33.5 -154.5t102.5 -50.5t102.5 50.5t33.5 155.5q0 104 -33.5 154.5t-101.5 50.5q-69 0 -103 -51z
" />
    <glyph glyph-name="uni043F" unicode="&#x43f;" 
d="M416 458h-232v-458h-84v527h400v-527h-84v458z" />
    <glyph glyph-name="uni0440" unicode="&#x440;" 
d="M527 264q0 -125 -52 -200t-151 -75q-86 0 -140 60v-251l-84 -10v739h72l7 -74q29 41 69.5 63t87.5 22q191 0 191 -274zM242.5 446q-33.5 -24 -58.5 -60v-261q21 -31 52.5 -48.5t68.5 -17.5q66 0 98.5 50.5t32.5 154.5t-29 155t-91 51q-40 0 -73.5 -24z" />
    <glyph glyph-name="uni0441" unicode="&#x441;" 
d="M476 107l40 -55q-33 -29 -82 -46t-95 -17q-117 0 -182.5 73.5t-65.5 198.5q0 79 29.5 142t85.5 99t133 36q102 0 176 -62l-41 -55q-69 46 -136 46q-71 0 -113.5 -52.5t-42.5 -153.5t42.5 -150.5t114.5 -49.5q69 0 137 46z" />
    <glyph glyph-name="uni0442" unicode="&#x442;" 
d="M530 457h-188v-457h-84v457h-193v70h476z" />
    <glyph glyph-name="uni0443" unicode="&#x443;" 
d="M354 -3q-31 -91 -85 -145t-151 -64l-12 67q53 9 84.5 27.5t49.5 46t33 71.5h-28l-183 527h89l151 -463l149 463h87z" />
    <glyph glyph-name="uni045E" unicode="&#x45e;" 
d="M354 -3q-31 -91 -85 -145t-151 -64l-12 67q53 9 84.5 27.5t49.5 46t33 71.5h-28l-183 527h89l151 -463l149 463h87zM198 676.5q-41 29.5 -47 82.5l57 13q11 -32 32.5 -46t57.5 -14t59 14t34 46l58 -13q-6 -53 -48.5 -82.5t-102.5 -29.5q-59 0 -100 29.5z" />
    <glyph glyph-name="uni0444" unicode="&#x444;" 
d="M338 738v-254q41 54 98 54q74 0 104.5 -70.5t30.5 -203.5q0 -126 -37.5 -200.5t-106.5 -74.5q-24 0 -47 14t-42 42v-246l-76 -11v257q-19 -27 -43 -41.5t-48 -14.5q-69 0 -105.5 74t-36.5 201q0 132 32.5 203t107.5 71q54 0 93 -52v263zM133.5 422.5
q-17.5 -48.5 -17.5 -158.5q0 -111 17.5 -160t54.5 -49q20 0 35.5 11.5t38.5 39.5v318q-21 26 -36.5 36.5t-37.5 10.5q-37 0 -54.5 -48.5zM376 460q-18 -11 -38 -37v-317q19 -27 35 -39t37 -12q38 0 56.5 50t18.5 159q0 112 -15.5 159.5t-52.5 47.5q-23 0 -41 -11z" />
    <glyph glyph-name="uni0445" unicode="&#x445;" 
d="M56 0l194 278l-171 249h100l122 -196l123 196h97l-171 -245l194 -282h-102l-145 226l-145 -226h-96z" />
    <glyph glyph-name="uni0447" unicode="&#x447;" 
d="M489 0h-84v223q-31 -27 -74 -43t-91 -16q-76 0 -115.5 40.5t-39.5 114.5v208h84v-198q0 -53 22 -76t70 -23q39 0 80 16.5t64 43.5v237h84v-527z" />
    <glyph glyph-name="uni0446" unicode="&#x446;" 
d="M575 69v-216h-70l-14 147h-397v527h84v-457h232v457h84v-458h81z" />
    <glyph glyph-name="uni0448" unicode="&#x448;" 
d="M551 0h-502v527h79v-457h133v457h78v-457h134v457h78v-527z" />
    <glyph glyph-name="uni0449" unicode="&#x449;" 
d="M623 69v-216h-70l-14 147h-490v527h79v-457h133v457h78v-457h134v457h78v-458h72z" />
    <glyph glyph-name="uni045F" unicode="&#x45f;" 
d="M500 0h-158v-147h-70l-14 147h-158v527h84v-457h232v457h84v-527z" />
    <glyph glyph-name="uni044C" unicode="&#x44c;" 
d="M210 361h103q118 0 169.5 -46.5t51.5 -133.5q0 -60 -28 -101t-74 -60.5t-100 -19.5h-206v527h84v-166zM210 295v-227h113q57 0 88.5 25.5t31.5 87.5q0 59 -29 86.5t-102 27.5h-102z" />
    <glyph glyph-name="uni044A" unicode="&#x44a;" 
d="M242 361h63q240 0 240 -177q0 -184 -240 -184h-147v462h-125v65h209v-166zM242 295v-227h72q67 0 104 25t37 90q0 59 -36 85.5t-104 26.5h-73z" />
    <glyph glyph-name="uni044B" unicode="&#x44b;" 
d="M142 356h36q108 0 166 -42.5t58 -130.5q0 -93 -59 -138t-165 -45h-116v527h80v-171zM538 0h-81v527h81v-527zM142 293v-228h39q67 0 100.5 26t33.5 91q0 59 -32 85t-102 26h-39z" />
    <glyph glyph-name="uni0459" unicode="&#x459;" 
d="M363 356h13q104 0 160 -42.5t56 -130.5q0 -91 -57 -137t-158 -46h-95v460h-106l-6 -139q-5 -112 -20 -174.5t-41.5 -95.5t-74.5 -62l-31 56q24 20 39 43.5t27 77t18 149.5l11 212h265v-171zM363 293v-227h20q62 0 91.5 25.5t29.5 91.5q0 59 -29 84.5t-94 25.5h-18z" />
    <glyph glyph-name="uni045A" unicode="&#x45a;" 
d="M366 328h13q105 0 160.5 -38.5t55.5 -124.5q0 -165 -213 -165h-97v266h-130v-266h-83v527h83v-199h130v199h81v-199zM366 266v-201h19q42 0 67.5 7t40 28.5t14.5 64.5q0 57 -29 79t-95 22h-17z" />
    <glyph glyph-name="uni0455" unicode="&#x455;" 
d="M375 81q35 23 35 61q0 26 -9 42.5t-36 30t-82 27.5q-92 23 -136 55.5t-44 96.5q0 66 55 105t145 39q110 0 192 -58l-38 -58q-33 23 -69 35.5t-83 12.5q-114 0 -114 -69q0 -24 12.5 -39t41 -26.5t85.5 -27.5q86 -23 128.5 -58.5t42.5 -103.5q0 -79 -64 -118t-157 -39
q-124 0 -206 71l47 55q32 -26 73 -41.5t86 -15.5q60 0 95 23z" />
    <glyph glyph-name="uni0454" unicode="&#x454;" 
d="M516 480l-40 -55q-34 24 -67 34.5t-71 10.5q-63 0 -106 -43t-52 -124h240v-66h-241q5 -90 48 -134t111 -44q39 0 72 11t67 34l39 -54q-34 -29 -82 -45t-93 -16q-119 0 -184.5 73.5t-65.5 198.5q0 80 29.5 142.5t86 98.5t133.5 36q102 0 176 -58z" />
    <glyph glyph-name="uni044D" unicode="&#x44d;" 
d="M456 466q60 -72 60 -200q0 -127 -63 -202t-180 -75q-49 0 -97.5 16t-84.5 46l41 56q64 -48 140 -48q70 0 111 43.5t46 134.5h-248v66h247q-7 84 -46 125.5t-105 41.5q-78 0 -141 -47l-40 54q35 29 84 45t98 16q118 0 178 -72z" />
    <glyph glyph-name="uni0456" unicode="&#x456;" 
d="M345 756.5q17 -16.5 17 -42.5t-17 -42.5t-45 -16.5q-27 0 -43.5 16.5t-16.5 42.5t16.5 42.5t43.5 16.5q28 0 45 -16.5zM367 67h148v-67h-394v67h162v393h-157v67h241v-460z" />
    <glyph glyph-name="uni0457" unicode="&#x457;" 
d="M367 67h148v-67h-394v67h162v393h-157v67h241v-460zM158 663.5q-16 15.5 -16 37.5q0 24 16 39.5t39 15.5t38.5 -15.5t15.5 -39.5q0 -23 -15.5 -38t-38.5 -15t-39 15.5zM365.5 663q-15.5 15 -15.5 38q0 24 15.5 39.5t38.5 15.5t39 -15.5t16 -39.5q0 -22 -16 -37.5
t-39 -15.5t-38.5 15z" />
    <glyph glyph-name="uni0458" unicode="&#x458;" 
d="M411 756.5q17 -16.5 17 -42.5t-17 -42.5t-44 -16.5t-44 16.5t-17 42.5t17 42.5t44 16.5t44 -16.5zM445 84q0 -127 -84.5 -197.5t-250.5 -98.5l-14 65q127 21 196 73.5t69 152.5v381h-219v67h303v-443z" />
    <glyph glyph-name="uni045B" unicode="&#x45b;" 
d="M501 382v-382h-84v381q0 47 -22 68.5t-70 21.5q-41 0 -79 -26t-62 -61v-384h-84v597h-81v68h81v73l84 9v-82h169v-68h-169v-143q31 40 76 62t93 22q148 0 148 -156z" />
    <glyph glyph-name="uni044E" unicode="&#x44e;" 
d="M522 466.5q46 -71.5 46 -202.5q0 -128 -45.5 -201.5t-137.5 -73.5q-87 0 -131 66.5t-49 178.5h-67v-234h-82v527h82v-223h67q6 112 50.5 173t129.5 61q91 0 137 -71.5zM312 420.5q-20 -48.5 -20 -157.5q0 -103 20 -154t73 -51q54 0 74 51t20 155q0 107 -21 156t-73 49
q-53 0 -73 -48.5z" />
    <glyph glyph-name="uni044F" unicode="&#x44f;" 
d="M486 527v-527h-84v204h-142l-112 -204h-95l125 223q-93 44 -93 144q0 78 54.5 119t153.5 41h193zM402 271v188h-111q-59 0 -88 -22t-29 -70q0 -51 26.5 -73.5t87.5 -22.5h114z" />
    <glyph glyph-name="uni0452" unicode="&#x452;" 
d="M184 665h169v-68h-169v-139q31 37 76.5 58.5t92.5 21.5q148 0 148 -156v-356q0 -71 -17 -115t-49.5 -70.5t-88.5 -51.5l-31 61q39 19 60 36.5t31.5 49.5t10.5 88v354q0 49 -22 71t-70 22q-41 0 -79 -26t-62 -61v-384h-84v597h-81v68h81v73l84 9v-82z" />
    <glyph glyph-name="uni0461" unicode="&#x461;" 
d="M574 239q0 -119 -39 -184.5t-114 -65.5q-52 0 -83.5 29.5t-38.5 86.5q-11 -56 -42.5 -86t-79.5 -30q-151 0 -151 250q0 161 50 288h75q-26 -79 -34 -143t-8 -145q0 -87 17 -134t59 -47q75 0 75 173v126l80 11v-138q0 -83 16.5 -127.5t57.5 -44.5q43 0 60 47t17 134
q0 76 -9.5 141t-35.5 147h77q51 -137 51 -288z" />
    <glyph glyph-name="uni0463" unicode="&#x463;" 
d="M229 536h133l-11 -68h-122v-112h70q241 0 241 -176q0 -180 -242 -180h-153v468h-87v68h87v109l84 10v-119zM229 290v-222h80q67 0 104 24t37 88q0 58 -36 84t-105 26h-80z" />
    <glyph glyph-name="uni0465" unicode="&#x465;" 
d="M487 70.5q23 10.5 48 31.5l46 -52q-31 -30 -69.5 -45.5t-75.5 -15.5q-93 0 -149.5 65.5t-62.5 179.5h-64v-234h-84v527h84v-223h65q10 106 65 170t149 64q41 0 76 -14t69 -43l-43 -52q-26 20 -50 30t-54 10q-57 0 -88.5 -42.5t-40.5 -123.5h198v-66h-199q3 -89 37 -133
t90 -44q30 0 53 10.5z" />
    <glyph glyph-name="uni0467" unicode="&#x467;" 
d="M397 204h-63v-204h-72v204h-61l-79 -204h-86l217 527h97l215 -527h-89zM371 272l-72 186l-72 -186h144z" />
    <glyph glyph-name="uni0469" unicode="&#x469;" 
d="M455 205h-39v-205h-68v205h-36l-58 -205h-78l62 205h-103v-205h-83v527h83v-253h124l76 253h102l157 -527h-81zM436 274l-52 186l-53 -186h105z" />
    <glyph glyph-name="uni046B" unicode="&#x46b;" 
d="M578 0h-77l-85 232h-75v-232h-83v232h-73l-84 -232h-79l109 299h91l-121 182v46h393v-46l-122 -182h97zM299 299l104 163h-208z" />
    <glyph glyph-name="uni046D" unicode="&#x46d;" 
d="M612 0h-80l-73 229h-37v-229h-78v229h-36l-75 -229h-79l80 229h-117v-229h-82v527h82v-229h193l-107 183v46h355v-46l-107 -183h60zM384 298l89 166h-181z" />
    <glyph glyph-name="uni046F" unicode="&#x46f;" 
d="M448 748l-134 -119h-57l-135 119l40 41l124 -90l124 90zM118 -151q-32 34 -32 76q0 50 42 77.5t134 36.5q90 9 127.5 29t37.5 67q0 44 -22.5 63.5t-64.5 19.5h-172v64l209 173h-297v72h409v-66l-224 -179h74q84 0 131.5 -36.5t47.5 -111.5q0 -139 -212 -163
q-55 -6 -83.5 -12.5t-39.5 -15.5t-11 -25q0 -20 19 -38t58 -38l-33 -56q-66 29 -98 63z" />
    <glyph glyph-name="uni0471" unicode="&#x471;" 
d="M341 63q58 7 89 31t42.5 64t11.5 104q0 115 -26 265h85q13 -71 19.5 -135t6.5 -138q0 -116 -56 -183t-172 -77v-196l-80 -10v206q-110 8 -165 63t-55 136v334h84v-326q0 -65 30.5 -97.5t105.5 -40.5v464h80v-464z" />
    <glyph glyph-name="uni0473" unicode="&#x473;" 
d="M468.5 464.5q58.5 -73.5 58.5 -200.5q0 -124 -59.5 -199.5t-167.5 -75.5q-109 0 -168 73.5t-59 200.5q0 125 59.5 200t168.5 75t167.5 -73.5zM203.5 427q-34.5 -42 -38.5 -125h270q-5 82 -38.5 124.5t-95.5 42.5q-63 0 -97.5 -42zM166 234q6 -91 39 -133.5t95 -42.5
t95.5 43t39.5 133h-269z" />
    <glyph glyph-name="uni0475" unicode="&#x475;" 
d="M57 527h92l143 -450l124 390q19 59 42.5 83t69.5 24q29 0 69 -19l-28 -56q-15 6 -31 6q-17 0 -26.5 -10t-17.5 -35l-152 -460h-102z" />
    <glyph glyph-name="uni0477" unicode="&#x477;" 
d="M57 527h92l143 -450l124 390q19 59 42.5 83t69.5 24q29 0 69 -19l-28 -56q-15 6 -31 6q-17 0 -26.5 -10t-17.5 -35l-152 -460h-102zM195 634l-108 163l74 39l87 -174zM357 636l-97 164l75 36l78 -174z" />
    <glyph glyph-name="uni0479" unicode="&#x479;" 
d="M0 263q0 128 37.5 201.5t116.5 73.5q153 0 153 -274q0 -128 -37.5 -201.5t-116.5 -73.5q-153 0 -153 274zM258 -149q80 16 118.5 48t54.5 101h-38l-94 527h89l66 -463l65 463h86l-92 -520q-19 -101 -78.5 -154.5t-164.5 -64.5zM207 104.5q15 48.5 15 159.5t-14.5 159.5
t-53.5 48.5t-54 -48.5t-15 -160.5q0 -111 14.5 -159t53.5 -48t54 48.5z" />
    <glyph glyph-name="uni0493" unicode="&#x493;" 
d="M272 456v-154h125v-67h-125v-235h-84v235h-94v67h94v225h367l-10 -71h-273z" />
    <glyph glyph-name="uni0495" unicode="&#x495;" 
d="M457.5 -172.5q-39.5 -38.5 -106.5 -38.5q-64 0 -113 37l33 54q23 -12 38 -17.5t38 -5.5q66 0 66 75v253q0 50 -22.5 74t-62.5 24q-44 0 -77 -22t-64 -62l-1 1v-200h-84v527h322l-10 -67h-228v-187q29 35 69.5 55.5t90.5 20.5q66 0 108.5 -42t42.5 -114v-254
q0 -73 -39.5 -111.5z" />
    <glyph glyph-name="uni0497" unicode="&#x497;" 
d="M601 69v-216h-61l-14 147h-35l-100 247h-54v-247h-74v247h-57l-99 -247h-83l118 283l-108 244h85l88 -215h56v215h74v-215h56l91 215h82l-108 -244l89 -214h54z" />
    <glyph glyph-name="uni0499" unicode="&#x499;" 
d="M463.5 42.5q-53.5 -42.5 -142.5 -51.5v-48q46 -4 69.5 -27.5t23.5 -55.5q0 -47 -35.5 -72.5t-86.5 -25.5q-30 0 -57.5 6.5t-47.5 17.5l27 48q30 -16 67 -16q60 0 60 41q0 26 -21 35t-65 9l6 86q-121 4 -207 73l40 54q81 -58 187 -58q71 0 108 26t37 71q0 86 -134 86h-106
l5 68h95q53 0 83.5 22t30.5 58q0 81 -124 81q-41 0 -84 -12t-79 -34l-40 50q40 30 95 47t111 17q91 0 150 -37.5t59 -106.5q0 -42 -29 -70.5t-78 -42.5q32 -1 63.5 -16t52 -43t20.5 -65q0 -72 -53.5 -114.5z" />
    <glyph glyph-name="uni049B" unicode="&#x49b;" 
d="M587 69v-216h-70l-14 147h-36l-174 245h-103v-245h-84v527h84v-214h105l152 214h95l-178 -244l155 -214h68z" />
    <glyph glyph-name="uni049D" unicode="&#x49d;" 
d="M106 527h85v-212h45v115h46v-115h28l144 212h88l-164 -243l191 -284h-92l-167 244h-28v-124h-46v124h-45v-244h-85v527z" />
    <glyph glyph-name="uni049F" unicode="&#x49f;" 
d="M561 0h-102l-174 245h-83v-245h-84v567h-79v68h79v104l84 10v-114h149v-68h-149v-254h85l152 214h95l-177 -244z" />
    <glyph glyph-name="uni04A1" unicode="&#x4a1;" 
d="M588 0h-102l-175 245h-94v-245h-84v462h-125v65h209v-214h95l154 214h94l-178 -244z" />
    <glyph glyph-name="uni04A3" unicode="&#x4a3;" 
d="M566 69v-216h-69l-15 147h-81v234h-231v-234h-84v527h84v-224h231v224h84v-458h81z" />
    <glyph glyph-name="uni0525" unicode="&#x525;" 
d="M574 69v-216h-69l-15 147h-81v458h-231v-458h-84v527h399v-458h81z" />
    <glyph glyph-name="uni04A7" unicode="&#x4a7;" 
d="M559.5 311q36.5 -38 36.5 -100v-271q0 -73 -40 -112t-108 -39q-64 0 -113 37l34 55q20 -11 36 -16.5t39 -5.5q67 0 67 75v271q0 37 -16.5 57t-48.5 20q-27 0 -48 -9.5t-42 -29.5v-243h-86v457h-155v-457h-87v527h328v-220q44 42 110 42q57 0 93.5 -38z" />
    <glyph glyph-name="uni04A9" unicode="&#x4a9;" 
d="M519 107.5q-31 -52.5 -86 -83.5l40 -48l43 -52l-57 -43l-50 61q-42 50 -46 55q-29 -8 -72 -8q-109 0 -171.5 71.5t-62.5 198.5q0 84 27 147t78 97.5t120 34.5t122 -30l-34 -61q-38 20 -84 20q-65 0 -101 -52t-36 -154q0 -203 145 -203h23q-28 43 -43 81t-15 76
q0 63 39.5 106.5t107.5 43.5q66 0 105 -40t39 -106q0 -59 -31 -111.5zM354.5 147.5q12.5 -32.5 37.5 -69.5q38 20 57 57t19 84q0 37 -16 58.5t-45 21.5q-32 0 -48.5 -23t-16.5 -62q0 -34 12.5 -66.5z" />
    <glyph glyph-name="uni04AB" unicode="&#x4ab;" 
d="M437 -61.5q20 -30.5 20 -66.5q0 -50 -33.5 -80.5t-91.5 -30.5q-57 0 -97 25l22 51q19 -9 33.5 -13.5t36.5 -4.5q28 0 42.5 15t14.5 41q0 66 -74 115q-104 9 -161.5 81.5t-57.5 189.5q0 79 29.5 142t85.5 99t133 36q102 0 176 -62l-41 -55q-69 46 -136 46
q-71 0 -113.5 -52.5t-42.5 -153.5t42.5 -150.5t114.5 -49.5q69 0 137 46l40 -55q-26 -22 -62 -38t-74 -22q37 -23 57 -53.5z" />
    <glyph glyph-name="uni04AD" unicode="&#x4ad;" 
d="M342 457v-388h81v-216h-70l-14 147h-81v457h-193v70h476l-11 -70h-188z" />
    <glyph glyph-name="uni04AF" unicode="&#x4af;" 
d="M259 16l-201 511h89l155 -430l153 430h87l-201 -511v-218l-82 -10v228z" />
    <glyph glyph-name="uni04B1" unicode="&#x4b1;" 
d="M363 72h83v-68h-105v-206l-82 -10v216h-105v68h83l-179 455h89l155 -430l153 430h87z" />
    <glyph glyph-name="uni04B3" unicode="&#x4b3;" 
d="M56 0l194 278l-171 249h100l122 -196l123 196h97l-171 -245l194 -282h-102l-145 226l-145 -226h-96zM342 -147h-70l-14 147h-36l3 69h117v-216z" />
    <glyph glyph-name="uni04B7" unicode="&#x4b7;" 
d="M560 69v-216h-69l-15 147h-81v223q-31 -27 -74 -43t-91 -16q-76 0 -115.5 40.5t-39.5 114.5v208h84v-198q0 -53 22 -76t70 -23q39 0 80 16.5t64 43.5v237h84v-458h81z" />
    <glyph glyph-name="uni04B9" unicode="&#x4b9;" 
d="M489 527v-527h-84v223q-40 -37 -100 -51v-81h-54v73h-11q-76 0 -115.5 40.5t-39.5 114.5v208h84v-198q0 -50 20 -73.5t62 -25.5v159h54v-153q30 6 56.5 20.5t43.5 33.5v237h84z" />
    <glyph glyph-name="uni04BB" unicode="&#x4bb;" 
d="M457.5 434q42.5 -43 42.5 -117v-317h-84v303q0 57 -23 82t-66 25q-46 0 -79.5 -23.5t-62.5 -68.5v-318h-84v738l84 9v-352q28 39 68 60.5t90 21.5q72 0 114.5 -43z" />
    <glyph glyph-name="uni0527" unicode="&#x527;" 
d="M576 69v-216h-69l-15 147h-81v303q0 57 -23 82t-66 25q-46 0 -79.5 -24t-62.5 -69v-317h-84v738l84 9v-353q28 39 68 61t91 22q72 0 114 -43t42 -117v-248h81z" />
    <glyph glyph-name="uni04BD" unicode="&#x4bd;" 
d="M553 234h-326q2 -86 42 -130.5t102 -44.5q35 0 60.5 9.5t57.5 30.5l40 -53q-31 -26 -72.5 -41.5t-86.5 -15.5q-100 0 -160 66.5t-67 179.5q-65 1 -98.5 31t-33.5 80q0 28 10 51t29 51l53 -27q-10 -22 -15 -38t-5 -33q0 -25 13 -38.5t38 -13.5h10q8 106 65 173t146 67
q95 0 147.5 -69t52.5 -190q0 -23 -2 -45zM474 298q-3 172 -118 172q-56 0 -90 -43.5t-39 -128.5h247z" />
    <glyph glyph-name="uni04BF" unicode="&#x4bf;" 
d="M553 234h-326q2 -86 42 -130.5t102 -44.5q35 0 60.5 9.5t57.5 30.5l40 -53q-39 -32 -85 -46q-72 -31 -98 -58t-26 -56q0 -24 13 -36t43 -12q27 0 61 7l-8 -68q-42 -6 -64 -6q-56 0 -89 27.5t-33 70.5q0 74 88 122q-83 13 -132.5 78t-55.5 166q-65 1 -98.5 31t-33.5 80
q0 28 10 51t29 51l53 -27q-10 -22 -15 -38t-5 -33q0 -25 13 -38.5t38 -13.5h10q8 106 65 173t146 67q95 0 147.5 -69t52.5 -190q0 -23 -2 -45zM474 298q-3 172 -118 172q-56 0 -90 -43.5t-39 -128.5h247z" />
    <glyph glyph-name="uni04CF" unicode="&#x4cf;" 
d="M306 130q0 -71 87 -71q41 0 88 18l22 -61q-50 -27 -125 -27q-71 0 -113.5 39t-42.5 106v538h-162v67h246v-609z" />
    <glyph glyph-name="uni04C2" unicode="&#x4c2;" 
d="M263 247h-57l-104 -247h-82l122 283l-113 244h86l92 -215h56v215h74v-215h56l95 215h83l-113 -244l122 -283h-85l-104 247h-54v-247h-74v247zM198 676.5q-41 29.5 -47 82.5l57 13q11 -32 32.5 -46t57.5 -14t59 14t34 46l58 -13q-6 -53 -48.5 -82.5t-102.5 -29.5
q-59 0 -100 29.5z" />
    <glyph glyph-name="uni04C4" unicode="&#x4c4;" 
d="M450 252q38 -41 38 -116v-197q0 -73 -39.5 -111.5t-106.5 -38.5q-63 0 -112 37l33 54q21 -12 37 -17.5t39 -5.5q31 0 48 18.5t17 56.5v193q0 60 -24.5 84t-84.5 24h-104v-233h-84v527h84v-226h68l141 226h91l-149 -227q70 -7 108 -48z" />
    <glyph glyph-name="uni04C6" unicode="&#x4c6;" 
d="M557 66l-66 -213h-69l35 147h-61v456h-167l-12 -139q-10 -118 -24.5 -178t-40 -91t-75.5 -59l-35 54q28 18 44.5 40.5t29 76t20.5 154.5l16 213h328v-461h77z" />
    <glyph glyph-name="uni04C8" unicode="&#x4c8;" 
d="M460.5 -172.5q-39.5 -38.5 -106.5 -38.5q-64 0 -113 37l34 54q22 -12 37 -17.5t38 -5.5q66 0 66 75v302h-232v-234h-84v527h84v-224h232v224h84v-588q0 -73 -39.5 -111.5z" />
    <glyph glyph-name="uni04CA" unicode="&#x4ca;" 
d="M560 66l-66 -213h-69l35 147h-62v234h-212v-234h-84v527h84v-224h212v224h84v-461h78z" />
    <glyph glyph-name="uni04CC" unicode="&#x4cc;" 
d="M489 527v-527h-70l-15 -147h-69v216h70v161q-30 -27 -73.5 -43t-91.5 -16q-76 0 -115.5 40.5t-39.5 114.5v201h84v-191q0 -52 22 -75t70 -23q39 0 80 16.5t64 43.5v229h84z" />
    <glyph glyph-name="uni04CE" unicode="&#x4ce;" 
d="M597 66l-66 -213h-68l34 147h-49l-20 257q-5 70 -5 135q0 39 1 60l-89 -364h-84l-101 364q1 -23 1 -70q0 -69 -3 -123l-15 -259h-81l38 527h110l94 -360l86 360h111l34 -461h72z" />
    <glyph glyph-name="uni04D1" unicode="&#x4d1;" 
d="M488 69.5q10 -14.5 33 -21.5l-21 -60q-77 10 -96 75q-28 -36 -70.5 -55t-94.5 -19q-79 0 -124.5 44t-45.5 118q0 81 63.5 125t182.5 44h78v43q0 56 -32 80.5t-93 24.5q-60 0 -137 -27l-23 64q93 33 173 33q96 0 146.5 -45t50.5 -125v-253q0 -31 10 -45.5zM334.5 72
q35.5 20 58.5 55v135h-76q-84 0 -121 -28t-37 -82q0 -100 101 -100q39 0 74.5 20zM190 676.5q-41 29.5 -47 82.5l57 13q11 -32 32.5 -46t57.5 -14t59 14t34 46l58 -13q-6 -53 -48.5 -82.5t-102.5 -29.5q-59 0 -100 29.5z" />
    <glyph glyph-name="uni04D3" unicode="&#x4d3;" 
d="M488 69.5q10 -14.5 33 -21.5l-21 -60q-77 10 -96 75q-28 -36 -70.5 -55t-94.5 -19q-79 0 -124.5 44t-45.5 118q0 81 63.5 125t182.5 44h78v43q0 56 -32 80.5t-93 24.5q-60 0 -137 -27l-23 64q93 33 173 33q96 0 146.5 -45t50.5 -125v-253q0 -31 10 -45.5zM334.5 72
q35.5 20 58.5 55v135h-76q-84 0 -121 -28t-37 -82q0 -100 101 -100q39 0 74.5 20zM149 663.5q-16 15.5 -16 37.5q0 24 16 39.5t39 15.5t38.5 -15.5t15.5 -39.5q0 -23 -15.5 -38t-38.5 -15t-39 15.5zM356.5 663q-15.5 15 -15.5 38q0 24 15.5 39.5t38.5 15.5t39 -15.5
t16 -39.5q0 -22 -16 -37.5t-39 -15.5t-38.5 15z" />
    <glyph glyph-name="uni04D7" unicode="&#x4d7;" 
d="M212.5 103q42.5 -44 107.5 -44q39 0 71.5 11.5t69.5 35.5l39 -56q-37 -29 -84.5 -45t-95.5 -16q-114 0 -177.5 74.5t-63.5 199.5q0 79 28 141.5t80 98t121 35.5q100 0 157.5 -69.5t57.5 -189.5q0 -23 -2 -45h-354q3 -87 45.5 -131zM210 425.5q-38 -43.5 -43 -127.5h274
q-1 83 -36 127t-96 44t-99 -43.5zM208 676.5q-41 29.5 -47 82.5l57 13q11 -32 32.5 -46t57.5 -14t59 14t34 46l58 -13q-6 -53 -48.5 -82.5t-102.5 -29.5q-59 0 -100 29.5z" />
    <glyph glyph-name="uni04D9" unicode="&#x4d9;" 
d="M468 466q57 -72 57 -202q0 -129 -61.5 -202t-169.5 -73q-103 0 -162 68.5t-59 189.5q0 32 2 46h359q-5 91 -40 132.5t-104 41.5q-42 0 -74.5 -11t-64.5 -38l-40 58q78 62 181 62q119 0 176 -72zM396.5 96.5q34.5 39.5 38.5 131.5h-279v-8q0 -78 36.5 -120.5t101.5 -42.5
q68 0 102.5 39.5z" />
    <glyph glyph-name="uni04DB" unicode="&#x4db;" 
d="M468 466q57 -72 57 -202q0 -129 -61.5 -202t-169.5 -73q-103 0 -162 68.5t-59 189.5q0 32 2 46h359q-5 91 -40 132.5t-104 41.5q-42 0 -74.5 -11t-64.5 -38l-40 58q78 62 181 62q119 0 176 -72zM396.5 96.5q34.5 39.5 38.5 131.5h-279v-8q0 -78 36.5 -120.5t101.5 -42.5
q68 0 102.5 39.5zM157 663.5q-16 15.5 -16 37.5q0 24 16 39.5t39 15.5t38.5 -15.5t15.5 -39.5q0 -23 -15.5 -38t-38.5 -15t-39 15.5zM364.5 663q-15.5 15 -15.5 38q0 24 15.5 39.5t38.5 15.5t39 -15.5t16 -39.5q0 -22 -16 -37.5t-39 -15.5t-38.5 15z" />
    <glyph glyph-name="uni04DD" unicode="&#x4dd;" 
d="M263 247h-57l-104 -247h-82l122 283l-113 244h86l92 -215h56v215h74v-215h56l95 215h83l-113 -244l122 -283h-85l-104 247h-54v-247h-74v247zM157 663.5q-16 15.5 -16 37.5q0 24 16 39.5t39 15.5t38.5 -15.5t15.5 -39.5q0 -23 -15.5 -38t-38.5 -15t-39 15.5zM364.5 663
q-15.5 15 -15.5 38q0 24 15.5 39.5t38.5 15.5t39 -15.5t16 -39.5q0 -22 -16 -37.5t-39 -15.5t-38.5 15z" />
    <glyph glyph-name="uni04DF" unicode="&#x4df;" 
d="M286 309q53 0 83.5 22t30.5 58q0 81 -124 81q-41 0 -84 -12t-79 -34l-40 50q40 30 95 47t111 17q91 0 150 -37.5t59 -106.5q0 -42 -29 -70.5t-78 -42.5q32 -1 63.5 -16t52 -43t20.5 -65q0 -81 -66 -124.5t-173 -43.5q-135 0 -224 73l40 54q81 -58 187 -58q71 0 108 26
t37 71q0 86 -134 86h-106l5 68h95zM151 663.5q-16 15.5 -16 37.5q0 24 16 39.5t39 15.5t38.5 -15.5t15.5 -39.5q0 -23 -15.5 -38t-38.5 -15t-39 15.5zM358.5 663q-15.5 15 -15.5 38q0 24 15.5 39.5t38.5 15.5t39 -15.5t16 -39.5q0 -22 -16 -37.5t-39 -15.5t-38.5 15z" />
    <glyph glyph-name="uni04E1" unicode="&#x4e1;" 
d="M454.5 154q62.5 -51 62.5 -148q0 -65 -30.5 -114.5t-84.5 -76.5t-123 -27q-74 0 -126 22.5t-91 68.5l51 45q36 -35 73.5 -50.5t91.5 -15.5q70 0 109 39t39 112q0 70 -39.5 101t-120.5 31h-87v63l218 251h-304v72h401v-66l-225 -256h11q112 0 174.5 -51z" />
    <glyph glyph-name="uni04E3" unicode="&#x4e3;" 
d="M500 0h-84v246q0 74 4.5 125t4.5 56l-222 -427h-103v527h84v-247q0 -63 -4 -117.5t-4 -59.5l219 424h105v-527zM165 676v64h269v-64h-269z" />
    <glyph glyph-name="uni04E5" unicode="&#x4e5;" 
d="M500 0h-84v246q0 74 4.5 125t4.5 56l-222 -427h-103v527h84v-247q0 -63 -4 -117.5t-4 -59.5l219 424h105v-527zM157 663.5q-16 15.5 -16 37.5q0 24 16 39.5t39 15.5t38.5 -15.5t15.5 -39.5q0 -23 -15.5 -38t-38.5 -15t-39 15.5zM364.5 663q-15.5 15 -15.5 38
q0 24 15.5 39.5t38.5 15.5t39 -15.5t16 -39.5q0 -22 -16 -37.5t-39 -15.5t-38.5 15z" />
    <glyph glyph-name="uni04E7" unicode="&#x4e7;" 
d="M468.5 464.5q58.5 -73.5 58.5 -200.5q0 -124 -59.5 -199.5t-167.5 -75.5q-109 0 -168 73.5t-59 200.5q0 125 59.5 200t168.5 75t167.5 -73.5zM198 418q-34 -51 -34 -155t33.5 -154.5t102.5 -50.5t102.5 50.5t33.5 155.5q0 104 -33.5 154.5t-101.5 50.5q-69 0 -103 -51z
M157 663.5q-16 15.5 -16 37.5q0 24 16 39.5t39 15.5t38.5 -15.5t15.5 -39.5q0 -23 -15.5 -38t-38.5 -15t-39 15.5zM364.5 663q-15.5 15 -15.5 38q0 24 15.5 39.5t38.5 15.5t39 -15.5t16 -39.5q0 -22 -16 -37.5t-39 -15.5t-38.5 15z" />
    <glyph glyph-name="uni04E9" unicode="&#x4e9;" 
d="M468.5 464.5q58.5 -73.5 58.5 -200.5q0 -124 -59.5 -199.5t-167.5 -75.5q-109 0 -168 73.5t-59 200.5q0 125 59.5 200t168.5 75t167.5 -73.5zM203.5 427q-34.5 -42 -38.5 -125h270q-5 82 -38.5 124.5t-95.5 42.5q-63 0 -97.5 -42zM166 234q6 -91 39 -133.5t95 -42.5
t95.5 43t39.5 133h-269z" />
    <glyph glyph-name="uni04EB" unicode="&#x4eb;" 
d="M468.5 464.5q58.5 -73.5 58.5 -200.5q0 -124 -59.5 -199.5t-167.5 -75.5q-109 0 -168 73.5t-59 200.5q0 125 59.5 200t168.5 75t167.5 -73.5zM203.5 427q-34.5 -42 -38.5 -125h270q-5 82 -38.5 124.5t-95.5 42.5q-63 0 -97.5 -42zM166 234q6 -91 39 -133.5t95 -42.5
t95.5 43t39.5 133h-269zM158 663.5q-16 15.5 -16 37.5q0 24 16 39.5t39 15.5t38.5 -15.5t15.5 -39.5q0 -23 -15.5 -38t-38.5 -15t-39 15.5zM365.5 663q-15.5 15 -15.5 38q0 24 15.5 39.5t38.5 15.5t39 -15.5t16 -39.5q0 -22 -16 -37.5t-39 -15.5t-38.5 15z" />
    <glyph glyph-name="uni04ED" unicode="&#x4ed;" 
d="M456 466q60 -72 60 -200q0 -127 -63 -202t-180 -75q-49 0 -97.5 16t-84.5 46l41 56q64 -48 140 -48q70 0 111 43.5t46 134.5h-248v66h247q-7 84 -46 125.5t-105 41.5q-78 0 -141 -47l-40 54q35 29 84 45t98 16q118 0 178 -72zM151 663.5q-16 15.5 -16 37.5q0 24 16 39.5
t39 15.5t38.5 -15.5t15.5 -39.5q0 -23 -15.5 -38t-38.5 -15t-39 15.5zM358.5 663q-15.5 15 -15.5 38q0 24 15.5 39.5t38.5 15.5t39 -15.5t16 -39.5q0 -22 -16 -37.5t-39 -15.5t-38.5 15z" />
    <glyph glyph-name="uni04EF" unicode="&#x4ef;" 
d="M354 -3q-31 -91 -85 -145t-151 -64l-12 67q53 9 84.5 27.5t49.5 46t33 71.5h-28l-183 527h89l151 -463l149 463h87zM165 676v64h269v-64h-269z" />
    <glyph glyph-name="uni04F1" unicode="&#x4f1;" 
d="M354 -3q-31 -91 -85 -145t-151 -64l-12 67q53 9 84.5 27.5t49.5 46t33 71.5h-28l-183 527h89l151 -463l149 463h87zM157 663.5q-16 15.5 -16 37.5q0 24 16 39.5t39 15.5t38.5 -15.5t15.5 -39.5q0 -23 -15.5 -38t-38.5 -15t-39 15.5zM364.5 663q-15.5 15 -15.5 38
q0 24 15.5 39.5t38.5 15.5t39 -15.5t16 -39.5q0 -22 -16 -37.5t-39 -15.5t-38.5 15z" />
    <glyph glyph-name="uni04F3" unicode="&#x4f3;" 
d="M354 -3q-31 -91 -85 -145t-151 -64l-12 67q53 9 84.5 27.5t49.5 46t33 71.5h-28l-183 527h89l151 -463l149 463h87zM254 836l75 -36l-97 -164l-56 26zM428 836l74 -39l-108 -163l-53 28z" />
    <glyph glyph-name="uni04F5" unicode="&#x4f5;" 
d="M489 0h-84v223q-31 -27 -74 -43t-91 -16q-76 0 -115.5 40.5t-39.5 114.5v208h84v-198q0 -53 22 -76t70 -23q39 0 80 16.5t64 43.5v237h84v-527zM144 663.5q-16 15.5 -16 37.5q0 24 16 39.5t39 15.5t38.5 -15.5t15.5 -39.5q0 -23 -15.5 -38t-38.5 -15t-39 15.5zM351.5 663
q-15.5 15 -15.5 38q0 24 15.5 39.5t38.5 15.5t39 -15.5t16 -39.5q0 -22 -16 -37.5t-39 -15.5t-38.5 15z" />
    <glyph glyph-name="uni04F7" unicode="&#x4f7;" 
d="M242 456v-387h81v-216h-70l-14 147h-81v527h366l-10 -71h-272z" />
    <glyph glyph-name="uni04F9" unicode="&#x4f9;" 
d="M142 356h36q108 0 166 -42.5t58 -130.5q0 -93 -59 -138t-165 -45h-116v527h80v-171zM538 0h-81v527h81v-527zM142 293v-228h39q67 0 100.5 26t33.5 91q0 59 -32 85t-102 26h-39zM157 663.5q-16 15.5 -16 37.5q0 24 16 39.5t39 15.5t38.5 -15.5t15.5 -39.5
q0 -23 -15.5 -38t-38.5 -15t-39 15.5zM364.5 663q-15.5 15 -15.5 38q0 24 15.5 39.5t38.5 15.5t39 -15.5t16 -39.5q0 -22 -16 -37.5t-39 -15.5t-38.5 15z" />
    <glyph glyph-name="uni04FB" unicode="&#x4fb;" 
d="M272 456v-154h125v-67h-125v-166h80v-130q0 -73 -39.5 -111.5t-106.5 -38.5q-64 0 -113 37l33 54q23 -12 38 -17.5t38 -5.5q66 0 66 75v68h-80v235h-94v67h94v225h367l-10 -71h-273z" />
    <glyph glyph-name="uni04FD" unicode="&#x4fd;" 
d="M550 -61q0 -73 -39 -111.5t-106 -38.5q-64 0 -113 37l33 54q23 -12 38 -17.5t38 -5.5q65 0 65 75v68h-35v1l-144 225l-145 -226h-96l194 278l-171 249h100l122 -196l123 196h97l-171 -245l147 -213h63v-130z" />
    <glyph glyph-name="uni04FF" unicode="&#x4ff;" 
d="M544 0h-102l-142 236l-148 -236h-96l175 251h-122v59h119l-149 217h100l121 -206l124 206h97l-151 -217h121v-59h-120z" />
    <glyph glyph-name="uni0501" unicode="&#x501;" 
d="M500 739v-739h-74l-8 69q-29 -40 -67 -60t-82 -20q-100 0 -150.5 73t-50.5 201q0 79 25 141.5t71.5 98t109.5 35.5q87 0 142 -63v274zM194.5 418q-35.5 -52 -35.5 -155q0 -102 32.5 -154.5t94.5 -52.5q75 0 130 84v262q-22 33 -53 50.5t-67 17.5q-66 0 -101.5 -52z" />
    <glyph glyph-name="uni0503" unicode="&#x503;" 
d="M590 253q0 -136 -45 -201.5t-122 -65.5q-45 0 -79 23.5t-51 71.5q-27 -50 -57 -71t-65 -21q-78 0 -120 73.5t-42 197.5q0 80 20.5 143.5t58 99t88.5 35.5q34 0 58 -14t44 -39v264l84 -10v-578q0 -50 16.5 -77.5t45.5 -27.5q39 0 59.5 44t20.5 151q0 56 -5 126h86
q5 -65 5 -124zM230 78q23 20 48 66v262q-21 31 -40.5 47t-46.5 16q-43 0 -67.5 -52.5t-24.5 -153.5q0 -102 21 -153.5t59 -51.5q28 0 51 20z" />
    <glyph glyph-name="uni0505" unicode="&#x505;" 
d="M576 253q0 -135 -51.5 -201t-134.5 -66q-64 0 -106 31.5t-81 100.5l-48 88h-106v65h99q56 0 86 22.5t30 73.5q0 49 -32 71.5t-98 22.5h-123v66h124q105 0 161 -41t56 -119q0 -55 -29.5 -90.5t-88.5 -55.5l50 -91q24 -42 49 -58t58 -16q99 0 99 195q0 56 -5 126h86
q5 -65 5 -124z" />
    <glyph glyph-name="uni0507" unicode="&#x507;" 
d="M535 69v-216h-70l-14 147h-47l-130 205h-159v66h150q56 0 86 22.5t30 73.5q0 49 -32.5 71.5t-98.5 22.5h-174v66h176q105 0 161 -41t56 -119q0 -107 -117 -146l101 -152h82z" />
    <glyph glyph-name="uni0509" unicode="&#x509;" 
d="M589 253q0 -134 -47.5 -200.5t-123.5 -66.5q-61 0 -102.5 42t-41.5 122v306h-100l-11 -131q-9 -118 -22.5 -180.5t-35.5 -94.5t-64 -61l-36 56q22 19 34.5 41t22.5 76t18 158l16 207h264v-252h-52l52 -4v-131q0 -37 15 -60.5t44 -23.5q38 0 61 45t23 150q0 56 -5 126h86
q5 -65 5 -124z" />
    <glyph glyph-name="uni050B" unicode="&#x50b;" 
d="M594 253q0 -134 -47.5 -200.5t-123.5 -66.5q-62 0 -103.5 42t-41.5 122v84h-147v-234h-86v527h86v-224h147v224h85v-387q0 -37 15.5 -60.5t45.5 -23.5q37 0 60 45t23 150q0 56 -5 126h87q5 -65 5 -124z" />
    <glyph glyph-name="uni050D" unicode="&#x50d;" 
d="M415.5 522.5q40.5 -15.5 81.5 -47.5l-49 -54q-32 24 -61.5 35t-68.5 11q-42 0 -77 -21.5t-56.5 -66.5t-21.5 -112q0 -110 36.5 -159.5t106.5 -49.5q60 0 107 23v147h-101l-9 67h193v-253q-87 -52 -191 -52q-110 0 -171 70.5t-61 206.5q0 81 33.5 143t89.5 95t122 33
q57 0 97.5 -15.5z" />
    <glyph glyph-name="uni050F" unicode="&#x50f;" 
d="M547 245q0 -86 -29.5 -144.5t-76.5 -86.5t-100 -28q-74 0 -122 47t-48 129v294h-168v71h424l-10 -71h-162v-289q0 -55 23.5 -83t63.5 -28q51 0 85 44.5t34 146.5q0 46 -4 124h86q4 -72 4 -126z" />
    <glyph glyph-name="uni0511" unicode="&#x511;" 
d="M411 241h-103q-134 0 -134 -86q0 -45 37 -71t108 -26q106 0 187 58l40 -54q-40 -33 -97.5 -53t-128.5 -20q-107 0 -172 43.5t-65 123.5q0 38 20.5 66t52 43t63.5 16q-49 14 -78 42.5t-29 70.5q0 67 59 105.5t150 38.5q55 0 111 -17t95 -47l-40 -50q-36 22 -79 34t-84 12
q-124 0 -124 -81q0 -36 30.5 -58t83.5 -22h103z" />
    <glyph glyph-name="uni0513" unicode="&#x513;" 
d="M510 -61q0 -73 -39.5 -111.5t-106.5 -38.5q-64 0 -113 37l34 54q22 -12 37 -17.5t38 -5.5q66 0 66 75v524h-197l-12 -139q-10 -118 -24.5 -178t-39.5 -91t-75 -59l-36 54q29 18 45.5 40.5t29 75.5t20.5 155l16 213h357v-588z" />
    <glyph glyph-name="uni0515" unicode="&#x515;" 
d="M598 0h-89l-103 226l-104 -226h-83l142 278l-90 181h-85l-11 -134q-10 -119 -23.5 -181t-35.5 -94t-63 -61l-36 56q21 19 33.5 41t23 76t18.5 158l16 207h217l86 -196l88 196h81l-124 -245z" />
    <glyph glyph-name="uni0517" unicode="&#x517;" 
d="M503 0l-106 233q-4 -74 -26 -129t-56.5 -85t-75.5 -30q-37 0 -62 14t-45 43v-247l-88 -11v739h75l7 -64q23 36 51.5 55.5t69.5 19.5q139 0 149 -234l100 223h86l-120 -256l134 -271h-93zM287.5 108.5q25.5 49.5 25.5 155.5q0 111 -18.5 158.5t-61.5 47.5
q-29 0 -53.5 -19.5t-47.5 -57.5v-265q22 -34 44 -51.5t47 -17.5q39 0 64.5 49.5z" />
    <glyph glyph-name="uni0519" unicode="&#x519;" 
d="M595 51q-77 -62 -166 -62q-79 0 -129.5 58.5t-62.5 156.5h-49l-100 -204h-82l106 220q-92 42 -92 141q0 75 55 120.5t144 45.5h143q28 11 60 11q84 0 127.5 -68.5t43.5 -190.5q0 -23 -2 -45h-272q3 -90 33.5 -134t81.5 -44q37 0 62 9.5t60 34.5zM423 470q-45 0 -72 -42.5
t-32 -128.5h196q-3 171 -92 171zM130.5 292.5q27.5 -23.5 81.5 -23.5h22q0 60 13.5 110t39.5 86h-70q-114 0 -114 -104q0 -45 27.5 -68.5z" />
    <glyph glyph-name="uni051B" unicode="&#x51b;" 
d="M421 469l7 58h72v-739l-84 10v268q-56 -77 -149 -77q-194 0 -194 274q0 122 53 198.5t148 76.5q92 0 147 -69zM164 263q0 -103 30 -153.5t91 -50.5q41 0 74 22.5t57 58.5v262q-21 32 -52.5 50t-68.5 18q-131 0 -131 -207z" />
    <glyph glyph-name="uni051D" unicode="&#x51d;" 
d="M372 0l-69 386l-74 -386h-116l-95 527h85l68 -475l84 408h99l79 -408l68 475h81l-91 -527h-119z" />
    <glyph glyph-name="uni051F" unicode="&#x51f;" 
d="M567 0h-102l-174 245h-104v-245h-84v527h84v-214h106l51 71l-88 58l36 53l89 -58l64 90h94l-95 -131l86 -56l-36 -54l-88 58l-44 -61z" />
    <glyph glyph-name="uni0521" unicode="&#x521;" 
d="M559.5 311q36.5 -38 36.5 -100v-271q0 -73 -40 -112t-108 -39q-64 0 -113 37l34 55q20 -12 36 -17t39 -5q67 0 67 75v271q0 37 -16.5 57t-48.5 20q-28 0 -49 -9.5t-41 -29.5v-243h-86v456h-110l-12 -131q-9 -118 -22.5 -180.5t-35.5 -94.5t-64 -61l-35 56q21 19 33.5 41
t22.5 76t18 158l16 207h275v-220q44 42 110 42q57 0 93.5 -38z" />
    <glyph glyph-name="uni0523" unicode="&#x523;" 
d="M559.5 311q36.5 -38 36.5 -100v-271q0 -73 -40 -112t-108 -39q-64 0 -113 37l34 55q20 -11 36 -16.5t39 -5.5q67 0 67 75v271q0 37 -16.5 57t-48.5 20q-27 0 -48 -9.5t-42 -29.5v-243h-85v234h-157v-234h-86v527h86v-224h157v224h85v-220q44 42 110 42q57 0 93.5 -38z
" />
    <glyph glyph-name="uni048D" unicode="&#x48d;" 
d="M476 292.5q55 -42.5 55 -118.5q0 -85 -62 -129.5t-176 -44.5h-137v396h-86v68h86v63h84v-63h129l-11 -68h-118v-61h78q103 0 158 -42.5zM404.5 91q36.5 23 36.5 82q0 96 -125 96h-76v-201h64q64 0 100.5 23z" />
    <glyph glyph-name="uni048F" unicode="&#x48f;" 
d="M508 124.5q-21 -60.5 -63 -95.5l75 -121h-79l-55 89q-29 -8 -60 -8q-87 0 -139 60v-251l-84 -10v739h71l7 -74q30 41 70 63t87 22q101 0 146 -71.5t45 -202.5q0 -79 -21 -139.5zM346 62l-95 157h79l75 -123q17 22 25 63t8 105q0 103 -29.5 154.5t-90.5 51.5
q-40 0 -73.5 -24t-57.5 -60v-261q20 -31 51.5 -48.5t67.5 -17.5q22 0 40 3z" />
    <glyph glyph-name="uni052D" unicode="&#x52d;" 
d="M562 70v-217h-71l-14 147h-340l-15 -147h-71v217h38q34 20 60 61.5t39 129.5q-70 12 -102 55t-32 121v90h84v-87q0 -45 14 -70.5t43 -35.5l14 193h287v-457h66zM279 340q0 -9 -1 -13h130v129h-120zM408 70v186h-139q-14 -79 -38 -124.5t-52 -61.5h229z" />
    <glyph glyph-name="uni052B" unicode="&#x52b;" 
d="M609 0h-83l-90 244h-24v-244h-57v-147h-67l-13 147h-205l-14 -147h-66v218h23q16 15 25 34t17.5 70t15.5 152l14 200h201v-213h48v213h78v-213h25l78 213h76l-90 -244zM208 454h-51l-7 -114q-7 -102 -13 -148.5t-17.5 -73t-35.5 -47.5h124v383zM334 71v173h-48v-173h48z
" />
    <glyph glyph-name="uni052F" unicode="&#x52f;" 
d="M566 69v-216h-70l-14 147h-81v456h-178l-11 -139q-10 -118 -24.5 -178t-40 -91t-75.5 -59l-36 54q29 18 45.5 40.5t29 75.5t20.5 155l16 213h338v-458h81z" />
    <glyph glyph-name="uni0529" unicode="&#x529;" 
d="M500 527v-527h-84v234h-232v-234h1v-62q0 -73 -39.5 -111.5t-106.5 -38.5q-64 0 -113 37l34 54q22 -12 37 -17.5t38 -5.5q66 0 66 75v69h-1v527h84v-224h232v224h84z" />
    <glyph glyph-name="uni04A4" unicode="&#x4a4;" 
d="M596 617h-134v-617h-87v327h-221v-327h-86v689h86v-291h221v291h229z" />
    <glyph glyph-name="uni04A5" unicode="&#x4a5;" 
d="M594 458h-136v-458h-84v234h-201v-234h-84v527h84v-224h201v224h228z" />
    <glyph glyph-name="uni04B4" unicode="&#x4b4;" 
d="M564 73v-220h-71l-15 147h-350v617h-128v72h346l-9 -72h-120v-545h208v617h89v-616h50z" />
    <glyph glyph-name="uni04B5" unicode="&#x4b5;" 
d="M555 69v-216h-71l-14 147h-345v460h-125v67h339l-10 -67h-118v-390h198v457h86v-458h60z" />
    <glyph glyph-name="uni04D4" unicode="&#x4d4;" 
d="M126 175l-49 -175h-89l202 689h376l-10 -71h-236l51 -233h186v-71h-173l52 -243h171v-71h-241l-36 175h-204zM314 248l-73 372l-93 -372h166z" />
    <glyph glyph-name="uni04D5" unicode="&#x4d5;" 
d="M564.5 470.5q42.5 -67.5 42.5 -191.5q0 -22 -2 -46h-269q7 -91 33.5 -132.5t79.5 -41.5q27 0 49.5 9.5t49.5 30.5l39 -58q-33 -26 -66 -39t-74 -13q-51 0 -87 22.5t-61 66.5q-35 -48 -69.5 -68.5t-83.5 -20.5q-70 0 -111 44t-41 118q0 83 54.5 126t159.5 43h46v43
q0 105 -91 105q-26 0 -48 -6t-57 -21l-22 63q71 34 135 34q56 0 88.5 -22.5t49.5 -65.5q14 41 46.5 64.5t79.5 23.5q87 0 129.5 -67.5zM364 430q-22 -38 -28 -131h189q-2 86 -23 127.5t-70 41.5q-46 0 -68 -38zM212 262q-69 0 -98 -27.5t-29 -78.5q0 -50 20 -76.5t54 -26.5
q31 0 55.5 23t53.5 74q-14 45 -14 112h-42z" />
    <glyph glyph-name="uni037F" unicode="&#x37f;" 
d="M497 229q0 -101 -55.5 -171t-180.5 -70q-51 0 -99.5 16t-88.5 47l38 57q75 -47 149 -47q72 0 111 45.5t39 126.5v385h-204v71h291v-460z" />
    <glyph glyph-name="Alpha" unicode="&#x391;" 
d="M161 176l-55 -176h-86l225 689h110l224 -689h-90l-55 176h-273zM411 248l-113 367l-114 -367h227z" />
    <glyph glyph-name="Beta" unicode="&#x392;" 
d="M465.5 46q-74.5 -46 -183.5 -46h-186v689h170q105 0 174.5 -40.5t69.5 -133.5q0 -62 -37 -99.5t-92 -50.5q159 -27 159 -169q0 -104 -74.5 -150zM386 592.5q-35 25.5 -100 25.5h-103v-222h111q127 0 127 114q0 57 -35 82.5zM408.5 295q-39.5 29 -108.5 29h-117v-252h114
q63 0 107 26t44 95q0 73 -39.5 102z" />
    <glyph glyph-name="Gamma" unicode="&#x393;" 
d="M535 612h-312v-612h-87v689h408z" />
    <glyph glyph-name="uni0394" unicode="&#x394;" 
d="M579 0h-559l225 689h110zM129 71h337l-168 542z" />
    <glyph glyph-name="Epsilon" unicode="&#x395;" 
d="M212 385h256v-71h-256v-244h314v-70h-400v689h391l-10 -72h-295v-232z" />
    <glyph glyph-name="Zeta" unicode="&#x396;" 
d="M527 75l-10 -75h-445v70l363 544h-327v75h420v-72l-361 -542h360z" />
    <glyph glyph-name="Eta" unicode="&#x397;" 
d="M430 327h-260v-327h-87v689h87v-291h260v291h87v-689h-87v327z" />
    <glyph glyph-name="Theta" unicode="&#x398;" 
d="M487.5 86q-65.5 -97 -187.5 -97q-123 0 -188 95t-65 259q0 105 29 186t86 126t138 45q122 0 187.5 -96.5t65.5 -259.5q0 -161 -65.5 -258zM423.5 556q-38.5 71 -123.5 71t-123.5 -71.5t-38.5 -212.5q0 -140 39.5 -210.5t122.5 -70.5q85 0 123.5 70.5t38.5 211.5
t-38.5 212zM197 316v72h205v-72h-205z" />
    <glyph glyph-name="Iota" unicode="&#x399;" 
d="M497 619h-153v-550h153v-69h-394v69h153v550h-153v70h394v-70z" />
    <glyph glyph-name="Kappa" unicode="&#x39a;" 
d="M105 0v689h87v-689h-87zM467 689h101l-269 -316l288 -373h-109l-281 368z" />
    <glyph glyph-name="Lambda" unicode="&#x39b;" 
d="M574 0h-90l-186 608l-187 -608h-87l221 689h110z" />
    <glyph glyph-name="Mu" unicode="&#x39c;" 
d="M570 0h-84l-21 360q-6 95 -6 249l-116 -485h-87l-124 485q2 -36 2 -96q0 -92 -4 -153l-18 -360h-82l39 689h121l112 -472l107 472h122z" />
    <glyph glyph-name="Nu" unicode="&#x39d;" 
d="M152 605q0 -7 6 -87t6 -173v-345h-81v689h118l247 -608l-2 36q-10 123 -10 227v345h81v-689h-122z" />
    <glyph glyph-name="Xi" unicode="&#x39e;" 
d="M501 609h-424v80h436zM464 309h-337v80h337v-80zM523 0h-446v81h446v-81z" />
    <glyph glyph-name="Omicron" unicode="&#x39f;" 
d="M487.5 86q-65.5 -97 -187.5 -97q-123 0 -188 95t-65 259q0 105 29 186t86 126t138 45q122 0 187.5 -96.5t65.5 -259.5q0 -161 -65.5 -258zM424 556q-39 71 -124 71t-124 -71.5t-39 -212.5q0 -140 39.5 -210.5t123.5 -70.5q85 0 124 70.5t39 211.5t-39 212z" />
    <glyph glyph-name="Pi" unicode="&#x3a0;" 
d="M430 613h-260v-613h-87v689h434v-689h-87v613z" />
    <glyph glyph-name="Rho" unicode="&#x3a1;" 
d="M486 309q-71 -53 -195 -53h-89v-256h-86v689h175q127 0 196.5 -53t69.5 -159q0 -115 -71 -168zM420.5 585.5q-43.5 34.5 -118.5 34.5h-100v-295h97q78 0 121.5 34t43.5 117q0 75 -43.5 109.5z" />
    <glyph glyph-name="Sigma" unicode="&#x3a3;" 
d="M175 73h352v-73h-454v73l255 271l-255 270v75h454v-74h-354l231 -238v-62z" />
    <glyph glyph-name="Tau" unicode="&#x3a4;" 
d="M342 0h-87v614h-215v75h519l-9 -75h-208v-614z" />
    <glyph glyph-name="Upsilon" unicode="&#x3a5;" 
d="M344 0h-88v265l-233 424h96l183 -346l185 346h90l-233 -423v-266z" />
    <glyph glyph-name="Phi" unicode="&#x3a6;" 
d="M342 610q126 -7 186.5 -72.5t60.5 -190.5q0 -128 -63 -195t-184 -71v-81h-84v81q-120 4 -183.5 71t-63.5 195q0 124 61 190t186 73v79h84v-79zM136.5 498.5q-38.5 -44.5 -38.5 -151.5q0 -103 38 -150t123 -52v400q-84 -2 -122.5 -46.5zM341 145q85 5 123 52.5t38 149.5
q0 108 -38.5 152.5t-122.5 45.5v-400z" />
    <glyph glyph-name="Chi" unicode="&#x3a7;" 
d="M149 689l151 -265l152 265h93l-195 -317l219 -372h-100l-171 311l-174 -311h-93l216 367l-198 322h100z" />
    <glyph glyph-name="Psi" unicode="&#x3a8;" 
d="M256 192q-122 9 -182.5 73t-60.5 165v259h89v-254q0 -79 35 -120.5t120 -48.5v423h87v-422q83 7 118.5 48.5t35.5 119.5v254h89v-259q0 -100 -61 -163.5t-181 -73.5v-193h-89v192z" />
    <glyph glyph-name="uni03A9" unicode="&#x3a9;" 
d="M177.5 561q-40.5 -66 -40.5 -212q0 -116 32.5 -184.5t96.5 -99.5v-65h-208v70h119q-65 34 -97.5 102t-32.5 177q0 110 31 189.5t88 120.5t134 41t134 -41t88 -120.5t31 -189.5q0 -108 -33 -176t-98 -103h120v-70h-207v65q63 31 95.5 99.5t32.5 184.5q0 146 -41 212
t-122 66q-82 0 -122.5 -66z" />
    <glyph glyph-name="Alphatonos" unicode="&#x386;" 
d="M161 176l-55 -176h-86l225 689h110l224 -689h-90l-55 176h-273zM411 248l-113 367l-114 -367h227zM188 689l-71 -196l-65 10l37 202z" />
    <glyph glyph-name="Epsilontonos" unicode="&#x388;" 
d="M212 385h256v-71h-256v-244h314v-70h-400v689h391l-10 -72h-295v-232zM106 689l-71 -196l-65 10l37 202z" />
    <glyph glyph-name="Etatonos" unicode="&#x389;" 
d="M430 327h-260v-327h-87v689h87v-291h260v291h87v-689h-87v327zM64 689l-71 -196l-65 10l37 202z" />
    <glyph glyph-name="Iotatonos" unicode="&#x38a;" 
d="M497 619h-153v-550h153v-69h-394v69h153v550h-153v70h394v-70zM84 689l-71 -196l-65 10l37 202z" />
    <glyph glyph-name="Omicrontonos" unicode="&#x38c;" 
d="M487.5 86q-65.5 -97 -187.5 -97q-123 0 -188 95t-65 259q0 105 29 186t86 126t138 45q122 0 187.5 -96.5t65.5 -259.5q0 -161 -65.5 -258zM424 556q-39 71 -124 71t-124 -71.5t-39 -212.5q0 -140 39.5 -210.5t123.5 -70.5q85 0 124 70.5t39 211.5t-39 212zM96 689
l-71 -196l-65 10l37 202z" />
    <glyph glyph-name="Upsilontonos" unicode="&#x38e;" 
d="M344 0h-88v265l-233 424h96l183 -346l185 346h90l-233 -423v-266zM14 689l-71 -196l-65 10l37 202z" />
    <glyph glyph-name="Omegatonos" unicode="&#x38f;" 
d="M177.5 561q-40.5 -66 -40.5 -212q0 -116 32.5 -184.5t96.5 -99.5v-65h-208v70h119q-65 34 -97.5 102t-32.5 177q0 110 31 189.5t88 120.5t134 41t134 -41t88 -120.5t31 -189.5q0 -108 -33 -176t-98 -103h120v-70h-207v65q63 31 95.5 99.5t32.5 184.5q0 146 -41 212
t-122 66q-82 0 -122.5 -66zM95 689l-71 -196l-65 10l37 202z" />
    <glyph glyph-name="Iotadieresis" unicode="&#x3aa;" 
d="M497 619h-153v-550h153v-69h-394v69h153v550h-153v70h394v-70zM157.5 783q-15.5 15 -15.5 38t15.5 38.5t39.5 15.5q23 0 38.5 -15.5t15.5 -38.5t-15.5 -38t-38.5 -15q-24 0 -39.5 15zM364.5 783q-15.5 15 -15.5 38t15.5 38.5t38.5 15.5t39 -15.5t16 -38.5t-16 -38
t-39 -15t-38.5 15z" />
    <glyph glyph-name="Upsilondieresis" unicode="&#x3ab;" 
d="M344 0h-88v265l-233 424h96l183 -346l185 346h90l-233 -423v-266zM160.5 783q-15.5 15 -15.5 38t15.5 38.5t39.5 15.5q23 0 38.5 -15.5t15.5 -38.5t-15.5 -38t-38.5 -15q-24 0 -39.5 15zM367.5 783q-15.5 15 -15.5 38t15.5 38.5t38.5 15.5t39 -15.5t16 -38.5t-16 -38
t-39 -15t-38.5 15z" />
    <glyph glyph-name="uni0370" unicode="&#x370;" 
d="M201 327v-327h-87v689h87v-291h285v-71h-285z" />
    <glyph glyph-name="uni0372" unicode="&#x372;" 
d="M565 689v-265h-76v189h-145v-613h-87v613h-145v-191h-76v267h529z" />
    <glyph glyph-name="uni0376" unicode="&#x376;" 
d="M83 689h86v-349q0 -86 -3.5 -143.5t-10.5 -119.5l250 612h112v-689h-86v349q0 133 14 257l-248 -606h-114v689z" />
    <glyph glyph-name="uni03D8" unicode="&#x3d8;" 
d="M499 103.5q-54 -94.5 -156 -111.5v-193h-85v193q-103 16 -157 109t-54 242q0 105 29 186t86 126t138 45q122 0 187.5 -96.5t65.5 -259.5q0 -146 -54 -240.5zM424 132.5q39 70.5 39 211.5t-39 212t-124 71t-124 -71.5t-39 -212.5q0 -140 39.5 -210.5t123.5 -70.5
q85 0 124 70.5z" />
    <glyph glyph-name="uni03DA" unicode="&#x3da;" 
d="M324 -156q49 21 74 45t25 60q0 22 -11.5 37t-39 29.5t-85.5 37.5q-112 46 -162.5 118t-50.5 194q0 90 33 162.5t106.5 117t189.5 44.5h147l-13 -74h-139q-115 0 -173.5 -67t-58.5 -181q0 -71 17 -117t55.5 -77.5t105.5 -57.5q91 -36 130.5 -71t39.5 -91
q0 -54 -36.5 -92.5t-117.5 -74.5z" />
    <glyph glyph-name="uni03DC" unicode="&#x3dc;" 
d="M213 612v-228h149q35 0 57.5 -5t46.5 -16l-23 -66q-20 7 -39.5 10.5t-49.5 3.5h-141v-311h-87v689h408l-9 -77h-312z" />
    <glyph glyph-name="uni03DE" unicode="&#x3de;" 
d="M304 0h-99l227 310h-344l-17 75l225 304h99l-226 -304h344l17 -75z" />
    <glyph glyph-name="uni03E0" unicode="&#x3e0;" 
d="M485 0l-104 285l-90 -285l-84 2l136 386l-42 112l-186 -500h-90l238 596l-38 93h84l266 -689h-90z" />
    <glyph glyph-name="uni03CF" unicode="&#x3cf;" 
d="M100 689h87v-689h-87v689zM574 -61q0 -73 -38.5 -111.5t-106.5 -38.5q-65 0 -112 37l33 57q19 -13 35.5 -18.5t39.5 -5.5q63 0 63 75v66h-34l-262 368l249 321h103l-250 -316l217 -301h63v-133z" />
    <glyph glyph-name="uni03D2" unicode="&#x3d2;" 
d="M546 629q-20 0 -34.5 -12.5t-29.5 -43.5l-144 -307v-266h-87v265l-213 424h96l164 -347l106 244q29 66 58 90t78 24q31 0 56 -11l-20 -64q-16 4 -30 4z" />
    <glyph glyph-name="uni03D3" unicode="&#x3d3;" 
d="M546 629q-20 0 -34.5 -12.5t-29.5 -43.5l-144 -307v-266h-87v265l-213 424h96l164 -347l106 244q29 66 58 90t78 24q31 0 56 -11l-20 -64q-16 4 -30 4zM23 689l-71 -196l-65 10l37 202z" />
    <glyph glyph-name="uni03D4" unicode="&#x3d4;" 
d="M546 629q-20 0 -34.5 -12.5t-29.5 -43.5l-144 -307v-266h-87v265l-213 424h96l164 -347l106 244q29 66 58 90t78 24q31 0 56 -11l-20 -64q-16 4 -30 4zM160.5 783q-15.5 15 -15.5 38t15.5 38.5t39.5 15.5q23 0 38.5 -15.5t15.5 -38.5t-15.5 -38t-38.5 -15q-24 0 -39.5 15
zM367.5 783q-15.5 15 -15.5 38t15.5 38.5t38.5 15.5t39 -15.5t16 -38.5t-16 -38t-39 -15t-38.5 15z" />
    <glyph glyph-name="uni03F4" unicode="&#x3f4;" 
d="M487.5 86q-65.5 -97 -187.5 -97q-123 0 -188 95t-65 259q0 105 29 186t86 126t138 45q122 0 187.5 -96.5t65.5 -259.5q0 -161 -65.5 -258zM423.5 556q-38.5 71 -123.5 71t-123.5 -71.5t-38.5 -212.5q0 -140 39.5 -210.5t122.5 -70.5q85 0 123.5 70.5t38.5 211.5
t-38.5 212zM197 316v72h205v-72h-205z" />
    <glyph glyph-name="uni03F7" unicode="&#x3f7;" 
d="M194 572h98q127 0 195.5 -54t68.5 -163q0 -116 -71 -171.5t-193 -55.5h-98v-128h-87v689h87v-117zM194 503v-305h109q78 0 119.5 34.5t41.5 120.5q0 77 -42.5 113.5t-118.5 36.5h-109z" />
    <glyph glyph-name="uni03F9" unicode="&#x3f9;" 
d="M468 683.5q46 -16.5 90 -50.5l-49 -57q-61 51 -145 51q-93 0 -151.5 -67.5t-58.5 -214.5q0 -146 57 -214t152 -68q52 0 89 15t71 42l45 -56q-77 -75 -206 -75q-85 0 -153 41.5t-107 121.5t-39 193q0 112 39.5 192.5t107 121.5t148.5 41q64 0 110 -16.5z" />
    <glyph glyph-name="uni03FA" unicode="&#x3fa;" 
d="M570 0h-84l-21 360q-6 95 -6 249l-116 -485h-87l-124 485q2 -36 2 -96q0 -92 -4 -153l-18 -360h-82l39 689h121l112 -472l107 472h122z" />
    <glyph glyph-name="uni03FD" unicode="&#x3fd;" 
d="M461 608q76 -92 76 -263q0 -113 -39 -193t-107 -121.5t-153 -41.5q-129 0 -206 75l45 57q33 -27 70.5 -42.5t89.5 -15.5q95 0 152 68t57 214q0 151 -51.5 216.5t-149.5 65.5q-87 0 -161 -51l-42 57q49 34 97 50.5t113 16.5q133 0 209 -92z" />
    <glyph glyph-name="uni03FE" unicode="&#x3fe;" 
d="M468 683.5q46 -16.5 90 -50.5l-49 -57q-61 51 -145 51q-93 0 -151.5 -67.5t-58.5 -214.5q0 -146 57 -214t152 -68q52 0 89 15t71 42l45 -56q-77 -75 -206 -75q-85 0 -153 41.5t-107 121.5t-39 193q0 112 39.5 192.5t107 121.5t148.5 41q64 0 110 -16.5zM407 388.5
q17 -16.5 17 -41.5q0 -27 -17 -43.5t-45 -16.5q-27 0 -43.5 17t-16.5 43q0 25 16.5 41.5t43.5 16.5q28 0 45 -16.5z" />
    <glyph glyph-name="uni03FF" unicode="&#x3ff;" 
d="M461 608q76 -92 76 -263q0 -113 -39 -193t-107 -121.5t-153 -41.5q-129 0 -206 75l45 57q33 -27 70.5 -42.5t89.5 -15.5q95 0 152 68t57 214q0 151 -51.5 216.5t-149.5 65.5q-87 0 -161 -51l-42 57q49 34 97 50.5t113 16.5q133 0 209 -92zM280 388.5q17 -16.5 17 -41.5
q0 -27 -17 -43.5t-45 -16.5q-27 0 -43.5 17t-16.5 43q0 25 16.5 41.5t43.5 16.5q28 0 45 -16.5z" />
    <glyph glyph-name="uni1F08" unicode="&#x1f08;" 
d="M161 176l-55 -176h-86l225 689h110l224 -689h-90l-55 176h-273zM411 248l-113 367l-114 -367h227zM157 689.5q16 -15.5 16 -37.5q0 -20 -15 -55l-51 -107h-50l29 117q-22 17 -22 45q0 23 15.5 38t38.5 15t39 -15.5z" />
    <glyph glyph-name="uni1F09" unicode="&#x1f09;" 
d="M161 176l-55 -176h-86l225 689h110l224 -689h-90l-55 176h-273zM411 248l-113 367l-114 -367h227zM134.5 690q15.5 -15 15.5 -38q0 -28 -22 -45l29 -117h-50l-51 107q-15 35 -15 55q0 22 16 37.5t39 15.5t38.5 -15z" />
    <glyph glyph-name="uni1F0A" unicode="&#x1f0a;" 
d="M161 176l-55 -176h-86l225 689h110l224 -689h-90l-55 176h-273zM411 248l-113 367l-114 -367h227zM-12 676.5q16 -15.5 16 -37.5q0 -20 -15 -55l-51 -107h-50l29 117q-22 17 -22 45q0 23 15.5 38t38.5 15t39 -15.5zM160 485l-57 -16l-68 199l77 19z" />
    <glyph glyph-name="uni1F0B" unicode="&#x1f0b;" 
d="M161 176l-55 -176h-86l225 689h110l224 -689h-90l-55 176h-273zM411 248l-113 367l-114 -367h227zM-21.5 677.5q15.5 -15.5 15.5 -38.5q0 -13 -6 -25t-16 -20l30 -117h-51l-50 107q-15 33 -15 55q0 23 15.5 38.5t38.5 15.5t38.5 -15.5zM156 485l-57 -16l-68 199l77 19z
" />
    <glyph glyph-name="uni1F0C" unicode="&#x1f0c;" 
d="M161 176l-55 -176h-86l225 689h110l224 -689h-90l-55 176h-273zM411 248l-113 367l-114 -367h227zM11 676.5q16 -15.5 16 -37.5q0 -20 -15 -55l-51 -107h-50l29 117q-22 17 -22 45q0 23 15.5 38t38.5 15t39 -15.5zM176 668l-68 -199l-57 16l48 202z" />
    <glyph glyph-name="uni1F0D" unicode="&#x1f0d;" 
d="M161 176l-55 -176h-86l225 689h110l224 -689h-90l-55 176h-273zM411 248l-113 367l-114 -367h227zM10.5 678.5q15.5 -15.5 15.5 -38.5q0 -13 -6 -25t-16 -19l30 -118h-51l-50 107q-9 19 -12.5 31t-3.5 24q0 23 16 38.5t39 15.5t38.5 -15.5zM182 668l-68 -199l-57 16
l48 202z" />
    <glyph glyph-name="uni1F0E" unicode="&#x1f0e;" 
d="M161 176l-55 -176h-86l225 689h110l224 -689h-90l-55 176h-273zM411 248l-113 367l-114 -367h227zM66.5 591q-15.5 7 -34.5 20q-15 11 -25.5 16t-21.5 5q-16 0 -28 -11t-25 -35l-54 27q41 84 107 84q20 0 36 -7.5t34 -20.5q16 -10 25.5 -15t20.5 -5q15 0 27 10.5t26 33.5
l53 -27q-38 -82 -106 -82q-19 0 -34.5 7zM19 477q-31 18 -31 49q0 23 16 38t40 15q23 0 38.5 -15t15.5 -38q0 -13 -6 -29.5t-23 -46.5l-19 -35h-51z" />
    <glyph glyph-name="uni1F0F" unicode="&#x1f0f;" 
d="M161 176l-55 -176h-86l225 689h110l224 -689h-90l-55 176h-273zM411 248l-113 367l-114 -367h227zM66.5 592q-15.5 7 -34.5 20q-15 11 -25.5 16t-21.5 5q-16 0 -28 -11t-25 -35l-53 27q18 38 45 61t61 23q21 0 36 -7.5t34 -20.5q3 -2 12.5 -8t17.5 -9t16 -3q15 0 27 10.5
t26 33.5l54 -27q-19 -41 -46.5 -61.5t-60.5 -20.5q-19 0 -34.5 7zM34 416l-20 35q-17 31 -23 47t-6 29q0 23 15.5 38t39.5 15q23 0 39 -15t16 -38q0 -32 -31 -49l20 -62h-50z" />
    <glyph glyph-name="uni1FBA" unicode="&#x1fba;" 
d="M161 176l-55 -176h-86l225 689h110l224 -689h-90l-55 176h-273zM411 248l-113 367l-114 -367h227zM149 503l-65 -10l-71 196l99 16z" />
    <glyph glyph-name="uni1FBB" unicode="&#x1fbb;" 
d="M161 176l-55 -176h-86l225 689h110l224 -689h-90l-55 176h-273zM411 248l-113 367l-114 -367h227zM168 689l-71 -196l-65 10l37 202z" />
    <glyph glyph-name="uni1FB8" unicode="&#x1fb8;" 
d="M161 176l-55 -176h-86l225 689h110l224 -689h-90l-55 176h-273zM411 248l-113 367l-114 -367h227zM198 791.5q-42 32.5 -47 86.5l57 13q25 -67 90 -67q34 0 58 18t35 49l58 -13q-6 -54 -49 -86.5t-102 -32.5q-58 0 -100 32.5z" />
    <glyph glyph-name="uni1FB9" unicode="&#x1fb9;" 
d="M161 176l-55 -176h-86l225 689h110l224 -689h-90l-55 176h-273zM411 248l-113 367l-114 -367h227zM165 795v64h269v-64h-269z" />
    <glyph glyph-name="uni1FBC" unicode="&#x1fbc;" 
d="M161 176l-55 -176h-86l225 689h110l224 -689h-90l-55 176h-273zM411 248l-113 367l-114 -367h227zM289 -160.5q-29 27.5 -29 74.5v47h75v-45q0 -42 42 -42q18 0 30 4t27 13l33 -45q-45 -34 -97 -34t-81 27.5z" />
    <glyph glyph-name="uni1F88" unicode="&#x1f88;" 
d="M161 176l-55 -176h-86l225 689h110l224 -689h-90l-55 176h-273zM411 248l-113 367l-114 -367h227zM157 689.5q16 -15.5 16 -37.5q0 -20 -15 -55l-51 -107h-50l29 117q-22 17 -22 45q0 23 15.5 38t38.5 15t39 -15.5zM289 -160.5q-29 27.5 -29 74.5v47h75v-45q0 -42 42 -42
q18 0 30 4t27 13l33 -45q-45 -34 -97 -34t-81 27.5z" />
    <glyph glyph-name="uni1F89" unicode="&#x1f89;" 
d="M161 176l-55 -176h-86l225 689h110l224 -689h-90l-55 176h-273zM411 248l-113 367l-114 -367h227zM134.5 690q15.5 -15 15.5 -38q0 -28 -22 -45l29 -117h-50l-51 107q-15 35 -15 55q0 22 16 37.5t39 15.5t38.5 -15zM289 -160.5q-29 27.5 -29 74.5v47h75v-45q0 -42 42 -42
q18 0 30 4t27 13l33 -45q-45 -34 -97 -34t-81 27.5z" />
    <glyph glyph-name="uni1F8A" unicode="&#x1f8a;" 
d="M161 176l-55 -176h-86l225 689h110l224 -689h-90l-55 176h-273zM411 248l-113 367l-114 -367h227zM-12 676.5q16 -15.5 16 -37.5q0 -20 -15 -55l-51 -107h-50l29 117q-22 17 -22 45q0 23 15.5 38t38.5 15t39 -15.5zM160 485l-57 -16l-68 199l77 19zM289 -160.5
q-29 27.5 -29 74.5v47h75v-45q0 -42 42 -42q18 0 30 4t27 13l33 -45q-45 -34 -97 -34t-81 27.5z" />
    <glyph glyph-name="uni1F8B" unicode="&#x1f8b;" 
d="M161 176l-55 -176h-86l225 689h110l224 -689h-90l-55 176h-273zM411 248l-113 367l-114 -367h227zM-21.5 677.5q15.5 -15.5 15.5 -38.5q0 -13 -6 -25t-16 -20l30 -117h-51l-50 107q-15 33 -15 55q0 23 15.5 38.5t38.5 15.5t38.5 -15.5zM156 485l-57 -16l-68 199l77 19z
M289 -160.5q-29 27.5 -29 74.5v47h75v-45q0 -42 42 -42q18 0 30 4t27 13l33 -45q-45 -34 -97 -34t-81 27.5z" />
    <glyph glyph-name="uni1F8C" unicode="&#x1f8c;" 
d="M161 176l-55 -176h-86l225 689h110l224 -689h-90l-55 176h-273zM411 248l-113 367l-114 -367h227zM11 676.5q16 -15.5 16 -37.5q0 -20 -15 -55l-51 -107h-50l29 117q-22 17 -22 45q0 23 15.5 38t38.5 15t39 -15.5zM176 668l-68 -199l-57 16l48 202zM289 -160.5
q-29 27.5 -29 74.5v47h75v-45q0 -42 42 -42q18 0 30 4t27 13l33 -45q-45 -34 -97 -34t-81 27.5z" />
    <glyph glyph-name="uni1F8D" unicode="&#x1f8d;" 
d="M161 176l-55 -176h-86l225 689h110l224 -689h-90l-55 176h-273zM411 248l-113 367l-114 -367h227zM10.5 678.5q15.5 -15.5 15.5 -38.5q0 -13 -6 -25t-16 -19l30 -118h-51l-50 107q-9 19 -12.5 31t-3.5 24q0 23 16 38.5t39 15.5t38.5 -15.5zM182 668l-68 -199l-57 16
l48 202zM289 -160.5q-29 27.5 -29 74.5v47h75v-45q0 -42 42 -42q18 0 30 4t27 13l33 -45q-45 -34 -97 -34t-81 27.5z" />
    <glyph glyph-name="uni1F8E" unicode="&#x1f8e;" 
d="M161 176l-55 -176h-86l225 689h110l224 -689h-90l-55 176h-273zM411 248l-113 367l-114 -367h227zM66.5 591q-15.5 7 -34.5 20q-15 11 -25.5 16t-21.5 5q-16 0 -28 -11t-25 -35l-54 27q41 84 107 84q20 0 36 -7.5t34 -20.5q16 -10 25.5 -15t20.5 -5q15 0 27 10.5t26 33.5
l53 -27q-38 -82 -106 -82q-19 0 -34.5 7zM19 477q-31 18 -31 49q0 23 16 38t40 15q23 0 38.5 -15t15.5 -38q0 -13 -6 -29.5t-23 -46.5l-19 -35h-51zM289 -160.5q-29 27.5 -29 74.5v47h75v-45q0 -42 42 -42q18 0 30 4t27 13l33 -45q-45 -34 -97 -34t-81 27.5z" />
    <glyph glyph-name="uni1F8F" unicode="&#x1f8f;" 
d="M161 176l-55 -176h-86l225 689h110l224 -689h-90l-55 176h-273zM411 248l-113 367l-114 -367h227zM66.5 592q-15.5 7 -34.5 20q-15 11 -25.5 16t-21.5 5q-16 0 -28 -11t-25 -35l-53 27q18 38 45 61t61 23q21 0 36 -7.5t34 -20.5q3 -2 12.5 -8t17.5 -9t16 -3q15 0 27 10.5
t26 33.5l54 -27q-19 -41 -46.5 -61.5t-60.5 -20.5q-19 0 -34.5 7zM34 416l-20 35q-17 31 -23 47t-6 29q0 23 15.5 38t39.5 15q23 0 39 -15t16 -38q0 -32 -31 -49l20 -62h-50zM289 -160.5q-29 27.5 -29 74.5v47h75v-45q0 -42 42 -42q18 0 30 4t27 13l33 -45q-45 -34 -97 -34
t-81 27.5z" />
    <glyph glyph-name="uni1F18" unicode="&#x1f18;" 
d="M212 385h256v-71h-256v-244h314v-70h-400v689h391l-10 -72h-295v-232zM75 689.5q16 -15.5 16 -37.5q0 -20 -15 -55l-51 -107h-50l29 117q-22 17 -22 45q0 23 15.5 38t38.5 15t39 -15.5z" />
    <glyph glyph-name="uni1F19" unicode="&#x1f19;" 
d="M212 385h256v-71h-256v-244h314v-70h-400v689h391l-10 -72h-295v-232zM51.5 690q15.5 -15 15.5 -38q0 -28 -22 -45l29 -117h-50l-51 107q-15 35 -15 55q0 22 16 37.5t39 15.5t38.5 -15z" />
    <glyph glyph-name="uni1F1A" unicode="&#x1f1a;" 
d="M212 385h256v-71h-256v-244h314v-70h-400v689h391l-10 -72h-295v-232zM-87 676.5q16 -15.5 16 -37.5q0 -20 -15 -55l-51 -107h-50l29 117q-22 17 -22 45q0 23 15.5 38t38.5 15t39 -15.5zM85 485l-57 -16l-68 199l77 19z" />
    <glyph glyph-name="uni1F1B" unicode="&#x1f1b;" 
d="M212 385h256v-71h-256v-244h314v-70h-400v689h391l-10 -72h-295v-232zM-92.5 677.5q15.5 -15.5 15.5 -38.5q0 -13 -6 -25t-16 -20l30 -117h-51l-50 107q-15 33 -15 55q0 23 15.5 38.5t38.5 15.5t38.5 -15.5zM85 485l-57 -16l-68 199l77 19z" />
    <glyph glyph-name="uni1F1C" unicode="&#x1f1c;" 
d="M212 385h256v-71h-256v-244h314v-70h-400v689h391l-10 -72h-295v-232zM-72 676.5q16 -15.5 16 -37.5q0 -20 -15 -55l-51 -107h-50l29 117q-22 17 -22 45q0 23 15.5 38t38.5 15t39 -15.5zM93 668l-68 -199l-57 16l48 202z" />
    <glyph glyph-name="uni1F1D" unicode="&#x1f1d;" 
d="M212 385h256v-71h-256v-244h314v-70h-400v689h391l-10 -72h-295v-232zM-71.5 678.5q15.5 -15.5 15.5 -38.5q0 -13 -6 -25t-16 -19l30 -118h-51l-50 107q-9 19 -12.5 31t-3.5 24q0 23 16 38.5t39 15.5t38.5 -15.5zM100 668l-68 -199l-57 16l48 202z" />
    <glyph glyph-name="uni1FC8" unicode="&#x1fc8;" 
d="M212 385h256v-71h-256v-244h314v-70h-400v689h391l-10 -72h-295v-232zM96 503l-65 -10l-71 196l99 16z" />
    <glyph glyph-name="uni1FC9" unicode="&#x1fc9;" 
d="M212 385h256v-71h-256v-244h314v-70h-400v689h391l-10 -72h-295v-232zM106 689l-71 -196l-65 10l37 202z" />
    <glyph glyph-name="uni1F28" unicode="&#x1f28;" 
d="M430 327h-260v-327h-87v689h87v-291h260v291h87v-689h-87v327zM32 689.5q16 -15.5 16 -37.5q0 -20 -15 -55l-51 -107h-50l29 117q-22 17 -22 45q0 23 15.5 38t38.5 15t39 -15.5z" />
    <glyph glyph-name="uni1F29" unicode="&#x1f29;" 
d="M430 327h-260v-327h-87v689h87v-291h260v291h87v-689h-87v327zM9.5 690q15.5 -15 15.5 -38q0 -28 -22 -45l29 -117h-50l-51 107q-15 35 -15 55q0 22 16 37.5t39 15.5t38.5 -15z" />
    <glyph glyph-name="uni1F2A" unicode="&#x1f2a;" 
d="M430 327h-260v-327h-87v689h87v-291h260v291h87v-689h-87v327zM-129 676.5q16 -15.5 16 -37.5q0 -20 -15 -55l-51 -107h-50l29 117q-22 17 -22 45q0 23 15.5 38t38.5 15t39 -15.5zM43 485l-57 -16l-68 199l77 19z" />
    <glyph glyph-name="uni1F2B" unicode="&#x1f2b;" 
d="M430 327h-260v-327h-87v689h87v-291h260v291h87v-689h-87v327zM-134.5 677.5q15.5 -15.5 15.5 -38.5q0 -13 -6 -25t-16 -20l30 -117h-51l-50 107q-15 33 -15 55q0 23 15.5 38.5t38.5 15.5t38.5 -15.5zM43 485l-57 -16l-68 199l77 19z" />
    <glyph glyph-name="uni1F2C" unicode="&#x1f2c;" 
d="M430 327h-260v-327h-87v689h87v-291h260v291h87v-689h-87v327zM-114 676.5q16 -15.5 16 -37.5q0 -20 -15 -55l-51 -107h-50l29 117q-22 17 -22 45q0 23 15.5 38t38.5 15t39 -15.5zM51 668l-68 -199l-57 16l48 202z" />
    <glyph glyph-name="uni1F2D" unicode="&#x1f2d;" 
d="M430 327h-260v-327h-87v689h87v-291h260v291h87v-689h-87v327zM-113.5 678.5q15.5 -15.5 15.5 -38.5q0 -13 -6 -25t-16 -19l30 -118h-51l-50 107q-9 19 -12.5 31t-3.5 24q0 23 16 38.5t39 15.5t38.5 -15.5zM58 668l-68 -199l-57 16l48 202z" />
    <glyph glyph-name="uni1F2E" unicode="&#x1f2e;" 
d="M430 327h-260v-327h-87v689h87v-291h260v291h87v-689h-87v327zM-67.5 591q-15.5 7 -34.5 20q-15 11 -25.5 16t-21.5 5q-16 0 -28 -11t-25 -35l-54 27q41 84 107 84q20 0 36 -7.5t34 -20.5q16 -10 25.5 -15t20.5 -5q15 0 27 10.5t26 33.5l53 -27q-38 -82 -106 -82
q-19 0 -34.5 7zM-115 477q-31 18 -31 49q0 23 16 38t40 15q23 0 38.5 -15t15.5 -38q0 -13 -6 -29.5t-23 -46.5l-19 -35h-51z" />
    <glyph glyph-name="uni1F2F" unicode="&#x1f2f;" 
d="M430 327h-260v-327h-87v689h87v-291h260v291h87v-689h-87v327zM-68.5 592q-15.5 7 -34.5 20q-15 11 -25.5 16t-21.5 5q-16 0 -28 -11t-25 -35l-53 27q18 38 45 61t61 23q21 0 36 -7.5t34 -20.5q3 -2 12.5 -8t17.5 -9t16 -3q15 0 27 10.5t26 33.5l54 -27
q-19 -41 -46.5 -61.5t-60.5 -20.5q-19 0 -34.5 7zM-101 416l-20 35q-17 31 -23 47t-6 29q0 23 15.5 38t39.5 15q23 0 39 -15t16 -38q0 -32 -31 -49l20 -62h-50z" />
    <glyph glyph-name="uni1FCA" unicode="&#x1fca;" 
d="M430 327h-260v-327h-87v689h87v-291h260v291h87v-689h-87v327zM54 503l-65 -10l-71 196l99 16z" />
    <glyph glyph-name="uni1FCB" unicode="&#x1fcb;" 
d="M430 327h-260v-327h-87v689h87v-291h260v291h87v-689h-87v327zM64 689l-71 -196l-65 10l37 202z" />
    <glyph glyph-name="uni1FCC" unicode="&#x1fcc;" 
d="M430 327h-260v-327h-87v689h87v-291h260v291h87v-689h-87v327zM291 -160.5q-29 27.5 -29 74.5v47h75v-45q0 -42 42 -42q18 0 30 4t27 13l33 -45q-45 -34 -97 -34t-81 27.5z" />
    <glyph glyph-name="uni1F98" unicode="&#x1f98;" 
d="M430 327h-260v-327h-87v689h87v-291h260v291h87v-689h-87v327zM32 689.5q16 -15.5 16 -37.5q0 -20 -15 -55l-51 -107h-50l29 117q-22 17 -22 45q0 23 15.5 38t38.5 15t39 -15.5zM291 -160.5q-29 27.5 -29 74.5v47h75v-45q0 -42 42 -42q18 0 30 4t27 13l33 -45
q-45 -34 -97 -34t-81 27.5z" />
    <glyph glyph-name="uni1F99" unicode="&#x1f99;" 
d="M430 327h-260v-327h-87v689h87v-291h260v291h87v-689h-87v327zM9.5 690q15.5 -15 15.5 -38q0 -28 -22 -45l29 -117h-50l-51 107q-15 35 -15 55q0 22 16 37.5t39 15.5t38.5 -15zM291 -160.5q-29 27.5 -29 74.5v47h75v-45q0 -42 42 -42q18 0 30 4t27 13l33 -45
q-45 -34 -97 -34t-81 27.5z" />
    <glyph glyph-name="uni1F9A" unicode="&#x1f9a;" 
d="M430 327h-260v-327h-87v689h87v-291h260v291h87v-689h-87v327zM-129 676.5q16 -15.5 16 -37.5q0 -20 -15 -55l-51 -107h-50l29 117q-22 17 -22 45q0 23 15.5 38t38.5 15t39 -15.5zM43 485l-57 -16l-68 199l77 19zM291 -160.5q-29 27.5 -29 74.5v47h75v-45q0 -42 42 -42
q18 0 30 4t27 13l33 -45q-45 -34 -97 -34t-81 27.5z" />
    <glyph glyph-name="uni1F9B" unicode="&#x1f9b;" 
d="M430 327h-260v-327h-87v689h87v-291h260v291h87v-689h-87v327zM-134.5 677.5q15.5 -15.5 15.5 -38.5q0 -13 -6 -25t-16 -20l30 -117h-51l-50 107q-15 33 -15 55q0 23 15.5 38.5t38.5 15.5t38.5 -15.5zM43 485l-57 -16l-68 199l77 19zM291 -160.5q-29 27.5 -29 74.5v47h75
v-45q0 -42 42 -42q18 0 30 4t27 13l33 -45q-45 -34 -97 -34t-81 27.5z" />
    <glyph glyph-name="uni1F9C" unicode="&#x1f9c;" 
d="M430 327h-260v-327h-87v689h87v-291h260v291h87v-689h-87v327zM-114 676.5q16 -15.5 16 -37.5q0 -20 -15 -55l-51 -107h-50l29 117q-22 17 -22 45q0 23 15.5 38t38.5 15t39 -15.5zM51 668l-68 -199l-57 16l48 202zM291 -160.5q-29 27.5 -29 74.5v47h75v-45q0 -42 42 -42
q18 0 30 4t27 13l33 -45q-45 -34 -97 -34t-81 27.5z" />
    <glyph glyph-name="uni1F9D" unicode="&#x1f9d;" 
d="M430 327h-260v-327h-87v689h87v-291h260v291h87v-689h-87v327zM-113.5 678.5q15.5 -15.5 15.5 -38.5q0 -13 -6 -25t-16 -19l30 -118h-51l-50 107q-9 19 -12.5 31t-3.5 24q0 23 16 38.5t39 15.5t38.5 -15.5zM58 668l-68 -199l-57 16l48 202zM291 -160.5q-29 27.5 -29 74.5
v47h75v-45q0 -42 42 -42q18 0 30 4t27 13l33 -45q-45 -34 -97 -34t-81 27.5z" />
    <glyph glyph-name="uni1F9E" unicode="&#x1f9e;" 
d="M430 327h-260v-327h-87v689h87v-291h260v291h87v-689h-87v327zM-67.5 591q-15.5 7 -34.5 20q-15 11 -25.5 16t-21.5 5q-16 0 -28 -11t-25 -35l-54 27q41 84 107 84q20 0 36 -7.5t34 -20.5q16 -10 25.5 -15t20.5 -5q15 0 27 10.5t26 33.5l53 -27q-38 -82 -106 -82
q-19 0 -34.5 7zM-115 477q-31 18 -31 49q0 23 16 38t40 15q23 0 38.5 -15t15.5 -38q0 -13 -6 -29.5t-23 -46.5l-19 -35h-51zM291 -160.5q-29 27.5 -29 74.5v47h75v-45q0 -42 42 -42q18 0 30 4t27 13l33 -45q-45 -34 -97 -34t-81 27.5z" />
    <glyph glyph-name="uni1F9F" unicode="&#x1f9f;" 
d="M430 327h-260v-327h-87v689h87v-291h260v291h87v-689h-87v327zM-68.5 592q-15.5 7 -34.5 20q-15 11 -25.5 16t-21.5 5q-16 0 -28 -11t-25 -35l-53 27q18 38 45 61t61 23q21 0 36 -7.5t34 -20.5q3 -2 12.5 -8t17.5 -9t16 -3q15 0 27 10.5t26 33.5l54 -27
q-19 -41 -46.5 -61.5t-60.5 -20.5q-19 0 -34.5 7zM-101 416l-20 35q-17 31 -23 47t-6 29q0 23 15.5 38t39.5 15q23 0 39 -15t16 -38q0 -32 -31 -49l20 -62h-50zM291 -160.5q-29 27.5 -29 74.5v47h75v-45q0 -42 42 -42q18 0 30 4t27 13l33 -45q-45 -34 -97 -34t-81 27.5z" />
    <glyph glyph-name="uni1F38" unicode="&#x1f38;" 
d="M497 619h-153v-550h153v-69h-394v69h153v550h-153v70h394v-70zM52 689.5q16 -15.5 16 -37.5q0 -20 -15 -55l-51 -107h-50l29 117q-22 17 -22 45q0 23 15.5 38t38.5 15t39 -15.5z" />
    <glyph glyph-name="uni1F39" unicode="&#x1f39;" 
d="M497 619h-153v-550h153v-69h-394v69h153v550h-153v70h394v-70zM49.5 690q15.5 -15 15.5 -38q0 -28 -22 -45l29 -117h-50l-51 107q-15 35 -15 55q0 22 16 37.5t39 15.5t38.5 -15z" />
    <glyph glyph-name="uni1F3A" unicode="&#x1f3a;" 
d="M497 619h-153v-550h153v-69h-394v69h153v550h-153v70h394v-70zM-62 676.5q16 -15.5 16 -37.5q0 -20 -15 -55l-51 -107h-50l29 117q-22 17 -22 45q0 23 15.5 38t38.5 15t39 -15.5zM110 485l-57 -16l-68 199l77 19z" />
    <glyph glyph-name="uni1F3B" unicode="&#x1f3b;" 
d="M497 619h-153v-550h153v-69h-394v69h153v550h-153v70h394v-70zM-73.5 677.5q15.5 -15.5 15.5 -38.5q0 -13 -6 -25t-16 -20l30 -117h-51l-50 107q-15 33 -15 55q0 23 15.5 38.5t38.5 15.5t38.5 -15.5zM104 485l-57 -16l-68 199l77 19z" />
    <glyph glyph-name="uni1F3C" unicode="&#x1f3c;" 
d="M497 619h-153v-550h153v-69h-394v69h153v550h-153v70h394v-70zM-94 676.5q16 -15.5 16 -37.5q0 -20 -15 -55l-51 -107h-50l29 117q-22 17 -22 45q0 23 15.5 38t38.5 15t39 -15.5zM71 668l-68 -199l-57 16l48 202z" />
    <glyph glyph-name="uni1F3D" unicode="&#x1f3d;" 
d="M497 619h-153v-550h153v-69h-394v69h153v550h-153v70h394v-70zM-94.5 678.5q15.5 -15.5 15.5 -38.5q0 -13 -6 -25t-16 -19l30 -118h-51l-50 107q-9 19 -12.5 31t-3.5 24q0 23 16 38.5t39 15.5t38.5 -15.5zM77 668l-68 -199l-57 16l48 202z" />
    <glyph glyph-name="uni1F3E" unicode="&#x1f3e;" 
d="M497 619h-153v-550h153v-69h-394v69h153v550h-153v70h394v-70zM-47.5 591q-15.5 7 -34.5 20q-15 11 -25.5 16t-21.5 5q-16 0 -28 -11t-25 -35l-54 27q41 84 107 84q20 0 36 -7.5t34 -20.5q16 -10 25.5 -15t20.5 -5q15 0 27 10.5t26 33.5l53 -27q-38 -82 -106 -82
q-19 0 -34.5 7zM-95 477q-31 18 -31 49q0 23 16 38t40 15q23 0 38.5 -15t15.5 -38q0 -13 -6 -29.5t-23 -46.5l-19 -35h-51z" />
    <glyph glyph-name="uni1F3F" unicode="&#x1f3f;" 
d="M497 619h-153v-550h153v-69h-394v69h153v550h-153v70h394v-70zM-49.5 592q-15.5 7 -34.5 20q-15 11 -25.5 16t-21.5 5q-16 0 -28 -11t-25 -35l-53 27q18 38 45 61t61 23q21 0 36 -7.5t34 -20.5q3 -2 12.5 -8t17.5 -9t16 -3q15 0 27 10.5t26 33.5l54 -27
q-19 -41 -46.5 -61.5t-60.5 -20.5q-19 0 -34.5 7zM-82 416l-20 35q-17 31 -23 47t-6 29q0 23 15.5 38t39.5 15q23 0 39 -15t16 -38q0 -32 -31 -49l20 -62h-50z" />
    <glyph glyph-name="uni1FDA" unicode="&#x1fda;" 
d="M497 619h-153v-550h153v-69h-394v69h153v550h-153v70h394v-70zM95 503l-65 -10l-71 196l99 16z" />
    <glyph glyph-name="uni1FDB" unicode="&#x1fdb;" 
d="M497 619h-153v-550h153v-69h-394v69h153v550h-153v70h394v-70zM84 689l-71 -196l-65 10l37 202z" />
    <glyph glyph-name="uni1FD8" unicode="&#x1fd8;" 
d="M497 619h-153v-550h153v-69h-394v69h153v550h-153v70h394v-70zM198 791.5q-42 32.5 -47 86.5l57 13q25 -67 90 -67q34 0 58 18t35 49l58 -13q-6 -54 -49 -86.5t-102 -32.5q-58 0 -100 32.5z" />
    <glyph glyph-name="uni1FD9" unicode="&#x1fd9;" 
d="M497 619h-153v-550h153v-69h-394v69h153v550h-153v70h394v-70zM165 795v64h269v-64h-269z" />
    <glyph glyph-name="uni1F48" unicode="&#x1f48;" 
d="M487.5 86q-65.5 -97 -187.5 -97q-123 0 -188 95t-65 259q0 105 29 186t86 126t138 45q122 0 187.5 -96.5t65.5 -259.5q0 -161 -65.5 -258zM424 556q-39 71 -124 71t-124 -71.5t-39 -212.5q0 -140 39.5 -210.5t123.5 -70.5q85 0 124 70.5t39 211.5t-39 212zM64 689.5
q16 -15.5 16 -37.5q0 -20 -15 -55l-51 -107h-50l29 117q-22 17 -22 45q0 23 15.5 38t38.5 15t39 -15.5z" />
    <glyph glyph-name="uni1F49" unicode="&#x1f49;" 
d="M487.5 86q-65.5 -97 -187.5 -97q-123 0 -188 95t-65 259q0 105 29 186t86 126t138 45q122 0 187.5 -96.5t65.5 -259.5q0 -161 -65.5 -258zM424 556q-39 71 -124 71t-124 -71.5t-39 -212.5q0 -140 39.5 -210.5t123.5 -70.5q85 0 124 70.5t39 211.5t-39 212zM21.5 690
q15.5 -15 15.5 -38q0 -28 -22 -45l29 -117h-50l-51 107q-15 35 -15 55q0 22 16 37.5t39 15.5t38.5 -15z" />
    <glyph glyph-name="uni1F4A" unicode="&#x1f4a;" 
d="M487.5 86q-65.5 -97 -187.5 -97q-123 0 -188 95t-65 259q0 105 29 186t86 126t138 45q122 0 187.5 -96.5t65.5 -259.5q0 -161 -65.5 -258zM424 556q-39 71 -124 71t-124 -71.5t-39 -212.5q0 -140 39.5 -210.5t123.5 -70.5q85 0 124 70.5t39 211.5t-39 212zM-131 676.5
q16 -15.5 16 -37.5q0 -20 -15 -55l-51 -107h-50l29 117q-22 17 -22 45q0 23 15.5 38t38.5 15t39 -15.5zM41 485l-57 -16l-68 199l77 19z" />
    <glyph glyph-name="uni1F4B" unicode="&#x1f4b;" 
d="M487.5 86q-65.5 -97 -187.5 -97q-123 0 -188 95t-65 259q0 105 29 186t86 126t138 45q122 0 187.5 -96.5t65.5 -259.5q0 -161 -65.5 -258zM424 556q-39 71 -124 71t-124 -71.5t-39 -212.5q0 -140 39.5 -210.5t123.5 -70.5q85 0 124 70.5t39 211.5t-39 212zM-136.5 677.5
q15.5 -15.5 15.5 -38.5q0 -13 -6 -25t-16 -20l30 -117h-51l-50 107q-15 33 -15 55q0 23 15.5 38.5t38.5 15.5t38.5 -15.5zM41 485l-57 -16l-68 199l77 19z" />
    <glyph glyph-name="uni1F4C" unicode="&#x1f4c;" 
d="M487.5 86q-65.5 -97 -187.5 -97q-123 0 -188 95t-65 259q0 105 29 186t86 126t138 45q122 0 187.5 -96.5t65.5 -259.5q0 -161 -65.5 -258zM424 556q-39 71 -124 71t-124 -71.5t-39 -212.5q0 -140 39.5 -210.5t123.5 -70.5q85 0 124 70.5t39 211.5t-39 212zM-102 676.5
q16 -15.5 16 -37.5q0 -20 -15 -55l-51 -107h-50l29 117q-22 17 -22 45q0 23 15.5 38t38.5 15t39 -15.5zM63 668l-68 -199l-57 16l48 202z" />
    <glyph glyph-name="uni1F4D" unicode="&#x1f4d;" 
d="M487.5 86q-65.5 -97 -187.5 -97q-123 0 -188 95t-65 259q0 105 29 186t86 126t138 45q122 0 187.5 -96.5t65.5 -259.5q0 -161 -65.5 -258zM424 556q-39 71 -124 71t-124 -71.5t-39 -212.5q0 -140 39.5 -210.5t123.5 -70.5q85 0 124 70.5t39 211.5t-39 212zM-101.5 678.5
q15.5 -15.5 15.5 -38.5q0 -13 -6 -25t-16 -19l30 -118h-51l-50 107q-9 19 -12.5 31t-3.5 24q0 23 16 38.5t39 15.5t38.5 -15.5zM70 668l-68 -199l-57 16l48 202z" />
    <glyph glyph-name="uni1FF8" unicode="&#x1ff8;" 
d="M487.5 86q-65.5 -97 -187.5 -97q-123 0 -188 95t-65 259q0 105 29 186t86 126t138 45q122 0 187.5 -96.5t65.5 -259.5q0 -161 -65.5 -258zM424 556q-39 71 -124 71t-124 -71.5t-39 -212.5q0 -140 39.5 -210.5t123.5 -70.5q85 0 124 70.5t39 211.5t-39 212zM47 503
l-65 -10l-71 196l99 16z" />
    <glyph glyph-name="uni1FF9" unicode="&#x1ff9;" 
d="M487.5 86q-65.5 -97 -187.5 -97q-123 0 -188 95t-65 259q0 105 29 186t86 126t138 45q122 0 187.5 -96.5t65.5 -259.5q0 -161 -65.5 -258zM424 556q-39 71 -124 71t-124 -71.5t-39 -212.5q0 -140 39.5 -210.5t123.5 -70.5q85 0 124 70.5t39 211.5t-39 212zM76 689
l-71 -196l-65 10l37 202z" />
    <glyph glyph-name="uni1FEC" unicode="&#x1fec;" 
d="M486 309q-71 -53 -195 -53h-89v-256h-86v689h175q127 0 196.5 -53t69.5 -159q0 -115 -71 -168zM420.5 585.5q-43.5 34.5 -118.5 34.5h-100v-295h97q78 0 121.5 34t43.5 117q0 75 -43.5 109.5zM42.5 690q15.5 -15 15.5 -38q0 -28 -22 -45l29 -117h-50l-51 107
q-15 35 -15 55q0 22 16 37.5t39 15.5t38.5 -15z" />
    <glyph glyph-name="uni1F59" unicode="&#x1f59;" 
d="M344 0h-88v265l-233 424h96l183 -346l185 346h90l-233 -423v-266zM-4.5 690q15.5 -15 15.5 -38q0 -28 -22 -45l29 -117h-50l-51 107q-15 35 -15 55q0 22 16 37.5t39 15.5t38.5 -15z" />
    <glyph glyph-name="uni1F5B" unicode="&#x1f5b;" 
d="M344 0h-88v265l-233 424h96l183 -346l185 346h90l-233 -423v-266zM-143.5 677.5q15.5 -15.5 15.5 -38.5q0 -13 -6 -25t-16 -20l30 -117h-51l-50 107q-15 33 -15 55q0 23 15.5 38.5t38.5 15.5t38.5 -15.5zM34 485l-57 -16l-68 199l77 19z" />
    <glyph glyph-name="uni1F5D" unicode="&#x1f5d;" 
d="M344 0h-88v265l-233 424h96l183 -346l185 346h90l-233 -423v-266zM-163.5 678.5q15.5 -15.5 15.5 -38.5q0 -13 -6 -25t-16 -19l30 -118h-51l-50 107q-9 19 -12.5 31t-3.5 24q0 23 16 38.5t39 15.5t38.5 -15.5zM8 668l-68 -199l-57 16l48 202z" />
    <glyph glyph-name="uni1F5F" unicode="&#x1f5f;" 
d="M344 0h-88v265l-233 424h96l183 -346l185 346h90l-233 -423v-266zM-119.5 592q-15.5 7 -34.5 20q-15 11 -25.5 16t-21.5 5q-16 0 -28 -11t-25 -35l-53 27q18 38 45 61t61 23q21 0 36 -7.5t34 -20.5q3 -2 12.5 -8t17.5 -9t16 -3q15 0 27 10.5t26 33.5l54 -27
q-19 -41 -46.5 -61.5t-60.5 -20.5q-19 0 -34.5 7zM-152 416l-20 35q-17 31 -23 47t-6 29q0 23 15.5 38t39.5 15q23 0 39 -15t16 -38q0 -32 -31 -49l20 -62h-50z" />
    <glyph glyph-name="uni1FEA" unicode="&#x1fea;" 
d="M344 0h-88v265l-233 424h96l183 -346l185 346h90l-233 -423v-266zM33 503l-65 -10l-71 196l99 16z" />
    <glyph glyph-name="uni1FEB" unicode="&#x1feb;" 
d="M344 0h-88v265l-233 424h96l183 -346l185 346h90l-233 -423v-266zM14 689l-71 -196l-65 10l37 202z" />
    <glyph glyph-name="uni1FE8" unicode="&#x1fe8;" 
d="M344 0h-88v265l-233 424h96l183 -346l185 346h90l-233 -423v-266zM201 791.5q-42 32.5 -47 86.5l57 13q25 -67 90 -67q34 0 58 18t35 49l58 -13q-6 -54 -49 -86.5t-102 -32.5q-58 0 -100 32.5z" />
    <glyph glyph-name="uni1FE9" unicode="&#x1fe9;" 
d="M344 0h-88v265l-233 424h96l183 -346l185 346h90l-233 -423v-266zM168 795v64h269v-64h-269z" />
    <glyph glyph-name="uni1F68" unicode="&#x1f68;" 
d="M177.5 561q-40.5 -66 -40.5 -212q0 -116 32.5 -184.5t96.5 -99.5v-65h-208v70h119q-65 34 -97.5 102t-32.5 177q0 110 31 189.5t88 120.5t134 41t134 -41t88 -120.5t31 -189.5q0 -108 -33 -176t-98 -103h120v-70h-207v65q63 31 95.5 99.5t32.5 184.5q0 146 -41 212
t-122 66q-82 0 -122.5 -66zM64 689.5q16 -15.5 16 -37.5q0 -20 -15 -55l-51 -107h-50l29 117q-22 17 -22 45q0 23 15.5 38t38.5 15t39 -15.5z" />
    <glyph glyph-name="uni1F69" unicode="&#x1f69;" 
d="M177.5 561q-40.5 -66 -40.5 -212q0 -116 32.5 -184.5t96.5 -99.5v-65h-208v70h119q-65 34 -97.5 102t-32.5 177q0 110 31 189.5t88 120.5t134 41t134 -41t88 -120.5t31 -189.5q0 -108 -33 -176t-98 -103h120v-70h-207v65q63 31 95.5 99.5t32.5 184.5q0 146 -41 212
t-122 66q-82 0 -122.5 -66zM22.5 690q15.5 -15 15.5 -38q0 -28 -22 -45l29 -117h-50l-51 107q-15 35 -15 55q0 22 16 37.5t39 15.5t38.5 -15z" />
    <glyph glyph-name="uni1F6A" unicode="&#x1f6a;" 
d="M177.5 561q-40.5 -66 -40.5 -212q0 -116 32.5 -184.5t96.5 -99.5v-65h-208v70h119q-65 34 -97.5 102t-32.5 177q0 110 31 189.5t88 120.5t134 41t134 -41t88 -120.5t31 -189.5q0 -108 -33 -176t-98 -103h120v-70h-207v65q63 31 95.5 99.5t32.5 184.5q0 146 -41 212
t-122 66q-82 0 -122.5 -66zM-130 676.5q16 -15.5 16 -37.5q0 -20 -15 -55l-51 -107h-50l29 117q-22 17 -22 45q0 23 15.5 38t38.5 15t39 -15.5zM42 485l-57 -16l-68 199l77 19z" />
    <glyph glyph-name="uni1F6B" unicode="&#x1f6b;" 
d="M177.5 561q-40.5 -66 -40.5 -212q0 -116 32.5 -184.5t96.5 -99.5v-65h-208v70h119q-65 34 -97.5 102t-32.5 177q0 110 31 189.5t88 120.5t134 41t134 -41t88 -120.5t31 -189.5q0 -108 -33 -176t-98 -103h120v-70h-207v65q63 31 95.5 99.5t32.5 184.5q0 146 -41 212
t-122 66q-82 0 -122.5 -66zM-135.5 677.5q15.5 -15.5 15.5 -38.5q0 -13 -6 -25t-16 -20l30 -117h-51l-50 107q-15 33 -15 55q0 23 15.5 38.5t38.5 15.5t38.5 -15.5zM42 485l-57 -16l-68 199l77 19z" />
    <glyph glyph-name="uni1F6C" unicode="&#x1f6c;" 
d="M177.5 561q-40.5 -66 -40.5 -212q0 -116 32.5 -184.5t96.5 -99.5v-65h-208v70h119q-65 34 -97.5 102t-32.5 177q0 110 31 189.5t88 120.5t134 41t134 -41t88 -120.5t31 -189.5q0 -108 -33 -176t-98 -103h120v-70h-207v65q63 31 95.5 99.5t32.5 184.5q0 146 -41 212
t-122 66q-82 0 -122.5 -66zM-103 676.5q16 -15.5 16 -37.5q0 -20 -15 -55l-51 -107h-50l29 117q-22 17 -22 45q0 23 15.5 38t38.5 15t39 -15.5zM62 668l-68 -199l-57 16l48 202z" />
    <glyph glyph-name="uni1F6D" unicode="&#x1f6d;" 
d="M177.5 561q-40.5 -66 -40.5 -212q0 -116 32.5 -184.5t96.5 -99.5v-65h-208v70h119q-65 34 -97.5 102t-32.5 177q0 110 31 189.5t88 120.5t134 41t134 -41t88 -120.5t31 -189.5q0 -108 -33 -176t-98 -103h120v-70h-207v65q63 31 95.5 99.5t32.5 184.5q0 146 -41 212
t-122 66q-82 0 -122.5 -66zM-102.5 678.5q15.5 -15.5 15.5 -38.5q0 -13 -6 -25t-16 -19l30 -118h-51l-50 107q-9 19 -12.5 31t-3.5 24q0 23 16 38.5t39 15.5t38.5 -15.5zM69 668l-68 -199l-57 16l48 202z" />
    <glyph glyph-name="uni1F6E" unicode="&#x1f6e;" 
d="M177.5 561q-40.5 -66 -40.5 -212q0 -116 32.5 -184.5t96.5 -99.5v-65h-208v70h119q-65 34 -97.5 102t-32.5 177q0 110 31 189.5t88 120.5t134 41t134 -41t88 -120.5t31 -189.5q0 -108 -33 -176t-98 -103h120v-70h-207v65q63 31 95.5 99.5t32.5 184.5q0 146 -41 212
t-122 66q-82 0 -122.5 -66zM-35.5 591q-15.5 7 -34.5 20q-15 11 -25.5 16t-21.5 5q-16 0 -28 -11t-25 -35l-54 27q41 84 107 84q20 0 36 -7.5t34 -20.5q16 -10 25.5 -15t20.5 -5q15 0 27 10.5t26 33.5l53 -27q-38 -82 -106 -82q-19 0 -34.5 7zM-83 477q-31 18 -31 49
q0 23 16 38t40 15q23 0 38.5 -15t15.5 -38q0 -13 -6 -29.5t-23 -46.5l-19 -35h-51z" />
    <glyph glyph-name="uni1F6F" unicode="&#x1f6f;" 
d="M177.5 561q-40.5 -66 -40.5 -212q0 -116 32.5 -184.5t96.5 -99.5v-65h-208v70h119q-65 34 -97.5 102t-32.5 177q0 110 31 189.5t88 120.5t134 41t134 -41t88 -120.5t31 -189.5q0 -108 -33 -176t-98 -103h120v-70h-207v65q63 31 95.5 99.5t32.5 184.5q0 146 -41 212
t-122 66q-82 0 -122.5 -66zM-37.5 592q-15.5 7 -34.5 20q-15 11 -25.5 16t-21.5 5q-16 0 -28 -11t-25 -35l-53 27q18 38 45 61t61 23q21 0 36 -7.5t34 -20.5q3 -2 12.5 -8t17.5 -9t16 -3q15 0 27 10.5t26 33.5l54 -27q-19 -41 -46.5 -61.5t-60.5 -20.5q-19 0 -34.5 7z
M-70 416l-20 35q-17 31 -23 47t-6 29q0 23 15.5 38t39.5 15q23 0 39 -15t16 -38q0 -32 -31 -49l20 -62h-50z" />
    <glyph glyph-name="uni1FFA" unicode="&#x1ffa;" 
d="M177.5 561q-40.5 -66 -40.5 -212q0 -116 32.5 -184.5t96.5 -99.5v-65h-208v70h119q-65 34 -97.5 102t-32.5 177q0 110 31 189.5t88 120.5t134 41t134 -41t88 -120.5t31 -189.5q0 -108 -33 -176t-98 -103h120v-70h-207v65q63 31 95.5 99.5t32.5 184.5q0 146 -41 212
t-122 66q-82 0 -122.5 -66zM47 503l-65 -10l-71 196l99 16z" />
    <glyph glyph-name="uni1FFB" unicode="&#x1ffb;" 
d="M177.5 561q-40.5 -66 -40.5 -212q0 -116 32.5 -184.5t96.5 -99.5v-65h-208v70h119q-65 34 -97.5 102t-32.5 177q0 110 31 189.5t88 120.5t134 41t134 -41t88 -120.5t31 -189.5q0 -108 -33 -176t-98 -103h120v-70h-207v65q63 31 95.5 99.5t32.5 184.5q0 146 -41 212
t-122 66q-82 0 -122.5 -66zM75 689l-71 -196l-65 10l37 202z" />
    <glyph glyph-name="uni1FFC" unicode="&#x1ffc;" 
d="M177.5 561q-40.5 -66 -40.5 -212q0 -116 32.5 -184.5t96.5 -99.5v-65h-208v70h119q-65 34 -97.5 102t-32.5 177q0 110 31 189.5t88 120.5t134 41t134 -41t88 -120.5t31 -189.5q0 -108 -33 -176t-98 -103h120v-70h-207v65q63 31 95.5 99.5t32.5 184.5q0 146 -41 212
t-122 66q-82 0 -122.5 -66zM292 -160.5q-29 27.5 -29 74.5v47h75v-45q0 -42 42 -42q18 0 30 4t27 13l33 -45q-45 -34 -97 -34t-81 27.5z" />
    <glyph glyph-name="uni1FA8" unicode="&#x1fa8;" 
d="M177.5 561q-40.5 -66 -40.5 -212q0 -116 32.5 -184.5t96.5 -99.5v-65h-208v70h119q-65 34 -97.5 102t-32.5 177q0 110 31 189.5t88 120.5t134 41t134 -41t88 -120.5t31 -189.5q0 -108 -33 -176t-98 -103h120v-70h-207v65q63 31 95.5 99.5t32.5 184.5q0 146 -41 212
t-122 66q-82 0 -122.5 -66zM64 689.5q16 -15.5 16 -37.5q0 -20 -15 -55l-51 -107h-50l29 117q-22 17 -22 45q0 23 15.5 38t38.5 15t39 -15.5zM292 -160.5q-29 27.5 -29 74.5v47h75v-45q0 -42 42 -42q18 0 30 4t27 13l33 -45q-45 -34 -97 -34t-81 27.5z" />
    <glyph glyph-name="uni1FA9" unicode="&#x1fa9;" 
d="M177.5 561q-40.5 -66 -40.5 -212q0 -116 32.5 -184.5t96.5 -99.5v-65h-208v70h119q-65 34 -97.5 102t-32.5 177q0 110 31 189.5t88 120.5t134 41t134 -41t88 -120.5t31 -189.5q0 -108 -33 -176t-98 -103h120v-70h-207v65q63 31 95.5 99.5t32.5 184.5q0 146 -41 212
t-122 66q-82 0 -122.5 -66zM22.5 690q15.5 -15 15.5 -38q0 -28 -22 -45l29 -117h-50l-51 107q-15 35 -15 55q0 22 16 37.5t39 15.5t38.5 -15zM292 -160.5q-29 27.5 -29 74.5v47h75v-45q0 -42 42 -42q18 0 30 4t27 13l33 -45q-45 -34 -97 -34t-81 27.5z" />
    <glyph glyph-name="uni1FAA" unicode="&#x1faa;" 
d="M177.5 561q-40.5 -66 -40.5 -212q0 -116 32.5 -184.5t96.5 -99.5v-65h-208v70h119q-65 34 -97.5 102t-32.5 177q0 110 31 189.5t88 120.5t134 41t134 -41t88 -120.5t31 -189.5q0 -108 -33 -176t-98 -103h120v-70h-207v65q63 31 95.5 99.5t32.5 184.5q0 146 -41 212
t-122 66q-82 0 -122.5 -66zM-130 676.5q16 -15.5 16 -37.5q0 -20 -15 -55l-51 -107h-50l29 117q-22 17 -22 45q0 23 15.5 38t38.5 15t39 -15.5zM42 485l-57 -16l-68 199l77 19zM292 -160.5q-29 27.5 -29 74.5v47h75v-45q0 -42 42 -42q18 0 30 4t27 13l33 -45
q-45 -34 -97 -34t-81 27.5z" />
    </font>
</defs>
</svg>
