<svg id="Layer_1" data-name="Layer 1" xmlns="http://www.w3.org/2000/svg" xmlns:xlink="http://www.w3.org/1999/xlink" viewBox="0 0 797.36 248.34"><defs><style>.cls-1,.cls-10,.cls-13,.cls-38,.cls-39,.cls-40,.cls-41,.cls-42,.cls-44,.cls-45,.cls-46,.cls-47,.cls-48,.cls-49,.cls-50,.cls-51,.cls-52,.cls-53,.cls-54,.cls-55,.cls-7,.cls-8,.cls-9{fill:none;}.cls-2{fill:#fafafd;}.cls-3{isolation:isolate;}.cls-4{clip-path:url(#clip-path);}.cls-5{fill:#669;}.cls-14,.cls-6{fill:#fff;}.cls-7{stroke:#eae6ef;}.cls-14,.cls-50,.cls-51,.cls-52,.cls-53,.cls-54,.cls-55,.cls-7{stroke-miterlimit:10;}.cls-8{stroke:#46348e;stroke-width:2.5px;}.cls-10,.cls-13,.cls-38,.cls-39,.cls-40,.cls-41,.cls-42,.cls-44,.cls-45,.cls-46,.cls-47,.cls-48,.cls-49,.cls-8,.cls-9{stroke-linecap:round;stroke-linejoin:round;}.cls-10,.cls-38,.cls-39,.cls-40,.cls-41,.cls-42,.cls-48,.cls-49,.cls-9{stroke:#39b54a;stroke-width:2px;}.cls-10{stroke-dasharray:0.97 5.83;}.cls-11,.cls-28{fill:#45328d;}.cls-12{fill:#c6bdd6;}.cls-13{stroke:#45328d;}.cls-13,.cls-44,.cls-45,.cls-46,.cls-47{stroke-width:3px;}.cls-14,.cls-44,.cls-45,.cls-46,.cls-47,.cls-50,.cls-51,.cls-52,.cls-53,.cls-54,.cls-55{stroke:#669;}.cls-14{stroke-width:4px;}.cls-15{fill:#2bb673;}.cls-16{fill:#c4e5da;}.cls-17{clip-path:url(#clip-path-2);}.cls-18,.cls-33{fill:#39945f;}.cls-19{clip-path:url(#clip-path-3);}.cls-20{clip-path:url(#clip-path-4);}.cls-21{clip-path:url(#clip-path-5);}.cls-22{clip-path:url(#clip-path-6);}.cls-23{clip-path:url(#clip-path-7);}.cls-24{clip-path:url(#clip-path-8);}.cls-25{clip-path:url(#clip-path-9);}.cls-26{clip-path:url(#clip-path-10);}.cls-27{clip-path:url(#clip-path-11);}.cls-28{font-size:20.54px;}.cls-28,.cls-33{font-family:AvenirNext-Regular, Avenir Next;}.cls-29{letter-spacing:-0.01em;}.cls-30{letter-spacing:-0.01em;}.cls-31{letter-spacing:-0.02em;}.cls-32{letter-spacing:-0.01em;}.cls-33{font-size:21.06px;}.cls-34{letter-spacing:-0.01em;}.cls-35{letter-spacing:-0.01em;}.cls-36{letter-spacing:-0.02em;}.cls-37{letter-spacing:-0.01em;}.cls-38{stroke-dasharray:0.96 5.77;}.cls-39{stroke-dasharray:1.02 6.15;}.cls-40{stroke-dasharray:0.95 5.68;}.cls-41{stroke-dasharray:1 6.02;}.cls-42{stroke-dasharray:1.04 6.21;}.cls-43{clip-path:url(#clip-path-12);}.cls-45{stroke-dasharray:1.06 8.45;}.cls-46{stroke-dasharray:1.1 8.83;}.cls-47{stroke-dasharray:1.04 8.35;}.cls-48{stroke-dasharray:0.88 5.27;}.cls-49{stroke-dasharray:0.95 5.68;}.cls-51{stroke-dasharray:1.89 1.89;}.cls-52{stroke-dasharray:1.42 1.42;}.cls-53{stroke-dasharray:2.12 2.12;}.cls-54{stroke-dasharray:1.18 1.18;}.cls-55{stroke-dasharray:1.91 1.91;}</style><clipPath id="clip-path" transform="translate(-3.83 -51.65)"><polygon class="cls-1" points="185.7 84.94 188.15 161.6 43.08 278.18 40.64 201.51 185.7 84.94"/></clipPath><clipPath id="clip-path-2" transform="translate(-3.83 -51.65)"><polygon class="cls-1" points="432.28 131.73 407.52 151.75 276.97 149.47 301.73 129.46 432.28 131.73"/></clipPath><clipPath id="clip-path-3" transform="translate(-3.83 -51.65)"><polygon class="cls-1" points="290.18 85.86 317.53 65.46 319.2 127.12 291.85 147.51 290.18 85.86"/></clipPath><clipPath id="clip-path-4" transform="translate(-3.83 -51.65)"><polygon class="cls-1" points="323.95 86.39 351.3 66 352.96 127.65 325.61 148.05 323.95 86.39"/></clipPath><clipPath id="clip-path-5" transform="translate(-3.83 -51.65)"><polygon class="cls-1" points="619.26 163.03 594.5 183.04 465.44 180.79 490.2 160.77 619.26 163.03"/></clipPath><clipPath id="clip-path-6" transform="translate(-3.83 -51.65)"><polygon class="cls-1" points="479.4 117.35 506.74 96.95 508.41 158.61 481.06 179 479.4 117.35"/></clipPath><clipPath id="clip-path-7" transform="translate(-3.83 -51.65)"><polygon class="cls-1" points="513.58 117.94 540.93 97.55 542.59 159.21 515.25 179.6 513.58 117.94"/></clipPath><clipPath id="clip-path-8" transform="translate(-3.83 -51.65)"><polygon class="cls-1" points="548.52 118.21 575.87 97.82 577.54 159.47 550.19 179.87 548.52 118.21"/></clipPath><clipPath id="clip-path-9" transform="translate(-3.83 -51.65)"><polygon class="cls-1" points="336.34 200.8 311.58 220.81 182.46 218.56 207.22 198.54 336.34 200.8"/></clipPath><clipPath id="clip-path-10" transform="translate(-3.83 -51.65)"><polygon class="cls-1" points="194.54 155.63 221.89 135.23 223.55 196.89 196.2 217.29 194.54 155.63"/></clipPath><clipPath id="clip-path-11" transform="translate(-3.83 -51.65)"><polygon class="cls-1" points="228.85 156.28 256.2 135.9 257.87 197.56 230.52 217.95 228.85 156.28"/></clipPath><clipPath id="clip-path-12" transform="translate(-3.83 -51.65)"><polygon class="cls-1" points="779.6 96.77 782.68 176.95 653.66 285.45 650.58 205.28 779.6 96.77"/></clipPath></defs><polygon class="cls-2" points="181.87 33.29 184.32 109.96 39.25 226.54 36.81 149.87 181.87 33.29"/><g class="cls-3"><g class="cls-4"><path class="cls-5" d="M93.3,192.49c-2,1.61-3,4.57-2.91,7.92.13,3.6,1.32,3.64,3.2,2.56,2.25-1.31,2.44-.66,2.48.42a4.89,4.89,0,0,1-1.95,4.34c-1.8,1.5-2.23.74-2.45-1.34,0-.25-.1-.35-.2-.26l-.88.73a.94.94,0,0,0-.19.67c.1,2.81.83,5.61,3.82,3.15,2.15-1.79,3.31-4.87,3.2-8.53s-1.16-3.7-3.27-2.63-2.38.89-2.42-.3a4.41,4.41,0,0,1,1.67-3.78c1.4-1.16,2-.85,2.24,1.26,0,.19.12.29.2.22l.89-.74.13-.28a2,2,0,0,0,0-.41c-.28-3.86-1.42-4.8-3.6-3m-2.33-12a2.76,2.76,0,0,0-.7,1l-6.45,15.18a9,9,0,0,0-.61,3.62l.69,19.09c0,1.25.35,2.19.82,2.44l1.88,1a1.34,1.34,0,0,0,1.6-.26c1.28-1.06,1.94-3.58,1.83-6.84l-.68-18.86c0-.28-.12-.41-.22-.33l-.87.72a1,1,0,0,0-.19.67l.68,18.86a4.17,4.17,0,0,1-.84,2.88.7.7,0,0,1-.74.12l-2-1.07c-.07,0-.11-.2-.12-.37l-.69-19.11a1.55,1.55,0,0,1,.09-.53L91,183.56a.35.35,0,0,1,.09-.15s.08,0,.11,0l7.14,3.9c.08,0,.11.17.12.37l.69,19.11a1.23,1.23,0,0,1-.09.53l-6.45,15.2a.39.39,0,0,1-.1.14.11.11,0,0,1-.11,0l-1.83-1.09a.08.08,0,0,0-.11,0,.35.35,0,0,0-.06.09,12,12,0,0,1-1,2c-.1.17-.26.48.09.65l2.39,1.4a.67.67,0,0,0,.73-.14,2.94,2.94,0,0,0,.7-1l6.46-15.2a9.09,9.09,0,0,0,.6-3.62l-.68-19.09c0-1.25-.37-2.18-.83-2.44L91.7,180.3a.66.66,0,0,0-.73.16" transform="translate(-3.83 -51.65)"/><path class="cls-5" d="M121,194.77l-.11.06c-.3.09-.5-.44-.46-1.19a2.25,2.25,0,0,1,.47-1.44.37.37,0,0,1,.12-.07c.3-.09.5.45.46,1.2a2.29,2.29,0,0,1-.48,1.44m-7.88,6.46c-.25.2-.48,0-.56-.59a3.09,3.09,0,0,1,.35-1.86l.11-.13c.25-.2.48,0,.56.59a3.07,3.07,0,0,1-.35,1.87l-.11.12M115.25,189l-.1-2.9,1.68-1.4c.16-.12.84-.57,1.13,1.33.08.61.31,2.55.44,3.15s.59,1.8,1,1.45l2.67-2.21.1-.11c-.17.77-.35,1.51-.54,2.21l-1.16.32-.09.06a2.12,2.12,0,0,0-.46,1.35l-.15,3.24a11,11,0,0,1-2.66,3.65,3,3,0,0,1-2.81.81l-.37-2.81c-.06-.53-.29-.73-.52-.54a.45.45,0,0,0-.09.1l-1.08,1.48a8.1,8.1,0,0,1-.62-1.14l5.35-4.43a.24.24,0,0,0,.09-.23l-.16-4.59c0-.13,0-.13-.11-.08L115.25,189m-.26-7.28-.11-3,2.2-1.82c.12-.1.82-.36.87.92A2.83,2.83,0,0,1,117,180l-2,1.69m-4.56,11.07a31.25,31.25,0,0,1-.4-4.17c0-.58,0-1.17,0-1.74l1.11-2.17a3.13,3.13,0,0,0,.19-1.77l-.29-1.09.94-.77.36,10.16-1.88,1.55m12.33-18.24a.34.34,0,0,1-.22.07c-.27-.06-.43-.72-.32-1.49a2,2,0,0,1,.46-1.19.31.31,0,0,1,.22-.07c.27.06.42.72.32,1.49a2,2,0,0,1-.46,1.19M110.09,185c-.2.17-.41.05-.52-.37a3.29,3.29,0,0,1,.2-1.93,1,1,0,0,1,.2-.27c.21-.17.42-.05.53.37a3.26,3.26,0,0,1-.2,1.92,1,1,0,0,1-.21.28m6-14.95a1.31,1.31,0,0,0,.32-.61l.84-2.89c1.94-.73,3.67.84,4.76,4l-.51,3.95c-.09.68,0,1.28.31,1.35l1.25.32c0,.56.07,1.08.09,1.6s0,.79,0,1.19l-.67.56a.48.48,0,0,0-.07.35l0,.74c.07,1.77-.34,2.48-.69,2.87l-.09.09c-.31.26-.64.11-.71-.31-.3-2.6-.66-2.9-1.22-3.47a14.46,14.46,0,0,0,1.18-5.64c-.08-2.18-.74-3-1.18-3.34a1.19,1.19,0,0,0-1.45,0l-7,5.75a23.14,23.14,0,0,1,3.48-8.06l.9,1.41a.22.22,0,0,0,.36.07m-.06-2a.24.24,0,0,1-.39-.08,2.66,2.66,0,0,1,0-1.86,1.34,1.34,0,0,1,.36-.67.24.24,0,0,1,.39.08,2.8,2.8,0,0,1,.06,1.84,1.4,1.4,0,0,1-.37.69m-.21-6.48a.86.86,0,0,0-.2.48l-.4,2.22a2,2,0,0,1-.22.26l-.66-1.07c-.06-.08-.12-.11-.19-.05a.22.22,0,0,0-.06.07,1,1,0,0,0-.18.55l-.23,2.27c-.08.14-.14.22-.21.33l-.77-.66a.11.11,0,0,0-.15,0,.36.36,0,0,0-.1.13,1.71,1.71,0,0,0-.14.62l-.06,2.23-.19.4-.84-.22a.11.11,0,0,0-.1,0,.63.63,0,0,0-.14.25,1.51,1.51,0,0,0-.1.64l.1,2.13c-.06.17-.1.3-.15.47l-.87.21-.07,0a.62.62,0,0,0-.17.32,1.52,1.52,0,0,0,0,.63l.28,1.91c-.05.16-.08.35-.13.52l-.88.66a.85.85,0,0,0-.22.47,1.44,1.44,0,0,0,0,.62l.43,1.66c0,.19-.06.37-.08.58l-.86,1.06a1.26,1.26,0,0,0-.18.53,1.34,1.34,0,0,0,0,.59l.58,1.32a5.66,5.66,0,0,0,0,.57l-.8,1.45a1.18,1.18,0,0,0-.15.6.83.83,0,0,0,.1.52l.7.89c0,.18,0,.38,0,.57l-.72,1.76a1.67,1.67,0,0,0-.11.63c0,.22.07.39.15.42l.79.5c0,.17,0,.35,0,.53l-.59,2a1.58,1.58,0,0,0-.06.64c0,.21.09.34.18.33l.86.09c0,.15.06.29.09.45l-.46,2.18a1.48,1.48,0,0,0,0,.63c0,.18.13.24.21.2l.88-.38a3.37,3.37,0,0,1,.12.41l-.29,2.26a1.39,1.39,0,0,0,0,.59c.06.14.15.17.24.09l.88-.8a2.49,2.49,0,0,0,.15.29l-.12,2.25a.9.9,0,0,0,.08.53.11.11,0,0,0,.18,0l.07-.08.84-1.19c0,.07.12.12.17.19l.05,2.17a.68.68,0,0,0,.13.46.12.12,0,0,0,.16,0l.1-.13.77-1.56a.57.57,0,0,0,.22.07l.21,2c0,.2.08.34.16.37a.14.14,0,0,0,.11,0,.78.78,0,0,0,.15-.25l.67-1.83a.83.83,0,0,0,.22,0l.39,1.76c0,.19.11.29.2.23s0,0,0,0a.66.66,0,0,0,.18-.34l.55-2.07a1.38,1.38,0,0,1,.22-.1l.53,1.44c0,.15.14.2.22.13a.86.86,0,0,0,.21-.49l.39-2.21c.08-.1.16-.16.22-.25l.66,1.07c0,.08.12.11.18.05a.22.22,0,0,0,.06-.07,1,1,0,0,0,.18-.55l.24-2.28c.08-.13.14-.2.21-.33l.76.66a.1.1,0,0,0,.15,0,.5.5,0,0,0,.11-.13,1.71,1.71,0,0,0,.13-.62l.06-2.23a3.11,3.11,0,0,1,.2-.41l.83.23a.1.1,0,0,0,.1,0,.63.63,0,0,0,.15-.25,1.68,1.68,0,0,0,.09-.64l-.1-2.13c.06-.17.11-.3.15-.46l.88-.23.07,0a.63.63,0,0,0,.16-.32,1.36,1.36,0,0,0,0-.63l-.27-1.91c0-.16.08-.35.12-.52l.88-.66a.74.74,0,0,0,.22-.47,1.49,1.49,0,0,0,0-.63L124,187c0-.19.06-.37.08-.58l.86-1.05a1.36,1.36,0,0,0,.19-.54,1.19,1.19,0,0,0,0-.59l-.58-1.32c0-.2,0-.37,0-.57l.8-1.45a1.21,1.21,0,0,0,.14-.6.91.91,0,0,0-.09-.52l-.7-.94c0-.19,0-.38,0-.53l.72-1.77a1.58,1.58,0,0,0,.1-.62c0-.21-.08-.4-.16-.43l-.79-.52c0-.17,0-.36,0-.49l.59-2a1.58,1.58,0,0,0,.06-.64c0-.21-.09-.34-.18-.33l-.86-.07c0-.17-.05-.32-.08-.47l.45-2.17a1.54,1.54,0,0,0,0-.64c0-.19-.13-.24-.22-.2l-.88.38c0-.12-.07-.25-.12-.41l.3-2.26a1.23,1.23,0,0,0,0-.59c-.06-.14-.15-.17-.24-.1l-.88.81a1.11,1.11,0,0,0-.15-.29l.13-2.25a.87.87,0,0,0-.09-.53c0-.07-.11-.09-.18,0a.28.28,0,0,0-.06.08l-.84,1.19c0-.08-.12-.12-.17-.2l-.06-2.17a.57.57,0,0,0-.13-.44.1.1,0,0,0-.16,0l-.1.13-.77,1.56a.38.38,0,0,0-.21-.07l-.21-2c0-.2-.09-.34-.17-.37a.12.12,0,0,0-.11,0,.53.53,0,0,0-.14.23l-.68,1.86a1.5,1.5,0,0,1-.22,0l-.38-1.76c0-.19-.12-.28-.2-.24a.1.1,0,0,0-.05,0,.63.63,0,0,0-.19.34l-.52,2a.54.54,0,0,1-.23.11l-.53-1.44c-.06-.15-.14-.2-.23-.13" transform="translate(-3.83 -51.65)"/><path class="cls-5" d="M139.63,133.61l-.06.09a.93.93,0,0,0-.08.5,21,21,0,0,1-.19,5.47,23.09,23.09,0,0,1-1.29,4.2,36.05,36.05,0,0,0-2.22,8.12c-.75,5.74,2.3,8.8,2.43,8.93h.1l.09-.17a.91.91,0,0,0,0-.51,32.87,32.87,0,0,1-1.3-7.53,19.53,19.53,0,0,1,1.3-5.23,44.84,44.84,0,0,0,1.72-6.17,14.52,14.52,0,0,0-.4-7.64c0-.08-.08-.1-.13-.06" transform="translate(-3.83 -51.65)"/><path class="cls-5" d="M141.69,141.88l-.05.06c-.15.27-3.57,6.53-3.43,10.55a9.35,9.35,0,0,0,1,4.59,3.15,3.15,0,0,1,.33.85,14.49,14.49,0,0,1-.15,3.27.58.58,0,0,0,0,.42h.11l.09-.15a16.43,16.43,0,0,0,1-6.54,8,8,0,0,0-.63-2.23,4.94,4.94,0,0,1-.31-3.27,59.71,59.71,0,0,1,2-6.95.88.88,0,0,0,0-.53c0-.1-.09-.13-.15-.08" transform="translate(-3.83 -51.65)"/><path class="cls-5" d="M136.31,162.37c-.48.4-2.93,2.52-3.12,4.62a2.71,2.71,0,0,0,.13,1.2c.43,1,1.82.56,3.91-1.16l.89-.77a17.25,17.25,0,0,0,4.52-6.76,1,1,0,0,0,0-.5q-.06-.15-.15-.09l0,.05a27.15,27.15,0,0,1-4.86,5.11c-1.7,1.41-2.58,1.83-2.8,1.78a10,10,0,0,1,1.56-2.75.87.87,0,0,0,.12-.52c0-.18-.09-.28-.18-.21" transform="translate(-3.83 -51.65)"/><path class="cls-5" d="M144.27,155.14a6.61,6.61,0,0,0-1.33,2,.92.92,0,0,0-.07.49c0,.17.09.23.16.17s1.48-1.19,1.68.72c.18,1.65-1.21,5.71-1.76,7.13a1,1,0,0,0,0,.52c0,.12.09.17.16.12l0,0c.14-.18,3.33-4.62,2.82-9-.31-2.65-1.07-2.63-1.64-2.16" transform="translate(-3.83 -51.65)"/><path class="cls-5" d="M135.81,168.36l0,0a4.7,4.7,0,0,0-1.07,2.85c.1,1.4,1.5,1,2.66.24a6.4,6.4,0,0,0,.53-.39,31.52,31.52,0,0,0,4.35-5.13.82.82,0,0,0,.11-.39.51.51,0,0,0-.08-.33l-.83-.69-.13.06a24.76,24.76,0,0,1-2,2.51,13.87,13.87,0,0,1-1.51,1.46c-1.19,1-2,1.27-2.09,1.12l0-.11a1.92,1.92,0,0,1,.19-.54.91.91,0,0,0,.08-.55c0-.15-.1-.2-.16-.15" transform="translate(-3.83 -51.65)"/><path class="cls-5" d="M136.45,172.9a3.43,3.43,0,0,0-1,2.43,2.29,2.29,0,0,0,.2,1c.36.68,1.28.51,2.79-.53.18-.12.36-.26.54-.4a14.6,14.6,0,0,0,3.21-4.22,1,1,0,0,0,.08-.4c0-.14,0-.26-.09-.29l-1-.65-.12.05s-.62.85-1.55,1.94a5.77,5.77,0,0,1-.66.63,4.79,4.79,0,0,1-2.23,1.2l0-.18a.91.91,0,0,0,.05-.49c0-.14-.1-.19-.17-.13" transform="translate(-3.83 -51.65)"/><path class="cls-5" d="M135,177.48a0,0,0,0,0,0,0l-.18.17c-1.23,1.21-2.65,2.81-2.67,4.41a2.35,2.35,0,0,0,.22,1.14c.37.64,1.38,1.05,5.84-2.64s6.69-7.48,7.09-9.05a3.58,3.58,0,0,0,.13-1.22c-.06-.61-.31-.82-.34-.83a.06.06,0,0,0-.09,0,.38.38,0,0,0-.11.23.83.83,0,0,0,0,.5.64.64,0,0,1,0,.46,24.52,24.52,0,0,1-5,6.21c-.42.41-.85.79-1.3,1.16-2.73,2.25-4.76,3-5,2.68a9.7,9.7,0,0,1,1.51-2.52.82.82,0,0,0,.12-.54c0-.18-.1-.26-.17-.19" transform="translate(-3.83 -51.65)"/><path class="cls-5" d="M146.11,171.17a.37.37,0,0,0-.12.22,16.33,16.33,0,0,1-2.55,4.87,27.44,27.44,0,0,1-4.22,4.06c-2.06,1.71-4,3.12-4,3.14h0a.68.68,0,0,0-.14.46c0,.2.05.35.13.34a14.2,14.2,0,0,0,4.92-2.86,26.32,26.32,0,0,0,3.86-4,10.61,10.61,0,0,0,2.33-5.93c0-.17,0-.3-.1-.33l-.06,0" transform="translate(-3.83 -51.65)"/><path class="cls-5" d="M66.43,210.56c-.21.17-.39-.1-.41-.6a1.75,1.75,0,0,1,.35-1.23c.21-.17.39.09.41.6a1.77,1.77,0,0,1-.35,1.23m2.1-8.53-.64.53c-1.68,1.39-2.92,5.81-2.77,9.9,0,.61.24.94.49.73l2.88-2.38.07,1.78-4.44,3.67c-1.68,1.39-2.92,5.82-2.77,9.91l0,1.56c.15,4.08,1.63,6.27,3.31,4.88l.57-.48a2.1,2.1,0,0,0,.42-1.47l-.18-5.06a2.16,2.16,0,0,1,.41-1.48l5.89-4.87a2.11,2.11,0,0,0,.41-1.48l-.39-10.87c-.14-4.09-1.63-6.26-3.31-4.87" transform="translate(-3.83 -51.65)"/><path class="cls-5" d="M72.19,235.6c-.2.17-.39-.1-.4-.61a1.76,1.76,0,0,1,.34-1.22c.2-.17.39.1.41.6a1.81,1.81,0,0,1-.35,1.23m1.66-23.88-.58.48a2.13,2.13,0,0,0-.41,1.47l.18,5.06a2.18,2.18,0,0,1-.41,1.48l-5.89,4.87a2.14,2.14,0,0,0-.42,1.48l.39,10.87c.15,4.09,1.63,6.26,3.31,4.87l.65-.53c1.68-1.39,2.92-5.82,2.77-9.9,0-.61-.24-.94-.49-.73l-2.88,2.38L70,231.74l4.44-3.67c1.68-1.39,2.92-5.82,2.77-9.91l0-1.56c-.15-4.08-1.63-6.27-3.31-4.88" transform="translate(-3.83 -51.65)"/><path class="cls-5" d="M158,144.3l-.07.06h0l0,0a3,3,0,0,0-.78,1.24,3.5,3.5,0,0,0-.2,1.06c0,.11.05.19.11.18l0,0v.07a.72.72,0,0,0,.13.49.41.41,0,0,0,.11-.07,1.78,1.78,0,0,0,.47-.83,1.82,1.82,0,0,1,.18-.37c.07-.11.09-.14.08-.55v-.5l0-.79" transform="translate(-3.83 -51.65)"/><path class="cls-5" d="M157.92,144.15a3.4,3.4,0,0,0-.84,1.34,3.58,3.58,0,0,0-.24,1.3c0,.17.07.28.14.31,0,.3.08.52.2.57a.18.18,0,0,0,.15,0,3.08,3.08,0,0,0,.53-1,2.53,2.53,0,0,1,.16-.33.22.22,0,0,0,0-.08v-.43l0-.71v.5c0,.41,0,.44-.08.55a1.82,1.82,0,0,0-.18.37,1.78,1.78,0,0,1-.47.83.41.41,0,0,1-.11.07.72.72,0,0,1-.13-.49v-.07l0,0c-.06,0-.09-.07-.11-.18a3.5,3.5,0,0,1,.2-1.06,3,3,0,0,1,.78-1.24l0,0h0l.07-.06c0-.07,0-.14,0-.21l-.08.06" transform="translate(-3.83 -51.65)"/><path class="cls-5" d="M157.83,126a2.5,2.5,0,0,0-.63,1,7.2,7.2,0,0,0-.47,3.15c.09.83.38,1.28.84,1.29,0-.29.05-.58.08-.87a22.19,22.19,0,0,1,.89-4.64.64.64,0,0,0-.7.1h0" transform="translate(-3.83 -51.65)"/><path class="cls-5" d="M157.85,125.75a2.74,2.74,0,0,0-.7,1.07,8,8,0,0,0-.51,3.42c.09.91.42,1.4.92,1.4,0-.08,0-.17,0-.25-.46,0-.75-.46-.84-1.29a7.2,7.2,0,0,1,.47-3.15,2.5,2.5,0,0,1,.63-1h0a.64.64,0,0,1,.7-.1l.07-.22a.58.58,0,0,0-.76.09" transform="translate(-3.83 -51.65)"/><path class="cls-5" d="M167.19,117.7a2.55,2.55,0,0,0-.68,1.13,5.53,5.53,0,0,1,1,1.91c.13.54.25,1.11.35,1.7a5.57,5.57,0,0,0,.69-2.71c0-1.1-.28-1.94-.71-2.16a.54.54,0,0,0-.6.13" transform="translate(-3.83 -51.65)"/><path class="cls-5" d="M167.18,117.48a3.09,3.09,0,0,0-.76,1.25l.09.1a2.55,2.55,0,0,1,.68-1.13.54.54,0,0,1,.6-.13c.43.22.7,1.06.71,2.16a5.57,5.57,0,0,1-.69,2.71l0,.19a6.06,6.06,0,0,0,.76-3c0-1.2-.31-2.1-.77-2.33a.61.61,0,0,0-.65.14" transform="translate(-3.83 -51.65)"/><path class="cls-5" d="M168,153.47a18.21,18.21,0,0,1-.72,1.91,1.3,1.3,0,0,1,.47.6c.14.36.34.55.57.53a1.08,1.08,0,0,0,.25-.48,2.86,2.86,0,0,1-.07-.28,1.71,1.71,0,0,0-.21-.65V155l.07-.07a2.08,2.08,0,0,1,.23.68l.06.25a2.1,2.1,0,0,0,.11-.75,2.12,2.12,0,0,0-.76-1.59" transform="translate(-3.83 -51.65)"/><path class="cls-5" d="M167.3,155.38a1.63,1.63,0,0,1-.11.23,1,1,0,0,1,.52.58c.2.34.4.7.63.55l0,0a1.42,1.42,0,0,0,.29-.58l0,0,0-.09a1.08,1.08,0,0,1-.25.48c-.23,0-.43-.17-.57-.53a1.3,1.3,0,0,0-.47-.6m.8-2.21c0,.1,0,.2-.08.3a2.12,2.12,0,0,1,.76,1.59,2.1,2.1,0,0,1-.11.75l0,.11v.13h0a2.73,2.73,0,0,0,.22-1.14,2.32,2.32,0,0,0-.81-1.73" transform="translate(-3.83 -51.65)"/><path class="cls-5" d="M168.38,154.88l-.07.07v.15a1.71,1.71,0,0,1,.21.65,2.86,2.86,0,0,0,.07.28l0,.09,0,0h0l0,0v-.17l0-.11-.06-.25a2.08,2.08,0,0,0-.23-.68" transform="translate(-3.83 -51.65)"/><path class="cls-5" d="M159.78,160.58l0,0-.11.32c-.36,1-.81,2.11-.5,2.9l.06.05h0a4.8,4.8,0,0,1,.13-.87l.09-.49.06-.11,0,.13c0,.18-.06.37-.09.53a4,4,0,0,0-.11.84c0,.14.11.22.19.23l.06,0a.88.88,0,0,0,.22-.35c.13-.32.26-.66.37-1a6.77,6.77,0,0,1,.62-1.47,1.87,1.87,0,0,1-1-.65" transform="translate(-3.83 -51.65)"/><path class="cls-5" d="M159.71,160.5l-.12.31c-.35.91-.88,2.31-.5,3.24,0,.08.09.1.14.07.06.18.15.29.26.27l.09-.07a1.09,1.09,0,0,0,.26-.38c.14-.33.27-.69.39-1.07a5.06,5.06,0,0,1,.67-1.51l.08-.07,0,0-.18,0a6.77,6.77,0,0,0-.62,1.47c-.11.37-.24.71-.37,1a.88.88,0,0,1-.22.35l-.06,0c-.08,0-.15-.09-.19-.23v0l0,.15h0l-.06-.06v-.16h0l-.06-.05c-.31-.79.14-1.94.5-2.9l.11-.32,0,0-.07-.08" transform="translate(-3.83 -51.65)"/><path class="cls-5" d="M159.49,162.39l-.06.11-.09.49a4.8,4.8,0,0,0-.13.87V164l.06.06h0l0-.15v0a4,4,0,0,1,.11-.84c0-.16.07-.35.09-.53l0-.13" transform="translate(-3.83 -51.65)"/><path class="cls-5" d="M168.7,135.3c0,.21,0,.42,0,.62,0,.39,0,.77.07,1.16a.38.38,0,0,1,.13.06.32.32,0,0,0,.49,0l.11-.11a1.68,1.68,0,0,0,.1-.67v-.09l0,0a.77.77,0,0,0,.09-.34.93.93,0,0,0-.27-.66.59.59,0,0,0-.78,0" transform="translate(-3.83 -51.65)"/><path class="cls-5" d="M168.68,135.07c0,.08,0,.16,0,.23a.59.59,0,0,1,.78,0,.93.93,0,0,1,.27.66.77.77,0,0,1-.09.34l0,0v.09a1.68,1.68,0,0,1-.1.67l-.11.11a.32.32,0,0,1-.49,0,.38.38,0,0,0-.13-.06v.25a.14.14,0,0,1,.08,0,.46.46,0,0,0,.55,0l0,0a.59.59,0,0,0,.14-.19,2.09,2.09,0,0,0,.15-.84,1.47,1.47,0,0,0,.1-.53,1.2,1.2,0,0,0-.31-.84.68.68,0,0,0-.89.09" transform="translate(-3.83 -51.65)"/><path class="cls-5" d="M162,129.93a3,3,0,0,1,.6-2l.18-.17c.33-.28.68-.24.79.39a2.34,2.34,0,0,1,0,.46,1,1,0,0,1,.68.93,2.63,2.63,0,0,1-.4,1.75l0,0a.74.74,0,0,1-.22.08,2.73,2.73,0,0,0,0,.41c0,.44.05.9.05,1.39v0a1.86,1.86,0,0,1-.25.66l-.08.14,0,0h0c-.16.07-.31,0-.4-.29a2,2,0,0,1-.38.86l-.15,0c-.22-.11-.39-1-.35-1.95h0c-.15.13-.29.11-.41-.23a3.1,3.1,0,0,1,0-1.35,3.25,3.25,0,0,1,.41-1.18m-1.47,1.41a.86.86,0,0,1-.87.22c-.4-.16-.7-.77-.84-1.67a9,9,0,0,1,.4-4.06,4.4,4.4,0,0,1,1.16-1.93,1,1,0,0,1,.77-.27c.55.1.94,1,1,2.35a7.94,7.94,0,0,1-1.31,5.07,2.74,2.74,0,0,1-.31.29m4.1-3.82a.92.92,0,0,1-.6.25c-.57,0-1-.75-1.15-2a9.79,9.79,0,0,1,.33-3.22,5.85,5.85,0,0,1,1.06-2.2,1.82,1.82,0,0,1,.27-.28.84.84,0,0,1,.87-.21,2.31,2.31,0,0,1,.8,1.74,8.44,8.44,0,0,1-.3,3.8,4.79,4.79,0,0,1-1.2,2.1l0,0,0,0m-2-8a3.74,3.74,0,0,0-.31.27c-2.06,2.13-4.06,4.86-4.62,10.65a55.27,55.27,0,0,0,.12,9.85q.23,2.59.3,5.34c0,.86,0,1.8,0,2.78,0,3.86,0,8.26.94,10.63.38,1,1.59,3.1,4.41,1,.1-.08.22-.17.34-.28,1.36-1.12,3.88-3.9,4.73-9.41a61.31,61.31,0,0,0,.11-13.11c0-.46-.06-.87-.08-1.29-.08-1.39-.15-2.85-.2-4.28a57.21,57.21,0,0,0-1.06-10.8c-.48-1.62-1.26-2.52-2.17-2.52a4.77,4.77,0,0,0-2.52,1.17" transform="translate(-3.83 -51.65)"/><path class="cls-5" d="M163.87,159.8c-.12.11-.24.2-.34.28-2.82,2.1-4,0-4.41-1-.92-2.37-.93-6.77-.94-10.63,0-1,0-1.92,0-2.78q-.07-2.74-.3-5.34a55.27,55.27,0,0,1-.12-9.85c.56-5.79,2.56-8.52,4.62-10.65a3.74,3.74,0,0,1,.31-.27,4.77,4.77,0,0,1,2.52-1.17c.91,0,1.69.9,2.17,2.52a57.21,57.21,0,0,1,1.06,10.8c0,1.43.12,2.89.2,4.28,0,.42.07.83.08,1.29a61.31,61.31,0,0,1-.11,13.11c-.85,5.51-3.37,8.29-4.73,9.41m-1.38-40.28-.14.12a14.84,14.84,0,0,0-2.95,4.08,14,14,0,0,0-.79,1.94l-.07.22a22.19,22.19,0,0,0-.89,4.64c0,.29-.06.58-.08.87,0,.08,0,.17,0,.25a59.41,59.41,0,0,0,.21,8.84c.1,1.18.17,2.39.23,3.61,0,.07,0,.14,0,.21l0,.79,0,.71v.43c0,.74,0,1.53,0,2.34,0,3.9,0,8.32,1,10.76a4.93,4.93,0,0,0,.67,1.17l.07.08a1.87,1.87,0,0,0,1,.65l.18,0h.12a3.72,3.72,0,0,0,2.45-.88l.35-.29a12.6,12.6,0,0,0,3.31-4.49,1.63,1.63,0,0,0,.11-.23,18.21,18.21,0,0,0,.72-1.91c0-.1.06-.2.08-.3a20.6,20.6,0,0,0,.6-2.71,61.56,61.56,0,0,0,.13-13.13v-.25c0-.39-.06-.77-.07-1.16,0-.2,0-.41,0-.62s0-.15,0-.23c-.06-1.14-.1-2.31-.15-3.45a74.74,74.74,0,0,0-.69-9l0-.19c-.1-.59-.22-1.16-.35-1.7a5.53,5.53,0,0,0-1-1.91l-.09-.1c-1.09-1.14-2.51-.39-3.93.79" transform="translate(-3.83 -51.65)"/><path class="cls-6" d="M163.83,126c-.27.22-.5-.16-.53-.84a2.43,2.43,0,0,1,.44-1.65c.27-.22.5.16.53.85a2.4,2.4,0,0,1-.44,1.64m.78-5.8a2.2,2.2,0,0,0-.29.31c-.85.88-1.44,3.14-1.32,5.1.12,1.21.54,2,1.08,1.92a1,1,0,0,0,.61-.27,4.61,4.61,0,0,0,1.18-2,8.29,8.29,0,0,0,.27-3.54c-.21-1.47-.85-2-1.53-1.49" transform="translate(-3.83 -51.65)"/><path class="cls-5" d="M164.69,127.26a1,1,0,0,1-.61.27c-.54,0-1-.71-1.08-1.92-.12-2,.47-4.22,1.32-5.1a2.2,2.2,0,0,1,.29-.31c.68-.56,1.32,0,1.53,1.49a8.29,8.29,0,0,1-.27,3.54,4.61,4.61,0,0,1-1.18,2m-.13-7.23a1.82,1.82,0,0,0-.27.28,5.85,5.85,0,0,0-1.06,2.2,9.79,9.79,0,0,0-.33,3.22c.13,1.29.58,2.08,1.15,2a.92.92,0,0,0,.6-.25l0,0,0,0a4.79,4.79,0,0,0,1.2-2.1,8.44,8.44,0,0,0,.3-3.8,2.31,2.31,0,0,0-.8-1.74.84.84,0,0,0-.87.21" transform="translate(-3.83 -51.65)"/><path class="cls-6" d="M159.71,129.73c-.27.22-.51-.16-.53-.85a2.42,2.42,0,0,1,.44-1.65c.28-.23.52.15.54.84a2.37,2.37,0,0,1-.45,1.66m.71-5.59a4.22,4.22,0,0,0-1.11,1.83,8.54,8.54,0,0,0-.36,3.8c.22,1.45.88,2,1.55,1.45a2.19,2.19,0,0,0,.35-.38,7.26,7.26,0,0,0,1.24-4.74c-.06-1.25-.42-2.13-.94-2.22a.89.89,0,0,0-.73.26" transform="translate(-3.83 -51.65)"/><path class="cls-5" d="M160.5,131.22c-.67.56-1.33,0-1.55-1.45a8.54,8.54,0,0,1,.36-3.8,4.22,4.22,0,0,1,1.11-1.83.89.89,0,0,1,.73-.26c.52.09.88,1,.94,2.22a7.26,7.26,0,0,1-1.24,4.74,2.19,2.19,0,0,1-.35.38m-.1-7.32a4.4,4.4,0,0,0-1.16,1.93,9,9,0,0,0-.4,4.06c.14.9.44,1.51.84,1.67a.86.86,0,0,0,.87-.22,2.74,2.74,0,0,0,.31-.29,7.94,7.94,0,0,0,1.31-5.07c-.06-1.33-.45-2.25-1-2.35a1,1,0,0,0-.77.27" transform="translate(-3.83 -51.65)"/><path class="cls-5" d="M163,131.44l0,0a4.34,4.34,0,0,1,0,.51c0,.51,0,1,0,1.49v0c.06.25.19.36.33.31l.07-.14a1.22,1.22,0,0,0,.2-.5c0-.44,0-.88-.05-1.29,0-.16,0-.33,0-.49l-.09,0a.54.54,0,0,0-.45.09" transform="translate(-3.83 -51.65)"/><path class="cls-6" d="M163,131.46l0,0c0,.14,0,.29,0,.43,0,.53,0,1,.06,1.52v.08a1.85,1.85,0,0,1,0,.23c.09.25.24.36.4.29h0l0,0,.08-.14a1.86,1.86,0,0,0,.25-.66v0c0-.49,0-.95-.05-1.39a2.73,2.73,0,0,1,0-.41h-.1c0,.16,0,.33,0,.49,0,.41.05.85.05,1.29a1.22,1.22,0,0,1-.2.5l-.07.14c-.14.05-.27-.06-.33-.31v0c0-.48,0-1,0-1.49a4.34,4.34,0,0,0,0-.51" transform="translate(-3.83 -51.65)"/><path class="cls-5" d="M159.91,128.9c-.06,0-.12-.05-.13-.22a.68.68,0,0,1,.11-.42c.07-.06.12,0,.13.22a.59.59,0,0,1-.11.42m-.29-1.67a2.42,2.42,0,0,0-.44,1.65c0,.69.26,1.07.53.85a2.37,2.37,0,0,0,.45-1.66c0-.69-.26-1.07-.54-.84" transform="translate(-3.83 -51.65)"/><path class="cls-5" d="M159.89,128.26a.68.68,0,0,0-.11.42c0,.17.07.27.13.22a.59.59,0,0,0,.11-.42c0-.18-.06-.28-.13-.22" transform="translate(-3.83 -51.65)"/><path class="cls-5" d="M164,125.17c-.06,0-.11,0-.12-.22a.62.62,0,0,1,.1-.41c.07-.05.12,0,.13.22a.55.55,0,0,1-.11.41m-.28-1.66a2.43,2.43,0,0,0-.44,1.65c0,.68.26,1.06.53.84a2.4,2.4,0,0,0,.44-1.64c0-.69-.26-1.07-.53-.85" transform="translate(-3.83 -51.65)"/><path class="cls-5" d="M164,124.54a.62.62,0,0,0-.1.41c0,.18.06.27.12.22a.55.55,0,0,0,.11-.41c0-.17-.06-.27-.13-.22" transform="translate(-3.83 -51.65)"/><path class="cls-5" d="M162.82,131.61a2.24,2.24,0,0,0-.29.44,3.75,3.75,0,0,1-.35.53c0,.8.09,1.71.29,1.8a.1.1,0,0,0,.09,0,2,2,0,0,0,.32-.84c0-.48-.06-1-.06-1.52,0-.12,0-.25,0-.39" transform="translate(-3.83 -51.65)"/><path class="cls-6" d="M162.94,131.48l-.12.13c0,.14,0,.27,0,.39,0,.53,0,1,.06,1.52a2,2,0,0,1-.32.84.1.1,0,0,1-.09,0c-.2-.09-.33-1-.29-1.8a.57.57,0,0,1-.11.11c0,.95.13,1.84.35,1.95l.15,0a2,2,0,0,0,.38-.86,1.85,1.85,0,0,0,0-.23v-.08c0-.48-.06-1-.06-1.52,0-.14,0-.29,0-.43" transform="translate(-3.83 -51.65)"/><path class="cls-5" d="M163.57,128.82c0,.09,0,.18-.07.27a2.59,2.59,0,0,1-.74,1.16.74.74,0,0,1-.41.19c-.15,0-.25-.11-.3-.3a3,3,0,0,0-.33,1,2.61,2.61,0,0,0,0,1.13c.09.25.21.26.33.16a2.65,2.65,0,0,0,.43-.59,2,2,0,0,1,.47-.64.57.57,0,0,1,.48-.08.43.43,0,0,0,.38-.06,1.1,1.1,0,0,0,.26-.54,2.23,2.23,0,0,0,.09-.88.93.93,0,0,0-.63-.81" transform="translate(-3.83 -51.65)"/><path class="cls-6" d="M163.6,128.57l0,.25a.93.93,0,0,1,.63.81,2.23,2.23,0,0,1-.09.88,1.1,1.1,0,0,1-.26.54.43.43,0,0,1-.38.06.57.57,0,0,0-.48.08,2,2,0,0,0-.47.64,2.65,2.65,0,0,1-.43.59c-.12.1-.24.09-.33-.16a2.61,2.61,0,0,1,0-1.13,3,3,0,0,1,.33-1,.84.84,0,0,1,0-.18v0h0a3.25,3.25,0,0,0-.41,1.18,3.1,3.1,0,0,0,0,1.35c.12.34.26.36.41.23h0a.57.57,0,0,0,.11-.11,3.75,3.75,0,0,0,.35-.53,2.24,2.24,0,0,1,.29-.44l.12-.13,0,0,0,0a.54.54,0,0,1,.45-.09l.09,0h.1a.74.74,0,0,0,.22-.08l0,0a2.63,2.63,0,0,0,.4-1.75,1,1,0,0,0-.68-.93" transform="translate(-3.83 -51.65)"/><path class="cls-5" d="M162.82,128a1.36,1.36,0,0,0-.17.17,2.44,2.44,0,0,0-.5,1.6c0,.23.14.29.23.29a.65.65,0,0,0,.36-.17,2.26,2.26,0,0,0,.65-1,1.36,1.36,0,0,0,.06-.62c-.08-.48-.36-.5-.63-.27" transform="translate(-3.83 -51.65)"/><path class="cls-6" d="M162.74,129.93a.65.65,0,0,1-.36.17c-.09,0-.2-.06-.23-.29a2.44,2.44,0,0,1,.5-1.6,1.36,1.36,0,0,1,.17-.17c.27-.23.55-.21.63.27a1.36,1.36,0,0,1-.06.62,2.26,2.26,0,0,1-.65,1m.06-2.21-.18.17a3,3,0,0,0-.6,2h0v0a.84.84,0,0,0,0,.18c0,.19.15.3.3.3a.74.74,0,0,0,.41-.19,2.59,2.59,0,0,0,.74-1.16c0-.09.05-.18.07-.27l0-.25a2.34,2.34,0,0,0,0-.46c-.11-.63-.46-.67-.79-.39" transform="translate(-3.83 -51.65)"/></g></g><path class="cls-5" d="M186.42,82.42,189,162.86l-.39.32L42.36,280.7l-2.57-80.44.4-.32ZM43.08,278.18,188.15,161.6,185.7,84.93,40.64,201.51l2.44,76.67" transform="translate(-3.83 -51.65)"/><line id="line-3" class="cls-7" x1="157.87" y1="121.59" x2="702.03" y2="134.65"/><line id="line-2" class="cls-7" x1="129.78" y1="143.2" x2="670.96" y2="156.19"/><path class="cls-8" d="M-66.66,185.54" transform="translate(-3.83 -51.65)"/><line id="line-1" class="cls-7" x1="71.25" y1="188.94" x2="655.31" y2="202.96"/><g id="rear-line"><line class="cls-9" x1="169.96" y1="89.79" x2="170.46" y2="89.79"/><line class="cls-10" x1="176.29" y1="89.79" x2="268.57" y2="89.79"/><line class="cls-9" x1="271.49" y1="89.79" x2="271.99" y2="89.79"/></g><g id="stream2"><g id="base"><g class="cls-3"><polygon class="cls-11" points="330.87 181.44 330.92 182.41 199.05 180.11 199 179.14 330.87 181.44"/><polygon class="cls-11" points="199 179.14 199.05 180.11 176.58 198.27 176.54 197.29 199 179.14"/><polygon class="cls-6" points="308.41 199.6 308.45 200.57 176.58 198.27 176.54 197.29 308.41 199.6"/><path class="cls-11" d="M202.66,230.72,335,233,312.4,251.3,180.06,249Zm109.58,20.52,22.46-18.16-131.87-2.3-22.46,18.16,131.87,2.3" transform="translate(-3.83 -51.65)"/><polygon class="cls-6" points="330.87 181.44 308.41 199.6 176.54 197.29 199 179.14 330.87 181.44"/><polygon class="cls-6" points="330.87 181.44 330.92 182.41 308.45 200.57 308.41 199.6 330.87 181.44"/><polygon class="cls-11" points="308.57 199.66 308.62 200.63 176.27 198.32 176.23 197.34 308.57 199.66"/><polygon class="cls-11" points="331.18 181.39 331.22 182.36 308.62 200.63 308.57 199.66 331.18 181.39"/></g></g><g class="cls-3"><polygon class="cls-5" points="214.04 176.28 214.22 180.18 198.5 179.9 198.32 176 214.04 176.28"/><polygon class="cls-5" points="198.32 176 198.5 179.9 176.99 197.29 176.81 193.39 198.32 176"/><polygon class="cls-12" points="192.53 193.66 192.71 197.56 176.99 197.29 176.81 193.39 192.53 193.66"/><polygon class="cls-12" points="214.04 176.28 192.53 193.66 176.81 193.39 198.32 176 214.04 176.28"/><polygon class="cls-5" points="192.71 193.72 192.89 197.62 176.68 197.34 176.5 193.44 192.71 193.72"/><path class="cls-5" d="M202,227.59l16.21.28-21.64,17.5-16.21-.29Zm-5.61,17.72,21.51-17.39-15.72-.27L180.64,245l15.72.28" transform="translate(-3.83 -51.65)"/><polygon class="cls-12" points="214.04 176.28 214.22 180.18 192.71 197.56 192.53 193.66 214.04 176.28"/><polygon class="cls-5" points="214.35 176.22 214.53 180.13 192.89 197.62 192.71 193.72 214.35 176.22"/></g><g class="cls-3"><polygon class="cls-5" points="233.3 176.64 233.48 180.54 217.75 180.26 217.57 176.36 233.3 176.64"/><polygon class="cls-5" points="217.57 176.36 217.75 180.26 196.24 197.65 196.06 193.75 217.57 176.36"/><polygon class="cls-12" points="211.79 194.02 211.97 197.92 196.24 197.65 196.06 193.75 211.79 194.02"/><polygon class="cls-12" points="233.3 176.64 211.79 194.02 196.06 193.75 217.57 176.36 233.3 176.64"/><polygon class="cls-5" points="211.96 194.08 212.14 197.98 195.93 197.7 195.75 193.8 211.96 194.08"/><path class="cls-5" d="M221.23,228l16.21.28-21.65,17.5-16.21-.28Zm-5.61,17.72,21.51-17.39L221.4,228l-21.51,17.38,15.73.28" transform="translate(-3.83 -51.65)"/><polygon class="cls-12" points="233.3 176.64 233.48 180.54 211.97 197.92 211.79 194.02 233.3 176.64"/><polygon class="cls-5" points="233.61 176.59 233.79 180.49 212.14 197.98 211.96 194.08 233.61 176.59"/></g><g class="cls-3"><polygon class="cls-5" points="252.09 176.89 252.27 180.79 236.54 180.52 236.37 176.62 252.09 176.89"/><polygon class="cls-5" points="236.37 176.62 236.54 180.52 215.04 197.9 214.86 194 236.37 176.62"/><polygon class="cls-12" points="230.58 194.28 230.76 198.18 215.04 197.9 214.86 194 230.58 194.28"/><path class="cls-5" d="M240,228.2l16.21.29L234.59,246l-16.21-.28Zm-5.61,17.72,21.51-17.38-15.72-.28-21.51,17.39,15.72.27" transform="translate(-3.83 -51.65)"/><polygon class="cls-12" points="252.09 176.89 230.58 194.28 214.86 194 236.37 176.62 252.09 176.89"/><polygon class="cls-5" points="230.76 194.34 230.94 198.24 214.73 197.95 214.55 194.05 230.76 194.34"/><polygon class="cls-12" points="252.09 176.89 252.27 180.79 230.76 198.18 230.58 194.28 252.09 176.89"/><polygon class="cls-5" points="252.4 176.84 252.58 180.74 230.94 198.24 230.76 194.34 252.4 176.84"/></g><g class="cls-3"><polygon class="cls-5" points="271.68 177.27 271.86 181.17 256.13 180.9 255.95 177 271.68 177.27"/><polygon class="cls-5" points="255.95 177 256.13 180.9 234.62 198.28 234.44 194.38 255.95 177"/><polygon class="cls-12" points="250.16 194.66 250.34 198.56 234.62 198.28 234.44 194.38 250.16 194.66"/><path class="cls-5" d="M259.61,228.58l16.21.28-21.65,17.5L238,246.08ZM254,246.3l21.51-17.38-15.73-.28L238.27,246l15.73.27" transform="translate(-3.83 -51.65)"/><polygon class="cls-12" points="271.68 177.27 250.16 194.66 234.44 194.38 255.95 177 271.68 177.27"/><polygon class="cls-5" points="250.34 194.71 250.52 198.62 234.31 198.33 234.13 194.43 250.34 194.71"/><polygon class="cls-12" points="271.68 177.27 271.86 181.17 250.34 198.56 250.16 194.66 271.68 177.27"/><polygon class="cls-5" points="271.99 177.22 272.17 181.12 250.52 198.62 250.34 194.71 271.99 177.22"/></g><g class="cls-3"><polygon class="cls-5" points="330.04 181.14 330.08 182.12 314.35 181.84 314.31 180.87 330.04 181.14"/><polygon class="cls-5" points="314.31 180.87 314.35 181.84 292.84 199.23 292.8 198.26 314.31 180.87"/><polygon class="cls-2" points="308.52 198.53 308.57 199.51 292.84 199.23 292.8 198.26 308.52 198.53"/><polygon class="cls-2" points="330.04 181.14 308.52 198.53 292.8 198.26 314.31 180.87 330.04 181.14"/><polygon class="cls-5" points="308.7 198.59 308.75 199.56 292.54 199.28 292.49 198.31 308.7 198.59"/><path class="cls-5" d="M318,232.46l16.21.28-21.65,17.49L296.32,250Zm-5.61,17.72,21.51-17.39-15.73-.27L296.63,249.9l15.73.28" transform="translate(-3.83 -51.65)"/><polygon class="cls-2" points="330.04 181.14 330.08 182.12 308.57 199.51 308.52 198.53 330.04 181.14"/><polygon class="cls-5" points="330.35 181.09 330.39 182.07 308.75 199.56 308.7 198.59 330.35 181.09"/></g><g class="cls-3"><polygon class="cls-5" points="291.47 177.59 291.65 181.49 275.92 181.22 275.74 177.32 291.47 177.59"/><polygon class="cls-5" points="275.74 177.32 275.92 181.22 254.41 198.6 254.23 194.7 275.74 177.32"/><polygon class="cls-12" points="269.96 194.98 270.14 198.88 254.41 198.6 254.23 194.7 269.96 194.98"/><polygon class="cls-12" points="291.47 177.59 269.96 194.98 254.23 194.7 275.74 177.32 291.47 177.59"/><polygon class="cls-5" points="270.13 195.04 270.31 198.94 254.1 198.66 253.92 194.75 270.13 195.04"/><path class="cls-5" d="M279.4,228.91l16.21.28L274,246.68l-16.21-.28Zm-5.61,17.71,21.51-17.38L279.57,229l-21.51,17.39,15.73.27" transform="translate(-3.83 -51.65)"/><polygon class="cls-12" points="291.47 177.59 291.65 181.49 270.14 198.88 269.96 194.98 291.47 177.59"/><polygon class="cls-5" points="291.78 177.54 291.96 181.44 270.31 198.94 270.13 195.04 291.78 177.54"/></g><g class="cls-3"><polygon class="cls-5" points="310.55 177.92 310.73 181.82 295 181.54 294.82 177.64 310.55 177.92"/><polygon class="cls-5" points="294.82 177.64 295 181.54 273.49 198.93 273.31 195.03 294.82 177.64"/><polygon class="cls-12" points="289.04 195.3 289.22 199.2 273.49 198.93 273.31 195.03 289.04 195.3"/><polygon class="cls-12" points="310.55 177.92 289.04 195.3 273.31 195.03 294.82 177.64 310.55 177.92"/><polygon class="cls-5" points="289.21 195.36 289.39 199.26 273.18 198.98 273 195.08 289.21 195.36"/><path class="cls-5" d="M298.48,229.23l16.21.28L293,247l-16.21-.29ZM292.87,247l21.51-17.39-15.73-.27-21.51,17.38,15.73.28" transform="translate(-3.83 -51.65)"/><polygon class="cls-12" points="310.55 177.92 310.73 181.82 289.22 199.2 289.04 195.3 310.55 177.92"/><polygon class="cls-5" points="310.86 177.87 311.04 181.77 289.39 199.26 289.21 195.36 310.86 177.87"/></g></g><path class="cls-13" d="M107.76,491.69" transform="translate(-3.83 -51.65)"/><path class="cls-13" d="M174.31,515" transform="translate(-3.83 -51.65)"/><g id="stream3"><g class="cls-3"><polygon class="cls-11" points="427.08 114.16 427.12 115.14 294.49 112.83 294.45 111.85 427.08 114.16"/><polygon class="cls-11" points="294.45 111.85 294.49 112.83 272.03 130.98 271.98 130.01 294.45 111.85"/><polygon class="cls-6" points="404.61 132.32 404.66 133.3 272.03 130.98 271.98 130.01 404.61 132.32"/><path class="cls-11" d="M298.1,163.44l133.12,2.32L408.62,184,275.5,181.7ZM408.44,184l22.47-18.16L298.28,163.5l-22.47,18.15L408.44,184" transform="translate(-3.83 -51.65)"/><polygon class="cls-6" points="427.08 114.16 404.61 132.32 271.98 130.01 294.45 111.85 427.08 114.16"/><polygon class="cls-6" points="427.08 114.16 427.12 115.14 404.66 133.3 404.61 132.32 427.08 114.16"/><polygon class="cls-11" points="404.79 132.38 404.83 133.36 271.72 131.03 271.67 130.06 404.79 132.38"/><polygon class="cls-11" points="427.39 114.11 427.43 115.09 404.83 133.36 404.79 132.38 427.39 114.11"/></g><g class="cls-3"><polygon class="cls-5" points="310.1 108.98 310.28 112.89 294.54 112.61 294.36 108.71 310.1 108.98"/><polygon class="cls-5" points="294.36 108.71 294.54 112.61 273.03 130 272.85 126.1 294.36 108.71"/><polygon class="cls-12" points="288.59 126.37 288.77 130.27 273.03 130 272.85 126.1 288.59 126.37"/><path class="cls-5" d="M298,160.3l16.2.28-21.65,17.5-16.2-.29ZM292.42,178l21.51-17.39-15.74-.27-21.51,17.38,15.74.28" transform="translate(-3.83 -51.65)"/><polygon class="cls-12" points="310.1 108.98 288.59 126.37 272.85 126.1 294.36 108.71 310.1 108.98"/><polygon class="cls-5" points="288.75 126.43 288.93 130.33 272.73 130.05 272.55 126.15 288.75 126.43"/><polygon class="cls-12" points="310.1 108.98 310.28 112.89 288.77 130.27 288.59 126.37 310.1 108.98"/><polygon class="cls-5" points="310.4 108.94 310.58 112.84 288.93 130.33 288.75 126.43 310.4 108.94"/></g><g class="cls-3"><polygon class="cls-5" points="329.45 109.36 329.63 113.26 313.91 112.98 313.73 109.08 329.45 109.36"/><polygon class="cls-5" points="313.73 109.08 313.91 112.98 292.4 130.37 292.22 126.47 313.73 109.08"/><polygon class="cls-12" points="307.95 126.74 308.13 130.64 292.4 130.37 292.22 126.47 307.95 126.74"/><path class="cls-5" d="M317.39,160.67l16.21.28L312,178.45l-16.21-.29Zm-5.61,17.72L333.29,161l-15.73-.27-21.51,17.38,15.73.28" transform="translate(-3.83 -51.65)"/><polygon class="cls-12" points="329.45 109.36 307.95 126.74 292.22 126.47 313.73 109.08 329.45 109.36"/><polygon class="cls-5" points="308.12 126.8 308.3 130.7 292.09 130.42 291.91 126.52 308.12 126.8"/><polygon class="cls-12" points="329.45 109.36 329.63 113.26 308.13 130.64 307.95 126.74 329.45 109.36"/><polygon class="cls-5" points="329.76 109.3 329.94 113.2 308.3 130.7 308.12 126.8 329.76 109.3"/></g><g class="cls-3"><polygon class="cls-5" points="348.19 109.74 348.37 113.64 332.64 113.37 332.46 109.47 348.19 109.74"/><polygon class="cls-5" points="332.46 109.47 332.64 113.37 311.13 130.75 310.95 126.85 332.46 109.47"/><polygon class="cls-12" points="326.68 127.13 326.86 131.03 311.13 130.75 310.95 126.85 326.68 127.13"/><path class="cls-5" d="M336.12,161.05l16.2.29-21.64,17.49-16.2-.28Zm-5.61,17.72L352,161.39l-15.73-.28L314.78,178.5l15.73.27" transform="translate(-3.83 -51.65)"/><polygon class="cls-12" points="348.19 109.74 326.68 127.13 310.95 126.85 332.46 109.47 348.19 109.74"/><polygon class="cls-5" points="326.85 127.19 327.03 131.09 310.83 130.81 310.65 126.9 326.85 127.19"/><polygon class="cls-12" points="348.19 109.74 348.37 113.64 326.86 131.03 326.68 127.13 348.19 109.74"/><polygon class="cls-5" points="348.49 109.69 348.67 113.59 327.03 131.09 326.85 127.19 348.49 109.69"/></g><g class="cls-3"><polygon class="cls-5" points="425.46 113.87 425.51 114.84 409.78 114.57 409.74 113.59 425.46 113.87"/><polygon class="cls-5" points="409.74 113.59 409.78 114.57 388.27 131.96 388.23 130.98 409.74 113.59"/><polygon class="cls-2" points="403.95 131.25 404 132.23 388.27 131.96 388.23 130.98 403.95 131.25"/><path class="cls-5" d="M413.39,165.18l16.21.28L408,183l-16.21-.28Zm-5.61,17.72,21.51-17.38-15.72-.28-21.51,17.39,15.72.27" transform="translate(-3.83 -51.65)"/><polygon class="cls-2" points="425.46 113.87 403.95 131.25 388.23 130.98 409.74 113.59 425.46 113.87"/><polygon class="cls-5" points="404.13 131.31 404.17 132.29 387.96 132.01 387.92 131.03 404.13 131.31"/><polygon class="cls-2" points="425.46 113.87 425.51 114.84 404 132.23 403.95 131.25 425.46 113.87"/><polygon class="cls-5" points="425.77 113.82 425.82 114.79 404.17 132.29 404.13 131.31 425.77 113.82"/></g><g class="cls-3"><polygon class="cls-5" points="406.36 113.53 406.4 114.5 390.67 114.23 390.63 113.25 406.36 113.53"/><polygon class="cls-5" points="390.63 113.25 390.67 114.23 369.16 131.61 369.12 130.64 390.63 113.25"/><polygon class="cls-2" points="384.85 130.91 384.89 131.89 369.16 131.61 369.12 130.64 384.85 130.91"/><polygon class="cls-2" points="406.36 113.53 384.85 130.91 369.12 130.64 390.63 113.25 406.36 113.53"/><polygon class="cls-5" points="385.02 130.97 385.07 131.95 368.86 131.66 368.81 130.69 385.02 130.97"/><path class="cls-5" d="M394.29,164.84l16.21.28-21.65,17.5-16.21-.29Zm-5.61,17.72,21.51-17.39-15.73-.27L373,182.29l15.73.27" transform="translate(-3.83 -51.65)"/><polygon class="cls-2" points="406.36 113.53 406.4 114.5 384.89 131.89 384.85 130.91 406.36 113.53"/><polygon class="cls-5" points="406.67 113.48 406.71 114.45 385.07 131.95 385.02 130.97 406.67 113.48"/></g><g class="cls-3"><polygon class="cls-5" points="386.96 113.14 387.01 114.11 371.28 113.84 371.24 112.86 386.96 113.14"/><polygon class="cls-5" points="371.24 112.86 371.28 113.84 349.77 131.23 349.73 130.25 371.24 112.86"/><polygon class="cls-2" points="365.45 130.53 365.5 131.5 349.77 131.23 349.73 130.25 365.45 130.53"/><path class="cls-5" d="M374.89,164.45l16.21.29-21.64,17.49L353.25,182Zm-5.61,17.72,21.51-17.39-15.72-.27L353.56,181.9l15.72.27" transform="translate(-3.83 -51.65)"/><polygon class="cls-2" points="386.96 113.14 365.45 130.53 349.73 130.25 371.24 112.86 386.96 113.14"/><polygon class="cls-5" points="365.63 130.58 365.67 131.56 349.46 131.28 349.42 130.3 365.63 130.58"/><polygon class="cls-2" points="386.96 113.14 387.01 114.11 365.5 131.5 365.45 130.53 386.96 113.14"/><polygon class="cls-5" points="387.27 113.09 387.32 114.06 365.67 131.56 365.63 130.58 387.27 113.09"/></g><g class="cls-3"><polygon class="cls-5" points="367.19 112.86 367.24 113.83 351.51 113.56 351.46 112.58 367.19 112.86"/><polygon class="cls-5" points="351.46 112.58 351.51 113.56 330 130.95 329.95 129.97 351.46 112.58"/><polygon class="cls-2" points="345.68 130.25 345.73 131.22 330 130.95 329.95 129.97 345.68 130.25"/><path class="cls-5" d="M355.12,164.17l16.21.29L349.68,182l-16.21-.28Zm-5.61,17.72L371,164.51l-15.73-.28-21.51,17.39,15.73.27" transform="translate(-3.83 -51.65)"/><polygon class="cls-2" points="367.19 112.86 345.68 130.25 329.95 129.97 351.46 112.58 367.19 112.86"/><polygon class="cls-5" points="345.85 130.31 345.9 131.28 329.69 131 329.64 130.02 345.85 130.31"/><polygon class="cls-2" points="367.19 112.86 367.24 113.83 345.73 131.22 345.68 130.25 367.19 112.86"/><polygon class="cls-5" points="367.5 112.81 367.54 113.78 345.9 131.28 345.85 130.31 367.5 112.81"/></g></g><g id="stream2-2" data-name="stream2"><g class="cls-3"><polygon class="cls-11" points="615.45 142.43 615.5 143.41 482.69 141.09 482.65 140.11 615.45 142.43"/><polygon class="cls-11" points="482.65 140.11 482.69 141.09 460.23 159.25 460.18 158.27 482.65 140.11"/><polygon class="cls-6" points="592.99 160.59 593.03 161.56 460.23 159.25 460.18 158.27 592.99 160.59"/><path class="cls-11" d="M486.3,191.7,619.58,194,597,212.29,463.7,210Zm110.52,20.54,22.46-18.16-132.8-2.32L464,209.92l132.81,2.32" transform="translate(-3.83 -51.65)"/><polygon class="cls-6" points="615.45 142.43 592.99 160.59 460.18 158.27 482.65 140.11 615.45 142.43"/><polygon class="cls-6" points="615.45 142.43 615.5 143.41 593.03 161.56 592.99 160.59 615.45 142.43"/><polygon class="cls-11" points="593.15 160.65 593.2 161.62 459.92 159.3 459.87 158.32 593.15 160.65"/><polygon class="cls-11" points="615.75 142.38 615.8 143.35 593.2 161.62 593.15 160.65 615.75 142.38"/></g><g class="cls-3"><polygon class="cls-5" points="498.61 137.24 498.79 141.14 483.06 140.86 482.88 136.96 498.61 137.24"/><polygon class="cls-5" points="482.88 136.96 483.06 140.86 461.55 158.25 461.37 154.35 482.88 136.96"/><polygon class="cls-12" points="477.1 154.62 477.28 158.52 461.55 158.25 461.37 154.35 477.1 154.62"/><path class="cls-5" d="M486.54,188.55l16.2.28-21.64,17.5L464.9,206Zm-5.61,17.72,21.51-17.39-15.73-.27L465.2,206l15.73.28" transform="translate(-3.83 -51.65)"/><polygon class="cls-12" points="498.61 137.24 477.1 154.62 461.37 154.35 482.88 136.96 498.61 137.24"/><polygon class="cls-5" points="477.27 154.68 477.45 158.58 461.25 158.3 461.06 154.4 477.27 154.68"/><polygon class="cls-12" points="498.61 137.24 498.79 141.14 477.28 158.52 477.1 154.62 498.61 137.24"/><polygon class="cls-5" points="498.91 137.19 499.09 141.09 477.45 158.58 477.27 154.68 498.91 137.19"/></g><g class="cls-3"><polygon class="cls-5" points="613.62 142.16 613.66 143.14 597.93 142.87 597.89 141.89 613.62 142.16"/><polygon class="cls-5" points="597.89 141.89 597.93 142.87 576.42 160.25 576.38 159.28 597.89 141.89"/><polygon class="cls-2" points="592.11 159.55 592.15 160.53 576.42 160.25 576.38 159.28 592.11 159.55"/><path class="cls-5" d="M601.55,193.48l16.21.28-21.65,17.5L579.9,211Zm-5.61,17.72,21.51-17.39-15.73-.27-21.51,17.38,15.73.28" transform="translate(-3.83 -51.65)"/><polygon class="cls-2" points="613.62 142.16 592.11 159.55 576.38 159.28 597.89 141.89 613.62 142.16"/><polygon class="cls-5" points="592.28 159.61 592.33 160.59 576.12 160.3 576.07 159.33 592.28 159.61"/><polygon class="cls-2" points="613.62 142.16 613.66 143.14 592.15 160.53 592.11 159.55 613.62 142.16"/><polygon class="cls-5" points="613.93 142.11 613.97 143.09 592.33 160.59 592.28 159.61 613.93 142.11"/></g><g class="cls-3"><polygon class="cls-5" points="594.13 141.92 594.18 142.9 578.45 142.62 578.41 141.65 594.13 141.92"/><polygon class="cls-5" points="578.41 141.65 578.45 142.62 556.94 160.01 556.9 159.03 578.41 141.65"/><polygon class="cls-2" points="572.62 159.31 572.67 160.28 556.94 160.01 556.9 159.03 572.62 159.31"/><path class="cls-5" d="M582.06,193.23l16.21.29L576.63,211l-16.21-.28ZM576.45,211,598,193.57l-15.72-.28-21.51,17.39,15.72.27" transform="translate(-3.83 -51.65)"/><polygon class="cls-2" points="594.13 141.92 572.62 159.31 556.9 159.03 578.41 141.65 594.13 141.92"/><polygon class="cls-5" points="572.8 159.37 572.84 160.34 556.63 160.06 556.59 159.08 572.8 159.37"/><polygon class="cls-2" points="594.13 141.92 594.18 142.9 572.67 160.28 572.62 159.31 594.13 141.92"/><polygon class="cls-5" points="594.44 141.87 594.49 142.85 572.84 160.34 572.8 159.37 594.44 141.87"/></g><g class="cls-3"><polygon class="cls-5" points="575.01 141.54 575.06 142.52 559.33 142.25 559.29 141.27 575.01 141.54"/><polygon class="cls-5" points="559.29 141.27 559.33 142.25 537.82 159.63 537.78 158.66 559.29 141.27"/><polygon class="cls-2" points="553.5 158.93 553.55 159.91 537.82 159.63 537.78 158.66 553.5 158.93"/><polygon class="cls-2" points="575.01 141.54 553.5 158.93 537.78 158.66 559.29 141.27 575.01 141.54"/><polygon class="cls-5" points="553.68 158.99 553.73 159.96 537.52 159.68 537.47 158.71 553.68 158.99"/><path class="cls-5" d="M563,192.86l16.21.28-21.65,17.49-16.21-.28Zm-5.61,17.72,21.51-17.39-15.73-.27L541.61,210.3l15.73.28" transform="translate(-3.83 -51.65)"/><polygon class="cls-2" points="575.01 141.54 575.06 142.52 553.55 159.91 553.5 158.93 575.01 141.54"/><polygon class="cls-5" points="575.33 141.49 575.37 142.47 553.73 159.96 553.68 158.99 575.33 141.49"/></g><g class="cls-3"><polygon class="cls-5" points="555.71 141.25 555.76 142.22 540.03 141.95 539.99 140.97 555.71 141.25"/><polygon class="cls-5" points="539.99 140.97 540.03 141.95 518.52 159.33 518.48 158.36 539.99 140.97"/><polygon class="cls-2" points="534.2 158.63 534.25 159.61 518.52 159.33 518.48 158.36 534.2 158.63"/><polygon class="cls-2" points="555.71 141.25 534.2 158.63 518.48 158.36 539.99 140.97 555.71 141.25"/><polygon class="cls-5" points="534.38 158.69 534.42 159.67 518.21 159.38 518.17 158.41 534.38 158.69"/><path class="cls-5" d="M543.64,192.56l16.21.28-21.64,17.5L522,210.05ZM538,210.28l21.51-17.39-15.72-.27L522.31,210l15.72.28" transform="translate(-3.83 -51.65)"/><polygon class="cls-2" points="555.71 141.25 555.76 142.22 534.25 159.61 534.2 158.63 555.71 141.25"/><polygon class="cls-5" points="556.02 141.2 556.07 142.17 534.42 159.67 534.38 158.69 556.02 141.2"/></g><g class="cls-3"><polygon class="cls-5" points="536.66 140.86 536.71 141.83 520.98 141.56 520.93 140.58 536.66 140.86"/><polygon class="cls-5" points="520.93 140.58 520.98 141.56 499.47 158.95 499.42 157.97 520.93 140.58"/><polygon class="cls-2" points="515.15 158.25 515.2 159.22 499.47 158.95 499.42 157.97 515.15 158.25"/><path class="cls-5" d="M524.59,192.17l16.21.29L519.15,210l-16.21-.28ZM519,209.89l21.51-17.39-15.73-.27-21.51,17.39,15.73.27" transform="translate(-3.83 -51.65)"/><polygon class="cls-2" points="536.66 140.86 515.15 158.25 499.42 157.97 520.93 140.58 536.66 140.86"/><polygon class="cls-5" points="515.32 158.31 515.37 159.28 499.16 159 499.11 158.02 515.32 158.31"/><polygon class="cls-2" points="536.66 140.86 536.71 141.83 515.2 159.22 515.15 158.25 536.66 140.86"/><polygon class="cls-5" points="536.97 140.81 537.01 141.78 515.37 159.28 515.32 158.31 536.97 140.81"/></g><g class="cls-3"><polygon class="cls-5" points="516.87 140.49 516.91 141.47 501.19 141.19 501.14 140.22 516.87 140.49"/><polygon class="cls-5" points="501.14 140.22 501.19 141.19 479.68 158.58 479.63 157.6 501.14 140.22"/><polygon class="cls-2" points="495.36 157.88 495.4 158.85 479.68 158.58 479.63 157.6 495.36 157.88"/><polygon class="cls-2" points="516.87 140.49 495.36 157.88 479.63 157.6 501.14 140.22 516.87 140.49"/><polygon class="cls-5" points="495.52 157.94 495.57 158.91 479.37 158.63 479.32 157.65 495.52 157.94"/><path class="cls-5" d="M504.8,191.8l16.2.29-21.65,17.49-16.2-.28Zm-5.61,17.72,21.51-17.38L505,191.86l-21.51,17.39,15.73.27" transform="translate(-3.83 -51.65)"/><polygon class="cls-2" points="516.87 140.49 516.91 141.47 495.4 158.85 495.36 157.88 516.87 140.49"/><polygon class="cls-5" points="517.17 140.44 517.21 141.41 495.57 158.91 495.52 157.94 517.17 140.44"/></g></g><path class="cls-14" d="M119.26,235.11" transform="translate(-3.83 -51.65)"/><path class="cls-15" d="M300.35,129l134.41,2.35L408.9,152.22l-134.4-2.34Zm107.17,22.77,24.76-20-130.55-2.27-24.76,20,130.55,2.28" transform="translate(-3.83 -51.65)"/><polygon class="cls-16" points="428.45 80.09 403.69 100.1 273.14 97.82 297.9 77.81 428.45 80.09"/><g class="cls-3"><g class="cls-17"><path class="cls-18" d="M398.41,147.05l-2.06,0-3.8,1.39c-.92.34-1.76.65-2.45,1h-.05a1.93,1.93,0,0,0,.11-1l-.11-1.46-2.09,0-3.83,1.39c-1,.36-1.89.68-2.48,1h0a3.57,3.57,0,0,0,0-1l-.06-1.46-2.12,0,.44,2.9,2.09,0,4-1.43c1-.36,1.71-.63,2.33-.9h.05a1.62,1.62,0,0,0-.12.94l.13,1.51,2.09,0,7.9-2.75" transform="translate(-3.83 -51.65)"/><path class="cls-18" d="M399.92,148.77l2.53-.79c.51-.17,1-.34,1.41-.5h0a1.48,1.48,0,0,0,.17.53l.51.84-4.66-.08m5.62-1.59-2.42,0-8.76,2.73,2.07,0,2.72-.87,5.5.1.55.92,2.14,0-1.8-2.92" transform="translate(-3.83 -51.65)"/></g></g><path class="cls-18" d="M289.3,84.59l29-21.64,1.76,65.43-29,21.64Zm29.9,42.53-1.67-61.66-27.35,20.4,1.67,61.65,27.35-20.39" transform="translate(-3.83 -51.65)"/><polygon class="cls-2" points="286.35 34.22 313.7 13.82 315.37 75.47 288.02 95.86 286.35 34.22"/><g class="cls-3"><g class="cls-19"><path class="cls-18" d="M298.26,107.23l-.78.7.52,9,.78-.7-.52-9m-.63-4a1.59,1.59,0,0,0-.37.6,2,2,0,0,0-.13.82.58.58,0,0,0,.21.51q.18.1.39-.09a1.54,1.54,0,0,0,.37-.59,2,2,0,0,0,.13-.83.58.58,0,0,0-.21-.5.31.31,0,0,0-.39.08m-1.81.17a4.64,4.64,0,0,0-1.33,2.13,8,8,0,0,0-.3,2.82l.14,2.46-1.13,1,.06,1.1,1.13-1,.46,7.9.78-.71-.45-7.89,1.26-1.14-.07-1.09-1.26,1.13-.13-2.3a7.41,7.41,0,0,1,0-.94,4.14,4.14,0,0,1,.1-.87,3.28,3.28,0,0,1,.28-.78,2.72,2.72,0,0,1,.5-.63,3.19,3.19,0,0,1,.29-.22l.26-.13.08-1.27a1,1,0,0,0-.34.18l-.32.26" transform="translate(-3.83 -51.65)"/><polyline class="cls-18" points="297 47.44 296.22 48.15 297.06 62.67 297.85 61.96 297 47.44"/><path class="cls-18" d="M304,99.38l-.79.71.15,2.53-1.11,1,.06,1.09,1.11-1,.33,5.61a3.4,3.4,0,0,0,.2,1.09.74.74,0,0,0,.39.42.56.56,0,0,0,.47,0,2.37,2.37,0,0,0,.46-.32,3.82,3.82,0,0,0,.48-.51,4.43,4.43,0,0,0,.42-.59l-.1-1.1a5.13,5.13,0,0,1-.32.52,2.65,2.65,0,0,1-.34.38,1.41,1.41,0,0,1-.32.22.31.31,0,0,1-.28,0,.74.74,0,0,1-.19-.36,4.14,4.14,0,0,1-.11-.78l-.3-5.25,1.51-1.36-.06-1.1-1.52,1.37L304,99.38" transform="translate(-3.83 -51.65)"/><path class="cls-18" d="M307.55,102.87a6.2,6.2,0,0,1,.11-1.26,7.31,7.31,0,0,1,.34-1.3,7.55,7.55,0,0,1,.55-1.18,3.49,3.49,0,0,1,.71-.9c.56-.5,1-.61,1.34-.32a2.45,2.45,0,0,1,.61,1.66l-3.66,3.3m1.64-5.73a5.48,5.48,0,0,0-1,1.32,9,9,0,0,0-.81,1.77,10.73,10.73,0,0,0-.48,2,9.58,9.58,0,0,0-.1,2.06,5.47,5.47,0,0,0,.32,1.7,2.16,2.16,0,0,0,.67,1,1.13,1.13,0,0,0,.93.2,2.48,2.48,0,0,0,1.13-.64A6.75,6.75,0,0,0,311,105a11.36,11.36,0,0,0,1-2.41l-.63-.24a8.24,8.24,0,0,1-.61,1.69,4.35,4.35,0,0,1-1,1.42,1.69,1.69,0,0,1-.79.43.86.86,0,0,1-.66-.15,1.37,1.37,0,0,1-.47-.66,4.15,4.15,0,0,1-.24-1.12l4.46-4v-.33l0-.29a6.16,6.16,0,0,0-.27-1.58,2,2,0,0,0-.57-1,1,1,0,0,0-.86-.24,2.46,2.46,0,0,0-1.14.65" transform="translate(-3.83 -51.65)"/><path class="cls-18" d="M315.94,91.06a4.42,4.42,0,0,0-1,1.43,7.3,7.3,0,0,0-.62,1.9h0q0-.29-.06-.72c0-.28-.05-.54-.08-.77l-.74.67c0,.3.06.63.09,1s.05.69.07.94l.4,7,.79-.71-.27-4.59a10,10,0,0,1,0-1.66,8.27,8.27,0,0,1,.28-1.37,4.43,4.43,0,0,1,.47-1,3,3,0,0,1,.59-.73,2.6,2.6,0,0,1,.32-.26,1.77,1.77,0,0,1,.23-.12l0-1.34a1,1,0,0,0-.25.14l-.27.22" transform="translate(-3.83 -51.65)"/></g></g><polygon class="cls-2" points="320.12 34.74 347.47 14.35 349.13 76.01 321.78 96.41 320.12 34.74"/><g class="cls-3"><g class="cls-20"><path class="cls-18" d="M334.12,105.7a4,4,0,0,0-1,1.47,9.68,9.68,0,0,0-.58,2.19,2.7,2.7,0,0,0-.35-.79.87.87,0,0,0-.41-.33.54.54,0,0,0-.43,0,1.71,1.71,0,0,0-.41.27A3.92,3.92,0,0,0,330,110a8.16,8.16,0,0,0-.55,2v0c0-.22,0-.49-.07-.82s-.05-.62-.08-.88l-.66.59c0,.35.06.73.09,1.15s.06.78.08,1.06l.46,7.93.69-.63-.3-5.22a12.94,12.94,0,0,1,0-1.88,10,10,0,0,1,.25-1.52,6.45,6.45,0,0,1,.41-1.14,2.36,2.36,0,0,1,.49-.69.83.83,0,0,1,.59-.28.5.5,0,0,1,.39.33,3.1,3.1,0,0,1,.24.87c.05.37.1.8.13,1.29l.34,5.94.7-.63-.32-5.41a11.69,11.69,0,0,1,0-1.45,9.07,9.07,0,0,1,.16-1.41,5.21,5.21,0,0,1,.37-1.25,2.62,2.62,0,0,1,.62-.9c.45-.41.79-.37,1,.11a7,7,0,0,1,.43,2.34l.32,5.62.7-.63-.36-6.23a5.33,5.33,0,0,0-.63-2.63c-.35-.49-.83-.47-1.44.08" transform="translate(-3.83 -51.65)"/><path class="cls-18" d="M339.79,110.57a1.56,1.56,0,0,1-.41.26.46.46,0,0,1-.38,0,.66.66,0,0,1-.3-.36,2.5,2.5,0,0,1-.15-.82,3.8,3.8,0,0,1,.16-1.36,5,5,0,0,1,.54-1.18,7.17,7.17,0,0,1,.77-1c.29-.31.58-.6.87-.86l.2-.19.05.77a10.67,10.67,0,0,1,0,1.38,9.21,9.21,0,0,1-.24,1.33,5.15,5.15,0,0,1-.44,1.18,2.93,2.93,0,0,1-.64.87m-.22-9.78a5.16,5.16,0,0,0-1.08,1.42,8.42,8.42,0,0,0-.72,1.74l.44.63a8.33,8.33,0,0,1,.58-1.44,3.63,3.63,0,0,1,.78-1c.42-.38.75-.44,1-.21a2.63,2.63,0,0,1,.45,1.67l0,.31c-.44.4-.86.82-1.27,1.25a8.67,8.67,0,0,0-1.06,1.41,6.59,6.59,0,0,0-.69,1.7,6.84,6.84,0,0,0-.17,2.12,3.84,3.84,0,0,0,.24,1.29,1.24,1.24,0,0,0,.45.6.67.67,0,0,0,.57.06,1.73,1.73,0,0,0,.58-.36,4.24,4.24,0,0,0,1-1.34,9.4,9.4,0,0,0,.66-2.14l0,0c0,.28,0,.56.07.83s.07.53.1.76l.63-.57c-.05-.26-.09-.6-.13-1s-.07-.81-.09-1.2l-.26-4.45a5.52,5.52,0,0,0-.24-1.5,1.67,1.67,0,0,0-.46-.8.77.77,0,0,0-.64-.14,1.62,1.62,0,0,0-.74.42" transform="translate(-3.83 -51.65)"/><path class="cls-18" d="M346.24,104.71a1.08,1.08,0,0,1-.75.35.9.9,0,0,1-.64-.33,2.8,2.8,0,0,1-.46-1,6.58,6.58,0,0,1-.23-1.5,11.3,11.3,0,0,1,.35-3.38,7.86,7.86,0,0,1,.54-1.4,3.38,3.38,0,0,1,.72-1,1.1,1.1,0,0,1,.79-.36.8.8,0,0,1,.62.37,2.64,2.64,0,0,1,.43,1,7.75,7.75,0,0,1,.21,1.48,9.9,9.9,0,0,1,0,1.72,10.33,10.33,0,0,1-.27,1.62,7.47,7.47,0,0,1-.52,1.38,3.66,3.66,0,0,1-.76,1m-.47-9.5a4.79,4.79,0,0,0-1,1.42,9.12,9.12,0,0,0-.71,2.23l0,0-.1-1.75-.7.62.89,15.39.7-.63-.4-6.93,0,0a1.22,1.22,0,0,0,.88.76,1.35,1.35,0,0,0,1-.41,4.68,4.68,0,0,0,1-1.33,9.42,9.42,0,0,0,.71-1.83,13.08,13.08,0,0,0,.4-2.14,12.46,12.46,0,0,0,.06-2.28,8.51,8.51,0,0,0-.3-1.94,3.47,3.47,0,0,0-.6-1.25,1.08,1.08,0,0,0-.84-.42,1.58,1.58,0,0,0-1.05.5" transform="translate(-3.83 -51.65)"/></g></g><path class="cls-18" d="M323.06,85.13l29-21.64,1.77,65.43-29,21.63ZM353,127.65,351.3,66,324,86.39l1.66,61.66L353,127.65" transform="translate(-3.83 -51.65)"/><polygon class="cls-16" points="615.43 111.38 590.67 131.4 461.61 129.14 486.37 109.13 615.43 111.38"/><g class="cls-3"><g class="cls-21"><path class="cls-18" d="M585.56,179.08l-1.75,0-3.47,1.37c-.85.34-1.61.64-2.25.94h0a2.44,2.44,0,0,0,.25-1l.13-1.43-1.78,0-3.5,1.37c-.9.35-1.72.67-2.27.94h0a4.34,4.34,0,0,0,.2-1l.17-1.43-1.81,0-.08,2.84,1.79,0,3.67-1.42c.93-.35,1.56-.61,2.14-.88h0a1.94,1.94,0,0,0-.25.92l-.12,1.47,1.78,0,7.19-2.71" transform="translate(-3.83 -51.65)"/><path class="cls-18" d="M586.58,180.76l2.3-.78,1.28-.49h0a1.66,1.66,0,0,0,.07.52l.3.82-4-.07m5.06-1.57-2.06,0-7.93,2.7,1.77,0,2.47-.85,4.68.08.33.9,1.83,0-1.09-2.86" transform="translate(-3.83 -51.65)"/></g></g><path class="cls-15" d="M488.83,160.3l132.9,2.32-25.86,20.89L463,181.2ZM594.5,183l24.76-20L490.2,160.77l-24.76,20L594.5,183" transform="translate(-3.83 -51.65)"/><g class="cls-3"><polygon class="cls-2" points="475.57 65.7 502.91 45.31 504.58 106.97 477.23 127.36 475.57 65.7"/><g class="cls-3"><g class="cls-22"><path class="cls-18" d="M485.53,141.78l-.84.75.6,10.35c0,.27,0,.53,0,.78a5,5,0,0,1-.08.7,2.41,2.41,0,0,1-.23.6,1.68,1.68,0,0,1-.41.52,1.71,1.71,0,0,1-.26.21,1.25,1.25,0,0,1-.27.15L484,157a2,2,0,0,0,.36-.21l.32-.26a3.92,3.92,0,0,0,.79-1,4.8,4.8,0,0,0,.46-1.07,5.3,5.3,0,0,0,.21-1.11,8.1,8.1,0,0,0,0-1.1l-.61-10.54m-.67-3.91a1.7,1.7,0,0,0-.39.62,2,2,0,0,0-.15.81c0,.27.1.43.23.49a.39.39,0,0,0,.42-.12,1.65,1.65,0,0,0,.39-.61,1.85,1.85,0,0,0,.14-.82c0-.26-.08-.42-.22-.48a.38.38,0,0,0-.42.11" transform="translate(-3.83 -51.65)"/><path class="cls-18" d="M490.86,145.33a2.05,2.05,0,0,1-.92.54.85.85,0,0,1-.73-.14,1.6,1.6,0,0,1-.5-.73,4.29,4.29,0,0,1-.23-1.25,7.1,7.1,0,0,1,.07-1.51,8.75,8.75,0,0,1,.37-1.53,7.44,7.44,0,0,1,.64-1.37,4.66,4.66,0,0,1,.89-1.1,2,2,0,0,1,.92-.53.87.87,0,0,1,.73.14,1.52,1.52,0,0,1,.51.74,4.57,4.57,0,0,1,.23,1.24,7.77,7.77,0,0,1-.45,3,7.15,7.15,0,0,1-.64,1.37,4.86,4.86,0,0,1-.89,1.09m-.48-8.16a7.4,7.4,0,0,0-1.21,1.46,9.27,9.27,0,0,0-.91,1.84,11.57,11.57,0,0,0-.55,2,8.87,8.87,0,0,0-.12,2,4.78,4.78,0,0,0,.34,1.64,1.8,1.8,0,0,0,.71.9,1.34,1.34,0,0,0,1,.09,3.23,3.23,0,0,0,1.25-.76,6.8,6.8,0,0,0,1.22-1.46,10.63,10.63,0,0,0,.92-1.85,11.44,11.44,0,0,0,.54-2,8.93,8.93,0,0,0,.12-2.05,5,5,0,0,0-.33-1.63,1.82,1.82,0,0,0-.72-.9,1.25,1.25,0,0,0-1-.09,3.27,3.27,0,0,0-1.26.76" transform="translate(-3.83 -51.65)"/><path class="cls-18" d="M496.11,132.25l-.84.75.51,8.8.84-.75-.51-8.8m-.67-3.91a1.7,1.7,0,0,0-.39.62,2,2,0,0,0-.15.82c0,.26.1.42.23.48a.38.38,0,0,0,.42-.11,1.79,1.79,0,0,0,.39-.62,1.85,1.85,0,0,0,.14-.82c0-.25-.08-.42-.22-.48a.38.38,0,0,0-.42.11" transform="translate(-3.83 -51.65)"/><path class="cls-18" d="M501.11,127.51a5.55,5.55,0,0,0-1.14,1.54,7.31,7.31,0,0,0-.73,2l0,0c0-.18,0-.42-.06-.7s-.05-.53-.08-.76l-.79.72c0,.29.06.62.09,1s.05.68.07.92l.39,6.86.84-.76-.26-4.51a8.19,8.19,0,0,1,.06-1.66,7.32,7.32,0,0,1,.33-1.43,5.14,5.14,0,0,1,.52-1.13,3.77,3.77,0,0,1,.63-.79,1.62,1.62,0,0,1,.77-.45.54.54,0,0,1,.52.19,1.88,1.88,0,0,1,.31.75,8.67,8.67,0,0,1,.14,1.19l.28,4.87.84-.75-.31-5.4a3,3,0,0,0-.7-2.14c-.4-.33-1-.18-1.7.48" transform="translate(-3.83 -51.65)"/></g></g><path class="cls-18" d="M478.51,116.09l29-21.64,1.77,65.43-29,21.63Zm29.9,42.52L506.74,97l-27.34,20.4L481.06,179l27.35-20.39" transform="translate(-3.83 -51.65)"/></g><path class="cls-18" d="M512.69,116.68l29-21.63,1.77,65.42-29,21.64Zm29.9,42.53-1.66-61.66-27.35,20.39,1.67,61.66,27.34-20.39" transform="translate(-3.83 -51.65)"/><polygon class="cls-2" points="509.75 66.3 537.1 45.91 538.76 107.56 511.42 127.96 509.75 66.3"/><g class="cls-3"><g class="cls-23"><polyline class="cls-18" points="517.61 86.98 516.73 87.77 515.61 93.04 514.01 90.22 513.09 91.05 515.23 94.53 513.59 101.78 514.46 100.99 515.72 95.2 517.46 98.3 518.39 97.45 516.09 93.68 517.61 86.98"/><polyline class="cls-18" points="519.27 78.61 518.54 79.26 519.54 96.42 520.26 95.77 519.27 78.61"/><path class="cls-18" d="M527.51,143.3a1.6,1.6,0,0,1-.43.27.48.48,0,0,1-.39,0,.68.68,0,0,1-.31-.38,2.43,2.43,0,0,1-.16-.86,4.14,4.14,0,0,1,.16-1.42,6,6,0,0,1,.56-1.23,7.62,7.62,0,0,1,.81-1.06,12.45,12.45,0,0,1,.89-.89l.21-.19,0,.8a8.7,8.7,0,0,1,0,1.44,10.07,10.07,0,0,1-.24,1.39,5.93,5.93,0,0,1-.46,1.23,3.18,3.18,0,0,1-.66.9m-.24-10.21a5.38,5.38,0,0,0-1.12,1.47,9.27,9.27,0,0,0-.74,1.82l.46.65a7.25,7.25,0,0,1,.6-1.49,4,4,0,0,1,.8-1.09c.44-.39.78-.45,1-.21a2.78,2.78,0,0,1,.46,1.75l0,.33c-.45.41-.89.84-1.31,1.29a8.28,8.28,0,0,0-1.09,1.46,7,7,0,0,0-.72,1.77,7.43,7.43,0,0,0-.18,2.21,4.38,4.38,0,0,0,.25,1.35,1.22,1.22,0,0,0,.48.63.66.66,0,0,0,.58.07,1.75,1.75,0,0,0,.6-.37,4.39,4.39,0,0,0,1-1.4,9.81,9.81,0,0,0,.68-2.22l0,0c0,.3,0,.58.08.87s.06.55.09.79l.66-.59c0-.27-.09-.62-.13-1s-.08-.84-.1-1.25l-.27-4.65a6.52,6.52,0,0,0-.25-1.57,1.83,1.83,0,0,0-.48-.83.79.79,0,0,0-.66-.16,1.76,1.76,0,0,0-.77.44" transform="translate(-3.83 -51.65)"/><path class="cls-18" d="M531.64,126.29l-.72.65.17,3-1,.94.08,1.29,1-.93.38,6.63a5,5,0,0,0,.21,1.32,1.11,1.11,0,0,0,.36.58.44.44,0,0,0,.44.06,1.27,1.27,0,0,0,.43-.28,3,3,0,0,0,.45-.48,4.63,4.63,0,0,0,.38-.59l-.11-1.31a3.85,3.85,0,0,1-.3.53,2.07,2.07,0,0,1-.3.37.81.81,0,0,1-.31.19.23.23,0,0,1-.25-.08,1,1,0,0,1-.19-.46,5.78,5.78,0,0,1-.11-.93l-.36-6.2,1.4-1.26-.07-1.3-1.41,1.27-.17-3" transform="translate(-3.83 -51.65)"/><path class="cls-18" d="M535,131.14a8,8,0,0,1,.08-1.45,9.42,9.42,0,0,1,.31-1.44,6.62,6.62,0,0,1,.5-1.26,2.89,2.89,0,0,1,.65-.89c.51-.47.93-.5,1.25-.09a3.9,3.9,0,0,1,.59,2.08l-3.38,3m1.46-6.34a4.69,4.69,0,0,0-1,1.32,9.43,9.43,0,0,0-.73,1.89,13.81,13.81,0,0,0-.43,2.25,13.61,13.61,0,0,0-.06,2.39,9.92,9.92,0,0,0,.32,2,3.71,3.71,0,0,0,.64,1.28,1.17,1.17,0,0,0,.89.44,1.61,1.61,0,0,0,1.05-.51,5.39,5.39,0,0,0,1.12-1.55,11.72,11.72,0,0,0,.88-2.62l-.59-.41a9.89,9.89,0,0,1-.55,1.84,3.87,3.87,0,0,1-.94,1.43,1.08,1.08,0,0,1-.73.34.88.88,0,0,1-.62-.32,2.25,2.25,0,0,1-.46-.88,5.66,5.66,0,0,1-.23-1.37l4.12-3.71c0-.14,0-.27,0-.38l0-.34a9.85,9.85,0,0,0-.27-1.91,3.54,3.54,0,0,0-.55-1.26,1,1,0,0,0-.81-.47,1.64,1.64,0,0,0-1.06.5" transform="translate(-3.83 -51.65)"/></g></g><path class="cls-18" d="M547.64,117l29-21.65,1.76,65.44-29,21.64Zm29.9,42.53-1.67-61.66-27.35,20.39,1.67,61.66,27.35-20.39" transform="translate(-3.83 -51.65)"/><polygon class="cls-2" points="544.69 66.56 572.04 46.17 573.71 107.83 546.36 128.22 544.69 66.56"/><g class="cls-3"><g class="cls-24"><path class="cls-18" d="M552.17,143.8l-.68.61.62,10.64.68-.61-.62-10.64m-.64-4.88a1.31,1.31,0,0,0-.31.61,2.77,2.77,0,0,0-.11.91,1,1,0,0,0,.2.65.22.22,0,0,0,.35,0,1.38,1.38,0,0,0,.31-.6,2.8,2.8,0,0,0,.11-.92,1.06,1.06,0,0,0-.2-.65.23.23,0,0,0-.35,0" transform="translate(-3.83 -51.65)"/><path class="cls-18" d="M556.24,139.85a4,4,0,0,0-.92,1.44,8,8,0,0,0-.56,2.1h0c0-.22,0-.51-.06-.86s-.06-.64-.09-.92l-.65.58c0,.36.07.76.1,1.2s.06.82.08,1.12l.48,8.29.68-.61-.32-5.46a15.88,15.88,0,0,1,0-2,12.38,12.38,0,0,1,.25-1.59,5.67,5.67,0,0,1,.41-1.17,2.38,2.38,0,0,1,.51-.72.82.82,0,0,1,.63-.28.67.67,0,0,1,.44.41,4,4,0,0,1,.27,1,12.92,12.92,0,0,1,.15,1.47l.34,5.88.68-.61-.38-6.52a6.18,6.18,0,0,0-.63-2.79c-.34-.52-.81-.54-1.4,0" transform="translate(-3.83 -51.65)"/><path class="cls-18" d="M560.49,136.3l-.68.62.73,12.51c0,.33,0,.64,0,.94a5,5,0,0,1-.06.81,2.32,2.32,0,0,1-.17.63,1.32,1.32,0,0,1-.33.49,1.07,1.07,0,0,1-.22.15.54.54,0,0,1-.22.1l0,1.38a.85.85,0,0,0,.29-.12,3,3,0,0,0,.26-.21,2.69,2.69,0,0,0,.64-.87,5.25,5.25,0,0,0,.36-1.12,8.22,8.22,0,0,0,.15-1.25c0-.44,0-.87,0-1.3l-.74-12.76m-.64-4.87a1.32,1.32,0,0,0-.31.6,2.87,2.87,0,0,0-.11.92,1,1,0,0,0,.2.65.22.22,0,0,0,.35,0,1.38,1.38,0,0,0,.31-.6,2.59,2.59,0,0,0,.1-.93,1,1,0,0,0-.19-.64.22.22,0,0,0-.35,0" transform="translate(-3.83 -51.65)"/><path class="cls-18" d="M563,138.83a7.74,7.74,0,0,1,.07-1.43,10.34,10.34,0,0,1,.28-1.43,7,7,0,0,1,.47-1.23,2.67,2.67,0,0,1,.61-.86c.49-.44.88-.45,1.19,0a4.42,4.42,0,0,1,.57,2.1L563,138.83m1.36-6.25a4.15,4.15,0,0,0-.91,1.27,9,9,0,0,0-.68,1.84,13.6,13.6,0,0,0-.4,2.23,14.53,14.53,0,0,0-.05,2.38,9.39,9.39,0,0,0,.32,2.07,3.88,3.88,0,0,0,.6,1.32,1.15,1.15,0,0,0,.84.48,1.47,1.47,0,0,0,1-.45,4.88,4.88,0,0,0,1.05-1.5,11.83,11.83,0,0,0,.83-2.56l-.57-.45a8.6,8.6,0,0,1-.51,1.81,3.46,3.46,0,0,1-.88,1.38.92.92,0,0,1-.69.3.91.91,0,0,1-.59-.35,2.51,2.51,0,0,1-.43-.9,7.07,7.07,0,0,1-.23-1.38l3.89-3.49c0-.14,0-.28,0-.39l0-.34a10.13,10.13,0,0,0-.26-1.92,4.15,4.15,0,0,0-.52-1.29,1,1,0,0,0-.77-.5,1.35,1.35,0,0,0-1,.44" transform="translate(-3.83 -51.65)"/><path class="cls-18" d="M570.17,127.31a4.67,4.67,0,0,0-1,1.35,8.65,8.65,0,0,0-.71,1.88,13.59,13.59,0,0,0-.41,2.23,15.74,15.74,0,0,0,0,2.38,10.08,10.08,0,0,0,.31,2.07,3.53,3.53,0,0,0,.61,1.32,1.11,1.11,0,0,0,.85.46,1.58,1.58,0,0,0,1.06-.5,4.47,4.47,0,0,0,1-1.44,10.77,10.77,0,0,0,.66-2l-.56-.4a7.47,7.47,0,0,1-.45,1.45,3,3,0,0,1-.74,1.08,1,1,0,0,1-.76.33.83.83,0,0,1-.61-.4,3.21,3.21,0,0,1-.44-1,9.11,9.11,0,0,1-.22-1.58,13.49,13.49,0,0,1,0-1.8A10.51,10.51,0,0,1,569,131a7.94,7.94,0,0,1,.51-1.43,3.57,3.57,0,0,1,.72-1,.75.75,0,0,1,.73-.23.93.93,0,0,1,.56.56l.47-1.34a1.1,1.1,0,0,0-.86-.67,1.3,1.3,0,0,0-1,.4" transform="translate(-3.83 -51.65)"/><path class="cls-18" d="M573.64,121.31l-.68.61.18,3-1,.88.08,1.29,1-.87.39,6.64a5.87,5.87,0,0,0,.19,1.33,1.18,1.18,0,0,0,.35.6.45.45,0,0,0,.41.09,1.29,1.29,0,0,0,.41-.26,3.06,3.06,0,0,0,.42-.46,3.1,3.1,0,0,0,.36-.57l-.11-1.32a3.18,3.18,0,0,1-.28.52,1.54,1.54,0,0,1-.29.35.82.82,0,0,1-.28.18.24.24,0,0,1-.24-.09,1.11,1.11,0,0,1-.18-.48,5.78,5.78,0,0,1-.11-.93l-.36-6.21,1.32-1.19-.08-1.3-1.32,1.19-.17-3" transform="translate(-3.83 -51.65)"/></g></g><polygon class="cls-16" points="332.51 149.15 307.75 169.16 178.63 166.91 203.39 146.9 332.51 149.15"/><g class="cls-3"><g class="cls-25"><path class="cls-18" d="M304.18,216.92l-1.77,0L299.19,218c-.77.29-1.48.54-2.06.79h-.05a1.42,1.42,0,0,0,.05-.82l-.16-1.21-1.8,0-3.25,1.14c-.83.3-1.59.57-2.09.8h0a2.87,2.87,0,0,0,0-.83l-.12-1.21-1.83,0,.51,2.39,1.8,0,3.41-1.18c.87-.29,1.45-.51,2-.74h.05a1.26,1.26,0,0,0-.07.78l.18,1.24,1.81,0,6.68-2.26" transform="translate(-3.83 -51.65)"/><path class="cls-18" d="M305.56,218.33l2.15-.65,1.19-.41h0a1.52,1.52,0,0,0,.17.44l.48.69-4-.07m4.77-1.31-2.08,0-7.43,2.25,1.79,0,2.3-.71,4.74.08.52.76,1.85,0L310.33,217" transform="translate(-3.83 -51.65)"/></g></g><path class="cls-15" d="M205.85,198.07l133,2.32L313,221.28,180,219Zm105.73,22.74,24.76-20-129.12-2.26-24.76,20,129.12,2.25" transform="translate(-3.83 -51.65)"/><path class="cls-18" d="M193.65,154.36l29-21.63,1.77,65.43-29,21.63Zm29.9,42.53-1.66-61.66-27.35,20.4,1.66,61.66,27.35-20.4" transform="translate(-3.83 -51.65)"/><polygon class="cls-2" points="190.71 103.98 218.06 83.58 219.72 145.24 192.37 165.64 190.71 103.98"/><g class="cls-3"><g class="cls-26"><path class="cls-18" d="M202.06,179.17l-.83.74.61,10.52.83-.74-.61-10.52m-.7-4.77a1.71,1.71,0,0,0-.38.67,2.48,2.48,0,0,0-.14.93.82.82,0,0,0,.23.62.32.32,0,0,0,.42-.06,1.66,1.66,0,0,0,.38-.66A2.52,2.52,0,0,0,202,175a.79.79,0,0,0-.22-.61.3.3,0,0,0-.42.05m-1.9,0a4.82,4.82,0,0,0-1.39,2.34,10,10,0,0,0-.3,3.26l.16,2.87-1.18,1.06.08,1.29,1.18-1.07.53,9.24.83-.74-.54-9.24,1.32-1.19-.07-1.28-1.33,1.19-.15-2.7c0-.37,0-.73,0-1.09a6.39,6.39,0,0,1,.1-1,3.31,3.31,0,0,1,.3-.87,2.1,2.1,0,0,1,.52-.69,1.61,1.61,0,0,1,.3-.22l.28-.13.06-1.48a1,1,0,0,0-.34.18,3.1,3.1,0,0,0-.34.27" transform="translate(-3.83 -51.65)"/><polyline class="cls-18" points="200.89 118.31 200.06 119.05 201.05 136.05 201.87 135.31 200.89 118.31"/><path class="cls-18" d="M208.06,170.63l-.82.74.18,3-1.17,1,.07,1.28,1.17-1,.38,6.58a4.32,4.32,0,0,0,.22,1.29,1,1,0,0,0,.41.53.56.56,0,0,0,.49,0,2.34,2.34,0,0,0,.49-.33,3.71,3.71,0,0,0,.51-.54,5.5,5.5,0,0,0,.44-.64l-.12-1.3a4,4,0,0,1-.34.58,2.38,2.38,0,0,1-.35.4,1.27,1.27,0,0,1-.34.23.33.33,0,0,1-.29,0,1,1,0,0,1-.2-.45,4.48,4.48,0,0,1-.12-.92l-.36-6.14,1.59-1.43-.07-1.28-1.59,1.43-.18-3" transform="translate(-3.83 -51.65)"/><path class="cls-18" d="M211.82,175.06a8.14,8.14,0,0,1,.11-1.45,9.11,9.11,0,0,1,.35-1.48,7.18,7.18,0,0,1,.57-1.31,4.18,4.18,0,0,1,.74-1c.59-.53,1.07-.61,1.42-.24a3.37,3.37,0,0,1,.65,2l-3.84,3.46m1.7-6.5a5.56,5.56,0,0,0-1.1,1.43,10.62,10.62,0,0,0-.83,2,13.24,13.24,0,0,0-.5,2.29,12,12,0,0,0-.09,2.39,7.58,7.58,0,0,0,.35,2,2.85,2.85,0,0,0,.71,1.2,1.23,1.23,0,0,0,1,.33,2.18,2.18,0,0,0,1.18-.63,6.47,6.47,0,0,0,1.29-1.69,12.49,12.49,0,0,0,1-2.72l-.67-.34a9.28,9.28,0,0,1-.63,1.91,4.59,4.59,0,0,1-1.07,1.54,1.46,1.46,0,0,1-.82.43.92.92,0,0,1-.7-.25,1.75,1.75,0,0,1-.51-.82,5.25,5.25,0,0,1-.25-1.33l4.67-4.21c0-.14,0-.27,0-.39l0-.34a7.9,7.9,0,0,0-.29-1.86,2.75,2.75,0,0,0-.61-1.2,1.05,1.05,0,0,0-.9-.36,2.13,2.13,0,0,0-1.2.63" transform="translate(-3.83 -51.65)"/><path class="cls-18" d="M220.6,162.19a4.4,4.4,0,0,0-1.06,1.56,8.83,8.83,0,0,0-.63,2.14l0,0c0-.22,0-.51-.07-.84s-.06-.64-.09-.92l-.78.71c0,.35.07.74.11,1.18s.06.81.07,1.1l.48,8.2.82-.74-.31-5.38a11.1,11.1,0,0,1,0-1.93,9.06,9.06,0,0,1,.29-1.56,5.37,5.37,0,0,1,.48-1.18,3.21,3.21,0,0,1,.61-.78,2.06,2.06,0,0,1,.35-.27.85.85,0,0,1,.24-.12l0-1.56a.94.94,0,0,0-.26.14l-.28.23" transform="translate(-3.83 -51.65)"/></g></g><polygon class="cls-2" points="225.03 104.64 252.37 84.25 254.04 145.91 226.69 166.3 225.03 104.64"/><g class="cls-3"><g class="cls-27"><path class="cls-18" d="M232.9,180.58a3.55,3.55,0,0,0-.76,1,6.75,6.75,0,0,0-.54,1.44,10.21,10.21,0,0,0-.31,1.73,11.41,11.41,0,0,0,0,1.85,7.67,7.67,0,0,0,.23,1.61,3.07,3.07,0,0,0,.47,1,.84.84,0,0,0,.64.37,1.16,1.16,0,0,0,.8-.37,3.23,3.23,0,0,0,.77-1.1,8.05,8.05,0,0,0,.5-1.55l-.43-.32a5.24,5.24,0,0,1-.34,1.12,2.09,2.09,0,0,1-.56.82.73.73,0,0,1-.57.25.67.67,0,0,1-.47-.32,2.83,2.83,0,0,1-.33-.81,6.63,6.63,0,0,1-.17-1.23,10.88,10.88,0,0,1,0-1.4,8.41,8.41,0,0,1,.21-1.3,5.25,5.25,0,0,1,.39-1.1,2.56,2.56,0,0,1,.54-.76.58.58,0,0,1,.56-.18.77.77,0,0,1,.42.46l.36-1a.86.86,0,0,0-.66-.53,1,1,0,0,0-.74.28" transform="translate(-3.83 -51.65)"/><path class="cls-18" d="M238.1,176.12l-.51.46.25,4.25a12.87,12.87,0,0,1,0,1.53,7.83,7.83,0,0,1-.19,1.22,3.72,3.72,0,0,1-.31.91,2.1,2.1,0,0,1-.38.55.6.6,0,0,1-.48.2.47.47,0,0,1-.33-.32,2.79,2.79,0,0,1-.21-.77,11,11,0,0,1-.11-1.14l-.27-4.59-.52.47.3,5.07a5,5,0,0,0,.48,2.18c.26.42.62.42,1.07,0a3.16,3.16,0,0,0,.69-1.1,6.43,6.43,0,0,0,.43-1.62h0c0,.17,0,.4.05.66s0,.51.06.72l.5-.44c0-.27-.06-.58-.08-.94s0-.62-.06-.85l-.38-6.46" transform="translate(-3.83 -51.65)"/><path class="cls-18" d="M240.5,173.74a2.75,2.75,0,0,0-.47.57,3.71,3.71,0,0,0-.37.8,5.25,5.25,0,0,0-.29,2.18,2.51,2.51,0,0,0,.16.88.88.88,0,0,0,.28.42.39.39,0,0,0,.35.09,2.09,2.09,0,0,0,.36-.07,1.47,1.47,0,0,1,.81-.1c.19.06.3.31.32.75a2.9,2.9,0,0,1,0,.73,2.68,2.68,0,0,1-.15.62,2,2,0,0,1-.25.49,2.22,2.22,0,0,1-.32.36.52.52,0,0,1-.6.15,1,1,0,0,1-.46-.56l-.37,1.08c.2.41.43.63.7.66a1,1,0,0,0,.8-.32,3.09,3.09,0,0,0,.48-.56,4.58,4.58,0,0,0,.4-.83,6.21,6.21,0,0,0,.26-1.07,6.8,6.8,0,0,0,0-1.3,2,2,0,0,0-.39-1.28c-.22-.21-.55-.21-1,0a.77.77,0,0,1-.68.06c-.15-.09-.23-.32-.25-.71a2.26,2.26,0,0,1,0-.64,3.06,3.06,0,0,1,.14-.56,2.37,2.37,0,0,1,.23-.45,2.26,2.26,0,0,1,.27-.32.48.48,0,0,1,.55-.14.79.79,0,0,1,.39.52l.36-1c-.15-.37-.34-.57-.59-.62a.8.8,0,0,0-.74.25" transform="translate(-3.83 -51.65)"/><path class="cls-18" d="M243.3,169l-.52.47.14,2.33-.73.67.05,1,.74-.66.3,5.17a4.46,4.46,0,0,0,.15,1,1.07,1.07,0,0,0,.26.46.33.33,0,0,0,.32.08.93.93,0,0,0,.31-.19,2.59,2.59,0,0,0,.31-.35,3.7,3.7,0,0,0,.28-.44l-.08-1a2.48,2.48,0,0,1-.22.4,1.06,1.06,0,0,1-.22.27.48.48,0,0,1-.21.13.19.19,0,0,1-.19-.07,1,1,0,0,1-.13-.37,4.14,4.14,0,0,1-.08-.73l-.29-4.83,1-.9-.06-1-1,.9L243.3,169" transform="translate(-3.83 -51.65)"/><path class="cls-18" d="M247.3,175.69a.73.73,0,0,1-.57.25.69.69,0,0,1-.46-.33,2.54,2.54,0,0,1-.33-.82,6.64,6.64,0,0,1-.17-1.22,9.12,9.12,0,0,1,0-1.38,8.61,8.61,0,0,1,.21-1.3,5.46,5.46,0,0,1,.37-1.1,2.58,2.58,0,0,1,.55-.77.76.76,0,0,1,.57-.24.72.72,0,0,1,.47.34,2.78,2.78,0,0,1,.33.82,6.78,6.78,0,0,1,.17,1.21,9.24,9.24,0,0,1,0,1.39,8.61,8.61,0,0,1-.21,1.3,5.36,5.36,0,0,1-.38,1.09,2.3,2.3,0,0,1-.55.76m-.44-7.68a3.63,3.63,0,0,0-.74,1,7.43,7.43,0,0,0-.55,1.45,12.68,12.68,0,0,0-.31,1.73,12.81,12.81,0,0,0,0,1.86,8.22,8.22,0,0,0,.24,1.6,3.11,3.11,0,0,0,.47,1,.87.87,0,0,0,.65.37,1.14,1.14,0,0,0,.78-.35,3.46,3.46,0,0,0,.75-1,7.68,7.68,0,0,0,.55-1.45,12.15,12.15,0,0,0,.31-1.73,12.78,12.78,0,0,0,0-1.86,8.22,8.22,0,0,0-.24-1.6,3.21,3.21,0,0,0-.47-1,.86.86,0,0,0-.66-.37,1.17,1.17,0,0,0-.78.35" transform="translate(-3.83 -51.65)"/><path class="cls-18" d="M253.87,161.7a2.83,2.83,0,0,0-.72,1.13,7.65,7.65,0,0,0-.42,1.74,2.43,2.43,0,0,0-.27-.67.69.69,0,0,0-.3-.29.36.36,0,0,0-.32,0,1,1,0,0,0-.3.19,2.8,2.8,0,0,0-.68,1.09,7.12,7.12,0,0,0-.4,1.59v0c0-.18,0-.4,0-.67s0-.5-.06-.72l-.5.44c0,.28.06.59.08.94s.05.63.06.86l.37,6.45.52-.46-.25-4.25a10.9,10.9,0,0,1,0-1.52,9.09,9.09,0,0,1,.18-1.22,3.85,3.85,0,0,1,.3-.89,1.53,1.53,0,0,1,.36-.53.54.54,0,0,1,.43-.2.43.43,0,0,1,.29.3,2.82,2.82,0,0,1,.19.72c0,.31.07.66.1,1.06l.28,4.83.51-.47-.25-4.4a11.57,11.57,0,0,1,0-1.18,10,10,0,0,1,.12-1.13,4.36,4.36,0,0,1,.27-1,1.82,1.82,0,0,1,.46-.7c.33-.3.58-.25.75.16a6.31,6.31,0,0,1,.33,1.92l.27,4.58.51-.46-.29-5.08a4.93,4.93,0,0,0-.48-2.17c-.26-.42-.62-.43-1.07,0" transform="translate(-3.83 -51.65)"/></g></g><path class="cls-18" d="M228,155l29-21.64,1.77,65.42-29,21.65Zm29.9,42.53L256.2,135.9l-27.34,20.39L230.52,218l27.35-20.39" transform="translate(-3.83 -51.65)"/><text class="cls-28" transform="translate(272.94 239.9) scale(0.97 1)">D<tspan class="cls-29" x="15.55" y="0">a</tspan><tspan x="26.31" y="0">ta</tspan><tspan class="cls-30" x="43.8" y="0">S</tspan><tspan x="55.26" y="0">t</tspan><tspan class="cls-31" x="61.77" y="0">r</tspan><tspan class="cls-32" x="68.79" y="0">e</tspan><tspan x="80.42" y="0">ams</tspan></text><text class="cls-33" transform="translate(387.76 17.98) scale(0.89 1)">Sma<tspan class="cls-34" x="41.72" y="0">r</tspan><tspan x="49.04" y="0">t</tspan><tspan class="cls-35" x="55.72" y="0">S</tspan><tspan x="67.47" y="0">t</tspan><tspan class="cls-36" x="74.14" y="0">r</tspan><tspan class="cls-37" x="81.34" y="0">e</tspan><tspan x="93.26" y="0">ams</tspan></text><line class="cls-9" x1="107.93" y1="158.95" x2="108.43" y2="158.96"/><line class="cls-38" x1="114.2" y1="159.01" x2="178.65" y2="159.58"/><line class="cls-9" x1="181.54" y1="159.6" x2="182.04" y2="159.61"/><line class="cls-9" x1="575.96" y1="91.86" x2="576.46" y2="91.87"/><line class="cls-39" x1="582.61" y1="92" x2="715.75" y2="94.77"/><line class="cls-9" x1="718.82" y1="94.83" x2="719.32" y2="94.85"/><path class="cls-1" d="M636.63,163.43" transform="translate(-3.83 -51.65)"/><path class="cls-1" d="M612.6,147.19" transform="translate(-3.83 -51.65)"/><line class="cls-9" x1="421.21" y1="88.95" x2="421.71" y2="88.96"/><line class="cls-40" x1="427.38" y1="89.06" x2="470.9" y2="89.81"/><line class="cls-9" x1="473.73" y1="89.86" x2="474.23" y2="89.87"/><line class="cls-9" x1="321.53" y1="162.51" x2="322.03" y2="162.52"/><line class="cls-41" x1="328.05" y1="162.72" x2="655.1" y2="173.57"/><line class="cls-9" x1="658.11" y1="173.67" x2="658.61" y2="173.69"/><line class="cls-9" x1="465.82" y1="93.16" x2="465.47" y2="93.51"/><line class="cls-42" x1="461.09" y1="97.92" x2="401.93" y2="157.38"/><line class="cls-9" x1="399.74" y1="159.58" x2="399.39" y2="159.94"/><path class="cls-5" d="M780.31,94.23l3.23,83.93-.4.34L653,288l-3.22-83.93.39-.33ZM653.66,285.45l129-108.5L779.6,96.77l-129,108.51,3.08,80.17" transform="translate(-3.83 -51.65)"/><polygon class="cls-2" points="775.77 45.12 778.85 125.3 649.83 233.81 646.75 153.63 775.77 45.12"/><g class="cls-3"><g class="cls-43"><path class="cls-5" d="M696.43,201.29c-1.86,1.58-2.88,4.52-2.75,7.87.15,3.59,1.29,3.65,3.09,2.6,2.15-1.28,2.34-.64,2.38.44a4.87,4.87,0,0,1-1.84,4.32c-1.72,1.47-2.14.7-2.36-1.38,0-.25-.1-.34-.2-.26l-.84.72a1,1,0,0,0-.17.66c.11,2.81.83,5.62,3.67,3.2,2.07-1.76,3.16-4.82,3-8.47s-1.13-3.71-3.16-2.68-2.27.87-2.31-.33a4.37,4.37,0,0,1,1.58-3.75c1.33-1.13,1.87-.82,2.15,1.29,0,.19.12.29.19.22l.85-.72.13-.28a1.93,1.93,0,0,0,0-.41c-.29-3.86-1.39-4.81-3.47-3m-2.3-12a2.77,2.77,0,0,0-.67,1l-6.1,15.08a9.15,9.15,0,0,0-.56,3.6l.77,19.07c0,1.25.35,2.19.8,2.45l1.81,1a1.22,1.22,0,0,0,1.53-.24c1.22-1,1.85-3.54,1.72-6.8l-.76-18.84c0-.28-.12-.41-.22-.33l-.82.7a1,1,0,0,0-.18.67l.75,18.84a4.09,4.09,0,0,1-.79,2.86.62.62,0,0,1-.7.11l-1.88-1.09c-.07,0-.11-.2-.12-.37L688,207.91a1.34,1.34,0,0,1,.08-.53l6.11-15a.28.28,0,0,1,.09-.14.08.08,0,0,1,.1,0l6.87,4c.07,0,.11.16.12.36l.76,19.09a1.1,1.1,0,0,1-.08.53l-6.1,15.09a.28.28,0,0,1-.09.14.1.1,0,0,1-.1,0l-1.77-1.11a.07.07,0,0,0-.1,0,.29.29,0,0,0-.06.1,12.86,12.86,0,0,1-.93,2c-.09.17-.25.47.09.65l2.3,1.43a.63.63,0,0,0,.7-.13,2.86,2.86,0,0,0,.67-.95l6.1-15.09a9.23,9.23,0,0,0,.56-3.61l-.76-19.07c0-1.25-.36-2.18-.81-2.44l-6.87-4a.6.6,0,0,0-.7.14" transform="translate(-3.83 -51.65)"/><path class="cls-5" d="M723,203.93a.27.27,0,0,1-.1.06c-.29.08-.48-.45-.45-1.2a2.23,2.23,0,0,1,.45-1.43.24.24,0,0,1,.11-.06c.28-.09.48.45.45,1.2a2.3,2.3,0,0,1-.46,1.43m-7.52,6.35c-.23.19-.46-.06-.54-.6a3.12,3.12,0,0,1,.33-1.85.36.36,0,0,1,.11-.13c.23-.2.45.06.53.6a3,3,0,0,1-.33,1.86.63.63,0,0,1-.1.12m2-12.17-.12-2.91,1.61-1.37c.15-.12.8-.55,1.09,1.35.08.6.31,2.55.44,3.14s.58,1.81,1,1.46l2.54-2.16.1-.11c-.16.76-.32,1.5-.51,2.2l-1.11.3a.16.16,0,0,0-.08.06,2.1,2.1,0,0,0-.43,1.34l-.13,3.23a10.79,10.79,0,0,1-2.53,3.62,2.82,2.82,0,0,1-2.69.77l-.37-2.81c-.07-.54-.29-.74-.51-.55l-.09.09-1,1.47a9.44,9.44,0,0,1-.6-1.15l5.11-4.35a.24.24,0,0,0,.08-.23l-.18-4.59c0-.13,0-.12-.1-.07l-1.49,1.27m-.29-7.28-.12-3,2.1-1.79c.11-.09.78-.35.83.93a2.81,2.81,0,0,1-.87,2.2l-1.94,1.66m-4.31,11a33.27,33.27,0,0,1-.41-4.17c0-.59,0-1.18,0-1.74l1.05-2.16a3.08,3.08,0,0,0,.17-1.76l-.28-1.09.9-.76.4,10.15-1.79,1.53m11.71-18.06a.23.23,0,0,1-.2.07c-.26-.06-.42-.73-.32-1.49a1.9,1.9,0,0,1,.44-1.18.23.23,0,0,1,.2-.07c.26.06.42.73.32,1.49a1.9,1.9,0,0,1-.44,1.18M712.5,194c-.2.17-.4.05-.5-.38a3.33,3.33,0,0,1,.18-1.92.85.85,0,0,1,.19-.27c.2-.16.4,0,.51.37a3.5,3.5,0,0,1-.18,1.92,1,1,0,0,1-.2.28m5.64-14.85a1.22,1.22,0,0,0,.3-.6l.79-2.88c1.86-.7,3.52.89,4.58,4.1l-.46,3.94c-.08.67,0,1.28.3,1.35l1.21.33c0,.57.07,1.08.09,1.6s0,.8,0,1.2l-.64.54a.5.5,0,0,0-.07.36l0,.73c.07,1.77-.32,2.48-.65,2.86l-.09.09c-.29.25-.61.1-.67-.33-.31-2.59-.65-2.9-1.2-3.47a14.73,14.73,0,0,0,1.1-5.62c-.08-2.18-.73-3-1.15-3.35a1.11,1.11,0,0,0-1.39,0l-6.63,5.65a23.16,23.16,0,0,1,3.29-8l.87,1.42c.1.16.23.18.35.07m-.07-2c-.13.11-.27.1-.38-.08a2.81,2.81,0,0,1-.06-1.85,1.37,1.37,0,0,1,.35-.67c.13-.11.26-.1.37.08a2.8,2.8,0,0,1,.06,1.84,1.37,1.37,0,0,1-.34.68m-.24-6.47a.87.87,0,0,0-.19.48l-.37,2.21a1.84,1.84,0,0,1-.21.25l-.64-1.07c0-.08-.12-.11-.18-.06a.28.28,0,0,0-.06.08,1,1,0,0,0-.16.54l-.22,2.27c-.07.13-.13.21-.2.33l-.74-.67s-.09,0-.14,0a.36.36,0,0,0-.1.13,1.49,1.49,0,0,0-.12.62l0,2.22-.18.4-.81-.23a.09.09,0,0,0-.09,0,.58.58,0,0,0-.14.24,1.68,1.68,0,0,0-.09.64l.11,2.13c-.06.17-.1.3-.15.46l-.83.21-.07,0a.73.73,0,0,0-.15.32,1.52,1.52,0,0,0,0,.63l.28,1.91c0,.16-.08.35-.12.52l-.84.65a.76.76,0,0,0-.21.46,1.48,1.48,0,0,0,0,.63l.43,1.66c0,.18-.06.37-.08.58l-.82,1a1.27,1.27,0,0,0-.17.53,1.21,1.21,0,0,0,0,.59l.56,1.33a5.27,5.27,0,0,0,0,.57l-.76,1.43a1.3,1.3,0,0,0-.14.6,1,1,0,0,0,.1.52l.68.9c0,.18,0,.38,0,.56l-.68,1.76a1.58,1.58,0,0,0-.1.62c0,.22.07.39.14.42l.77.51c0,.17,0,.35.05.53l-.56,2a1.75,1.75,0,0,0,0,.64c0,.2.09.34.18.33l.82.1c0,.15,0,.29.09.45l-.43,2.17a1.72,1.72,0,0,0,0,.64c.05.18.12.23.21.2l.84-.38c0,.13.07.26.12.42l-.27,2.25a1.39,1.39,0,0,0,0,.59c.06.14.15.17.23.09l.84-.78a1.57,1.57,0,0,0,.15.29l-.11,2.24a1.09,1.09,0,0,0,.08.53c.05.08.11.09.17,0a.16.16,0,0,0,.07-.07l.8-1.19a1.63,1.63,0,0,0,.17.2l.06,2.17c0,.21.05.4.13.45a.1.1,0,0,0,.15,0,.36.36,0,0,0,.09-.13l.73-1.54a.52.52,0,0,0,.21.07l.21,2c0,.2.09.34.17.37a.13.13,0,0,0,.1,0,.66.66,0,0,0,.14-.24l.63-1.83a.5.5,0,0,0,.21,0l.38,1.76c0,.19.11.29.2.24l.05,0a.87.87,0,0,0,.17-.35l.51-2.05c.08,0,.15-.09.21-.11l.52,1.45c0,.15.13.21.21.14a.8.8,0,0,0,.2-.49l.37-2.2c.07-.1.14-.16.2-.24l.64,1.07c0,.08.11.11.18.06a.28.28,0,0,0,.05-.08,1,1,0,0,0,.17-.54l.22-2.27c.07-.14.13-.21.2-.33l.73.66a.11.11,0,0,0,.15,0l.1-.13a1.52,1.52,0,0,0,.12-.62l0-2.22a3.89,3.89,0,0,1,.19-.41l.81.24a.09.09,0,0,0,.09,0,.57.57,0,0,0,.14-.25,1.63,1.63,0,0,0,.09-.63l-.11-2.13c.05-.17.1-.3.14-.46l.84-.22.06,0a.63.63,0,0,0,.16-.31,1.7,1.7,0,0,0,0-.63l-.28-1.92c0-.15.07-.34.12-.51l.84-.65a.79.79,0,0,0,.21-.47,1.61,1.61,0,0,0,0-.62l-.43-1.66a5.11,5.11,0,0,0,.07-.58l.82-1a1.14,1.14,0,0,0,.17-.53,1.22,1.22,0,0,0,0-.59l-.57-1.33c0-.19,0-.36.05-.56l.76-1.44a1.33,1.33,0,0,0,.13-.6.93.93,0,0,0-.09-.52l-.67-.95c0-.18,0-.37,0-.53l.68-1.75a1.58,1.58,0,0,0,.09-.62c0-.21-.07-.4-.15-.43l-.77-.53c0-.17,0-.36,0-.49l.55-2a1.42,1.42,0,0,0,0-.64c0-.21-.09-.34-.17-.33l-.83-.09c0-.16,0-.31-.08-.47l.43-2.16a1.72,1.72,0,0,0,0-.64c0-.18-.12-.24-.21-.2l-.85.38c0-.13-.07-.26-.11-.42l.27-2.25a1.23,1.23,0,0,0-.05-.59c-.06-.15-.14-.17-.23-.1l-.84.79a2.64,2.64,0,0,0-.14-.29l.11-2.24a.93.93,0,0,0-.09-.53c-.05-.08-.11-.09-.17,0l-.06.08-.8,1.18c-.05-.08-.11-.12-.17-.2l-.06-2.16a.68.68,0,0,0-.13-.45.09.09,0,0,0-.15,0,.53.53,0,0,0-.1.13l-.73,1.54a.35.35,0,0,0-.2-.07l-.22-2c0-.2-.08-.34-.16-.37a.1.1,0,0,0-.1,0,.53.53,0,0,0-.14.23l-.63,1.84a1.64,1.64,0,0,1-.22,0L719.7,170c0-.19-.12-.29-.2-.24l0,0a.67.67,0,0,0-.17.34l-.49,2a.57.57,0,0,1-.22.11l-.52-1.45c-.06-.14-.13-.2-.22-.13" transform="translate(-3.83 -51.65)"/><path class="cls-5" d="M740.54,143.11a.35.35,0,0,0-.06.09.91.91,0,0,0-.07.5,21.77,21.77,0,0,1-.15,5.45,23.61,23.61,0,0,1-1.22,4.18,36.56,36.56,0,0,0-2.08,8.08c-.69,5.72,2.25,8.82,2.38,9h.09l.09-.17a.9.9,0,0,0,0-.51,35.39,35.39,0,0,1-1.28-7.54,19.76,19.76,0,0,1,1.21-5.2,47.43,47.43,0,0,0,1.62-6.14,15.16,15.16,0,0,0-.42-7.63c0-.08-.08-.1-.13-.06" transform="translate(-3.83 -51.65)"/><path class="cls-5" d="M742.56,151.39a.43.43,0,0,0,0,.07c-.14.26-3.39,6.46-3.23,10.48a9.9,9.9,0,0,0,1,4.6,3.52,3.52,0,0,1,.33.85,15.68,15.68,0,0,1-.13,3.26.62.62,0,0,0,.06.42h.1l.08-.14a16.87,16.87,0,0,0,1-6.52,8.7,8.7,0,0,0-.61-2.24,5.12,5.12,0,0,1-.32-3.27,61.7,61.7,0,0,1,1.92-6.9,1.07,1.07,0,0,0,0-.53c0-.11-.09-.13-.15-.09" transform="translate(-3.83 -51.65)"/><path class="cls-5" d="M737.52,171.78c-.46.4-2.8,2.48-3,4.57a2.76,2.76,0,0,0,.13,1.21c.42,1,1.75.58,3.74-1.12.27-.22.56-.48.85-.75a16.78,16.78,0,0,0,4.3-6.69,1,1,0,0,0,0-.5c0-.1-.08-.13-.13-.09l0,.05a26,26,0,0,1-4.64,5c-1.62,1.38-2.46,1.79-2.67,1.74a9.51,9.51,0,0,1,1.48-2.72.91.91,0,0,0,.11-.52c0-.19-.09-.28-.17-.22" transform="translate(-3.83 -51.65)"/><path class="cls-5" d="M745.11,164.67a7,7,0,0,0-1.27,2,1,1,0,0,0-.06.49c0,.16.09.23.16.17s1.4-1.17,1.61.74c.18,1.65-1.13,5.68-1.65,7.09a1.08,1.08,0,0,0,0,.53c0,.12.09.17.15.11l0,0c.13-.19,3.17-4.58,2.66-8.91-.32-2.65-1-2.65-1.59-2.18" transform="translate(-3.83 -51.65)"/><path class="cls-5" d="M737.07,177.76l0,0a4.63,4.63,0,0,0-1,2.83c.1,1.4,1.43,1,2.54.27a3.72,3.72,0,0,0,.51-.38,30.29,30.29,0,0,0,4.14-5.06.72.72,0,0,0,.1-.39.45.45,0,0,0-.07-.33l-.8-.71-.13.06a24,24,0,0,1-1.89,2.48A14,14,0,0,1,739,178c-1.14,1-1.88,1.25-2,1.09l0-.11a2.21,2.21,0,0,1,.18-.53,1,1,0,0,0,.07-.55c0-.15-.09-.21-.15-.15" transform="translate(-3.83 -51.65)"/><path class="cls-5" d="M737.71,182.3a3.39,3.39,0,0,0-1,2.42,2.43,2.43,0,0,0,.19,1c.36.68,1.23.52,2.68-.49a5.93,5.93,0,0,0,.51-.4,14,14,0,0,0,3.06-4.17,1.18,1.18,0,0,0,.07-.39c0-.14,0-.26-.09-.29l-1-.66-.11.05s-.59.83-1.48,1.91a5.31,5.31,0,0,1-.63.62,4.4,4.4,0,0,1-2.13,1.17l0-.18a1,1,0,0,0,0-.49c0-.14-.09-.19-.16-.13" transform="translate(-3.83 -51.65)"/><path class="cls-5" d="M736.35,186.85l0,0-.16.17c-1.18,1.19-2.53,2.77-2.54,4.37a2.38,2.38,0,0,0,.22,1.14c.35.64,1.32,1.07,5.59-2.56s6.36-7.38,6.74-9a3.7,3.7,0,0,0,.12-1.21c-.06-.61-.3-.82-.33-.83s-.06,0-.09,0a.54.54,0,0,0-.11.23.9.9,0,0,0,0,.5.67.67,0,0,1,0,.46,23.85,23.85,0,0,1-4.75,6.14c-.4.4-.81.77-1.24,1.14-2.6,2.21-4.55,2.94-4.82,2.61a9.34,9.34,0,0,1,1.44-2.5.89.89,0,0,0,.11-.54c0-.17-.09-.25-.17-.19" transform="translate(-3.83 -51.65)"/><path class="cls-5" d="M747,180.69a.56.56,0,0,0-.11.22,16,16,0,0,1-2.42,4.84,26.49,26.49,0,0,1-4,4c-2,1.67-3.84,3.06-3.86,3.07h0a.72.72,0,0,0-.13.46c0,.2.05.34.13.33a13.19,13.19,0,0,0,4.7-2.79,25.46,25.46,0,0,0,3.68-3.94,10.84,10.84,0,0,0,2.21-5.89c0-.17,0-.3-.11-.33l-.06,0" transform="translate(-3.83 -51.65)"/><path class="cls-5" d="M670.77,219c-.2.17-.38-.11-.4-.6a1.79,1.79,0,0,1,.32-1.22c.2-.17.38.09.4.6a1.86,1.86,0,0,1-.32,1.22m2-8.49-.61.52c-1.6,1.37-2.77,5.77-2.6,9.86,0,.6.23.93.47.73l2.75-2.34.07,1.78-4.23,3.6c-1.61,1.37-2.77,5.78-2.61,9.86l.07,1.56c.16,4.08,1.6,6.28,3.19,4.92l.56-.47a2.16,2.16,0,0,0,.38-1.47L670,234a2.18,2.18,0,0,1,.39-1.47l5.62-4.79a2.18,2.18,0,0,0,.39-1.47l-.44-10.86c-.16-4.09-1.59-6.27-3.2-4.91" transform="translate(-3.83 -51.65)"/><path class="cls-5" d="M676.43,244.05c-.19.17-.37-.1-.39-.61a1.76,1.76,0,0,1,.32-1.21c.2-.17.37.1.39.6a1.79,1.79,0,0,1-.32,1.22m1.46-23.82-.55.47a2.12,2.12,0,0,0-.39,1.47l.2,5.05a2.19,2.19,0,0,1-.39,1.47l-5.62,4.78a2.21,2.21,0,0,0-.39,1.48l.44,10.85c.16,4.09,1.6,6.28,3.2,4.92l.61-.53c1.61-1.36,2.77-5.77,2.61-9.85,0-.6-.24-.94-.48-.73L674.38,242l-.07-1.78,4.23-3.61c1.61-1.36,2.77-5.77,2.61-9.85l-.07-1.56c-.16-4.08-1.59-6.29-3.19-4.92" transform="translate(-3.83 -51.65)"/><path class="cls-5" d="M758.23,154l-.07.06h0l0,0a2.93,2.93,0,0,0-.73,1.22,3.56,3.56,0,0,0-.19,1.06c0,.11,0,.19.1.18l0,0v.07a.7.7,0,0,0,.13.49l.11-.07a1.86,1.86,0,0,0,.44-.82,2,2,0,0,1,.17-.36c.07-.12.08-.14.08-.56l0-.32v-.17l0-.79" transform="translate(-3.83 -51.65)"/><path class="cls-5" d="M758.14,153.88a3.21,3.21,0,0,0-.8,1.32,3.81,3.81,0,0,0-.22,1.3c0,.17.07.28.14.31,0,.3.08.52.19.57a.18.18,0,0,0,.15,0,3.11,3.11,0,0,0,.5-1,1.35,1.35,0,0,1,.15-.32.56.56,0,0,1,0-.08c0-.15,0-.29,0-.44l0-.7V155l0,.32c0,.42,0,.44-.08.56a2,2,0,0,0-.17.36,1.86,1.86,0,0,1-.44.82l-.11.07a.7.7,0,0,1-.13-.49v-.07l0,0c-.05,0-.09-.07-.1-.18a3.56,3.56,0,0,1,.19-1.06,2.93,2.93,0,0,1,.73-1.22l0,0h0l.07-.06a1.48,1.48,0,0,1,0-.21.24.24,0,0,0-.08.06" transform="translate(-3.83 -51.65)"/><path class="cls-5" d="M758,135.73a2.44,2.44,0,0,0-.59,1,7.29,7.29,0,0,0-.44,3.14c.09.83.37,1.29.82,1.3,0-.29,0-.58.06-.87a23.53,23.53,0,0,1,.83-4.62.57.57,0,0,0-.67.1h0" transform="translate(-3.83 -51.65)"/><path class="cls-5" d="M758,135.5a2.58,2.58,0,0,0-.66,1.06,8.06,8.06,0,0,0-.48,3.41c.1.91.41,1.4.89,1.41,0-.08,0-.17,0-.25-.45,0-.73-.47-.82-1.3a7.29,7.29,0,0,1,.44-3.14,2.44,2.44,0,0,1,.59-1h0a.57.57,0,0,1,.67-.1l.07-.22a.55.55,0,0,0-.73.08" transform="translate(-3.83 -51.65)"/><path class="cls-5" d="M766.88,127.58a2.72,2.72,0,0,0-.65,1.12,5.49,5.49,0,0,1,.93,1.93c.13.54.24,1.11.34,1.7a5.73,5.73,0,0,0,.65-2.69c0-1.11-.28-1.95-.69-2.18a.52.52,0,0,0-.58.12" transform="translate(-3.83 -51.65)"/><path class="cls-5" d="M766.88,127.37a2.86,2.86,0,0,0-.73,1.24l.08.09a2.72,2.72,0,0,1,.65-1.12.52.52,0,0,1,.58-.12c.41.23.67,1.07.69,2.18a5.73,5.73,0,0,1-.65,2.69c0,.06,0,.13,0,.19a6.3,6.3,0,0,0,.71-2.94c0-1.2-.31-2.11-.75-2.34a.54.54,0,0,0-.62.13" transform="translate(-3.83 -51.65)"/><path class="cls-5" d="M767.88,163.31a17.37,17.37,0,0,1-.68,1.9,1.4,1.4,0,0,1,.46.6c.13.37.32.56.55.55a1.26,1.26,0,0,0,.23-.48l-.06-.28a2.16,2.16,0,0,0-.21-.65v-.15l.07-.07a2.06,2.06,0,0,1,.23.69l.06.24a2.31,2.31,0,0,0,.1-.75,2.23,2.23,0,0,0-.74-1.6" transform="translate(-3.83 -51.65)"/><path class="cls-5" d="M767.2,165.21l-.1.24a1,1,0,0,1,.5.58c.19.34.39.71.61.55l0,0a1.31,1.31,0,0,0,.28-.57l0,0,0-.09a1.26,1.26,0,0,1-.23.48c-.23,0-.42-.18-.55-.55a1.4,1.4,0,0,0-.46-.6M768,163c0,.1-.06.19-.08.29a2.23,2.23,0,0,1,.74,1.6,2.31,2.31,0,0,1-.1.75l0,.11v.13h0a2.88,2.88,0,0,0,.2-1.13A2.39,2.39,0,0,0,768,163" transform="translate(-3.83 -51.65)"/><path class="cls-5" d="M768.23,164.73l-.07.07V165a2.16,2.16,0,0,1,.21.65l.06.28,0,.09,0,0h0l0-.06v-.17l0-.11-.06-.24a2.06,2.06,0,0,0-.23-.69" transform="translate(-3.83 -51.65)"/><path class="cls-5" d="M760,170.3l0,0-.11.31c-.34,1-.76,2.1-.45,2.89l.05.05h0a4.82,4.82,0,0,1,.11-.86,4.21,4.21,0,0,0,.09-.49l.06-.12,0,.14a4.51,4.51,0,0,1-.09.53,4.7,4.7,0,0,0-.1.83c0,.14.11.23.19.23l.06,0a1,1,0,0,0,.2-.35,8.69,8.69,0,0,0,.35-1A7.25,7.25,0,0,1,761,171a1.86,1.86,0,0,1-1-.67" transform="translate(-3.83 -51.65)"/><path class="cls-5" d="M760,170.22l-.11.31c-.33.91-.84,2.3-.47,3.23,0,.08.09.1.14.07.06.19.15.29.25.28l.08-.07a1,1,0,0,0,.25-.37,10.32,10.32,0,0,0,.37-1.07,5.28,5.28,0,0,1,.63-1.5l.08-.07v0l-.18,0a7.25,7.25,0,0,0-.59,1.46,8.69,8.69,0,0,1-.35,1,1,1,0,0,1-.2.35l-.06,0c-.08,0-.15-.09-.19-.23v0l0,.15h0l-.06-.06v-.16h0l-.05-.05c-.31-.79.11-1.94.45-2.89l.11-.31,0,0a.27.27,0,0,1-.07-.08" transform="translate(-3.83 -51.65)"/><path class="cls-5" d="M759.75,172.1l-.06.12a4.21,4.21,0,0,1-.09.49,4.82,4.82,0,0,0-.11.86v.16l.06.06h0l0-.15v0a4.7,4.7,0,0,1,.1-.83,4.51,4.51,0,0,0,.09-.53l0-.14" transform="translate(-3.83 -51.65)"/><path class="cls-5" d="M768.43,145.18c0,.21,0,.42,0,.62,0,.4,0,.78.08,1.16a.34.34,0,0,1,.12.06.3.3,0,0,0,.47,0l.11-.1a1.72,1.72,0,0,0,.08-.68v-.08l0,0a.91.91,0,0,0-.18-1,.55.55,0,0,0-.75,0" transform="translate(-3.83 -51.65)"/><path class="cls-5" d="M768.41,145c0,.08,0,.16,0,.23a.55.55,0,0,1,.75,0,.91.91,0,0,1,.18,1l0,0v.08a1.72,1.72,0,0,1-.08.68l-.11.1a.3.3,0,0,1-.47,0,.34.34,0,0,0-.12-.06v.25l.09,0a.44.44,0,0,0,.52,0l0,0a.57.57,0,0,0,.13-.19,2.09,2.09,0,0,0,.14-.84,1.43,1.43,0,0,0,.1-.53,1.27,1.27,0,0,0-.31-.84.64.64,0,0,0-.85.08" transform="translate(-3.83 -51.65)"/><path class="cls-5" d="M762,139.73a3.13,3.13,0,0,1,.57-2,1.45,1.45,0,0,1,.16-.18c.32-.27.66-.22.77.4a2.44,2.44,0,0,1,0,.47,1,1,0,0,1,.66.93,2.71,2.71,0,0,1-.37,1.74l0,0a.46.46,0,0,1-.21.08l0,.41c0,.44.06.9.06,1.39v0a1.75,1.75,0,0,1-.24.66l-.07.13,0,0h0c-.16.08-.3,0-.38-.3a2,2,0,0,1-.36.86l-.15,0a3.33,3.33,0,0,1-.34-1.95h0c-.15.12-.29.1-.4-.23a3.16,3.16,0,0,1,0-1.36,3.28,3.28,0,0,1,.38-1.17m-1.4,1.39a.81.81,0,0,1-.83.21c-.38-.17-.68-.78-.81-1.68a9.2,9.2,0,0,1,.35-4.05,4.5,4.5,0,0,1,1.1-1.91.92.92,0,0,1,.74-.26c.53.1.91,1,1,2.36a8,8,0,0,1-1.23,5,2,2,0,0,1-.29.29m3.91-3.76a.81.81,0,0,1-.57.24c-.55,0-1-.77-1.12-2a10.27,10.27,0,0,1,.3-3.21,5.89,5.89,0,0,1,1-2.19,1.66,1.66,0,0,1,.25-.27.78.78,0,0,1,.84-.19,2.41,2.41,0,0,1,.78,1.74,9,9,0,0,1-.27,3.79,4.7,4.7,0,0,1-1.14,2.08l0,0,0,0m-1.94-8-.28.26c-2,2.1-3.87,4.8-4.38,10.58a58.84,58.84,0,0,0,.17,9.83c.15,1.73.26,3.51.32,5.33,0,.87,0,1.8,0,2.78,0,3.86.06,8.25,1,10.63.38,1,1.55,3.12,4.24,1a3.3,3.3,0,0,0,.33-.27c1.3-1.1,3.69-3.84,4.48-9.33a63.76,63.76,0,0,0,0-13.1c0-.45-.06-.86-.08-1.28-.09-1.39-.16-2.85-.22-4.28a58.8,58.8,0,0,0-1.08-10.79c-.47-1.62-1.22-2.54-2.09-2.55a4.44,4.44,0,0,0-2.42,1.14" transform="translate(-3.83 -51.65)"/><path class="cls-5" d="M763.94,169.58a3.3,3.3,0,0,1-.33.27c-2.69,2.07-3.86,0-4.24-1-.89-2.38-.92-6.77-1-10.63,0-1,0-1.91,0-2.78-.06-1.82-.17-3.6-.32-5.33a58.84,58.84,0,0,1-.17-9.83c.51-5.78,2.4-8.48,4.38-10.58l.28-.26a4.44,4.44,0,0,1,2.42-1.14c.87,0,1.62.93,2.09,2.55a58.8,58.8,0,0,1,1.08,10.79c.06,1.43.13,2.89.22,4.28,0,.42.06.83.08,1.28a63.76,63.76,0,0,1,0,13.1c-.79,5.49-3.18,8.23-4.48,9.33m-1.55-40.24-.14.12a14.64,14.64,0,0,0-2.81,4,15.88,15.88,0,0,0-.74,1.93l-.07.22a23.53,23.53,0,0,0-.83,4.62c0,.29,0,.58-.06.87,0,.08,0,.17,0,.25a63.35,63.35,0,0,0,.26,8.83c.1,1.18.18,2.38.24,3.61a1.48,1.48,0,0,0,0,.21l0,.79,0,.7c0,.15,0,.29,0,.44,0,.73,0,1.52,0,2.33,0,3.9.06,8.31,1,10.75a4.81,4.81,0,0,0,.65,1.18.27.27,0,0,0,.07.08,1.86,1.86,0,0,0,1,.67l.18,0h.11a3.46,3.46,0,0,0,2.35-.85l.33-.28a12.26,12.26,0,0,0,3.15-4.43l.1-.24a17.37,17.37,0,0,0,.68-1.9c0-.1,0-.19.08-.29a21.06,21.06,0,0,0,.55-2.7,62.52,62.52,0,0,0,0-13.11V147c0-.38-.07-.76-.08-1.16,0-.2,0-.41,0-.62s0-.15,0-.23c-.07-1.14-.11-2.31-.16-3.45a81.32,81.32,0,0,0-.71-9c0-.06,0-.13,0-.19-.1-.59-.21-1.16-.34-1.7a5.49,5.49,0,0,0-.93-1.93l-.08-.09c-1.06-1.16-2.41-.42-3.76.73" transform="translate(-3.83 -51.65)"/><path class="cls-6" d="M763.71,135.83c-.26.22-.49-.16-.52-.85a2.47,2.47,0,0,1,.42-1.64c.25-.21.48.17.51.86a2.5,2.5,0,0,1-.41,1.63m.71-5.78a2.22,2.22,0,0,0-.28.31c-.81.86-1.36,3.11-1.23,5.08.12,1.2.53,1.95,1,1.93a1,1,0,0,0,.59-.27,4.37,4.37,0,0,0,1.11-2,8.38,8.38,0,0,0,.25-3.53c-.21-1.47-.83-2.06-1.48-1.51" transform="translate(-3.83 -51.65)"/><path class="cls-5" d="M764.54,137.1a1,1,0,0,1-.59.27c-.51,0-.92-.73-1-1.93-.13-2,.42-4.22,1.23-5.08a2.22,2.22,0,0,1,.28-.31c.65-.55,1.27,0,1.48,1.51a8.38,8.38,0,0,1-.25,3.53,4.37,4.37,0,0,1-1.11,2m-.17-7.22a1.66,1.66,0,0,0-.25.27,5.89,5.89,0,0,0-1,2.19,10.27,10.27,0,0,0-.3,3.21c.14,1.28.57,2.08,1.12,2a.81.81,0,0,0,.57-.24l0,0,0,0a4.7,4.7,0,0,0,1.14-2.08,9,9,0,0,0,.27-3.79,2.41,2.41,0,0,0-.78-1.74.78.78,0,0,0-.84.19" transform="translate(-3.83 -51.65)"/><path class="cls-6" d="M759.78,139.5c-.26.22-.49-.16-.52-.85a2.41,2.41,0,0,1,.42-1.64c.26-.23.49.15.52.84a2.46,2.46,0,0,1-.42,1.65m.64-5.58a4.37,4.37,0,0,0-1,1.82,8.92,8.92,0,0,0-.33,3.79c.23,1.45.86,2,1.51,1.47a2.19,2.19,0,0,0,.32-.38,7.34,7.34,0,0,0,1.17-4.71c-.06-1.25-.42-2.13-.91-2.23a.91.91,0,0,0-.71.24" transform="translate(-3.83 -51.65)"/><path class="cls-5" d="M760.55,141c-.65.55-1.28,0-1.51-1.47a8.92,8.92,0,0,1,.33-3.79,4.37,4.37,0,0,1,1-1.82.91.91,0,0,1,.71-.24c.49.1.85,1,.91,2.23a7.34,7.34,0,0,1-1.17,4.71,2.19,2.19,0,0,1-.32.38m-.15-7.31a4.5,4.5,0,0,0-1.1,1.91,9.2,9.2,0,0,0-.35,4.05c.13.9.43,1.51.81,1.68a.81.81,0,0,0,.83-.21,2,2,0,0,0,.29-.29,8,8,0,0,0,1.23-5c-.06-1.33-.44-2.26-1-2.36a.92.92,0,0,0-.74.26" transform="translate(-3.83 -51.65)"/><path class="cls-5" d="M762.93,141.25l0,0a4.34,4.34,0,0,1,0,.51c0,.51,0,1,.06,1.49v0c.06.25.19.36.32.31l.07-.13a1.46,1.46,0,0,0,.18-.5c0-.44,0-.88,0-1.29,0-.16,0-.33,0-.49l-.09,0a.49.49,0,0,0-.43.08" transform="translate(-3.83 -51.65)"/><path class="cls-6" d="M762.9,141.27l0,0a3.08,3.08,0,0,1,0,.43c0,.53,0,1,.06,1.52v.08a2.07,2.07,0,0,0,0,.22c.08.26.22.38.38.3h0l0,0,.07-.13a1.75,1.75,0,0,0,.24-.66v0c0-.49,0-1-.06-1.39l0-.41h-.09c0,.16,0,.33,0,.49,0,.41,0,.85,0,1.29a1.46,1.46,0,0,1-.18.5l-.07.13c-.13.05-.26-.06-.32-.31v0c0-.48-.06-1-.06-1.49a4.34,4.34,0,0,0,0-.51" transform="translate(-3.83 -51.65)"/><path class="cls-5" d="M760,138.67c-.06.05-.12,0-.13-.22a.63.63,0,0,1,.1-.42c.06-.05.12.05.13.23a.66.66,0,0,1-.1.41m-.29-1.66a2.41,2.41,0,0,0-.42,1.64c0,.69.26,1.07.52.85a2.46,2.46,0,0,0,.42-1.65c0-.69-.26-1.07-.52-.84" transform="translate(-3.83 -51.65)"/><path class="cls-5" d="M759.94,138a.63.63,0,0,0-.1.42c0,.18.07.27.13.22a.66.66,0,0,0,.1-.41c0-.18-.07-.28-.13-.23" transform="translate(-3.83 -51.65)"/><path class="cls-5" d="M763.89,135c-.06.05-.12,0-.12-.22a.61.61,0,0,1,.09-.41c.06-.06.12,0,.13.22a.68.68,0,0,1-.1.41m-.28-1.67a2.47,2.47,0,0,0-.42,1.64c0,.69.26,1.07.52.85a2.5,2.5,0,0,0,.41-1.63c0-.69-.26-1.07-.51-.86" transform="translate(-3.83 -51.65)"/><path class="cls-5" d="M763.86,134.38a.61.61,0,0,0-.09.41c0,.18.06.27.12.22a.68.68,0,0,0,.1-.41c0-.18-.07-.28-.13-.22" transform="translate(-3.83 -51.65)"/><path class="cls-5" d="M762.76,141.42a2.44,2.44,0,0,0-.26.43,3.73,3.73,0,0,1-.34.53,3.2,3.2,0,0,0,.29,1.8.08.08,0,0,0,.09,0,2.16,2.16,0,0,0,.3-.83c0-.48-.07-1-.07-1.52,0-.12,0-.25,0-.39" transform="translate(-3.83 -51.65)"/><path class="cls-6" d="M762.88,141.29l-.12.13c0,.14,0,.27,0,.39,0,.53,0,1,.07,1.52a2.16,2.16,0,0,1-.3.83.08.08,0,0,1-.09,0,3.2,3.2,0,0,1-.29-1.8l-.1.11a3.33,3.33,0,0,0,.34,1.95l.15,0a2,2,0,0,0,.36-.86,2.07,2.07,0,0,1,0-.22v-.08c0-.48-.06-1-.06-1.52a3.08,3.08,0,0,0,0-.43" transform="translate(-3.83 -51.65)"/><path class="cls-5" d="M763.47,138.64a2.68,2.68,0,0,1-.07.27,2.38,2.38,0,0,1-.7,1.15.67.67,0,0,1-.39.19c-.14,0-.24-.11-.29-.3a2.85,2.85,0,0,0-.3,1,2.61,2.61,0,0,0,0,1.13c.09.25.2.27.32.17a2.69,2.69,0,0,0,.4-.59,2,2,0,0,1,.45-.62.5.5,0,0,1,.46-.08.41.41,0,0,0,.36-.05,1,1,0,0,0,.25-.54,2.42,2.42,0,0,0,.08-.88,1,1,0,0,0-.61-.82" transform="translate(-3.83 -51.65)"/><path class="cls-6" d="M763.5,138.4l0,.24a1,1,0,0,1,.61.82,2.42,2.42,0,0,1-.08.88,1,1,0,0,1-.25.54.41.41,0,0,1-.36.05.5.5,0,0,0-.46.08,2,2,0,0,0-.45.62,2.69,2.69,0,0,1-.4.59c-.12.1-.23.08-.32-.17a2.61,2.61,0,0,1,0-1.13,2.85,2.85,0,0,1,.3-1l0-.19v0h0a3.28,3.28,0,0,0-.38,1.17,3.16,3.16,0,0,0,0,1.36c.11.33.25.35.4.23h0l.1-.11a3.73,3.73,0,0,0,.34-.53,2.44,2.44,0,0,1,.26-.43l.12-.13,0,0,0,0a.49.49,0,0,1,.43-.08l.09,0h.09a.46.46,0,0,0,.21-.08l0,0a2.71,2.71,0,0,0,.37-1.74,1,1,0,0,0-.66-.93" transform="translate(-3.83 -51.65)"/><path class="cls-5" d="M762.75,137.85l-.16.17a2.41,2.41,0,0,0-.47,1.59c0,.24.13.29.22.29a.63.63,0,0,0,.35-.16,2.26,2.26,0,0,0,.61-1,1.5,1.5,0,0,0,.06-.62c-.08-.47-.35-.5-.61-.28" transform="translate(-3.83 -51.65)"/><path class="cls-6" d="M762.69,139.74a.63.63,0,0,1-.35.16c-.09,0-.19-.05-.22-.29a2.41,2.41,0,0,1,.47-1.59l.16-.17c.26-.22.53-.19.61.28a1.5,1.5,0,0,1-.06.62,2.26,2.26,0,0,1-.61,1m0-2.21a1.45,1.45,0,0,0-.16.18,3.13,3.13,0,0,0-.57,2h0v0l0,.19c.05.19.15.29.29.3a.67.67,0,0,0,.39-.19,2.38,2.38,0,0,0,.7-1.15,2.68,2.68,0,0,0,.07-.27l0-.24a2.44,2.44,0,0,0,0-.47c-.11-.62-.45-.67-.77-.4" transform="translate(-3.83 -51.65)"/></g></g><line class="cls-44" x1="755.97" y1="129.91" x2="756.47" y2="129.91"/><line class="cls-45" x1="764.92" y1="129.91" x2="789.21" y2="129.91"/><line class="cls-44" x1="793.43" y1="129.91" x2="793.93" y2="129.91"/><polygon class="cls-5" points="787.96 135 793.04 129.91 787.96 124.83 792.27 124.83 797.36 129.91 792.27 135 787.96 135"/><line class="cls-44" x1="730.23" y1="151.18" x2="730.73" y2="151.18"/><line class="cls-45" x1="739.18" y1="151.18" x2="763.47" y2="151.18"/><line class="cls-44" x1="767.69" y1="151.18" x2="768.19" y2="151.18"/><polygon class="cls-5" points="762.22 156.26 767.31 151.18 762.22 146.09 766.54 146.09 771.62 151.18 766.54 156.26 762.22 156.26"/><line class="cls-44" x1="694.57" y1="188.94" x2="695.07" y2="188.94"/><line class="cls-45" x1="703.52" y1="188.94" x2="727.8" y2="188.94"/><line class="cls-44" x1="732.03" y1="188.94" x2="732.53" y2="188.94"/><polygon class="cls-5" points="726.55 194.03 731.64 188.94 726.55 183.85 730.87 183.85 735.96 188.94 730.87 194.03 726.55 194.03"/><line class="cls-44" x1="58.6" y1="95.55" x2="59.1" y2="95.55"/><line class="cls-46" x1="67.93" y1="95.55" x2="83.38" y2="95.55"/><line class="cls-44" x1="87.8" y1="95.55" x2="88.3" y2="95.55"/><polygon class="cls-5" points="82.32 100.63 87.41 95.55 82.32 90.46 86.64 90.46 91.73 95.55 86.64 100.63 82.32 100.63"/><line class="cls-44" x1="31.76" y1="121.07" x2="32.26" y2="121.07"/><line class="cls-47" x1="40.61" y1="121.07" x2="55.23" y2="121.07"/><line class="cls-44" x1="59.4" y1="121.07" x2="59.9" y2="121.07"/><polygon class="cls-5" points="53.93 126.16 59.02 121.07 53.93 115.98 58.25 115.98 63.33 121.07 58.25 126.16 53.93 126.16"/><line class="cls-44" x1="1.5" y1="144.76" x2="2" y2="144.76"/><line class="cls-47" x1="10.35" y1="144.76" x2="24.97" y2="144.76"/><line class="cls-44" x1="29.14" y1="144.76" x2="29.64" y2="144.76"/><polygon class="cls-5" points="23.67 149.84 28.76 144.76 23.67 139.67 27.99 139.67 33.07 144.76 27.99 149.84 23.67 149.84"/><line class="cls-9" x1="468.63" y1="119.08" x2="468.13" y2="119.06"/><line class="cls-48" x1="462.87" y1="118.91" x2="447.07" y2="118.46"/><line class="cls-9" x1="444.44" y1="118.39" x2="443.94" y2="118.37"/><line class="cls-9" x1="671.43" y1="123.94" x2="670.93" y2="123.93"/><line class="cls-49" x1="665.25" y1="123.82" x2="615.1" y2="122.84"/><line class="cls-9" x1="612.26" y1="122.79" x2="611.76" y2="122.78"/><line class="cls-50" x1="331.39" y1="152.64" x2="331.4" y2="153.64"/><line class="cls-51" x1="331.42" y1="155.53" x2="331.66" y2="177.21"/><line class="cls-50" x1="331.67" y1="178.15" x2="331.68" y2="179.15"/><line class="cls-50" x1="307.99" y1="170.55" x2="308" y2="171.55"/><line class="cls-51" x1="308.02" y1="173.43" x2="308.26" y2="195.11"/><line class="cls-50" x1="308.27" y1="196.05" x2="308.28" y2="197.05"/><line class="cls-50" x1="176.57" y1="168.93" x2="176.58" y2="169.93"/><line class="cls-51" x1="176.6" y1="171.82" x2="176.84" y2="193.49"/><line class="cls-50" x1="176.85" y1="194.44" x2="176.86" y2="195.44"/><line class="cls-50" x1="199.23" y1="168.23" x2="199.24" y2="169.23"/><line class="cls-52" x1="199.26" y1="170.65" x2="199.28" y2="172.77"/><line class="cls-50" x1="199.29" y1="173.48" x2="199.3" y2="174.48"/><line class="cls-50" x1="460.5" y1="130.61" x2="460.51" y2="131.61"/><line class="cls-51" x1="460.53" y1="133.5" x2="460.77" y2="155.18"/><line class="cls-50" x1="460.78" y1="156.12" x2="460.79" y2="157.12"/><line class="cls-50" x1="592.21" y1="133.23" x2="592.23" y2="134.23"/><line class="cls-53" x1="592.25" y1="136.35" x2="592.47" y2="156.49"/><line class="cls-50" x1="592.48" y1="157.56" x2="592.49" y2="158.56"/><line class="cls-50" x1="615.32" y1="114.46" x2="615.33" y2="115.46"/><line class="cls-51" x1="615.35" y1="117.34" x2="615.59" y2="139.02"/><line class="cls-50" x1="615.6" y1="139.96" x2="615.61" y2="140.96"/><line class="cls-50" x1="483.24" y1="130.34" x2="483.25" y2="131.34"/><line class="cls-54" x1="483.26" y1="132.53" x2="483.28" y2="134.3"/><line class="cls-50" x1="483.29" y1="134.89" x2="483.3" y2="135.89"/><line class="cls-50" x1="271.84" y1="100.23" x2="271.85" y2="101.23"/><line class="cls-51" x1="271.87" y1="103.12" x2="272.11" y2="124.8"/><line class="cls-50" x1="272.12" y1="125.74" x2="272.13" y2="126.74"/><line class="cls-50" x1="403.99" y1="103.16" x2="404.01" y2="104.16"/><line class="cls-51" x1="404.03" y1="106.05" x2="404.26" y2="127.73"/><line class="cls-50" x1="404.27" y1="128.67" x2="404.28" y2="129.67"/><line class="cls-50" x1="427.07" y1="85.63" x2="427.08" y2="86.63"/><line class="cls-51" x1="427.1" y1="88.51" x2="427.34" y2="110.19"/><line class="cls-50" x1="427.35" y1="111.14" x2="427.36" y2="112.14"/><line class="cls-50" x1="294.36" y1="100.27" x2="294.37" y2="101.27"/><line class="cls-55" x1="294.39" y1="103.18" x2="294.42" y2="106.05"/><line class="cls-50" x1="294.43" y1="107" x2="294.44" y2="108"/></svg>