<?xml version="1.0" encoding="UTF-8" standalone="no"?>
<!DOCTYPE svg PUBLIC "-//W3C//DTD SVG 1.1//EN" "http://www.w3.org/Graphics/SVG/1.1/DTD/svg11.dtd">
<svg width="100%" height="100%" viewBox="0 0 1200 800" version="1.1" xmlns="http://www.w3.org/2000/svg" xmlns:xlink="http://www.w3.org/1999/xlink" xml:space="preserve" xmlns:serif="http://www.serif.com/" style="fill-rule:evenodd;clip-rule:evenodd;stroke-linejoin:round;stroke-miterlimit:1.41421;">
    <g id="Layer-1" serif:id="Layer 1">
        <g transform="matrix(1,0,0,1,597.344,637.02)">
            <path d="M0,-279.559C-121.238,-279.559 -231.39,-264.983 -312.939,-241.23L-312.939,-38.329C-231.39,-14.575 -121.238,0 0,0C138.76,0 262.987,-19.092 346.431,-49.186L346.431,-230.37C262.987,-260.465 138.76,-279.559 0,-279.559" style="fill:rgb(165,43,0);fill-rule:nonzero;"/>
        </g>
        <g transform="matrix(1,0,0,1,1068.75,575.642)">
            <path d="M0,-53.32L-14.211,-82.761C-14.138,-83.879 -14.08,-84.998 -14.08,-86.121C-14.08,-119.496 -48.786,-150.256 -107.177,-174.883L-107.177,2.643C-79.932,-8.849 -57.829,-21.674 -42.021,-35.482C-46.673,-16.775 -62.585,21.071 -75.271,47.686C-96.121,85.752 -103.671,118.889 -102.703,120.53C-102.086,121.563 -94.973,110.59 -84.484,92.809C-60.074,58.028 -13.82,-8.373 -4.575,-25.287C5.897,-44.461 0,-53.32 0,-53.32" style="fill:rgb(165,43,0);fill-rule:nonzero;"/>
        </g>
        <g transform="matrix(1,0,0,1,149.064,591.421)">
            <path d="M0,-99.954C0,-93.526 1.293,-87.194 3.788,-80.985L-4.723,-65.835C-4.723,-65.835 -11.541,-56.989 0.465,-38.327C11.055,-21.872 64.1,42.54 92.097,76.271C104.123,93.564 112.276,104.216 112.99,103.187C114.114,101.554 105.514,69.087 81.631,32.046C70.487,12.151 57.177,-14.206 49.189,-33.675C71.492,-19.559 100.672,-6.755 135.341,4.265L135.341,-204.17C51.797,-177.622 0,-140.737 0,-99.954" style="fill:rgb(165,43,0);fill-rule:nonzero;"/>
        </g>
        <g transform="matrix(1,0,0,1,1151.27,281.813)">
            <path d="M0,240.343L-93.415,171.532C-94.295,168.468 -95.171,165.405 -96.077,162.37L-65.394,117.919C-62.264,113.397 -61.629,107.521 -63.663,102.364C-65.7,97.234 -70.154,93.554 -75.426,92.654L-127.31,83.849C-129.318,79.747 -131.426,75.707 -133.54,71.699L-111.743,21.796C-109.5,16.709 -109.974,10.801 -112.946,6.188C-115.907,1.552 -120.936,-1.156 -126.295,-0.945L-178.951,0.968C-181.678,-2.582 -184.447,-6.1 -187.272,-9.553L-175.172,-63.043C-173.947,-68.476 -175.494,-74.161 -179.275,-78.107C-183.037,-82.039 -188.504,-83.666 -193.701,-82.39L-244.99,-69.782C-248.311,-72.717 -251.688,-75.615 -255.104,-78.455L-253.256,-133.369C-253.058,-138.928 -255.649,-144.211 -260.1,-147.294C-264.546,-150.398 -270.193,-150.867 -275.056,-148.56L-322.903,-125.813C-326.757,-128.023 -330.631,-130.213 -334.547,-132.33L-343.002,-186.445C-343.859,-191.928 -347.387,-196.584 -352.328,-198.711C-357.251,-200.848 -362.896,-200.158 -367.219,-196.903L-409.878,-164.896C-414.078,-166.291 -418.297,-167.628 -422.57,-168.907L-440.956,-220.223C-442.826,-225.452 -447.137,-229.294 -452.394,-230.374C-457.633,-231.446 -463.024,-229.632 -466.657,-225.572L-502.563,-185.401C-506.906,-185.901 -511.249,-186.357 -515.606,-186.732L-543.33,-233.445C-546.14,-238.177 -551.1,-241.057 -556.446,-241.057C-561.78,-241.057 -566.75,-238.177 -569.536,-233.445L-597.269,-186.732C-601.627,-186.357 -605.991,-185.901 -610.325,-185.401L-646.235,-225.572C-649.871,-229.632 -655.282,-231.446 -660.503,-230.374C-665.758,-229.282 -670.076,-225.452 -671.936,-220.223L-690.338,-168.907C-694.598,-167.628 -698.819,-166.28 -703.029,-164.896L-745.673,-196.903C-750.009,-200.169 -755.653,-200.858 -760.589,-198.711C-765.508,-196.584 -769.05,-191.928 -769.902,-186.445L-778.363,-132.33C-782.277,-130.213 -786.152,-128.036 -790.016,-125.813L-837.858,-148.56C-842.716,-150.876 -848.387,-150.398 -852.812,-147.294C-857.257,-144.211 -859.854,-138.928 -859.652,-133.369L-857.817,-78.455C-861.222,-75.615 -864.591,-72.717 -867.929,-69.782L-919.208,-82.39C-924.418,-83.655 -929.878,-82.039 -933.649,-78.107C-937.444,-74.161 -938.98,-68.476 -937.762,-63.043L-925.683,-9.553C-928.485,-6.086 -931.258,-2.582 -933.976,0.968L-986.631,-0.945C-991.945,-1.102 -997.017,1.552 -999.987,6.188C-1002.96,10.801 -1003.41,16.709 -1001.2,21.796L-979.384,71.699C-981.503,75.707 -983.608,79.747 -985.633,83.849L-1037.52,92.654C-1042.79,93.542 -1047.23,97.22 -1049.28,102.364C-1051.32,107.521 -1050.65,113.397 -1047.55,117.919L-1016.85,162.37C-1017.09,163.154 -1017.31,163.947 -1017.55,164.734L-1104.32,256.904C-1104.32,256.904 -1117.61,267.327 -1098.25,291.82C-1081.18,313.425 -993.526,399.072 -947.232,443.943C-927.678,466.722 -914.284,480.829 -912.883,479.609C-910.675,477.669 -922.27,436.224 -960.785,387.597C-990.47,343.968 -1029,276.864 -1019.96,269.13C-1019.96,269.13 -1009.69,256.085 -989.067,246.695C-988.314,247.298 -989.848,246.097 -989.067,246.695C-989.067,246.695 -553.915,447.427 -150.27,250.091C-104.162,241.818 -76.247,266.521 -76.247,266.521C-66.619,272.101 -91.548,341.099 -112.045,386.775C-139.926,438.638 -144.015,479.107 -141.649,480.511C-140.158,481.4 -130.015,465.966 -115.545,441.402C-79.843,391.654 -12.354,296.816 0,273.782C14.006,247.663 0,240.343 0,240.343" style="fill:rgb(247,76,0);fill-rule:nonzero;"/>
        </g>
        <g transform="matrix(1,0,0,1,450.328,483.629)">
            <path d="M0,167.33C-1.664,165.91 -2.536,165.068 -2.536,165.068L140.006,153.391C23.733,0 -69.418,122.193 -79.333,135.855L-79.333,167.33L0,167.33Z" style="fill-rule:nonzero;"/>
        </g>
        <g transform="matrix(1,0,0,1,747.12,477.333)">
            <path d="M0,171.974C1.663,170.554 2.536,169.71 2.536,169.71L-134.448,159.687C-18.12,0 69.421,126.835 79.335,140.497L79.335,171.974L0,171.974Z" style="fill-rule:nonzero;"/>
        </g>
        <g transform="matrix(1,0,0,1,966.094,811.034)">
            <path d="M0,-314.014C0,-314.014 -15.576,-251.973 -112.453,-186.776L-139.619,-180.409C-139.619,-180.409 -227.5,-340.668 -352.002,-160.075C-352.002,-160.075 -313.2,-182.666 -209.18,-155.155C-209.18,-155.155 -257.03,-81.916 -353.422,-84.166C-353.422,-84.166 -261.049,26.654 -120.482,-133.418C-120.482,-133.418 28.113,-190.881 40.164,-314.014L0,-314.014Z" style="fill:rgb(247,76,0);fill-rule:nonzero;"/>
        </g>
        <g transform="matrix(1,0,0,1,677.392,509.61)">
            <path d="M0,-92.063C0,-92.063 43.486,-139.678 86.974,-92.063C86.974,-92.063 121.144,-28.571 86.974,3.171C86.974,3.171 31.062,47.615 0,3.171C0,3.171 -37.275,-31.75 0,-92.063" style="fill-rule:nonzero;"/>
        </g>
        <g transform="matrix(1,0,0,1,727.738,435.209)">
            <path d="M0,0.002C0,18.543 -10.93,33.574 -24.408,33.574C-37.885,33.574 -48.814,18.543 -48.814,0.002C-48.814,-18.539 -37.885,-33.572 -24.408,-33.572C-10.93,-33.572 0,-18.539 0,0.002" style="fill:white;fill-rule:nonzero;"/>
        </g>
        <g transform="matrix(1,0,0,1,483.3,502.984)">
            <path d="M0,-98.439C0,-98.439 74.596,-131.467 94.956,-57.748C94.956,-57.748 116.283,28.178 33.697,33.028C33.697,33.028 -71.613,12.745 0,-98.439" style="fill-rule:nonzero;"/>
        </g>
        <g transform="matrix(1,0,0,1,520.766,436.428)">
            <path d="M0,0C0,19.119 -11.27,34.627 -25.173,34.627C-39.071,34.627 -50.344,19.119 -50.344,0C-50.344,-19.124 -39.071,-34.627 -25.173,-34.627C-11.27,-34.627 0,-19.124 0,0" style="fill:white;fill-rule:nonzero;"/>
        </g>
        <g transform="matrix(1,0,0,1,441.397,687.635)">
            <path d="M0,-25.102C91.833,-36.676 144.904,-37.754 144.904,-37.754C22.037,-199.838 -77.661,-53.098 -77.661,-53.098C-102.643,-62.03 -128.114,-96.711 -147.138,-128.688L-223.375,-151.268C-135.502,-2.127 -70.08,0.146 -70.08,0.146C66.134,174.736 130.663,34.441 130.663,34.441C54.195,25.759 0,-25.102 0,-25.102" style="fill:rgb(247,76,0);fill-rule:nonzero;"/>
        </g>
    </g>
</svg>
